<svg width="592px" height="91px" viewBox="0 0 592 91" version="1.1" xmlns="http://www.w3.org/2000/svg" xmlns:xlink="http://www.w3.org/1999/xlink">
    <g id="Page-1" stroke="none" stroke-width="1" fill="none" fill-rule="evenodd">
        <g id="Logo2">
            <circle id="Oval" fill="#FFFFFF" cx="45.5235566" cy="45.5235566" r="45.4350014"></circle>
            <ellipse id="Oval" fill="#333333" cx="45.766017" cy="45.1175795" rx="8.01000023" ry="8.01000023"></ellipse>
            <path d="M70.9261245,59.1941668 C70.0751474,62.1635561 63.2272699,73.6773013 46.5109209,74.341905 C30.2162177,74.9896966 16.8211579,61.4199839 16.8211579,45.1124075 C16.8211579,28.804831 30.0663504,15.1415473 46.3684509,15.5651145 C54.8519952,15.7854962 61.6841174,25.0982099 70.2819835,30.2133912 C74.3431943,32.6296167 68.5119165,36.3596785 65.2933247,35.2121371 C59.9305742,33.3000805 54.6109587,23.3716621 46.337805,22.0282365 C34.015449,20.0273164 23.718799,32.163491 23.718799,44.6472425 C23.718799,57.130994 33.8545338,67.1521187 46.337805,67.2662484 C54.5855965,67.3415664 61.9120885,61.2768414 64.6400571,56.2180525 C65.6956608,54.2607475 71.9131349,55.7501976 70.9261245,59.1941668 L70.9261245,59.1941668 L70.9261245,59.1941668 Z" id="Shape" stroke="#333333" stroke-width="10" fill="#333333"></path>
        </g>
        <path d="M133.160156,71 L122.884277,71 L122.884277,48.9995117 C122.884277,43.5639377 120.862813,40.8461914 116.819824,40.8461914 C113.94481,40.8461914 111.867194,41.8232324 110.586914,43.7773438 C109.306634,45.7314551 108.666504,48.8984156 108.666504,53.2783203 L108.666504,71 L98.390625,71 L98.390625,18.5761719 L108.666504,18.5761719 L108.666504,29.2563477 C108.666504,30.0874065 108.587891,32.0414885 108.430664,35.1186523 L108.194824,38.1508789 L108.733887,38.1508789 C111.024914,34.4672667 114.663549,32.6254883 119.649902,32.6254883 C124.074729,32.6254883 127.432606,33.8159061 129.723633,36.1967773 C132.01466,38.5776486 133.160156,41.991677 133.160156,46.4389648 L133.160156,71 Z M148.62002,52.0991211 C148.62002,55.8276554 149.232074,58.6464748 150.456202,60.5556641 C151.680329,62.4648533 153.673717,63.4194336 156.436426,63.4194336 C159.176674,63.4194336 161.147602,62.4704685 162.349268,60.5725098 C163.550934,58.6745511 164.151758,55.8501164 164.151758,52.0991211 C164.151758,48.3705868 163.545319,45.5742281 162.332422,43.7099609 C161.119526,41.8456938 159.131752,40.9135742 156.369043,40.9135742 C153.628795,40.9135742 151.652253,41.8400786 150.439356,43.6931152 C149.226459,45.5461518 148.62002,48.3481258 148.62002,52.0991211 L148.62002,52.0991211 Z M174.663477,52.0991211 C174.663477,58.2309877 173.046306,63.0263499 169.811914,66.4853516 C166.577523,69.9443532 162.07415,71.6738281 156.301661,71.6738281 C152.685432,71.6738281 149.49601,70.882088 146.733301,69.298584 C143.970592,67.71508 141.848055,65.4409328 140.365625,62.4760742 C138.883196,59.5112156 138.141993,56.0522659 138.141993,52.0991211 C138.141993,45.9447934 139.747934,41.1606616 142.959864,37.746582 C146.171794,34.3325025 150.686397,32.6254883 156.503809,32.6254883 C160.120038,32.6254883 163.309459,33.4116132 166.072168,34.9838867 C168.834877,36.5561602 170.957415,38.8134619 172.439844,41.7558594 C173.922273,44.6982569 174.663477,48.1459763 174.663477,52.0991211 L174.663477,52.0991211 Z M195.14336,71.6738281 C183.418692,71.6738281 177.556446,65.2388339 177.556446,52.3686523 C177.556446,45.9672531 179.151157,41.0764329 182.340626,37.6960449 C185.530095,34.3156569 190.10085,32.6254883 196.053028,32.6254883 C200.410472,32.6254883 204.318636,33.4789954 207.777637,35.1860352 L204.745411,43.137207 C203.128215,42.4858366 201.623348,41.9523947 200.230762,41.5368652 C198.838177,41.1213358 197.445613,40.9135742 196.053028,40.9135742 C190.707298,40.9135742 188.034473,44.7094347 188.034473,52.3012695 C188.034473,59.6684939 190.707298,63.3520508 196.053028,63.3520508 C198.0296,63.3520508 199.860149,63.0881374 201.544727,62.5603027 C203.229306,62.0324681 204.91386,61.2070369 206.598438,60.0839844 L206.598438,68.8774414 C204.936321,69.9331107 203.257382,70.6630839 201.561573,71.0673828 C199.865764,71.4716817 197.726381,71.6738281 195.14336,71.6738281 L195.14336,71.6738281 Z M220.205275,52.0991211 C220.205275,55.8276554 220.817329,58.6464748 222.041456,60.5556641 C223.265583,62.4648533 225.258972,63.4194336 228.021681,63.4194336 C230.761929,63.4194336 232.732856,62.4704685 233.934523,60.5725098 C235.136189,58.6745511 235.737013,55.8501164 235.737013,52.0991211 C235.737013,48.3705868 235.130574,45.5742281 233.917677,43.7099609 C232.70478,41.8456938 230.717007,40.9135742 227.954298,40.9135742 C225.21405,40.9135742 223.237507,41.8400786 222.024611,43.6931152 C220.811714,45.5461518 220.205275,48.3481258 220.205275,52.0991211 L220.205275,52.0991211 Z M246.248732,52.0991211 C246.248732,58.2309877 244.63156,63.0263499 241.397169,66.4853516 C238.162778,69.9443532 233.659405,71.6738281 227.886915,71.6738281 C224.270686,71.6738281 221.081265,70.882088 218.318556,69.298584 C215.555847,67.71508 213.433309,65.4409328 211.95088,62.4760742 C210.468451,59.5112156 209.727247,56.0522659 209.727247,52.0991211 C209.727247,45.9447934 211.333188,41.1606616 214.545118,37.746582 C217.757048,34.3325025 222.271652,32.6254883 228.089064,32.6254883 C231.705293,32.6254883 234.894714,33.4116132 237.657423,34.9838867 C240.420132,36.5561602 242.54267,38.8134619 244.025099,41.7558594 C245.507528,44.6982569 246.248732,48.1459763 246.248732,52.0991211 L246.248732,52.0991211 Z M261.708595,71 L251.432716,71 L251.432716,18.5761719 L261.708595,18.5761719 L261.708595,71 Z M293.104494,71 L291.116701,65.8789062 L290.84717,65.8789062 C289.117669,68.0576281 287.337658,69.568111 285.507082,70.4104004 C283.676506,71.2526898 281.290056,71.6738281 278.347658,71.6738281 C274.731429,71.6738281 271.884534,70.6406353 269.806887,68.5742188 C267.72924,66.5078022 266.690432,63.5654488 266.690432,59.7470703 C266.690432,55.7490034 268.088611,52.8010349 270.885012,50.9030762 C273.681412,49.0051175 277.898411,47.9550791 283.536135,47.7529297 L290.072268,47.5507812 L290.072268,45.8999023 C290.072268,42.0815239 288.118186,40.1723633 284.209963,40.1723633 C281.200182,40.1723633 277.66262,41.0820222 273.59717,42.9013672 L270.194338,35.9609375 C274.52932,33.6923715 279.335913,32.5581055 284.61426,32.5581055 C289.667996,32.5581055 293.542469,33.6586804 296.237795,35.8598633 C298.933121,38.0610462 300.280764,41.4076924 300.280764,45.8999023 L300.280764,71 L293.104494,71 Z M290.072268,53.5478516 L286.096682,53.6826172 C283.109362,53.7724614 280.885751,54.3115185 279.425783,55.2998047 C277.965815,56.2880909 277.235842,57.7929586 277.235842,59.8144531 C277.235842,62.7119285 278.897935,64.1606445 282.22217,64.1606445 C284.603041,64.1606445 286.506587,63.4755928 287.932863,62.1054688 C289.35914,60.7353447 290.072268,58.916027 290.072268,56.6474609 L290.072268,53.5478516 Z M323.422268,63.4868164 C325.219152,63.4868164 327.37538,63.0937539 329.891018,62.3076172 L329.891018,69.9555664 C327.330458,71.1010799 324.185958,71.6738281 320.457424,71.6738281 C316.347052,71.6738281 313.354162,70.6350202 311.478664,68.557373 C309.603167,66.4797259 308.665432,63.363302 308.665432,59.2080078 L308.665432,41.0483398 L303.746487,41.0483398 L303.746487,36.7021484 L309.406643,33.265625 L312.371487,25.3144531 L318.941311,25.3144531 L318.941311,33.3330078 L329.486721,33.3330078 L329.486721,41.0483398 L318.941311,41.0483398 L318.941311,59.2080078 C318.941311,60.667976 319.351219,61.7460903 320.171047,62.4423828 C320.990876,63.1386754 322.074605,63.4868164 323.422268,63.4868164 L323.422268,63.4868164 Z M349.798147,39.9365234 C347.619425,39.9365234 345.912411,40.6271904 344.677053,42.0085449 C343.441696,43.3898995 342.734183,45.3495967 342.554495,47.8876953 L356.974417,47.8876953 C356.929495,45.3495967 356.266904,43.3898995 354.986624,42.0085449 C353.706344,40.6271904 351.976869,39.9365234 349.798147,39.9365234 L349.798147,39.9365234 Z M351.246878,71.6738281 C345.182394,71.6738281 340.443184,70.000505 337.029104,66.6538086 C333.615025,63.3071122 331.90801,58.5679018 331.90801,52.4360352 C331.90801,46.1244802 333.485876,41.2448903 336.641653,37.7971191 C339.797431,34.349348 344.160424,32.6254883 349.730764,32.6254883 C355.054033,32.6254883 359.198035,34.1415864 362.162893,37.1738281 C365.127752,40.2060698 366.610159,44.3949928 366.610159,49.7407227 L366.610159,54.7270508 L342.318655,54.7270508 C342.43096,57.6469873 343.295698,59.9267496 344.912893,61.5664062 C346.530089,63.2060629 348.798621,64.0258789 351.718557,64.0258789 C353.987123,64.0258789 356.132121,63.7900414 358.153616,63.3183594 C360.17511,62.8466773 362.286417,62.0942434 364.4876,61.0610352 L364.4876,69.012207 C362.690716,69.910649 360.770325,70.5788552 358.72637,71.0168457 C356.682414,71.4548362 354.189275,71.6738281 351.246878,71.6738281 L351.246878,71.6738281 Z M393.390335,29.7280273 C389.459651,29.7280273 386.416225,31.2048192 384.259964,34.1584473 C382.103703,37.1120753 381.025589,41.228001 381.025589,46.5063477 C381.025589,57.489801 385.14713,62.9814453 393.390335,62.9814453 C396.849337,62.9814453 401.03826,62.1167079 405.95723,60.387207 L405.95723,69.1469727 C401.914241,70.8315514 397.399637,71.6738281 392.413284,71.6738281 C385.248209,71.6738281 379.767795,69.5007542 375.971878,65.154541 C372.175961,60.8083279 370.27803,54.5698649 370.27803,46.4389648 C370.27803,41.3178455 371.21015,36.8313181 373.074417,32.979248 C374.938684,29.127178 377.617124,26.1735943 381.109818,24.1184082 C384.602511,22.0632221 388.695976,21.0356445 393.390335,21.0356445 C398.174539,21.0356445 402.981131,22.1923712 407.810257,24.5058594 L404.441116,32.9960938 C402.59931,32.1201128 400.746301,31.3564486 398.882034,30.7050781 C397.017767,30.0537077 395.187219,29.7280273 393.390335,29.7280273 L393.390335,29.7280273 Z M447.089945,71 L436.814066,71 L436.814066,48.9995117 C436.814066,43.5639377 434.792602,40.8461914 430.749613,40.8461914 C427.874598,40.8461914 425.796982,41.8232324 424.516703,43.7773438 C423.236423,45.7314551 422.596292,48.8984156 422.596292,53.2783203 L422.596292,71 L412.320414,71 L412.320414,18.5761719 L422.596292,18.5761719 L422.596292,29.2563477 C422.596292,30.0874065 422.51768,32.0414885 422.360453,35.1186523 L422.124613,38.1508789 L422.663675,38.1508789 C424.954702,34.4672667 428.593338,32.6254883 433.579691,32.6254883 C438.004518,32.6254883 441.362394,33.8159061 443.653421,36.1967773 C445.944448,38.5776486 447.089945,41.991677 447.089945,46.4389648 L447.089945,71 Z M453.924809,23.5961914 C453.924809,20.249495 455.789048,18.5761719 459.517582,18.5761719 C463.246116,18.5761719 465.110355,20.249495 465.110355,23.5961914 C465.110355,25.1909259 464.644296,26.4318803 463.712162,27.3190918 C462.780028,28.2063033 461.381849,28.6499023 459.517582,28.6499023 C455.789048,28.6499023 453.924809,26.9653489 453.924809,23.5961914 L453.924809,23.5961914 Z M464.638676,71 L454.362797,71 L454.362797,33.3330078 L464.638676,33.3330078 L464.638676,71 Z M492.8002,71.6738281 C488.375373,71.6738281 484.905193,70.0678872 482.389555,66.855957 L481.850492,66.855957 C482.209869,70.000504 482.389555,71.8198217 482.389555,72.3139648 L482.389555,87.5761719 L472.113676,87.5761719 L472.113676,33.3330078 L480.469145,33.3330078 L481.917875,38.2182617 L482.389555,38.2182617 C484.792887,34.4897275 488.35291,32.6254883 493.069731,32.6254883 C497.517019,32.6254883 500.998429,34.3437328 503.514067,37.7802734 C506.029704,41.2168141 507.287504,45.9897155 507.287504,52.0991211 C507.287504,56.119649 506.69791,59.6122899 505.518705,62.5771484 C504.3395,65.542007 502.660562,67.7993087 500.48184,69.3491211 C498.303118,70.8989335 495.742597,71.6738281 492.8002,71.6738281 L492.8002,71.6738281 Z M489.767973,40.8461914 C487.229874,40.8461914 485.376866,41.6267012 484.208891,43.1877441 C483.040916,44.7487871 482.434477,47.3261539 482.389555,50.9199219 L482.389555,52.0317383 C482.389555,56.0747272 482.990379,58.9721592 484.192045,60.7241211 C485.393711,62.476083 487.297257,63.3520508 489.902739,63.3520508 C494.507254,63.3520508 496.809477,59.5561903 496.809477,51.9643555 C496.809477,48.2582823 496.242344,45.478769 495.108061,43.6257324 C493.973778,41.7726958 492.193766,40.8461914 489.767973,40.8461914 L489.767973,40.8461914 Z M509.13604,56.7148438 L509.13604,48.2919922 L527.228325,48.2919922 L527.228325,56.7148438 L509.13604,56.7148438 Z M572.269243,21.7431641 L572.269243,53.6152344 C572.269243,57.2539244 571.455042,60.4433457 569.826616,63.1835938 C568.19819,65.9238418 565.845431,68.0239185 562.768267,69.4838867 C559.691103,70.943855 556.052467,71.6738281 551.852251,71.6738281 C545.518235,71.6738281 540.599339,70.0510416 537.095415,66.8054199 C533.591491,63.5597982 531.839556,59.1181923 531.839556,53.4804688 L531.839556,21.7431641 L542.2502,21.7431641 L542.2502,51.8969727 C542.2502,55.6928901 543.013865,58.4780185 544.541216,60.2524414 C546.068567,62.0268643 548.595397,62.9140625 552.121782,62.9140625 C555.535862,62.9140625 558.012155,62.0212492 559.550737,60.2355957 C561.089319,58.4499422 561.858599,55.6479683 561.858599,51.8295898 L561.858599,21.7431641 L572.269243,21.7431641 Z M581.024517,71 L581.024517,21.7431641 L591.468853,21.7431641 L591.468853,71 L581.024517,71 Z" id="hocolateChip-UI" fill="#FFFFFF"></path>
    </g>
</svg>