<?xml version="1.0" encoding="UTF-8" standalone="no"?>
<svg width="82px" height="77px" viewBox="0 0 82 77" version="1.1" xmlns="http://www.w3.org/2000/svg" xmlns:xlink="http://www.w3.org/1999/xlink">
    <!-- Generator: Sketch 39.1 (31720) - http://www.bohemiancoding.com/sketch -->
    <title>ChUI-Logo</title>
    <desc>Created with Sketch.</desc>
    <defs></defs>
    <g id="Page-1" stroke="none" stroke-width="1" fill="none" fill-rule="evenodd">
        <g id="Logo2">
            <ellipse id="Oval" fill="#333333" cx="40.8211316" cy="38.452523" rx="40.741724" ry="38.3777227"></ellipse>
            <ellipse id="Oval" fill="#FFFFFF" cx="41.0385466" cy="38.109605" rx="7.18259509" ry="6.76583159"></ellipse>
            <path d="M63.5997028,49.9997194 C62.8366286,52.5078825 56.6961129,62.2332332 41.7065046,62.7946061 C27.0949875,63.3417783 15.0835908,51.8798072 15.0835908,38.1052364 C15.0835908,24.3306654 26.960601,12.7896574 41.5787514,13.1474333 C49.1859751,13.3335837 55.3123628,21.1997823 63.0220992,25.5204382 C66.663801,27.561359 61.434874,30.7120417 58.5487515,29.7427444 C53.7399544,28.1276817 48.9698367,19.7414138 41.551271,18.6066585 C30.5017715,16.9165351 21.2687295,27.1676351 21.2687295,37.7123241 C21.2687295,48.2570128 30.3574783,56.7215872 41.551271,56.8179895 C48.9470943,56.8816084 55.5167852,51.7588985 57.9629641,47.4858757 C58.9095278,45.832593 64.4847584,47.0906913 63.5997028,49.9997194 L63.5997028,49.9997194 L63.5997028,49.9997194 L63.5997028,49.9997194 L63.5997028,49.9997194 Z" id="Shape" stroke="#FFFFFF" stroke-width="3" fill="#FFFFFF"></path>
        </g>
    </g>
</svg>