<?xml version="1.0" standalone="no"?>
<!DOCTYPE svg PUBLIC "-//W3C//DTD SVG 20010904//EN"
 "http://www.w3.org/TR/2001/REC-SVG-20010904/DTD/svg10.dtd">
<svg version="1.0" xmlns="http://www.w3.org/2000/svg"
 width="100.000000pt" height="100.000000pt" viewBox="0 0 100.000000 100.000000"
 preserveAspectRatio="xMidYMid meet">
<metadata>
Created by potrace 1.11, written by Peter Selinger 2001-2013
</metadata>
<g transform="translate(0.000000,100.000000) scale(0.100000,-0.100000)"
fill="#000000" stroke="none">
<path d="M450 949 c-100 -16 -185 -61 -257 -138 -173 -180 -167 -471 12 -646
45 -43 76 -63 165 -105 59 -28 199 -28 289 -1 75 23 131 59 188 120 83 89 92
162 26 207 -28 19 -46 21 -103 16 -9 -1 -32 -23 -51 -50 -112 -149 -320 -138
-415 24 -90 153 25 383 192 384 34 0 98 -40 169 -107 84 -78 125 -93 189 -69
43 16 76 60 76 98 -1 18 -28 49 -75 83 -22 15 -69 52 -105 81 -116 94 -194
120 -300 103z"/>
<path d="M464 605 c-91 -39 -99 -168 -14 -218 124 -74 248 99 140 196 -17 15
-38 27 -48 28 -9 0 -24 2 -33 4 -8 1 -29 -3 -45 -10z"/>
</g>
</svg>
