<svg width="51px" height="42px" viewBox="0 0 51 42" version="1.1" xmlns="http://www.w3.org/2000/svg" xmlns:xlink="http://www.w3.org/1999/xlink">
    <g id="Page-1" stroke="none" stroke-width="1" fill="none" fill-rule="evenodd">
        <path d="M16.0391151,41.4481058 C35.2856864,41.4481058 45.8101486,25.5033099 45.8101486,11.6770757 C45.8101486,11.224189 45.8009241,10.7733456 45.7806097,10.3245406 C47.8236881,8.84756721 49.5995266,7.00440876 51,4.90624693 C49.1252216,5.73959532 47.1076431,6.30060205 44.9911213,6.55356543 C47.1515031,5.25815028 48.8100382,3.20895187 49.5923866,0.766026691 C47.5707265,1.96453843 45.3318047,2.83562852 42.9480412,3.30585185 C41.0385827,1.27195172 38.3202559,0 35.3102074,0 C29.5318504,0 24.8459234,4.68592698 24.8459234,10.4622423 C24.8459234,11.283349 24.9377234,12.0820191 25.1172468,12.8480441 C16.420643,12.4104607 8.70936409,8.24678049 3.54913549,1.91557844 C2.65050541,3.46191353 2.13234209,5.25815028 2.13234209,7.17474872 C2.13234209,10.8049656 3.97957883,14.0098375 6.78868565,15.884616 C5.07201059,15.831576 3.4593738,15.3603292 2.04971868,14.5759425 C2.04817841,14.6198436 2.04817841,14.6626442 2.04817841,14.7095642 C2.04817841,19.7769728 5.65493534,24.0079748 10.4428623,24.9667831 C9.56361391,25.2064865 8.63846383,25.3350065 7.68373547,25.3350065 C7.01052876,25.3350065 6.35466204,25.2687476 5.71715704,25.1463065 C7.04928875,29.3038668 10.9120656,32.3292152 15.4919126,32.4138786 C11.9106557,35.2209437 7.3991521,36.8927422 2.49596517,36.8927422 C1.65241507,36.8927422 0.819068392,36.8447612 0,36.7478988 C4.63084699,39.7161308 10.1297206,41.4481058 16.0396559,41.4481058" id="path3611" fill="#FFFFFF"></path>
    </g>
</svg>