<svg width="42px" height="40px" viewBox="0 0 42 40" version="1.1" xmlns="http://www.w3.org/2000/svg" xmlns:xlink="http://www.w3.org/1999/xlink">
    <g id="Page-1" stroke="none" stroke-width="1" fill="none" fill-rule="evenodd">
        <ellipse id="Oval" fill="#333333" cx="20.8677123" cy="19.9364793" rx="20.8677123" ry="19.9364793"></ellipse>
        <ellipse id="Oval" fill="#FFFFFF" cx="20.9096594" cy="19.7309339" rx="3.67889017" ry="3.51471771"></ellipse>
        <path d="M32.3881774,25.6347398 C31.9973345,26.9376817 28.8521924,31.9898119 21.1745881,32.2814342 C13.6906403,32.5656795 7.53846154,26.6114088 7.53846154,19.4557876 C7.53846154,12.3001663 13.6218082,6.30483745 21.1091535,6.49069502 C25.0055364,6.58739657 28.1434423,10.6737335 32.0923317,12.9182301 C33.9575936,13.9784487 31.2793627,15.615167 29.8011048,15.1116359 C27.3380624,14.2726423 24.8948314,9.91613946 21.0950782,9.32665616 C15.4355785,8.44867 10.7064594,13.7739168 10.7064594,19.2516773 C10.7064594,24.7294377 15.3616722,29.1266192 21.0950782,29.1766983 C24.8831828,29.2097471 28.2481465,26.5485991 29.5010674,24.328847 C29.9858926,23.4699988 32.8414986,24.1235564 32.3881774,25.6347398 L32.3881774,25.6347398 L32.3881774,25.6347398 L32.3881774,25.6347398 L32.3881774,25.6347398 Z" id="Shape" stroke="#FFFFFF" stroke-width="3" fill="#FFFFFF"></path>
    </g>
</svg>