<svg width="43px" height="40px" viewBox="0 0 43 40" version="1.1" xmlns="http://www.w3.org/2000/svg" xmlns:xlink="http://www.w3.org/1999/xlink">
    <g id="Page-1" stroke="none" stroke-width="1" fill="none" fill-rule="evenodd">
        <g id="ChUI-Logo-Small">
            <g id="Logo2">
                <ellipse id="Oval" fill="#333333" cx="21.1482971" cy="19.9753366" rx="21.1071582" ry="19.9364793"></ellipse>
                <ellipse id="Oval" fill="#FFFFFF" cx="20.7598304" cy="19.3238869" rx="3.22000003" ry="3.04140726"></ellipse>
                <path d="M31.9761062,25.4707032 C31.6118127,26.6713615 28.6803149,31.3268892 21.5242375,31.5956185 C14.5486619,31.8575499 8.81439043,26.3707017 8.81439043,19.7768113 C8.81439043,13.182921 14.4845055,7.65823771 21.4632478,7.82950508 C25.0949558,7.91861536 28.019709,11.6841665 31.7003569,13.7524655 C33.4389146,14.7294547 30.9426115,16.2376873 29.5647692,15.7736845 C27.2690372,15.0005536 24.9917708,10.9860452 21.4501286,10.4428375 C16.1750693,9.63377502 11.7671915,14.540979 11.7671915,19.5887241 C11.7671915,24.6364692 16.1061833,28.6884629 21.4501286,28.7346107 C24.9809136,28.7650652 28.1173008,26.3128227 29.2851129,24.2673256 C29.7370047,23.4758988 32.3986341,24.0781508 31.9761062,25.4707032 L31.9761062,25.4707032 L31.9761062,25.4707032 L31.9761062,25.4707032 Z" id="Shape" stroke="#FFFFFF" stroke-width="2" fill="#FFFFFF"></path>
            </g>
        </g>
    </g>
</svg>