<?xml version="1.0" encoding="UTF-8" standalone="no"?>
<!DOCTYPE svg PUBLIC "-//W3C//DTD SVG 1.1//EN" "http://www.w3.org/Graphics/SVG/1.1/DTD/svg11.dtd">
<svg width="100%" height="100%" viewBox="0 0 223 223" version="1.1" xmlns="http://www.w3.org/2000/svg" xmlns:xlink="http://www.w3.org/1999/xlink" xml:space="preserve" style="fill-rule:evenodd;clip-rule:evenodd;stroke-linejoin:round;stroke-miterlimit:1.41421;">
    <g id="Logo" transform="matrix(1,0,0,1,16,16)">
        <g id="Shape" transform="matrix(1.06151,0,0,1.06151,-5.65355,-5.23651)">
            <path d="M94.503,0.162L93.892,0.169L93.281,0.179L92.672,0.191L92.061,0.209L91.455,0.231L90.846,0.256L90.24,0.283L89.634,0.317L89.03,0.352L88.427,0.394L87.826,0.436L87.225,0.485L86.624,0.535L86.025,0.592L85.43,0.648L84.831,0.713L84.236,0.777L83.642,0.848L83.049,0.92L82.456,0.999L81.866,1.078L81.278,1.162L80.687,1.251L80.102,1.343L79.514,1.439L78.931,1.535L78.345,1.639L77.763,1.745L77.182,1.854L76.602,1.968L76.025,2.084L75.447,2.202L74.869,2.326L74.294,2.454L73.722,2.583L73.149,2.716L72.58,2.854L72.01,2.995L71.44,3.139L70.873,3.287L70.308,3.438L69.743,3.593L69.181,3.749L68.619,3.912L68.06,4.075L67.503,4.243L66.946,4.413L66.389,4.589L65.834,4.767L65.283,4.947L64.731,5.132L64.182,5.32L63.633,5.51L63.086,5.705L62.54,5.903L61.998,6.103L61.454,6.306L60.916,6.513L60.377,6.723L59.838,6.938L59.302,7.153L58.768,7.373L58.235,7.598L57.704,7.823L57.175,8.052L56.647,8.285L56.121,8.519L55.598,8.759L55.075,9.001L54.554,9.246L54.033,9.493L53.515,9.745L53,9.997L52.487,10.256L51.974,10.515L51.464,10.777L50.954,11.044L50.448,11.313L49.943,11.585L49.438,11.859L48.938,12.139L48.438,12.418L47.938,12.702L47.444,12.988L46.949,13.28L46.457,13.571L45.967,13.868L45.478,14.164L44.991,14.466L44.506,14.77L44.025,15.076L43.543,15.387L43.064,15.699L42.587,16.015L42.113,16.333L41.639,16.655L41.168,16.978L40.699,17.304L40.232,17.633L39.769,17.964L39.305,18.3L38.844,18.636L38.386,18.977L37.93,19.32L37.476,19.666L37.023,20.012L36.572,20.363L36.124,20.719L35.679,21.074L35.236,21.433L34.793,21.793L34.355,22.156L33.917,22.524L33.482,22.893L33.05,23.266L32.62,23.639L32.192,24.017L31.765,24.395L31.343,24.778L30.921,25.16L30.503,25.548L30.086,25.936L29.672,26.329L29.26,26.722L28.851,27.12L28.442,27.52L28.038,27.92L27.636,28.325L27.235,28.73L26.838,29.14L26.442,29.551L26.048,29.963L25.66,30.381L25.271,30.798L24.885,31.218L24.502,31.641L24.121,32.065L23.743,32.493L23.367,32.923L22.994,33.355L22.624,33.79L22.256,34.227L21.891,34.664L21.528,35.107L21.168,35.549L20.811,35.996L20.456,36.443L20.104,36.893L19.754,37.345L19.407,37.799L19.065,38.254L18.723,38.714L18.384,39.173L18.047,39.638L17.713,40.102L17.384,40.569L17.055,41.036L16.729,41.508L16.407,41.98L16.086,42.456L15.77,42.933L15.457,43.412L15.146,43.894L14.838,44.376L14.532,44.86L14.229,45.349L13.928,45.836L13.631,46.328L13.335,46.822L13.045,47.316L12.758,47.812L12.47,48.311L12.188,48.81L11.908,49.314L11.634,49.818L11.359,50.325L11.087,50.831L10.82,51.343L10.556,51.854L10.294,52.365L10.035,52.882L9.779,53.398L9.528,53.917L9.276,54.438L9.03,54.959L8.787,55.483L8.546,56.009L8.31,56.536L8.075,57.064L7.844,57.595L7.616,58.129L7.393,58.663L7.171,59.199L6.953,59.735L6.738,60.273L6.526,60.815L6.316,61.358L6.111,61.902L5.909,62.447L5.71,62.993L5.515,63.542L5.321,64.093L5.132,64.644L4.948,65.197L4.764,65.751L4.585,66.306L4.409,66.865L4.236,67.423L4.067,67.984L3.902,68.547L3.738,69.11L3.58,69.674L3.425,70.242L3.272,70.81L3.125,71.378L2.977,71.949L2.837,72.52L2.697,73.093L2.562,73.668L2.43,74.244L2.303,74.822L2.179,75.4L2.057,75.981L1.941,76.561L1.827,77.144L1.715,77.727L1.609,78.313L1.506,78.898L1.407,79.486L1.311,80.074L1.218,80.665L1.13,81.255L1.045,81.848L0.962,82.441L0.884,83.037L0.811,83.632L0.742,84.23L0.674,84.828L0.609,85.428L0.552,86.028L0.495,86.629L0.444,87.231L0.397,87.837L0.353,88.439L0.312,89.047L0.275,89.652L0.242,90.26L0.213,90.87L0.187,91.481L0.166,92.091L0.148,92.704L0.135,93.316L0.125,93.931L0.12,94.546L0.117,95.162L0.12,95.777L0.125,96.392L0.135,97.007L0.148,97.62L0.166,98.232L0.187,98.843L0.213,99.453L0.242,100.061L0.275,100.668L0.312,101.276L0.353,101.881L0.397,102.487L0.444,103.092L0.495,103.695L0.609,104.895L0.674,105.496L0.742,106.094L0.811,106.691L0.884,107.287L0.962,107.88L1.045,108.475L1.13,109.066L1.218,109.658L1.311,110.249L1.407,110.837L1.506,111.425L1.609,112.01L1.715,112.596L1.827,113.179L1.941,113.762L2.057,114.342L2.179,114.923L2.303,115.501L2.43,116.079L2.562,116.655L2.697,117.228L2.977,118.374L3.125,118.945L3.272,119.513L3.425,120.081L3.58,120.647L3.738,121.213L3.902,121.776L4.067,122.337L4.236,122.898L4.409,123.459L4.585,124.014L4.764,124.57L4.948,125.126L5.132,125.68L5.321,126.23L5.515,126.781L5.71,127.33L5.909,127.876L6.111,128.422L6.316,128.965L6.526,129.506L6.738,130.047L6.953,130.586L7.171,131.124L7.393,131.661L7.616,132.194L7.844,132.725L8.075,133.257L8.546,134.314L8.787,134.84L9.03,135.364L9.276,135.885L9.528,136.406L9.779,136.925L10.035,137.442L10.294,137.955L10.556,138.469L10.82,138.981L11.087,139.492L11.359,139.998L11.634,140.505L11.908,141.009L12.188,141.51L12.47,142.012L12.758,142.511L13.045,143.008L13.335,143.502L13.631,143.996L13.928,144.485L14.229,144.974L14.532,145.461L14.838,145.947L15.146,146.429L15.457,146.911L15.77,147.39L16.086,147.867L16.729,148.816L17.055,149.285L17.384,149.754L17.713,150.221L18.047,150.686L18.384,151.15L18.723,151.61L19.407,152.524L19.754,152.978L20.104,153.43L20.456,153.88L20.811,154.327L21.168,154.772L21.528,155.217L21.891,155.656L22.256,156.096L22.624,156.533L22.994,156.966L23.367,157.398L23.743,157.828L24.121,158.255L24.502,158.68L24.885,159.105L25.271,159.525L25.66,159.943L26.048,160.358L26.442,160.773L27.235,161.593L28.038,162.403L28.442,162.804L28.851,163.204L29.26,163.599L29.672,163.994L30.086,164.385L30.503,164.775L30.921,165.163L31.765,165.929L32.62,166.685L33.05,167.058L33.482,167.431L33.917,167.799L34.793,168.53L35.236,168.891L35.679,169.249L36.124,169.605L36.572,169.958L37.023,170.309L37.476,170.657L37.93,171.003L38.386,171.346L38.844,171.685L39.305,172.023L40.232,172.69L40.699,173.019L41.168,173.345L41.639,173.669L42.113,173.99L42.587,174.309L43.064,174.625L43.543,174.936L44.506,175.554L44.991,175.858L45.478,176.159L46.457,176.752L46.949,177.043L47.938,177.621L48.938,178.185L49.438,178.464L49.943,178.738L50.448,179.01L50.954,179.279L51.464,179.546L51.974,179.808L52.487,180.067L53,180.324L53.515,180.579L54.033,180.831L54.554,181.078L55.075,181.322L55.598,181.564L56.121,181.802L56.647,182.039L57.175,182.271L57.704,182.501L58.235,182.725L58.768,182.948L59.302,183.168L59.838,183.385L60.374,183.6L60.916,183.81L61.454,184.015L61.998,184.22L62.54,184.42L63.086,184.618L63.633,184.813L64.182,185.003L64.731,185.191L65.283,185.376L65.834,185.557L66.389,185.735L67.503,186.08L68.06,186.248L68.619,186.411L69.181,186.572L69.743,186.73L70.308,186.886L70.873,187.036L71.44,187.182L72.01,187.328L72.58,187.469L73.149,187.605L73.722,187.738L74.294,187.869L74.869,187.998L75.447,188.121L76.025,188.24L76.602,188.356L77.182,188.469L77.763,188.578L78.345,188.684L78.931,188.786L79.514,188.884L80.102,188.981L80.687,189.072L81.278,189.159L81.866,189.245L82.456,189.324L83.049,189.401L83.642,189.475L84.236,189.544L84.831,189.611L85.43,189.672L86.025,189.732L86.624,189.786L87.225,189.838L87.826,189.885L88.427,189.929L89.03,189.969L89.634,190.006L90.24,190.038L90.846,190.068L91.455,190.092L92.061,190.115L92.672,190.132L93.281,190.144L93.892,190.154L94.503,190.159L95.117,190.162L95.731,190.159L96.342,190.154L96.954,190.144L97.565,190.132L98.174,190.115L98.782,190.092L99.389,190.068L99.995,190.038L100.601,190.006L101.204,189.969L101.808,189.929L102.409,189.885L103.01,189.838L103.611,189.786L104.209,189.732L104.807,189.672L105.403,189.611L105.999,189.544L106.592,189.475L107.185,189.401L107.778,189.324L108.369,189.245L108.96,189.159L109.548,189.072L110.133,188.981L110.721,188.884L111.306,188.786L111.889,188.684L112.472,188.578L113.052,188.469L113.632,188.356L114.213,188.24L114.788,188.121L115.365,187.998L115.94,187.869L116.513,187.738L117.085,187.605L117.658,187.469L118.225,187.328L118.795,187.182L119.362,187.036L119.927,186.886L120.491,186.73L121.053,186.572L121.616,186.411L122.175,186.248L122.735,186.08L123.291,185.907L123.846,185.735L124.4,185.557L124.952,185.376L125.503,185.191L126.053,185.003L126.602,184.813L127.148,184.618L127.695,184.42L128.239,184.22L128.78,184.015L129.322,183.81L129.86,183.6L130.396,183.385L130.933,183.168L131.466,182.948L132,182.725L132.531,182.501L133.059,182.271L133.588,182.039L134.113,181.802L134.639,181.564L135.16,181.322L135.681,181.078L136.201,180.831L136.719,180.579L137.235,180.324L137.748,180.067L138.26,179.808L138.771,179.546L139.281,179.279L139.789,179.01L140.294,178.738L140.796,178.464L141.299,178.185L141.799,177.903L142.296,177.621L142.791,177.332L143.286,177.043L143.778,176.752L144.27,176.455L144.757,176.159L145.244,175.858L145.728,175.554L146.213,175.245L146.692,174.936L147.171,174.625L147.648,174.309L148.122,173.99L148.596,173.669L149.067,173.345L149.536,173.019L150.002,172.69L150.466,172.357L150.929,172.023L151.39,171.685L151.849,171.346L152.305,171.003L152.761,170.657L153.211,170.309L153.662,169.958L154.11,169.605L154.556,169.249L154.999,168.891L155.442,168.53L155.879,168.164L156.317,167.799L156.752,167.431L157.185,167.058L157.615,166.685L158.042,166.307L158.47,165.929L158.892,165.546L159.314,165.163L159.734,164.775L160.148,164.385L160.563,163.994L160.974,163.599L161.386,163.204L161.793,162.804L162.197,162.403L162.601,161.998L163,161.593L163.399,161.183L163.793,160.773L164.186,160.358L164.577,159.943L164.963,159.525L165.349,159.105L165.733,158.68L166.113,158.255L166.492,157.828L166.867,157.398L167.24,156.966L167.611,156.533L167.978,156.096L168.344,155.656L168.706,155.217L169.066,154.772L169.424,154.327L169.779,153.88L170.131,153.43L170.481,152.978L170.828,152.524L171.172,152.067L171.512,151.61L171.851,151.15L172.188,150.686L172.522,150.221L172.853,149.754L173.18,149.285L173.506,148.816L173.827,148.341L174.148,147.867L174.464,147.39L174.778,146.911L175.091,146.429L175.399,145.947L175.705,145.461L176.008,144.974L176.306,144.485L176.604,143.996L176.899,143.502L177.189,143.008L177.477,142.511L177.764,142.012L178.047,141.51L178.326,141.009L178.604,140.505L178.876,139.998L179.148,139.492L179.414,138.981L179.679,138.469L179.94,137.955L180.199,137.442L180.456,136.925L180.709,136.406L180.958,135.885L181.204,135.364L181.448,134.84L181.689,134.314L181.924,133.785L182.16,133.257L182.391,132.725L182.618,132.194L182.844,131.661L183.064,131.124L183.282,130.586L183.497,130.047L183.709,129.506L183.919,128.965L184.123,128.422L184.325,127.876L184.525,127.33L184.722,126.781L184.913,126.23L185.103,125.68L185.289,125.126L185.47,124.57L185.649,124.014L185.825,123.459L185.999,122.898L186.167,122.337L186.333,121.776L186.496,121.213L186.654,120.647L186.81,120.081L186.962,119.513L187.113,118.945L187.258,118.374L187.4,117.801L187.537,117.228L187.672,116.655L187.804,116.079L187.931,115.501L188.055,114.923L188.177,114.342L188.294,113.762L188.408,113.179L188.519,112.596L188.625,112.01L188.729,111.425L188.827,110.837L188.926,110.249L189.016,109.658L189.104,109.066L189.19,108.475L189.273,107.88L189.351,107.287L189.423,106.691L189.496,106.094L189.56,105.496L189.625,104.895L189.685,104.295L189.739,103.695L189.791,103.092L189.84,102.487L189.884,101.881L189.923,101.276L189.959,100.668L189.993,100.061L190.021,99.453L190.047,98.843L190.068,98.232L190.086,97.62L190.099,97.007L190.109,96.392L190.115,95.777L190.117,95.162L190.115,94.546L190.109,93.931L190.099,93.316L190.086,92.704L190.068,92.091L190.047,91.481L190.021,90.87L189.993,90.26L189.959,89.652L189.923,89.047L189.884,88.439L189.84,87.837L189.791,87.231L189.739,86.629L189.685,86.028L189.625,85.428L189.56,84.828L189.496,84.23L189.423,83.632L189.351,83.037L189.273,82.441L189.19,81.848L189.104,81.255L189.016,80.665L188.926,80.074L188.827,79.486L188.729,78.898L188.625,78.313L188.519,77.727L188.408,77.144L188.294,76.561L188.177,75.981L188.055,75.4L187.931,74.822L187.804,74.244L187.672,73.668L187.537,73.093L187.4,72.52L187.258,71.949L187.113,71.378L186.962,70.81L186.81,70.242L186.654,69.674L186.496,69.11L186.333,68.547L186.167,67.984L185.999,67.423L185.825,66.865L185.649,66.306L185.47,65.751L185.289,65.197L185.103,64.644L184.913,64.093L184.722,63.542L184.525,62.993L184.325,62.447L184.123,61.902L183.919,61.358L183.709,60.815L183.497,60.273L183.282,59.735L183.064,59.199L182.844,58.663L182.618,58.129L182.391,57.595L182.16,57.064L181.924,56.536L181.689,56.009L181.448,55.483L181.204,54.959L180.958,54.438L180.709,53.917L180.456,53.398L180.199,52.882L179.94,52.365L179.679,51.854L179.414,51.343L179.148,50.831L178.876,50.325L178.604,49.818L178.326,49.314L178.047,48.81L177.764,48.311L177.477,47.812L177.189,47.316L176.899,46.822L176.604,46.328L176.306,45.836L176.008,45.349L175.705,44.86L175.399,44.376L175.091,43.894L174.778,43.412L174.464,42.933L174.148,42.456L173.827,41.98L173.506,41.508L173.18,41.036L172.853,40.569L172.522,40.102L172.188,39.638L171.851,39.173L171.512,38.714L171.172,38.254L170.828,37.799L170.481,37.345L170.131,36.893L169.779,36.443L169.424,35.996L169.066,35.549L168.706,35.107L168.344,34.664L167.978,34.227L167.611,33.79L167.24,33.355L166.867,32.923L166.492,32.493L166.113,32.065L165.733,31.641L165.349,31.218L164.963,30.798L164.577,30.381L164.186,29.963L163.793,29.551L163.399,29.14L163,28.73L162.601,28.325L162.197,27.92L161.793,27.52L161.386,27.12L160.974,26.722L160.563,26.329L160.148,25.936L159.734,25.548L159.314,25.16L158.892,24.778L158.47,24.395L158.042,24.017L157.615,23.639L157.185,23.266L156.752,22.893L156.317,22.524L155.879,22.156L155.442,21.793L154.999,21.433L154.556,21.074L154.11,20.719L153.662,20.363L153.211,20.012L152.761,19.666L152.305,19.32L151.849,18.977L151.39,18.636L150.929,18.3L150.466,17.964L150.002,17.633L149.536,17.304L149.067,16.978L148.596,16.655L148.122,16.333L147.648,16.015L147.171,15.699L146.692,15.387L146.213,15.076L145.728,14.77L145.244,14.466L144.757,14.164L144.27,13.868L143.778,13.571L143.286,13.28L142.791,12.988L142.296,12.702L141.799,12.418L141.299,12.139L140.796,11.859L140.294,11.585L139.789,11.313L139.281,11.044L138.771,10.777L138.26,10.515L137.748,10.256L137.235,9.997L136.719,9.745L136.201,9.493L135.681,9.246L135.16,9.001L134.639,8.759L134.113,8.519L133.588,8.285L133.059,8.052L132.531,7.823L132,7.598L131.466,7.373L130.933,7.153L130.396,6.938L129.86,6.723L129.322,6.513L128.78,6.306L128.239,6.103L127.695,5.903L127.148,5.705L126.602,5.51L126.053,5.32L125.503,5.132L124.952,4.947L124.4,4.767L123.846,4.589L123.291,4.413L122.735,4.243L122.175,4.075L121.616,3.912L121.053,3.749L120.491,3.593L119.927,3.438L119.362,3.287L118.795,3.139L118.225,2.995L117.658,2.854L117.085,2.716L116.513,2.583L115.94,2.454L115.365,2.326L114.788,2.202L114.213,2.084L113.632,1.968L113.052,1.854L112.472,1.745L111.889,1.639L111.306,1.535L110.721,1.439L110.133,1.343L109.548,1.251L108.96,1.162L108.369,1.078L107.778,0.999L107.185,0.92L106.592,0.848L105.999,0.777L105.403,0.713L104.807,0.648L104.209,0.592L103.611,0.535L103.01,0.485L102.409,0.436L101.808,0.394L101.204,0.352L100.601,0.317L99.995,0.283L99.389,0.256L98.782,0.231L98.174,0.209L97.565,0.191L96.954,0.179L96.342,0.169L95.731,0.162L95.117,0.162L94.503,0.162Z" style="fill:white;"/>
            <path d="M96.456,-7.83L97.099,-7.82L97.759,-7.806L98.433,-7.787L99.091,-7.763L99.731,-7.737L100.402,-7.707L101.058,-7.67L101.711,-7.632L102.364,-7.587L103.015,-7.541L104.317,-7.434L105.614,-7.311L106.907,-7.172L108.193,-7.016L108.838,-6.93L109.463,-6.847L110.121,-6.753L110.763,-6.656L111.397,-6.557L112.017,-6.455L112.657,-6.35L113.308,-6.234L113.926,-6.122L114.558,-6.003L115.186,-5.88L115.805,-5.756L116.432,-5.627L117.074,-5.49L117.688,-5.352L118.296,-5.216L118.933,-5.068L119.561,-4.916L120.164,-4.766L120.781,-4.611L121.405,-4.448L122.021,-4.284L122.622,-4.118L123.235,-3.948L123.849,-3.77L124.445,-3.597L125.056,-3.413L125.669,-3.225L126.275,-3.034L126.865,-2.844L127.468,-2.647L128.071,-2.445L128.656,-2.245L129.256,-2.037L129.854,-1.823L130.436,-1.613L131.022,-1.397L131.614,-1.176L132.206,-0.949L132.801,-0.717L133.945,-0.258L134.543,-0.012L135.112,0.228L135.685,0.471L136.264,0.722L136.827,0.97L137.403,1.227L137.985,1.492L138.547,1.754L139.096,2.011L139.666,2.282L140.226,2.554L140.797,2.833L141.358,3.117L141.892,3.387L142.451,3.674L143.009,3.966L143.558,4.257L144.105,4.551L144.655,4.851L145.192,5.15L145.733,5.452L146.285,5.767L146.826,6.081L147.355,6.392L147.88,6.703L148.414,7.025L148.942,7.346L149.475,7.676L149.992,8.001L150.53,8.341L151.05,8.678L151.561,9.011L152.091,9.362L152.597,9.702L153.103,10.045L153.615,10.397L154.124,10.751L154.631,11.108L155.137,11.47L155.632,11.828L156.133,12.193L156.642,12.572L157.129,12.939L157.614,13.306L158.104,13.682L158.606,14.073L159.093,14.46L159.567,14.838L160.04,15.221L160.521,15.613L161.008,16.016L161.475,16.409L161.948,16.809L162.418,17.215L162.886,17.621L163.807,18.435L164.716,19.26L165.182,19.69L165.633,20.112L166.075,20.531L166.514,20.95L166.971,21.391L167.413,21.827L167.844,22.253L168.284,22.694L168.718,23.135L169.152,23.581L169.572,24.019L169.999,24.467L170.434,24.931L170.846,25.376L171.257,25.823L171.674,26.283L172.088,26.745L172.499,27.21L172.908,27.678L173.314,28.148L173.717,28.621L174.11,29.088L174.507,29.564L174.901,30.045L175.293,30.526L175.681,31.012L176.061,31.49L176.444,31.979L176.824,32.47L177.195,32.956L177.578,33.462L177.947,33.961L178.307,34.449L178.673,34.954L179.03,35.45L179.393,35.961L179.748,36.469L180.102,36.981L180.451,37.494L180.8,38.012L181.146,38.534L181.478,39.042L181.814,39.557L182.151,40.085L182.488,40.618L182.82,41.154L183.139,41.675L183.459,42.203L183.782,42.744L184.1,43.286L184.404,43.811L184.712,44.345L185.026,44.899L185.329,45.445L185.633,45.998L186.218,47.088L186.515,47.656L186.793,48.196L187.077,48.75L187.357,49.309L187.631,49.861L187.913,50.437L188.186,51.008L188.449,51.566L188.712,52.132L188.976,52.709L189.228,53.272L189.483,53.843L189.738,54.432L189.982,55.002L190.229,55.587L190.47,56.175L190.703,56.748L190.935,57.329L191.164,57.912L191.394,58.508L191.618,59.104L191.834,59.687L192.047,60.27L192.265,60.876L192.475,61.48L192.676,62.068L192.881,62.674L193.08,63.281L193.272,63.878L193.46,64.474L193.65,65.086L193.836,65.704L194.012,66.305L194.19,66.917L194.364,67.538L194.531,68.148L194.692,68.749L194.857,69.37L195.015,69.995L195.171,70.619L195.322,71.25L195.466,71.862L195.61,72.492L195.749,73.123L195.881,73.738L196.014,74.373L196.141,75.007L196.262,75.626L196.384,76.263L196.5,76.902L196.613,77.541L196.825,78.807L196.926,79.468L197.02,80.094L197.111,80.724L197.201,81.37L197.288,82.035L197.365,82.666L197.444,83.317L197.514,83.968L197.583,84.604L197.649,85.272L197.708,85.925L197.763,86.565L197.816,87.221L197.866,87.893L197.908,88.553L197.946,89.192L197.983,89.852L198.014,90.514L198.042,91.175L198.064,91.837L198.084,92.501L198.098,93.164L198.109,93.83L198.115,94.496L198.117,95.162L198.115,95.827L198.109,96.493L198.098,97.159L198.084,97.823L198.064,98.487L198.042,99.148L198.013,99.81L197.983,100.469L197.946,101.128L197.908,101.771L197.866,102.428L197.817,103.101L197.763,103.759L197.708,104.398L197.649,105.051L197.583,105.719L197.514,106.355L197.444,107.006L197.365,107.657L197.287,108.29L197.201,108.951L197.111,109.6L197.02,110.226L196.927,110.853L196.825,111.516L196.718,112.158L196.613,112.782L196.5,113.421L196.384,114.06L196.262,114.697L196.141,115.317L196.014,115.951L195.881,116.585L195.749,117.2L195.61,117.832L195.465,118.465L195.321,119.075L195.172,119.698L195.016,120.325L194.857,120.953L194.692,121.575L194.529,122.18L194.364,122.783L194.191,123.402L194.011,124.023L193.834,124.621L193.651,125.23L193.46,125.849L193.27,126.447L193.081,127.035L192.883,127.644L192.676,128.256L192.475,128.843L192.265,129.447L192.047,130.054L191.834,130.637L191.618,131.219L191.392,131.821L191.162,132.414L190.935,132.992L190.705,133.567L190.473,134.143L190.229,134.736L189.979,135.328L189.736,135.895L189.483,136.478L189.231,137.043L188.979,137.608L188.712,138.191L188.449,138.758L188.186,139.315L187.913,139.887L187.631,140.462L187.354,141.021L187.077,141.571L186.797,142.12L186.515,142.667L186.218,143.235L185.924,143.783L185.633,144.325L185.325,144.885L185.026,145.421L184.716,145.971L184.404,146.512L184.1,147.037L183.782,147.579L183.454,148.128L183.139,148.646L182.82,149.169L182.488,149.703L182.156,150.231L181.814,150.766L181.478,151.282L181.146,151.789L180.795,152.32L180.451,152.827L180.102,153.342L179.748,153.852L179.399,154.354L179.03,154.873L178.673,155.37L178.307,155.874L177.941,156.37L177.578,156.859L177.201,157.359L176.824,157.853L176.444,158.345L176.061,158.834L175.675,159.32L175.293,159.795L174.901,160.279L174.507,160.757L174.117,161.227L173.709,161.711L173.306,162.181L172.908,162.643L172.499,163.111L172.088,163.575L171.682,164.029L171.265,164.491L170.846,164.947L170.426,165.401L169.999,165.854L169.58,166.296L169.152,166.742L168.718,167.188L168.284,167.629L167.844,168.07L167.413,168.496L166.962,168.941L166.514,169.371L166.075,169.792L165.633,170.208L165.191,170.624L164.716,171.063L164.266,171.472L163.807,171.888L163.342,172.299L162.886,172.702L162.418,173.108L161.948,173.514L161.465,173.923L161.008,174.304L160.532,174.702L160.04,175.103L159.567,175.485L159.083,175.872L158.596,176.256L158.114,176.63L157.624,177.009L157.129,177.385L156.631,177.76L156.133,178.128L155.632,178.495L155.137,178.851L154.642,179.207L154.124,179.572L153.615,179.927L153.103,180.278L152.597,180.621L152.091,180.961L151.561,181.312L151.037,181.653L150.53,181.98L150.004,182.315L149.475,182.647L148.942,182.977L148.414,183.298L147.88,183.62L147.342,183.939L146.826,184.24L146.285,184.556L145.733,184.869L145.205,185.166L144.655,185.472L144.105,185.772L143.558,186.066L143.009,186.358L142.451,186.65L141.892,186.936L141.345,187.213L140.797,187.487L140.24,187.762L139.666,188.042L139.096,188.312L138.547,188.57L137.971,188.838L137.403,189.094L136.842,189.347L136.264,189.601L135.685,189.853L135.098,190.101L134.529,190.338L133.96,190.573L133.388,190.805L132.801,191.04L132.191,191.278L131.614,191.496L131.037,191.715L130.436,191.936L129.854,192.147L129.256,192.36L128.656,192.568L128.071,192.768L127.468,192.97L126.865,193.167L126.259,193.362L125.669,193.546L125.071,193.732L124.444,193.92L123.833,194.098L123.235,194.269L122.637,194.437L122.021,194.607L121.389,194.776L120.782,194.932L120.18,195.086L119.545,195.243L118.917,195.392L118.313,195.533L117.704,195.672L117.074,195.813L116.432,195.95L115.805,196.079L115.186,196.203L114.558,196.327L113.926,196.445L113.291,196.561L112.657,196.671L112.034,196.776L111.397,196.88L110.747,196.982L110.121,197.074L109.479,197.168L108.821,197.256L108.193,197.337L107.551,197.417L106.907,197.492L106.261,197.565L105.614,197.632L104.965,197.696L104.317,197.755L103.665,197.811L103.015,197.862L102.364,197.91L101.711,197.953L101.058,197.993L100.402,198.028L99.747,198.06L99.091,198.087L98.433,198.111L97.759,198.13L97.099,198.143L96.439,198.154L95.78,198.159L95.117,198.162L94.455,198.159L93.795,198.154L93.135,198.143L92.478,198.13L91.801,198.111L91.146,198.087L90.488,198.06L89.833,198.028L89.177,197.993L88.524,197.953L87.87,197.91L87.219,197.862L86.569,197.811L85.918,197.755L85.267,197.696L84.623,197.632L83.976,197.565L83.327,197.492L82.683,197.417L82.041,197.337L81.413,197.256L80.753,197.168L80.116,197.074L79.49,196.982L78.838,196.88L78.198,196.776L77.58,196.671L76.946,196.561L76.309,196.445L75.677,196.327L75.045,196.203L74.432,196.079L73.806,195.951L73.161,195.813L72.53,195.672L71.922,195.533L71.314,195.391L70.692,195.243L70.059,195.087L69.453,194.932L68.846,194.776L68.214,194.607L67.597,194.437L66.999,194.269L66.401,194.098L65.785,193.918L65.161,193.73L64.573,193.548L63.98,193.363L63.37,193.167L62.766,192.97L62.164,192.768L61.579,192.568L60.978,192.36L60.381,192.147L59.793,191.934L59.201,191.715L58.621,191.496L58.046,191.278L57.439,191.042L56.847,190.805L56.275,190.573L55.706,190.338L55.137,190.101L54.549,189.853L53.971,189.601L53.393,189.347L52.825,189.091L52.267,188.838L51.694,188.573L51.138,188.312L50.569,188.042L49.995,187.762L49.438,187.487L48.89,187.213L48.342,186.936L47.784,186.65L47.218,186.354L46.671,186.062L46.14,185.776L45.579,185.472L45.025,185.162L44.512,184.873L43.957,184.561L43.408,184.24L42.893,183.939L42.346,183.615L41.823,183.298L41.3,182.982L40.76,182.647L40.222,182.31L39.708,181.98L39.205,181.658L38.673,181.312L38.144,180.961L37.638,180.621L37.131,180.278L36.62,179.927L36.11,179.572L35.592,179.207L35.097,178.851L34.602,178.495L34.101,178.127L33.603,177.76L33.097,177.378L32.613,177.009L32.129,176.637L31.639,176.256L31.152,175.872L30.668,175.485L30.195,175.103L29.703,174.702L29.227,174.304L28.77,173.923L28.287,173.514L27.816,173.108L27.348,172.702L26.892,172.299L26.428,171.888L25.968,171.472L25.509,171.055L25.046,170.624L24.611,170.217L24.16,169.792L23.712,169.362L23.275,168.941L22.83,168.505L22.381,168.061L21.954,167.629L21.517,167.188L21.085,166.742L20.664,166.305L20.226,165.844L19.811,165.401L19.398,164.957L18.97,164.491L18.553,164.029L18.146,163.575L17.735,163.111L17.326,162.643L16.928,162.181L16.525,161.711L16.118,161.227L15.728,160.757L15.333,160.279L14.942,159.795L14.56,159.32L14.174,158.834L13.791,158.345L13.411,157.853L13.025,157.348L12.659,156.859L12.302,156.382L11.927,155.874L11.562,155.37L11.196,154.861L10.838,154.354L10.495,153.864L10.132,153.342L9.783,152.827L9.44,152.32L9.088,151.789L8.748,151.269L8.415,150.754L8.081,150.231L7.749,149.702L7.425,149.182L7.104,148.659L6.781,148.128L6.452,147.579L6.134,147.037L5.83,146.512L5.519,145.971L5.209,145.421L4.902,144.871L4.604,144.325L4.318,143.797L4.016,143.235L3.72,142.667L3.438,142.12L3.158,141.571L2.881,141.021L2.596,140.448L2.324,139.887L2.056,139.33L1.786,138.758L1.523,138.191L1.255,137.608L1.004,137.043L0.752,136.478L0.499,135.895L0.249,135.313L0.008,134.736L-0.232,134.158L-0.471,133.567L-0.7,132.992L-0.927,132.414L-1.157,131.821L-1.384,131.219L-1.6,130.637L-1.818,130.038L-2.027,129.447L-2.235,128.859L-2.447,128.24L-2.645,127.644L-2.842,127.051L-3.036,126.447L-3.225,125.849L-3.417,125.231L-3.6,124.621L-3.776,124.023L-3.956,123.402L-4.129,122.783L-4.295,122.18L-4.462,121.558L-4.619,120.953L-4.782,120.325L-4.935,119.698L-5.083,119.091L-5.23,118.465L-5.375,117.832L-5.514,117.2L-5.646,116.585L-5.779,115.951L-5.907,115.317L-6.028,114.697L-6.149,114.06L-6.265,113.421L-6.378,112.782L-6.486,112.141L-6.588,111.516L-6.69,110.87L-6.785,110.226L-6.876,109.6L-6.966,108.951L-7.053,108.29L-7.132,107.64L-7.206,107.006L-7.278,106.372L-7.35,105.702L-7.412,105.051L-7.472,104.415L-7.53,103.742L-7.581,103.084L-7.627,102.445L-7.672,101.788L-7.712,101.128L-7.748,100.469L-7.779,99.81L-7.807,99.148L-7.83,98.487L-7.849,97.823L-7.863,97.159L-7.874,96.493L-7.88,95.827L-7.883,95.162L-7.88,94.496L-7.874,93.83L-7.863,93.164L-7.849,92.501L-7.83,91.837L-7.807,91.175L-7.779,90.514L-7.748,89.852L-7.711,89.192L-7.672,88.536L-7.627,87.876L-7.581,87.238L-7.53,86.582L-7.472,85.908L-7.412,85.272L-7.35,84.621L-7.278,83.951L-7.206,83.317L-7.132,82.683L-7.053,82.035L-6.966,81.37L-6.876,80.724L-6.785,80.094L-6.689,79.451L-6.588,78.807L-6.486,78.182L-6.378,77.541L-6.265,76.902L-6.149,76.263L-6.028,75.626L-5.907,75.007L-5.779,74.372L-5.646,73.738L-5.514,73.123L-5.375,72.492L-5.231,71.862L-5.084,71.233L-4.934,70.619L-4.781,69.995L-4.619,69.37L-4.462,68.765L-4.296,68.148L-4.129,67.538L-3.955,66.917L-3.778,66.305L-3.601,65.704L-3.415,65.086L-3.225,64.474L-3.037,63.879L-2.84,63.265L-2.644,62.674L-2.447,62.084L-2.235,61.464L-2.027,60.876L-1.818,60.285L-1.6,59.687L-1.384,59.104L-1.159,58.508L-0.929,57.912L-0.7,57.329L-0.468,56.748L-0.23,56.16L0.008,55.587L0.246,55.017L0.496,54.432L0.752,53.843L1.006,53.272L1.258,52.709L1.523,52.132L1.786,51.566L2.056,50.994L2.324,50.437L2.596,49.875L2.877,49.309L3.158,48.75L3.441,48.196L3.72,47.656L4.016,47.088L4.318,46.526L4.604,45.998L4.898,45.459L5.209,44.899L5.523,44.345L5.83,43.811L6.134,43.286L6.452,42.744L6.776,42.203L7.104,41.662L7.425,41.141L7.749,40.618L8.086,40.085L8.415,39.57L8.748,39.054L9.088,38.534L9.434,38.012L9.783,37.494L10.132,36.981L10.495,36.457L10.844,35.961L11.196,35.462L11.562,34.954L11.927,34.449L12.296,33.95L12.659,33.462L13.031,32.967L13.411,32.47L13.791,31.979L14.174,31.49L14.553,31.012L14.942,30.526L15.333,30.045L15.728,29.564L16.125,29.088L16.518,28.621L16.921,28.148L17.326,27.678L17.735,27.21L18.146,26.745L18.561,26.283L18.978,25.823L19.398,25.367L19.803,24.931L20.226,24.476L20.672,24.009L21.086,23.581L21.517,23.135L21.954,22.694L22.381,22.262L22.83,21.818L23.266,21.391L23.712,20.959L24.16,20.531L24.611,20.104L25.055,19.69L25.509,19.268L25.968,18.852L26.428,18.435L26.892,18.024L27.348,17.621L27.816,17.215L28.287,16.809L28.76,16.409L29.227,16.016L29.713,15.613L30.195,15.221L30.668,14.838L31.141,14.46L31.628,14.073L32.14,13.675L32.624,13.306L33.097,12.945L33.592,12.572L34.101,12.193L34.602,11.828L35.097,11.47L35.604,11.108L36.11,10.751L36.62,10.397L37.131,10.045L37.638,9.702L38.144,9.362L38.673,9.011L39.193,8.673L39.708,8.341L40.234,8.006L40.76,7.676L41.301,7.341L41.823,7.025L42.346,6.708L42.88,6.392L43.408,6.081L43.957,5.763L44.512,5.448L45.038,5.154L45.579,4.851L46.14,4.547L46.671,4.261L47.218,3.97L47.784,3.674L48.342,3.387L48.876,3.117L49.438,2.833L50.009,2.554L50.569,2.282L51.138,2.011L51.694,1.75L52.252,1.492L52.825,1.23L53.407,0.97L53.971,0.722L54.549,0.471L55.122,0.228L55.691,-0.012L56.29,-0.258L56.868,-0.49L57.442,-0.719L58.025,-0.946L58.621,-1.176L59.215,-1.397L59.793,-1.611L60.381,-1.823L60.978,-2.037L61.578,-2.245L62.163,-2.445L62.767,-2.647L63.369,-2.844L63.965,-3.035L64.573,-3.227L65.177,-3.412L65.785,-3.595L66.385,-3.77L66.999,-3.948L67.613,-4.118L68.214,-4.284L68.83,-4.448L69.453,-4.611L70.075,-4.767L70.676,-4.916L71.298,-5.067L71.938,-5.216L72.546,-5.352L73.161,-5.49L73.806,-5.628L74.432,-5.756L75.045,-5.879L75.677,-6.003L76.309,-6.122L76.93,-6.235L77.58,-6.35L78.214,-6.455L78.838,-6.557L79.474,-6.656L80.116,-6.753L80.769,-6.846L81.397,-6.93L82.041,-7.016L82.683,-7.094L83.327,-7.172L83.976,-7.242L84.623,-7.311L85.268,-7.373L85.918,-7.434L86.569,-7.488L87.219,-7.541L87.87,-7.587L88.524,-7.632L89.177,-7.67L89.833,-7.707L90.505,-7.737L91.146,-7.763L91.801,-7.787L92.478,-7.806L93.135,-7.82L93.779,-7.83L94.455,-7.838L95.78,-7.838L96.456,-7.83ZM94.552,8.162L94.005,8.168L93.427,8.178L92.866,8.189L92.321,8.204L91.763,8.225L91.187,8.248L90.647,8.272L90.09,8.304L89.537,8.336L88.983,8.374L88.432,8.413L87.88,8.458L87.33,8.504L86.783,8.556L86.236,8.608L85.687,8.667L85.144,8.725L84.602,8.791L84.057,8.856L83.515,8.929L82.962,9.003L82.439,9.078L81.9,9.159L81.366,9.242L80.813,9.333L80.281,9.421L79.761,9.513L79.216,9.612L78.688,9.711L78.159,9.815L77.617,9.924L77.088,10.032L76.578,10.141L76.042,10.261L75.506,10.381L75.001,10.499L74.483,10.625L73.945,10.758L73.427,10.888L72.915,11.022L72.402,11.159L71.873,11.304L71.363,11.446L70.853,11.594L70.334,11.745L69.829,11.897L69.318,12.054L68.813,12.213L68.299,12.377L67.799,12.541L67.299,12.709L66.785,12.885L66.287,13.057L65.792,13.234L65.287,13.417L64.781,13.604L64.288,13.787L63.806,13.973L63.312,14.166L62.809,14.366L62.314,14.564L61.845,14.758L61.347,14.967L60.858,15.175L60.38,15.383L59.887,15.599L59.417,15.809L58.943,16.026L58.455,16.252L57.969,16.48L57.498,16.704L57.022,16.935L56.562,17.16L56.098,17.395L55.606,17.644L55.144,17.881L54.689,18.119L54.225,18.366L53.747,18.623L53.297,18.867L52.839,19.123L52.365,19.388L51.92,19.641L51.479,19.896L51.018,20.168L50.567,20.435L50.111,20.711L49.655,20.987L49.222,21.255L48.778,21.534L48.342,21.811L47.893,22.101L47.454,22.386L47.03,22.667L46.588,22.964L46.147,23.264L45.716,23.56L45.287,23.858L44.861,24.158L44.44,24.458L44.008,24.772L43.587,25.079L43.179,25.382L42.763,25.695L42.329,26.026L41.907,26.349L41.517,26.652L41.107,26.977L40.69,27.31L40.277,27.644L39.873,27.974L39.484,28.296L39.075,28.64L38.678,28.976L38.283,29.316L37.891,29.657L37.492,30.009L37.102,30.354L36.717,30.703L36.332,31.053L35.952,31.406L35.562,31.769L35.184,32.127L34.809,32.485L34.435,32.848L34.053,33.222L33.694,33.578L33.319,33.956L32.952,34.326L32.591,34.7L32.212,35.092L31.87,35.45L31.516,35.831L31.145,36.23L30.793,36.613L30.443,36.998L30.096,37.386L29.751,37.775L29.408,38.168L29.068,38.562L28.73,38.959L28.387,39.366L28.054,39.765L27.723,40.169L27.395,40.572L27.068,40.98L26.738,41.397L26.416,41.807L26.097,42.22L25.783,42.631L25.471,43.046L25.15,43.478L24.84,43.897L24.532,44.321L24.23,44.742L23.924,45.176L23.615,45.615L23.325,46.034L23.032,46.465L22.738,46.901L22.452,47.332L22.166,47.77L21.876,48.219L21.59,48.667L21.315,49.102L21.033,49.557L20.753,50.01L20.485,50.452L20.218,50.899L19.956,51.345L19.685,51.814L19.418,52.278L19.167,52.721L18.918,53.169L18.663,53.638L18.399,54.124L18.158,54.574L17.92,55.029L17.671,55.512L17.431,55.981L17.193,56.455L16.962,56.921L16.731,57.397L16.497,57.883L16.275,58.353L16.051,58.834L15.834,59.31L15.614,59.8L15.397,60.286L15.192,60.759L14.986,61.241L14.778,61.739L14.571,62.238L14.374,62.722L14.176,63.218L13.981,63.717L13.791,64.208L13.606,64.699L13.418,65.208L13.237,65.702L13.058,66.208L12.877,66.722L12.711,67.204L12.54,67.72L12.368,68.236L12.208,68.734L12.044,69.255L11.887,69.761L11.736,70.263L11.581,70.79L11.432,71.304L11.29,71.809L11.146,72.336L11.006,72.855L10.868,73.386L10.735,73.903L10.608,74.42L10.478,74.953L10.356,75.475L10.236,75.997L10.121,76.521L10.005,77.062L9.894,77.589L9.788,78.116L9.682,78.662L9.58,79.192L9.484,79.724L9.39,80.256L9.3,80.79L9.21,81.342L9.126,81.879L9.045,82.416L8.965,82.973L8.89,83.513L8.821,84.038L8.755,84.58L8.689,85.142L8.626,85.704L8.569,86.235L8.517,86.784L8.463,87.349L8.417,87.881L8.375,88.435L8.333,89.003L8.295,89.559L8.262,90.113L8.231,90.668L8.205,91.227L8.181,91.786L8.162,92.345L8.146,92.906L8.134,93.468L8.124,94.032L8.12,94.597L8.117,95.162L8.12,95.726L8.124,96.291L8.134,96.855L8.146,97.417L8.162,97.978L8.181,98.537L8.205,99.096L8.231,99.652L8.262,100.209L8.295,100.765L8.333,101.318L8.375,101.889L8.417,102.442L8.463,102.974L8.569,104.088L8.626,104.619L8.689,105.181L8.755,105.743L8.821,106.283L8.89,106.808L8.965,107.35L9.045,107.905L9.126,108.447L9.21,108.981L9.3,109.533L9.39,110.067L9.484,110.599L9.58,111.131L9.682,111.661L9.788,112.207L9.894,112.734L10.005,113.261L10.121,113.802L10.236,114.327L10.355,114.845L10.477,115.365L10.736,116.424L10.868,116.937L11.006,117.468L11.145,117.983L11.29,118.512L11.433,119.024L11.58,119.529L11.734,120.053L11.888,120.565L12.044,121.068L12.207,121.582L12.37,122.089L12.542,122.608L12.711,123.119L12.877,123.602L13.058,124.116L13.237,124.622L13.418,125.115L13.606,125.624L13.789,126.11L13.978,126.598L14.176,127.103L14.377,127.605L14.573,128.091L14.778,128.585L14.983,129.076L15.189,129.555L15.397,130.035L15.836,131.02L16.051,131.489L16.275,131.97L16.497,132.441L16.731,132.926L16.962,133.402L17.19,133.862L17.431,134.34L17.674,134.818L17.92,135.294L18.158,135.749L18.399,136.2L18.663,136.685L18.914,137.147L19.167,137.599L19.422,138.053L19.685,138.51L19.956,138.978L20.218,139.424L20.481,139.863L20.753,140.311L21.033,140.766L21.315,141.219L21.594,141.664L21.876,142.105L22.166,142.553L22.452,142.991L22.733,143.414L23.325,144.289L23.615,144.706L23.929,145.155L24.23,145.581L24.532,146.002L24.84,146.426L25.144,146.837L25.789,147.7L26.097,148.104L26.416,148.516L26.738,148.927L27.062,149.335L27.395,149.749L27.723,150.155L28.054,150.556L28.394,150.966L28.723,151.356L29.061,151.75L29.408,152.153L29.751,152.545L30.096,152.935L30.451,153.331L30.801,153.719L31.145,154.094L31.508,154.484L31.87,154.871L32.22,155.24L32.591,155.624L32.953,155.998L33.694,156.746L34.053,157.102L34.426,157.467L34.809,157.836L35.184,158.196L35.562,158.552L35.961,158.926L36.332,159.271L36.717,159.62L37.102,159.969L37.492,160.314L37.891,160.667L38.283,161.007L38.678,161.347L39.065,161.675L39.484,162.024L39.883,162.358L40.277,162.679L40.69,163.013L41.097,163.338L41.506,163.66L41.917,163.981L42.34,164.305L42.763,164.628L43.168,164.933L43.587,165.242L44.008,165.552L44.873,166.173L45.287,166.465L45.716,166.764L46.147,167.059L46.588,167.359L47.03,167.656L47.454,167.937L47.88,168.214L48.791,168.797L49.222,169.068L49.655,169.336L50.111,169.612L50.567,169.889L51.005,170.148L51.92,170.682L52.852,171.207L53.297,171.456L53.747,171.7L54.225,171.958L54.689,172.205L55.144,172.442L55.606,172.68L56.084,172.921L56.562,173.161L57.036,173.395L57.498,173.62L57.969,173.843L58.455,174.072L58.929,174.291L59.417,174.512L59.901,174.73L60.38,174.941L60.858,175.149L61.333,175.35L61.831,175.557L62.329,175.762L62.829,175.965L63.309,176.158L63.785,176.342L64.288,176.534L64.796,176.725L65.287,176.907L65.792,177.089L66.287,177.266L66.785,177.439L67.299,177.614L67.799,177.782L68.299,177.946L68.797,178.106L69.318,178.267L69.844,178.431L70.334,178.578L70.837,178.725L71.363,178.875L71.889,179.023L72.402,179.165L72.9,179.297L73.427,179.433L73.96,179.569L74.467,179.695L74.985,179.818L75.522,179.943L76.058,180.066L76.578,180.182L77.088,180.291L77.617,180.4L78.159,180.509L78.688,180.612L79.216,180.711L79.745,180.808L80.281,180.9L80.829,180.993L81.366,181.081L81.884,181.162L82.439,181.243L82.978,181.323L83.499,181.392L84.057,181.464L84.602,181.533L85.144,181.596L85.687,181.657L86.237,181.713L86.784,181.768L87.33,181.817L87.88,181.865L88.432,181.908L88.983,181.949L89.537,181.985L90.091,182.019L90.647,182.048L91.204,182.076L91.763,182.098L92.32,182.119L92.866,182.134L93.427,182.146L93.989,182.155L94.552,182.159L95.117,182.162L95.683,182.159L96.245,182.155L96.808,182.146L97.371,182.134L97.914,182.119L98.474,182.098L99.03,182.076L99.588,182.048L100.144,182.019L100.698,181.985L101.251,181.949L101.802,181.908L102.354,181.865L102.905,181.817L103.453,181.768L104,181.713L104.546,181.657L105.091,181.596L105.633,181.533L106.177,181.464L106.736,181.392L107.259,181.322L107.798,181.243L108.348,181.162L108.869,181.081L109.408,180.993L109.956,180.9L110.487,180.808L111.018,180.711L111.547,180.612L112.079,180.508L112.62,180.4L113.143,180.292L113.657,180.182L114.176,180.066L114.713,179.943L115.254,179.817L115.77,179.695L116.27,179.57L116.808,179.433L117.335,179.297L117.832,179.165L118.345,179.023L118.871,178.875L119.398,178.725L119.906,178.577L120.398,178.429L120.914,178.269L121.432,178.107L121.935,177.946L122.435,177.782L122.936,177.614L123.449,177.439L123.947,177.266L124.443,177.089L124.954,176.905L125.441,176.725L125.946,176.534L126.452,176.342L126.919,176.16L127.405,175.965L127.906,175.762L128.404,175.557L128.902,175.35L129.376,175.149L129.855,174.941L130.334,174.73L130.824,174.509L131.308,174.291L131.773,174.075L132.265,173.843L132.737,173.62L133.199,173.395L133.672,173.161L134.151,172.921L134.629,172.68L135.091,172.442L135.553,172.201L136.019,171.954L136.482,171.704L136.938,171.456L137.393,171.203L137.864,170.937L138.307,170.687L138.755,170.425L139.229,170.148L139.675,169.884L140.126,169.612L140.572,169.341L141.013,169.068L141.452,168.792L141.895,168.51L142.346,168.219L142.78,167.937L143.204,167.656L143.646,167.359L144.088,167.059L144.519,166.764L144.947,166.465L145.362,166.173L145.794,165.863L146.226,165.552L146.648,165.242L147.067,164.933L147.481,164.621L147.897,164.305L148.308,163.987L148.729,163.66L149.138,163.338L149.544,163.013L149.958,162.679L150.351,162.358L150.751,162.024L151.17,161.675L151.556,161.348L151.951,161.007L152.343,160.667L152.742,160.314L153.132,159.969L153.517,159.62L153.912,159.262L154.276,158.926L154.663,158.561L155.05,158.197L155.435,157.827L155.811,157.467L156.172,157.111L156.55,156.737L156.918,156.367L157.282,155.998L157.646,155.624L158.005,155.25L158.373,154.861L158.729,154.484L159.081,154.103L159.434,153.719L159.784,153.331L160.139,152.935L160.484,152.545L160.826,152.153L161.174,151.75L161.512,151.356L161.84,150.966L162.18,150.556L162.511,150.155L162.84,149.749L163.173,149.335L163.497,148.927L163.818,148.516L164.137,148.104L164.454,147.689L164.766,147.275L165.082,146.849L165.394,146.426L165.702,146.002L166.013,145.569L166.308,145.155L166.611,144.718L166.91,144.289L167.203,143.856L167.502,143.414L167.782,142.991L168.077,142.54L168.369,142.092L168.643,141.664L168.922,141.219L169.196,140.779L169.473,140.324L169.754,139.863L170.016,139.424L170.278,138.978L170.549,138.51L170.813,138.053L171.068,137.6L171.328,137.133L171.575,136.685L171.828,136.214L172.077,135.749L172.314,135.294L172.56,134.818L172.804,134.34L173.045,133.862L173.28,133.388L173.506,132.926L173.731,132.455L173.96,131.97L174.183,131.489L174.398,131.02L174.618,130.527L174.837,130.035L175.045,129.555L175.258,129.061L175.459,128.585L175.655,128.106L175.858,127.605L176.058,127.103L176.256,126.598L176.446,126.11L176.629,125.624L176.817,125.115L177.003,124.606L177.179,124.116L177.352,123.618L177.529,123.104L177.696,122.608L177.86,122.105L178.028,121.582L178.191,121.068L178.346,120.565L178.5,120.053L178.655,119.529L178.801,119.024L178.944,118.512L179.09,117.983L179.232,117.452L179.369,116.937L179.499,116.424L179.628,115.904L179.753,115.381L179.879,114.845L179.998,114.327L180.114,113.802L180.23,113.261L180.34,112.734L180.446,112.207L180.553,111.661L180.654,111.131L180.751,110.6L180.845,110.067L180.937,109.516L181.027,108.981L181.106,108.464L181.189,107.905L181.269,107.35L181.345,106.808L181.414,106.283L181.482,105.726L181.548,105.181L181.607,104.636L181.668,104.071L181.72,103.539L181.77,102.991L181.819,102.425L181.864,101.872L181.903,101.335L181.938,100.782L181.972,100.209L182.003,99.652L182.029,99.096L182.053,98.537L182.072,97.978L182.089,97.417L182.101,96.855L182.11,96.291L182.115,95.726L182.117,95.162L182.115,94.597L182.11,94.032L182.101,93.468L182.089,92.906L182.072,92.345L182.053,91.786L182.029,91.227L182.003,90.668L181.973,90.113L181.938,89.542L181.903,88.986L181.864,88.452L181.819,87.898L181.77,87.332L181.72,86.784L181.668,86.252L181.607,85.687L181.548,85.142L181.482,84.597L181.413,84.038L181.345,83.513L181.269,82.973L181.189,82.416L181.106,81.862L181.027,81.342L180.937,80.807L180.845,80.256L180.751,79.724L180.654,79.192L180.553,78.662L180.446,78.116L180.34,77.589L180.23,77.062L180.114,76.521L179.998,75.997L179.879,75.475L179.753,74.936L179.629,74.42L179.5,73.903L179.369,73.386L179.232,72.871L179.088,72.336L178.944,71.809L178.803,71.304L178.654,70.79L178.499,70.263L178.348,69.761L178.191,69.255L178.026,68.734L177.861,68.22L177.697,67.72L177.529,67.22L177.352,66.706L177.179,66.208L177.003,65.717L176.817,65.208L176.629,64.699L176.444,64.208L176.254,63.717L176.058,63.218L175.86,62.722L175.658,62.223L175.459,61.739L175.255,61.257L175.043,60.759L174.837,60.286L174.621,59.8L174.401,59.31L174.183,58.834L173.96,58.353L173.731,57.868L173.506,57.397L173.28,56.935L173.041,56.455L172.804,55.981L172.564,55.512L172.314,55.029L172.077,54.574L171.828,54.11L171.575,53.639L171.324,53.183L171.068,52.721L170.817,52.278L170.549,51.813L170.278,51.345L170.016,50.899L169.749,50.452L169.473,49.997L169.196,49.544L168.922,49.102L168.648,48.667L168.369,48.231L168.077,47.783L167.782,47.332L167.497,46.901L167.203,46.465L166.91,46.034L166.611,45.603L166.313,45.176L166.013,44.754L165.702,44.321L165.394,43.897L165.076,43.466L164.766,43.046L164.461,42.643L164.137,42.22L163.818,41.807L163.497,41.397L163.166,40.98L162.84,40.572L162.511,40.169L162.18,39.765L161.847,39.366L161.505,38.959L161.167,38.562L160.826,38.168L160.484,37.775L160.139,37.386L159.791,36.998L159.442,36.613L159.081,36.22L158.721,35.831L158.373,35.459L158.013,35.082L157.646,34.7L157.282,34.326L156.918,33.956L156.55,33.587L156.172,33.213L155.802,32.848L155.435,32.494L155.05,32.127L154.663,31.76L154.285,31.406L153.912,31.061L153.517,30.703L153.132,30.354L152.742,30.009L152.343,29.657L151.951,29.316L151.557,28.976L151.159,28.64L150.751,28.296L150.362,27.974L149.958,27.644L149.544,27.31L149.127,26.977L148.718,26.652L148.319,26.342L147.908,26.026L147.48,25.702L147.055,25.382L146.648,25.079L146.226,24.772L145.794,24.458L145.374,24.158L144.948,23.858L144.519,23.56L144.088,23.264L143.646,22.964L143.204,22.667L142.78,22.386L142.334,22.096L141.895,21.811L141.464,21.539L141.013,21.255L140.572,20.982L140.126,20.711L139.675,20.439L139.216,20.168L138.755,19.896L138.307,19.636L137.864,19.383L137.406,19.128L136.938,18.867L136.482,18.619L136.019,18.37L135.553,18.123L135.091,17.881L134.629,17.644L134.137,17.395L133.672,17.16L133.213,16.935L132.737,16.704L132.265,16.48L131.773,16.249L131.294,16.026L130.824,15.812L130.348,15.599L129.855,15.383L129.376,15.175L128.887,14.967L128.389,14.758L127.92,14.564L127.42,14.364L126.919,14.163L126.437,13.975L125.946,13.787L125.456,13.604L124.954,13.419L124.443,13.234L123.947,13.057L123.449,12.885L122.936,12.709L122.435,12.541L121.935,12.377L121.417,12.211L120.914,12.052L120.413,11.899L119.906,11.746L119.382,11.594L118.872,11.446L118.361,11.304L117.832,11.159L117.319,11.022L116.808,10.888L116.286,10.757L115.754,10.625L115.238,10.5L114.729,10.381L114.192,10.261L113.657,10.141L113.143,10.031L112.62,9.924L112.079,9.815L111.547,9.711L111.018,9.612L110.471,9.512L109.956,9.421L109.424,9.333L108.869,9.242L108.332,9.158L107.798,9.078L107.275,9.003L106.719,8.929L106.177,8.856L105.633,8.791L105.09,8.725L104.546,8.666L104,8.608L103.453,8.556L102.905,8.504L102.354,8.458L101.802,8.413L101.251,8.374L100.698,8.336L100.144,8.304L99.588,8.272L99.047,8.248L98.474,8.225L97.914,8.204L97.371,8.189L96.808,8.178L96.229,8.168L95.683,8.162L94.552,8.162Z" style="fill:rgb(89,74,55);"/>
        </g>
        <path id="Shape-Copy" d="M94.958,14.044L94.44,14.051L93.922,14.059L93.406,14.069L92.889,14.084L92.375,14.103L91.859,14.124L91.346,14.147L90.832,14.176L90.321,14.206L89.81,14.241L89.301,14.277L88.792,14.319L88.283,14.36L87.776,14.409L87.271,14.457L86.764,14.511L86.26,14.565L85.757,14.626L85.255,14.687L84.752,14.754L84.252,14.821L83.754,14.892L83.253,14.967L82.758,15.045L82.259,15.126L81.766,15.208L81.27,15.296L80.776,15.386L80.285,15.478L79.793,15.574L79.304,15.673L78.814,15.773L78.325,15.878L77.838,15.987L77.353,16.095L76.868,16.208L76.385,16.326L75.903,16.445L75.42,16.566L74.939,16.692L74.461,16.819L73.983,16.951L73.506,17.083L73.03,17.221L72.556,17.359L72.084,17.502L71.613,17.646L71.141,17.795L70.671,17.945L70.204,18.098L69.737,18.255L69.271,18.414L68.806,18.575L68.343,18.741L67.88,18.908L67.422,19.078L66.961,19.249L66.504,19.425L66.048,19.603L65.592,19.785L65.137,19.967L64.685,20.153L64.233,20.344L63.783,20.534L63.336,20.729L62.888,20.926L62.443,21.124L62,21.327L61.556,21.533L61.115,21.74L60.674,21.949L60.235,22.162L59.799,22.376L59.364,22.596L58.93,22.815L58.497,23.037L58.065,23.263L57.637,23.491L57.209,23.722L56.781,23.954L56.358,24.19L55.934,24.427L55.511,24.668L55.092,24.91L54.673,25.157L54.256,25.404L53.841,25.655L53.426,25.907L53.014,26.162L52.604,26.419L52.195,26.679L51.787,26.943L51.381,27.206L50.978,27.474L50.576,27.744L50.174,28.016L49.775,28.29L49.378,28.567L48.983,28.845L48.59,29.125L48.197,29.41L47.807,29.695L47.418,29.983L47.032,30.274L46.648,30.567L46.264,30.86L45.882,31.157L45.503,31.459L45.125,31.76L44.75,32.064L44.375,32.369L44.004,32.677L43.633,32.989L43.265,33.301L42.898,33.617L42.534,33.933L42.172,34.253L41.81,34.573L41.452,34.897L41.095,35.222L40.741,35.55L40.388,35.879L40.037,36.212L39.688,36.544L39.341,36.881L38.995,37.22L38.652,37.559L38.312,37.903L37.972,38.246L37.636,38.593L37.301,38.941L36.967,39.29L36.638,39.644L36.309,39.998L35.982,40.353L35.657,40.711L35.334,41.071L35.014,41.433L34.696,41.797L34.38,42.164L34.066,42.532L33.755,42.902L33.445,43.273L33.138,43.648L32.833,44.022L32.53,44.401L32.23,44.78L31.931,45.161L31.635,45.544L31.341,45.929L31.051,46.314L30.762,46.703L30.474,47.092L30.189,47.486L29.906,47.879L29.627,48.275L29.348,48.67L29.072,49.07L28.8,49.47L28.528,49.874L28.26,50.278L27.995,50.684L27.731,51.092L27.47,51.5L27.211,51.91L26.954,52.324L26.7,52.737L26.448,53.153L26.197,53.572L25.952,53.99L25.708,54.411L25.465,54.834L25.225,55.256L24.988,55.683L24.756,56.11L24.523,56.539L24.293,56.968L24.067,57.402L23.843,57.835L23.621,58.268L23.402,58.705L23.185,59.143L22.972,59.582L22.759,60.024L22.551,60.466L22.344,60.909L22.14,61.355L21.941,61.801L21.741,62.249L21.546,62.699L21.352,63.151L21.164,63.603L20.975,64.057L20.791,64.511L20.609,64.967L20.429,65.426L20.251,65.886L20.078,66.346L19.906,66.809L19.737,67.271L19.573,67.736L19.408,68.203L19.248,68.669L19.092,69.138L18.937,69.607L18.785,70.078L18.636,70.551L18.489,71.024L18.346,71.499L18.206,71.976L18.068,72.453L17.934,72.93L17.802,73.412L17.673,73.893L17.548,74.374L17.422,74.858L17.304,75.341L17.186,75.827L17.071,76.315L16.96,76.802L16.852,77.292L16.747,77.782L16.644,78.273L16.545,78.765L16.448,79.259L16.354,79.753L16.264,80.249L16.176,80.745L16.093,81.243L16.012,81.741L15.933,82.241L15.858,82.742L15.786,83.244L15.715,83.746L15.65,84.251L15.588,84.755L15.529,85.261L15.472,85.768L15.417,86.276L15.369,86.785L15.32,87.294L15.276,87.804L15.237,88.317L15.2,88.828L15.165,89.342L15.134,89.855L15.105,90.37L15.081,90.887L15.059,91.404L15.042,91.921L15.026,92.44L15.015,92.959L15.007,93.48L15.002,94.001L15,94.522L15.002,95.043L15.007,95.564L15.015,96.086L15.026,96.605L15.042,97.124L15.059,97.641L15.081,98.157L15.105,98.672L15.134,99.187L15.165,99.702L15.2,100.215L15.237,100.727L15.276,101.24L15.32,101.751L15.417,102.768L15.472,103.277L15.529,103.783L15.588,104.289L15.65,104.794L15.715,105.296L15.786,105.8L15.858,106.301L15.933,106.803L16.012,107.303L16.093,107.801L16.176,108.299L16.264,108.795L16.354,109.291L16.448,109.785L16.545,110.279L16.644,110.771L16.747,111.263L16.852,111.752L16.96,112.242L17.071,112.73L17.186,113.215L17.422,114.186L17.548,114.67L17.673,115.151L17.802,115.633L17.934,116.112L18.068,116.591L18.206,117.068L18.346,117.543L18.489,118.018L18.636,118.494L18.785,118.964L18.937,119.435L19.092,119.906L19.248,120.375L19.408,120.842L19.573,121.308L19.737,121.773L19.906,122.235L20.078,122.698L20.251,123.158L20.429,123.617L20.609,124.075L20.791,124.531L20.975,124.988L21.164,125.442L21.352,125.894L21.546,126.344L21.741,126.794L22.14,127.689L22.344,128.135L22.551,128.579L22.759,129.02L22.972,129.462L23.185,129.902L23.402,130.339L23.621,130.774L23.843,131.21L24.067,131.643L24.293,132.076L24.523,132.505L24.756,132.934L24.988,133.361L25.225,133.786L25.465,134.211L25.708,134.633L25.952,135.054L26.197,135.473L26.448,135.891L26.7,136.306L26.954,136.72L27.211,137.132L27.47,137.545L27.731,137.953L27.995,138.361L28.26,138.767L28.528,139.171L29.072,139.974L29.348,140.372L29.627,140.77L29.906,141.165L30.189,141.559L30.474,141.952L30.762,142.341L31.341,143.116L31.635,143.501L31.931,143.884L32.23,144.265L32.53,144.643L32.833,145.02L33.138,145.397L33.445,145.769L33.755,146.142L34.066,146.512L34.38,146.879L34.696,147.245L35.014,147.609L35.334,147.971L35.657,148.331L35.982,148.691L36.309,149.047L36.638,149.4L36.967,149.752L37.301,150.104L37.972,150.798L38.652,151.485L38.995,151.824L39.341,152.163L39.688,152.498L40.037,152.833L40.388,153.163L40.741,153.494L41.095,153.823L41.81,154.471L42.534,155.112L42.898,155.428L43.265,155.744L43.633,156.056L44.375,156.675L44.75,156.981L45.125,157.284L45.503,157.586L45.882,157.885L46.264,158.182L46.648,158.477L47.032,158.77L47.418,159.061L47.807,159.348L48.197,159.634L48.983,160.199L49.378,160.478L49.775,160.754L50.174,161.028L50.576,161.3L50.978,161.57L51.381,161.838L51.787,162.102L52.604,162.625L53.014,162.882L53.426,163.138L54.256,163.64L54.673,163.887L55.511,164.377L56.358,164.854L56.781,165.09L57.209,165.323L57.637,165.553L58.065,165.781L58.497,166.007L58.93,166.229L59.364,166.449L59.799,166.666L60.235,166.882L60.674,167.095L61.115,167.305L61.556,167.512L62,167.717L62.443,167.918L62.888,168.119L63.336,168.315L63.783,168.51L64.233,168.701L64.685,168.889L65.137,169.075L65.592,169.259L66.046,169.441L66.504,169.619L66.961,169.793L67.422,169.967L67.88,170.136L68.343,170.304L68.806,170.469L69.271,170.63L69.737,170.789L70.204,170.946L70.671,171.099L71.141,171.25L72.084,171.543L72.556,171.685L73.03,171.823L73.506,171.959L73.983,172.093L74.461,172.225L74.939,172.353L75.42,172.476L75.903,172.6L76.385,172.719L76.868,172.834L77.353,172.947L77.838,173.058L78.325,173.167L78.814,173.271L79.304,173.372L79.793,173.47L80.285,173.566L80.776,173.658L81.27,173.748L81.766,173.834L82.259,173.918L82.758,174L83.253,174.077L83.754,174.15L84.252,174.224L84.752,174.291L85.255,174.355L85.757,174.418L86.26,174.477L86.764,174.533L87.271,174.586L87.776,174.636L88.283,174.682L88.792,174.726L89.301,174.766L89.81,174.803L90.321,174.837L90.832,174.868L91.346,174.895L91.859,174.92L92.375,174.941L92.889,174.96L93.406,174.975L93.922,174.985L94.44,174.994L94.958,174.998L95.478,175L95.998,174.998L96.516,174.994L97.034,174.985L97.551,174.975L98.067,174.96L98.583,174.941L99.096,174.92L99.61,174.895L100.123,174.868L100.634,174.837L101.146,174.803L101.655,174.766L102.164,174.726L102.673,174.682L103.18,174.636L103.687,174.586L104.191,174.533L104.696,174.477L105.199,174.418L105.701,174.355L106.204,174.291L106.704,174.224L107.204,174.15L107.702,174.077L108.198,174L108.696,173.918L109.192,173.834L109.686,173.748L110.18,173.658L110.671,173.566L111.163,173.47L111.654,173.372L112.141,173.271L112.631,173.167L113.118,173.058L113.603,172.947L114.088,172.834L114.573,172.719L115.053,172.6L115.536,172.476L116.016,172.353L116.495,172.225L116.973,172.093L117.449,171.959L117.925,171.823L118.399,171.685L118.873,171.543L119.345,171.396L119.815,171.25L120.284,171.099L120.752,170.946L121.219,170.789L121.684,170.63L122.149,170.469L122.612,170.304L123.075,170.136L123.536,169.967L123.995,169.793L124.453,169.619L124.91,169.441L125.364,169.259L125.818,169.075L126.27,168.889L126.722,168.701L127.172,168.51L127.62,168.315L128.067,168.119L128.513,167.918L128.958,167.717L129.399,167.512L129.84,167.305L130.281,167.095L130.72,166.882L131.157,166.666L131.591,166.449L132.026,166.229L132.458,166.007L132.89,165.781L133.321,165.553L133.748,165.323L134.174,165.09L134.6,164.854L135.023,164.615L135.445,164.377L135.864,164.132L136.283,163.887L136.7,163.64L137.117,163.389L137.529,163.138L137.942,162.882L138.352,162.625L138.762,162.363L139.168,162.102L139.574,161.838L139.978,161.57L140.38,161.3L140.781,161.028L141.181,160.754L141.578,160.478L141.973,160.199L142.365,159.917L142.758,159.634L143.149,159.348L143.537,159.061L143.923,158.77L144.31,158.477L144.691,158.182L145.073,157.885L145.453,157.586L145.83,157.284L146.205,156.981L146.581,156.675L146.951,156.365L147.322,156.056L147.691,155.744L148.057,155.428L148.422,155.112L148.784,154.792L149.146,154.471L149.503,154.147L149.861,153.823L150.217,153.494L150.568,153.163L150.919,152.833L151.268,152.498L151.617,152.163L151.961,151.824L152.303,151.485L152.646,151.142L152.984,150.798L153.322,150.451L153.655,150.104L153.989,149.752L154.32,149.4L154.647,149.047L154.974,148.691L155.299,148.331L155.621,147.971L155.941,147.609L156.26,147.245L156.576,146.879L156.889,146.512L157.201,146.142L157.51,145.769L157.818,145.397L158.123,145.02L158.425,144.643L158.726,144.265L159.024,143.884L159.321,143.501L159.615,143.116L159.907,142.729L160.194,142.341L160.481,141.952L160.767,141.559L161.05,141.165L161.331,140.77L161.607,140.372L161.884,139.974L162.156,139.573L162.428,139.171L162.696,138.767L162.961,138.361L163.227,137.953L163.488,137.545L163.747,137.132L164.003,136.72L164.256,136.306L164.508,135.891L164.758,135.473L165.004,135.054L165.247,134.633L165.491,134.211L165.73,133.786L165.967,133.361L166.202,132.934L166.432,132.505L166.663,132.076L166.889,131.643L167.113,131.21L167.334,130.774L167.554,130.339L167.771,129.902L167.986,129.462L168.197,129.02L168.405,128.579L168.611,128.135L168.815,127.689L169.015,127.242L169.215,126.794L169.41,126.344L169.603,125.894L169.794,125.442L169.981,124.988L170.165,124.531L170.347,124.075L170.527,123.617L170.705,123.158L170.878,122.698L171.049,122.235L171.218,121.773L171.385,121.308L171.547,120.842L171.707,120.375L171.865,119.906L172.019,119.435L172.17,118.964L172.32,118.494L172.467,118.018L172.609,117.543L172.75,117.068L172.888,116.591L173.022,116.112L173.154,115.633L173.283,115.151L173.41,114.67L173.533,114.186L173.654,113.701L173.77,113.215L173.884,112.73L173.996,112.242L174.104,111.752L174.209,111.263L174.312,110.771L174.411,110.279L174.507,109.785L174.602,109.291L174.692,108.795L174.779,108.299L174.863,107.801L174.946,107.303L175.023,106.803L175.098,106.301L175.17,105.8L175.24,105.296L175.306,104.794L175.368,104.289L175.429,103.783L175.484,103.277L175.539,102.768L175.589,102.259L175.635,101.751L175.679,101.24L175.721,100.727L175.758,100.215L175.791,99.702L175.822,99.187L175.85,98.672L175.874,98.157L175.896,97.641L175.914,97.124L175.929,96.605L175.94,96.086L175.949,95.564L175.953,95.043L175.956,94.522L175.953,94.001L175.949,93.48L175.94,92.959L175.929,92.44L175.914,91.921L175.896,91.404L175.874,90.887L175.85,90.37L175.822,89.855L175.791,89.342L175.758,88.828L175.721,88.317L175.679,87.804L175.635,87.294L175.589,86.785L175.539,86.276L175.484,85.768L175.429,85.261L175.368,84.755L175.306,84.251L175.24,83.746L175.17,83.244L175.098,82.742L175.023,82.241L174.946,81.741L174.863,81.243L174.779,80.745L174.692,80.249L174.602,79.753L174.507,79.259L174.411,78.765L174.312,78.273L174.209,77.782L174.104,77.292L173.996,76.802L173.884,76.315L173.77,75.827L173.654,75.341L173.533,74.858L173.41,74.374L173.283,73.893L173.154,73.412L173.022,72.93L172.888,72.453L172.75,71.976L172.609,71.499L172.467,71.024L172.32,70.551L172.17,70.078L172.019,69.607L171.865,69.138L171.707,68.669L171.547,68.203L171.385,67.736L171.218,67.271L171.049,66.809L170.878,66.346L170.705,65.886L170.527,65.426L170.347,64.967L170.165,64.511L169.981,64.057L169.794,63.603L169.603,63.151L169.41,62.699L169.215,62.249L169.015,61.801L168.815,61.355L168.611,60.909L168.405,60.466L168.197,60.024L167.986,59.582L167.771,59.143L167.554,58.705L167.334,58.268L167.113,57.835L166.889,57.402L166.663,56.968L166.432,56.539L166.202,56.11L165.967,55.683L165.73,55.256L165.491,54.834L165.247,54.411L165.004,53.99L164.758,53.572L164.508,53.153L164.256,52.737L164.003,52.324L163.747,51.91L163.488,51.5L163.227,51.092L162.961,50.684L162.696,50.278L162.428,49.874L162.156,49.47L161.884,49.07L161.607,48.67L161.331,48.275L161.05,47.879L160.767,47.486L160.481,47.092L160.194,46.703L159.907,46.314L159.615,45.929L159.321,45.544L159.024,45.161L158.726,44.78L158.425,44.401L158.123,44.022L157.818,43.648L157.51,43.273L157.201,42.902L156.889,42.532L156.576,42.164L156.26,41.797L155.941,41.433L155.621,41.071L155.299,40.711L154.974,40.353L154.647,39.998L154.32,39.644L153.989,39.29L153.655,38.941L153.322,38.593L152.984,38.246L152.646,37.903L152.303,37.559L151.961,37.22L151.617,36.881L151.268,36.544L150.919,36.212L150.568,35.879L150.217,35.55L149.861,35.222L149.503,34.897L149.146,34.573L148.784,34.253L148.422,33.933L148.057,33.617L147.691,33.301L147.322,32.989L146.951,32.677L146.581,32.369L146.205,32.064L145.83,31.76L145.453,31.459L145.073,31.157L144.691,30.86L144.31,30.567L143.923,30.274L143.537,29.983L143.149,29.695L142.758,29.41L142.365,29.125L141.973,28.845L141.578,28.567L141.181,28.29L140.781,28.016L140.38,27.744L139.978,27.474L139.574,27.206L139.168,26.943L138.762,26.679L138.352,26.419L137.942,26.162L137.529,25.907L137.117,25.655L136.7,25.404L136.283,25.157L135.864,24.91L135.445,24.668L135.023,24.427L134.6,24.19L134.174,23.954L133.748,23.722L133.321,23.491L132.89,23.263L132.458,23.037L132.026,22.815L131.591,22.596L131.157,22.376L130.72,22.162L130.281,21.949L129.84,21.74L129.399,21.533L128.958,21.327L128.513,21.124L128.067,20.926L127.62,20.729L127.172,20.534L126.722,20.344L126.27,20.153L125.818,19.967L125.364,19.785L124.91,19.603L124.453,19.425L123.995,19.249L123.536,19.078L123.075,18.908L122.612,18.741L122.149,18.575L121.684,18.414L121.219,18.255L120.752,18.098L120.284,17.945L119.815,17.795L119.345,17.646L118.873,17.502L118.399,17.359L117.925,17.221L117.449,17.083L116.973,16.951L116.495,16.819L116.016,16.692L115.536,16.566L115.053,16.445L114.573,16.326L114.088,16.208L113.603,16.095L113.118,15.987L112.631,15.878L112.141,15.773L111.654,15.673L111.163,15.574L110.671,15.478L110.18,15.386L109.686,15.296L109.192,15.208L108.696,15.126L108.198,15.045L107.702,14.967L107.204,14.892L106.704,14.821L106.204,14.754L105.701,14.687L105.199,14.626L104.696,14.565L104.191,14.511L103.687,14.457L103.18,14.409L102.673,14.36L102.164,14.319L101.655,14.277L101.146,14.241L100.634,14.206L100.123,14.176L99.61,14.147L99.096,14.124L98.583,14.103L98.067,14.084L97.551,14.069L97.034,14.059L96.516,14.051L95.998,14.044L95.478,14.044L94.958,14.044Z" style="fill:rgb(142,193,109);"/>
        <path id="Shape1" d="M95.131,28.028L95.522,28.032L95.911,28.038L96.3,28.046L96.687,28.057L97.076,28.07L97.463,28.086L97.85,28.105L98.235,28.126L98.622,28.148L99.007,28.173L99.393,28.2L99.776,28.23L100.159,28.263L100.542,28.297L100.925,28.335L101.307,28.375L101.688,28.417L102.069,28.461L102.449,28.507L102.828,28.556L103.208,28.608L103.585,28.661L103.962,28.717L104.338,28.774L104.716,28.835L105.091,28.898L105.465,28.963L105.839,29.029L106.212,29.1L106.584,29.17L106.956,29.245L107.327,29.321L107.697,29.399L108.067,29.479L108.803,29.647L109.171,29.735L109.537,29.824L109.903,29.916L110.267,30.009L110.631,30.105L111.356,30.303L111.716,30.406L112.077,30.511L112.437,30.617L112.795,30.726L113.152,30.837L113.508,30.949L113.865,31.065L114.22,31.182L114.574,31.302L114.927,31.422L115.28,31.546L115.63,31.672L115.979,31.799L116.33,31.927L116.677,32.059L117.024,32.192L117.371,32.329L117.716,32.467L118.059,32.606L118.402,32.747L118.746,32.89L119.087,33.037L119.426,33.184L119.766,33.332L120.103,33.485L120.439,33.637L121.11,33.95L121.443,34.108L121.796,34.28L122.437,34.596L123.094,34.932L123.746,35.275L124.395,35.626L125.039,35.982L125.678,36.347L126.311,36.718L126.94,37.098L127.565,37.483L128.185,37.877L128.799,38.276L129.409,38.684L130.013,39.098L130.612,39.519L131.207,39.946L131.796,40.379L132.379,40.819L132.959,41.267L133.531,41.721L134.099,42.18L134.661,42.646L135.22,43.118L135.771,43.597L136.316,44.083L136.858,44.573L137.393,45.071L137.921,45.574L138.438,46.077L138.951,46.586L139.456,47.101L139.958,47.622L140.451,48.148L140.941,48.68L141.424,49.216L141.902,49.759L142.373,50.306L142.838,50.859L143.298,51.418L143.752,51.982L144.198,52.55L144.64,53.124L145.075,53.703L145.452,54.22L145.898,54.859L146.31,55.52L146.688,56.203L147.031,56.903L147.338,57.619L147.608,58.35L147.841,59.093L148.037,59.848L148.194,60.611L148.312,61.383L148.39,62.157L148.428,62.937L148.428,63.715L148.39,64.494L148.31,65.268L148.192,66.041L148.036,66.803L147.839,67.558L147.607,68.302L147.334,69.032L147.027,69.749L146.684,70.448L146.304,71.129L145.893,71.791L145.446,72.429L144.97,73.047L144.463,73.638L143.925,74.202L143.361,74.74L142.768,75.247L142.152,75.724L141.511,76.168L140.85,76.58L140.169,76.959L139.47,77.302L138.753,77.609L138.022,77.88L137.279,78.113L136.524,78.307L135.759,78.465L134.989,78.582L134.213,78.662L133.435,78.7L132.656,78.7L131.878,78.66L131.102,78.582L130.332,78.463L129.569,78.305L128.814,78.111L128.07,77.876L127.34,77.606L126.623,77.299L125.924,76.955L125.243,76.576L124.582,76.164L123.941,75.718L123.325,75.241L122.734,74.732L122.17,74.197L121.632,73.63L121.125,73.039L120.648,72.424L120.37,72.044L120.139,71.735L119.905,71.432L119.668,71.129L119.428,70.832L119.184,70.536L118.938,70.243L118.688,69.953L118.437,69.667L118.181,69.385L117.924,69.104L117.665,68.826L117.402,68.553L117.135,68.283L116.866,68.016L116.595,67.753L116.319,67.488L116.038,67.228L115.756,66.971L115.47,66.719L115.184,66.47L114.893,66.224L114.601,65.981L114.305,65.741L114.008,65.507L113.709,65.276L113.407,65.047L113.102,64.824L112.797,64.603L112.488,64.388L112.178,64.174L111.863,63.964L111.549,63.76L111.232,63.558L110.912,63.362L110.591,63.167L110.267,62.977L109.941,62.792L109.615,62.611L109.285,62.432L108.954,62.258L108.62,62.088L108.266,61.913L108.119,61.84L107.949,61.76L107.781,61.682L107.612,61.604L107.442,61.526L107.27,61.45L107.101,61.373L106.929,61.299L106.757,61.227L106.586,61.154L106.412,61.084L106.239,61.013L106.067,60.944L105.892,60.876L105.718,60.809L105.543,60.742L105.37,60.678L105.194,60.615L105.017,60.552L104.841,60.491L104.664,60.43L104.487,60.369L104.309,60.311L104.132,60.254L103.953,60.197L103.776,60.142L103.596,60.086L103.417,60.035L103.236,59.982L103.057,59.93L102.876,59.881L102.695,59.833L102.514,59.783L102.332,59.738L102.149,59.692L101.966,59.648L101.783,59.604L101.6,59.562L101.417,59.52L101.232,59.48L101.047,59.44L100.864,59.402L100.678,59.366L100.493,59.33L100.306,59.295L100.121,59.263L99.934,59.23L99.745,59.198L99.558,59.169L99.37,59.139L99.183,59.112L98.994,59.086L98.803,59.059L98.615,59.036L98.424,59.011L98.235,58.99L98.045,58.969L97.852,58.948L97.661,58.931L97.469,58.912L97.276,58.897L97.084,58.882L96.891,58.868L96.699,58.855L96.504,58.843L96.31,58.834L96.115,58.824L95.921,58.817L95.724,58.809L95.53,58.803L95.334,58.8L95.137,58.796L94.939,58.794L94.743,58.794L94.533,58.794L94.325,58.796L94.117,58.8L93.909,58.805L93.702,58.811L93.496,58.819L93.29,58.828L93.084,58.838L92.878,58.849L92.674,58.863L92.47,58.876L92.266,58.891L92.062,58.908L91.858,58.927L91.656,58.946L91.454,58.967L91.252,58.99L91.05,59.013L90.849,59.038L90.649,59.063L90.449,59.091L90.249,59.12L90.051,59.148L89.85,59.181L89.652,59.213L89.456,59.246L89.258,59.282L89.061,59.318L88.865,59.354L88.668,59.393L88.472,59.433L88.278,59.475L88.081,59.516L87.887,59.56L87.694,59.606L87.5,59.652L87.307,59.699L87.115,59.747L86.922,59.797L86.729,59.848L86.539,59.9L86.348,59.953L86.158,60.008L85.967,60.064L85.776,60.121L85.587,60.18L85.399,60.239L85.21,60.3L85.023,60.361L84.836,60.424L84.648,60.489L84.463,60.554L84.276,60.62L84.091,60.687L83.906,60.756L83.721,60.826L83.536,60.899L83.353,60.969L83.17,61.044L82.987,61.118L82.804,61.194L82.623,61.27L82.442,61.349L82.261,61.429L82.079,61.509L81.9,61.591L81.721,61.675L81.542,61.759L81.363,61.842L81.185,61.928L81.008,62.016L80.831,62.106L80.655,62.195L80.48,62.285L80.304,62.376L80.129,62.47L79.956,62.563L79.78,62.658L79.609,62.756L79.435,62.853L79.264,62.95L79.092,63.051L78.92,63.15L78.751,63.253L78.581,63.356L78.411,63.459L78.242,63.564L78.074,63.671L77.906,63.778L77.74,63.886L77.574,63.995L77.408,64.105L77.243,64.218L77.079,64.33L76.915,64.443L76.751,64.559L76.589,64.674L76.427,64.792L76.265,64.908L76.104,65.028L75.944,65.148L75.784,65.268L75.626,65.39L75.468,65.512L75.309,65.638L75.153,65.762L74.997,65.888L74.84,66.016L74.686,66.144L74.532,66.273L74.379,66.403L74.226,66.534L74.074,66.666L73.921,66.799L73.771,66.933L73.622,67.068L73.472,67.204L73.325,67.341L73.176,67.48L73.029,67.617L72.882,67.758L72.738,67.899L72.593,68.04L72.448,68.183L72.305,68.326L72.164,68.471L72.021,68.618L71.88,68.763L71.74,68.912L71.601,69.06L71.462,69.209L71.325,69.36L71.188,69.51L71.052,69.663L70.917,69.815L70.781,69.97L70.648,70.124L70.515,70.279L70.383,70.435L70.251,70.593L70.122,70.752L69.992,70.91L69.864,71.07L69.737,71.232L69.609,71.394L69.483,71.556L69.359,71.72L69.233,71.884L69.111,72.048L68.989,72.214L68.867,72.382L68.747,72.549L68.627,72.717L68.509,72.887L68.391,73.057L68.272,73.228L68.158,73.4L68.042,73.571L67.927,73.745L67.815,73.918L67.702,74.094L67.592,74.269L67.481,74.446L67.373,74.624L67.264,74.801L67.157,74.98L67.05,75.159L66.944,75.339L66.841,75.52L66.736,75.701L66.635,75.884L66.534,76.067L66.433,76.252L66.334,76.435L66.234,76.622L66.137,76.807L66.042,76.994L65.946,77.182L65.851,77.369L65.758,77.558L65.666,77.748L65.575,77.939L65.485,78.13L65.395,78.32L65.308,78.513L65.222,78.706L65.136,78.9L65.05,79.094L64.968,79.289L64.885,79.485L64.804,79.682L64.722,79.878L64.644,80.076L64.566,80.275L64.49,80.473L64.414,80.671L64.339,80.871L64.265,81.073L64.192,81.274L64.12,81.476L64.051,81.678L63.981,81.882L63.914,82.086L63.847,82.29L63.781,82.496L63.716,82.702L63.653,82.908L63.592,83.113L63.531,83.321L63.47,83.529L63.411,83.737L63.354,83.947L63.298,84.156L63.243,84.366L63.19,84.578L63.136,84.789L63.085,85.001L63.035,85.213L62.986,85.426L62.938,85.64L62.89,85.855L62.846,86.069L62.803,86.284L62.759,86.499L62.717,86.717L62.677,86.934L62.637,87.151L62.601,87.369L62.562,87.586L62.528,87.805L62.494,88.025L62.461,88.246L62.429,88.465L62.398,88.686L62.37,88.909L62.343,89.13L62.316,89.353L62.292,89.577L62.267,89.8L62.244,90.025L62.223,90.25L62.204,90.475L62.185,90.699L62.168,90.926L62.153,91.151L62.137,91.38L62.126,91.607L62.112,91.836L62.103,92.063L62.093,92.293L62.086,92.522L62.08,92.753L62.074,92.983L62.072,93.214L62.069,93.445L62.069,93.908L62.072,94.141L62.074,94.371L62.086,94.833L62.093,95.062L62.112,95.519L62.126,95.748L62.137,95.975L62.168,96.429L62.185,96.654L62.204,96.88L62.223,97.105L62.244,97.33L62.267,97.553L62.292,97.778L62.316,98.001L62.343,98.223L62.37,98.446L62.398,98.667L62.429,98.888L62.461,99.109L62.494,99.328L62.562,99.767L62.601,99.986L62.637,100.203L62.717,100.638L62.759,100.854L62.89,101.5L62.986,101.927L63.035,102.141L63.085,102.352L63.136,102.566L63.19,102.775L63.243,102.987L63.354,103.406L63.411,103.616L63.47,103.824L63.653,104.447L63.716,104.653L63.781,104.859L63.981,105.471L64.051,105.675L64.12,105.877L64.265,106.281L64.414,106.682L64.49,106.882L64.566,107.08L64.644,107.279L64.722,107.475L64.804,107.673L64.885,107.87L64.968,108.064L65.05,108.26L65.136,108.455L65.308,108.84L65.395,109.033L65.485,109.225L65.575,109.416L65.666,109.606L65.758,109.795L65.851,109.984L65.946,110.173L66.137,110.546L66.234,110.733L66.433,111.103L66.736,111.652L67.05,112.195L67.264,112.554L67.481,112.909L67.702,113.259L67.815,113.435L67.927,113.608L68.042,113.782L68.158,113.955L68.272,114.127L68.391,114.296L68.509,114.468L68.627,114.636L68.747,114.806L68.867,114.973L69.233,115.471L69.359,115.635L69.483,115.799L69.609,115.961L69.737,116.123L69.992,116.443L70.122,116.601L70.251,116.762L70.515,117.074L70.648,117.231L70.781,117.385L70.917,117.539L71.188,117.845L71.462,118.146L71.74,118.443L71.88,118.59L72.021,118.737L72.164,118.882L72.305,119.027L72.448,119.17L72.738,119.456L72.882,119.597L73.176,119.875L73.325,120.012L73.472,120.15L73.622,120.285L73.771,120.42L73.921,120.556L74.074,120.687L74.226,120.821L74.379,120.95L74.532,121.082L74.686,121.21L74.84,121.339L75.309,121.717L75.468,121.841L75.784,122.085L75.944,122.207L76.104,122.327L76.265,122.445L76.427,122.563L76.751,122.796L77.079,123.025L77.243,123.137L77.574,123.358L77.906,123.576L78.242,123.789L78.581,123.999L78.751,124.102L78.92,124.203L79.092,124.304L79.435,124.502L79.609,124.599L79.78,124.695L79.956,124.79L80.129,124.883L80.304,124.977L80.478,125.068L80.655,125.16L80.831,125.249L81.185,125.425L81.363,125.511L81.542,125.596L81.721,125.68L82.079,125.844L82.442,126.004L82.623,126.083L82.804,126.159L82.987,126.235L83.353,126.384L83.536,126.456L83.906,126.597L84.276,126.735L84.463,126.801L84.648,126.866L84.834,126.929L85.023,126.992L85.21,127.055L85.399,127.116L85.587,127.175L85.776,127.232L86.158,127.347L86.729,127.507L87.307,127.655L87.5,127.703L87.694,127.749L87.887,127.793L88.081,127.837L88.278,127.879L88.472,127.92L88.668,127.961L89.061,128.037L89.258,128.073L89.456,128.107L89.652,128.142L89.85,128.174L90.051,128.205L90.249,128.235L90.449,128.264L90.849,128.317L91.05,128.342L91.252,128.365L91.858,128.428L92.266,128.462L92.674,128.492L92.878,128.504L93.29,128.527L93.702,128.542L93.909,128.55L94.325,128.557L94.533,128.559L94.987,128.559L95.233,128.555L95.477,128.552L95.719,128.544L95.961,128.536L96.203,128.527L96.445,128.513L96.685,128.5L96.926,128.483L97.166,128.466L97.404,128.447L97.642,128.426L97.881,128.403L98.119,128.376L98.355,128.349L98.59,128.321L98.826,128.292L99.061,128.26L99.295,128.226L99.528,128.189L99.762,128.153L99.995,128.113L100.226,128.073L100.456,128.031L100.687,127.985L100.918,127.94L101.147,127.892L101.377,127.842L101.604,127.791L101.833,127.739L102.06,127.684L102.287,127.629L102.512,127.57L102.737,127.511L102.962,127.45L103.187,127.387L103.41,127.322L103.633,127.255L103.854,127.188L104.075,127.118L104.296,127.047L104.517,126.975L104.737,126.9L104.956,126.824L105.175,126.746L105.392,126.666L105.61,126.586L105.827,126.504L106.043,126.418L106.258,126.332L106.473,126.247L106.687,126.157L106.9,126.065L107.112,125.974L107.326,125.88L107.535,125.785L107.747,125.688L107.957,125.589L108.166,125.49L108.374,125.389L108.582,125.286L108.79,125.181L108.996,125.074L109.202,124.965L109.408,124.857L109.612,124.746L109.814,124.634L110.018,124.519L110.22,124.403L110.42,124.287L110.622,124.168L110.82,124.048L111.02,123.926L111.219,123.804L111.415,123.68L111.611,123.553L111.808,123.427L112.002,123.297L112.197,123.168L112.389,123.034L112.582,122.903L112.774,122.767L112.965,122.63L113.154,122.493L113.343,122.353L113.531,122.212L113.718,122.071L113.905,121.928L114.09,121.783L114.275,121.637L114.458,121.49L114.641,121.341L114.822,121.19L115.003,121.038L115.184,120.885L115.362,120.731L115.541,120.575L115.718,120.416L115.893,120.258L116.067,120.098L116.242,119.938L116.414,119.774L116.586,119.61L116.757,119.446L116.927,119.278L117.097,119.11L117.264,118.941L117.43,118.771L117.596,118.599L117.76,118.426L117.924,118.251L118.086,118.075L118.246,117.9L118.406,117.721L118.566,117.541L118.723,117.36L118.881,117.179L119.035,116.996L119.19,116.811L119.342,116.626L119.495,116.439L119.646,116.251L119.796,116.062L119.943,115.871L120.092,115.681L120.237,115.488L120.381,115.294L120.557,115.055L121.035,114.439L121.543,113.85L122.08,113.286L122.646,112.748L123.237,112.241L123.855,111.767L124.496,111.32L125.157,110.911L125.84,110.533L126.539,110.19L127.256,109.883L127.987,109.614L128.732,109.381L129.487,109.187L130.25,109.031L131.02,108.912L131.796,108.836L132.574,108.796L133.353,108.798L134.131,108.838L134.907,108.918L135.677,109.036L136.44,109.195L137.195,109.391L137.939,109.626L138.669,109.896L139.386,110.205L140.085,110.548L140.766,110.928L141.426,111.341L142.066,111.788L142.682,112.264L143.273,112.773L143.837,113.311L144.373,113.877L144.88,114.468L145.357,115.086L145.801,115.726L146.213,116.388L146.59,117.07L146.932,117.77L147.239,118.487L147.509,119.217L147.74,119.961L147.936,120.716L148.091,121.48L148.209,122.25L148.287,123.026L148.325,123.804L148.323,124.584L148.283,125.362L148.203,126.138L148.085,126.908L147.927,127.671L147.73,128.426L147.496,129.169L147.225,129.899L146.916,130.616L146.573,131.314L146.194,131.997L145.78,132.656L145.334,133.297L145.096,133.619L144.823,133.985L144.548,134.347L144.272,134.708L143.992,135.066L143.71,135.425L143.426,135.779L143.138,136.13L142.85,136.481L142.558,136.83L142.263,137.177L141.967,137.52L141.668,137.861L141.367,138.202L141.063,138.54L140.758,138.875L140.449,139.209L140.141,139.539L139.828,139.869L139.513,140.195L139.195,140.521L138.877,140.843L138.554,141.161L138.23,141.48L137.904,141.796L137.576,142.109L137.247,142.42L136.915,142.728L136.579,143.033L136.242,143.339L135.904,143.64L135.563,143.937L135.22,144.235L134.873,144.528L134.526,144.82L134.177,145.11L133.824,145.398L133.472,145.682L133.115,145.964L132.757,146.244L132.398,146.52L132.036,146.795L131.672,147.066L131.306,147.336L130.938,147.603L130.568,147.866L130.196,148.128L129.823,148.387L129.447,148.644L129.068,148.898L128.688,149.15L128.307,149.397L127.924,149.643L127.539,149.885L127.151,150.128L126.763,150.364L126.372,150.599L125.977,150.831L125.582,151.062L125.186,151.287L124.789,151.512L124.389,151.733L123.987,151.95L123.582,152.166L123.176,152.379L122.77,152.589L122.36,152.795L121.951,152.999L121.539,153.199L121.123,153.397L120.707,153.592L120.29,153.784L119.872,153.973L119.451,154.16L119.028,154.343L118.605,154.522L118.179,154.699L117.752,154.873L117.323,155.045L116.893,155.212L116.462,155.376L116.027,155.538L115.592,155.697L115.158,155.851L114.719,156.004L114.279,156.152L113.838,156.297L113.396,156.44L112.954,156.579L112.508,156.715L112.061,156.848L111.613,156.978L111.165,157.104L110.715,157.226L110.264,157.346L109.81,157.462L109.356,157.574L108.9,157.683L108.443,157.79L107.985,157.893L107.526,157.992L107.066,158.087L106.605,158.179L106.142,158.268L105.678,158.354L105.213,158.436L104.746,158.514L104.279,158.589L103.812,158.659L103.343,158.728L102.872,158.793L102.401,158.852L101.928,158.909L101.455,158.962L100.981,159.014L100.506,159.06L100.031,159.102L99.553,159.142L99.076,159.176L98.598,159.208L98.119,159.235L97.639,159.26L97.158,159.281L96.676,159.298L96.193,159.311L95.711,159.321L95.227,159.327L94.746,159.327L94.329,159.327L93.917,159.323L93.505,159.315L93.095,159.306L92.684,159.294L92.274,159.279L91.864,159.262L91.454,159.241L91.046,159.218L90.638,159.191L90.232,159.163L89.824,159.132L89.418,159.1L89.013,159.062L88.607,159.023L88.203,158.981L87.801,158.938L87.397,158.89L86.994,158.842L86.594,158.789L86.194,158.736L85.793,158.678L85.395,158.617L84.996,158.556L84.598,158.492L84.201,158.423L83.805,158.352L83.41,158.28L83.016,158.206L82.623,158.127L82.23,158.047L81.837,157.965L81.446,157.881L81.056,157.794L80.667,157.702L80.278,157.611L79.891,157.515L79.504,157.418L79.119,157.319L78.734,157.216L78.35,157.111L77.967,157.004L77.586,156.896L77.204,156.783L76.825,156.669L76.446,156.553L76.068,156.434L75.693,156.312L75.317,156.188L74.941,156.063L74.568,155.935L74.196,155.805L73.824,155.672L73.454,155.536L73.084,155.399L72.717,155.26L72.349,155.117L71.983,154.974L71.618,154.827L71.256,154.678L70.892,154.528L70.532,154.375L70.171,154.219L69.813,154.063L69.454,153.903L69.098,153.74L68.741,153.577L68.389,153.411L68.036,153.243L67.683,153.071L67.333,152.9L66.984,152.724L66.635,152.547L66.29,152.37L65.943,152.189L65.599,152.006L65.256,151.821L64.915,151.632L64.574,151.443L64.234,151.252L63.897,151.058L63.561,150.864L63.226,150.667L62.892,150.467L62.561,150.265L62.229,150.063L61.899,149.857L61.571,149.649L61.245,149.441L60.919,149.23L60.595,149.016L60.273,148.801L59.95,148.585L59.63,148.366L59.312,148.145L58.995,147.922L58.679,147.699L58.364,147.472L58.052,147.243L57.741,147.012L57.432,146.782L57.123,146.547L56.816,146.313L56.511,146.074L56.206,145.836L55.905,145.594L55.604,145.352L55.304,145.106L55.005,144.86L54.709,144.612L54.414,144.362L54.12,144.111L53.829,143.857L53.539,143.602L53.251,143.344L52.963,143.087L52.677,142.826L52.393,142.564L52.111,142.299L51.831,142.034L51.55,141.768L51.274,141.499L50.997,141.228L50.723,140.957L50.45,140.683L50.178,140.408L49.909,140.13L49.64,139.851L49.375,139.571L49.11,139.289L48.847,139.007L48.586,138.721L48.326,138.435L48.067,138.147L47.812,137.857L47.556,137.566L47.305,137.272L47.053,136.978L46.803,136.683L46.555,136.385L46.309,136.086L46.065,135.785L45.823,135.484L45.581,135.181L45.343,134.875L45.104,134.569L44.87,134.262L44.635,133.951L44.403,133.64L44.174,133.329L43.945,133.015L43.718,132.7L43.493,132.384L43.27,132.065L43.049,131.745L42.83,131.425L42.611,131.102L42.395,130.78L42.182,130.454L41.97,130.128L41.758,129.8L41.551,129.472L41.345,129.141L41.141,128.809L40.937,128.477L40.737,128.142L40.536,127.806L40.34,127.469L40.146,127.131L39.951,126.792L39.76,126.451L39.572,126.109L39.383,125.766L39.198,125.421L39.015,125.074L38.832,124.727L38.653,124.378L38.475,124.029L38.3,123.678L38.127,123.326L37.955,122.973L37.785,122.618L37.618,122.264L37.452,121.905L37.288,121.549L37.126,121.189L36.967,120.828L36.809,120.468L36.653,120.106L36.5,119.742L36.35,119.375L36.199,119.009L36.052,118.643L35.907,118.275L35.764,117.906L35.623,117.536L35.484,117.164L35.349,116.792L35.213,116.418L35.082,116.043L34.95,115.667L34.823,115.292L34.697,114.912L34.573,114.535L34.451,114.155L34.333,113.774L34.214,113.393L34.1,113.01L33.987,112.626L33.877,112.241L33.768,111.856L33.661,111.469L33.559,111.082L33.456,110.693L33.356,110.304L33.259,109.913L33.164,109.523L33.072,109.132L32.981,108.737L32.893,108.344L32.807,107.95L32.723,107.555L32.643,107.158L32.563,106.76L32.487,106.363L32.413,105.965L32.34,105.565L32.272,105.164L32.205,104.764L32.14,104.362L32.077,103.959L32.016,103.555L31.959,103.151L31.904,102.747L31.85,102.341L31.799,101.935L31.751,101.529L31.705,101.121L31.662,100.713L31.621,100.303L31.583,99.893L31.547,99.483L31.513,99.073L31.482,98.661L31.454,98.249L31.427,97.836L31.402,97.422L31.381,97.008L31.362,96.594L31.347,96.179L31.334,95.763L31.322,95.348L31.313,94.93L31.307,94.513L31.303,94.095L31.301,93.677L31.303,93.258L31.307,92.841L31.313,92.423L31.322,92.007L31.334,91.592L31.347,91.176L31.362,90.76L31.381,90.345L31.402,89.931L31.427,89.517L31.454,89.106L31.482,88.694L31.513,88.282L31.547,87.87L31.583,87.46L31.621,87.05L31.662,86.642L31.705,86.234L31.751,85.826L31.799,85.418L31.85,85.012L31.904,84.606L31.959,84.202L32.016,83.798L32.077,83.396L32.14,82.991L32.205,82.591L32.272,82.189L32.34,81.788L32.413,81.39L32.487,80.991L32.563,80.593L32.643,80.196L32.723,79.8L32.807,79.403L32.893,79.009L32.981,78.616L33.072,78.223L33.164,77.83L33.259,77.44L33.356,77.051L33.456,76.66L33.559,76.273L33.661,75.884L33.768,75.499L33.877,75.112L33.987,74.729L34.1,74.345L34.214,73.962L34.333,73.581L34.451,73.2L34.573,72.82L34.697,72.441L34.823,72.063L34.95,71.686L35.082,71.31L35.213,70.937L35.349,70.563L35.484,70.191L35.623,69.819L35.764,69.448L35.907,69.08L36.052,68.712L36.199,68.344L36.35,67.978L36.5,67.613L36.653,67.249L36.809,66.887L36.967,66.525L37.126,66.164L37.288,65.806L37.452,65.448L37.618,65.091L37.785,64.735L37.955,64.38L38.127,64.027L38.3,63.675L38.475,63.324L38.653,62.975L38.832,62.626L39.015,62.279L39.198,61.934L39.383,61.589L39.572,61.246L39.76,60.902L39.951,60.563L40.146,60.222L40.34,59.884L40.536,59.547L40.737,59.211L40.937,58.878L41.141,58.544L41.345,58.212L41.551,57.883L41.758,57.553L41.97,57.225L42.182,56.899L42.395,56.575L42.611,56.251L42.83,55.928L43.049,55.608L43.27,55.288L43.493,54.971L43.718,54.655L43.945,54.338L44.174,54.026L44.403,53.713L44.635,53.402L44.87,53.093L45.104,52.785L45.343,52.479L45.581,52.174L45.823,51.869L46.065,51.568L46.309,51.267L46.555,50.97L46.803,50.672L47.053,50.375L47.305,50.081L47.556,49.787L47.812,49.498L48.067,49.208L48.326,48.92L48.586,48.632L48.847,48.348L49.11,48.064L49.375,47.782L49.64,47.502L49.909,47.223L50.178,46.947L50.45,46.67L50.723,46.398L50.997,46.125L51.274,45.854L51.55,45.586L51.831,45.319L52.111,45.054L52.393,44.79L52.677,44.527L52.963,44.268L53.251,44.009L53.539,43.751L53.829,43.496L54.12,43.244L54.414,42.993L54.709,42.741L55.005,42.493L55.304,42.247L55.604,42.003L55.905,41.759L56.206,41.519L56.511,41.279L56.816,41.042L57.123,40.806L57.432,40.573L57.741,40.341L58.052,40.11L58.364,39.883L58.679,39.656L58.995,39.431L59.312,39.208L59.63,38.989L59.95,38.77L60.273,38.552L60.595,38.337L60.919,38.123L61.245,37.914L61.571,37.704L61.899,37.496L62.229,37.292L62.561,37.088L62.892,36.886L63.226,36.688L63.561,36.489L63.897,36.295L64.234,36.102L64.574,35.91L64.915,35.721L65.256,35.534L65.599,35.349L65.943,35.166L66.29,34.985L66.635,34.806L66.984,34.629L67.333,34.455L67.683,34.282L68.036,34.112L68.389,33.944L68.741,33.777L69.098,33.613L69.454,33.452L69.813,33.292L70.171,33.134L70.532,32.98L70.892,32.825L71.254,32.675L71.618,32.526L71.983,32.381L72.349,32.236L72.717,32.095L73.084,31.954L73.454,31.817L73.824,31.681L74.196,31.55L74.568,31.418L74.941,31.29L75.317,31.165L75.693,31.041L76.068,30.921L76.446,30.8L76.825,30.684L77.204,30.57L77.586,30.459L77.967,30.349L78.35,30.242L78.734,30.137L79.119,30.036L79.504,29.935L79.891,29.838L80.278,29.742L80.667,29.651L81.056,29.561L81.446,29.474L81.837,29.388L82.23,29.306L82.623,29.226L83.016,29.147L83.41,29.073L83.805,29.001L84.201,28.93L84.598,28.863L84.996,28.799L85.395,28.736L85.793,28.677L86.194,28.619L86.594,28.564L86.994,28.513L87.397,28.463L87.801,28.415L88.203,28.372L88.607,28.33L89.013,28.291L89.418,28.255L89.824,28.221L90.232,28.19L90.638,28.162L91.046,28.137L91.454,28.114L91.864,28.093L92.274,28.076L92.684,28.061L93.093,28.047L93.505,28.038L93.917,28.032L94.329,28.028L94.741,28.026L95.131,28.028Z" style="fill:rgb(89,74,55);"/>
        <ellipse id="Oval" cx="94.064" cy="93.915" rx="14.834" ry="15.516" style="fill:rgb(89,74,56);"/>
    </g>
</svg>
