<?xml version="1.0" standalone="no"?>
<!DOCTYPE svg PUBLIC "-//W3C//DTD SVG 1.1//EN" "http://www.w3.org/Graphics/SVG/1.1/DTD/svg11.dtd">
<svg width="100%" height="100%" viewBox="0 0 93 97" version="1.1" xmlns="http://www.w3.org/2000/svg" xmlns:xlink="http://www.w3.org/1999/xlink" xml:space="preserve" style="fill-rule:evenodd;clip-rule:evenodd;stroke-linejoin:round;stroke-miterlimit:1.41421;">
    <g id="Group" transform="matrix(1,0,0,1,3,3)">
        <g id="Oval-1">
            <ellipse cx="43.5" cy="45.5" rx="43.5" ry="45.5" style="fill:rgb(142,193,109);"/>
            <path d="M43.798,-2.499L44.095,-2.496L44.392,-2.491L44.688,-2.484L44.984,-2.475L45.28,-2.465L45.575,-2.452L45.87,-2.437L46.164,-2.421L46.458,-2.402L46.751,-2.382L47.043,-2.359L47.336,-2.335L47.627,-2.309L47.919,-2.281L48.209,-2.251L48.5,-2.219L48.789,-2.185L49.078,-2.15L49.367,-2.112L49.655,-2.073L49.943,-2.032L50.23,-1.989L50.516,-1.944L50.802,-1.897L51.087,-1.849L51.372,-1.798L51.656,-1.746L51.939,-1.692L52.222,-1.636L52.504,-1.579L52.786,-1.519L53.067,-1.458L53.347,-1.395L53.627,-1.331L53.906,-1.264L54.185,-1.196L54.463,-1.126L54.74,-1.054L55.016,-0.98L55.292,-0.905L55.567,-0.828L55.842,-0.749L56.116,-0.669L56.389,-0.587L56.661,-0.503L56.933,-0.417L57.204,-0.33L57.474,-0.241L57.743,-0.151L58.012,-0.058L58.28,0.036L58.548,0.131L58.814,0.229L59.08,0.328L59.345,0.428L59.609,0.531L59.873,0.635L60.136,0.74L60.398,0.847L60.659,0.956L60.919,1.066L61.179,1.178L61.437,1.292L61.695,1.407L61.953,1.524L62.209,1.642L62.464,1.762L62.719,1.884L62.973,2.007L63.226,2.131L63.478,2.257L63.729,2.385L63.979,2.514L64.229,2.645L64.478,2.777L64.725,2.911L64.972,3.047L65.218,3.183L65.463,3.322L65.707,3.461L65.951,3.603L66.193,3.746L66.434,3.89L66.675,4.036L66.914,4.183L67.153,4.331L67.391,4.481L67.627,4.633L67.863,4.786L68.098,4.94L68.332,5.096L68.565,5.253L68.796,5.412L69.027,5.572L69.257,5.734L69.486,5.897L69.714,6.061L69.941,6.226L70.167,6.393L70.392,6.562L70.616,6.732L70.839,6.903L71.06,7.075L71.281,7.249L71.501,7.424L71.72,7.601L71.937,7.779L72.154,7.958L72.369,8.138L72.584,8.32L72.797,8.503L73.009,8.687L73.221,8.873L73.431,9.06L73.64,9.248L73.848,9.438L74.054,9.629L74.26,9.821L74.465,10.014L74.668,10.209L74.87,10.405L75.072,10.602L75.272,10.8L75.47,10.999L75.668,11.2L75.865,11.402L76.06,11.605L76.254,11.81L76.447,12.015L76.639,12.222L76.83,12.43L77.02,12.639L77.208,12.85L77.395,13.061L77.581,13.274L77.766,13.487L77.949,13.702L78.131,13.919L78.312,14.136L78.492,14.354L78.671,14.574L78.848,14.794L79.024,15.016L79.199,15.239L79.372,15.463L79.545,15.688L79.716,15.914L79.885,16.141L80.054,16.37L80.221,16.599L80.387,16.83L80.551,17.061L80.715,17.294L80.877,17.527L81.037,17.762L81.197,17.998L81.355,18.235L81.511,18.472L81.666,18.711L81.82,18.951L81.973,19.192L82.124,19.434L82.274,19.677L82.423,19.92L82.57,20.165L82.716,20.411L82.86,20.658L83.003,20.906L83.145,21.154L83.285,21.404L83.424,21.655L83.561,21.906L83.697,22.159L83.832,22.412L83.965,22.667L84.097,22.922L84.227,23.178L84.356,23.435L84.483,23.693L84.609,23.952L84.734,24.212L84.857,24.473L84.978,24.735L85.098,24.997L85.217,25.261L85.334,25.525L85.449,25.79L85.564,26.056L85.676,26.323L85.787,26.59L85.897,26.859L86.005,27.128L86.111,27.398L86.216,27.669L86.32,27.941L86.422,28.213L86.522,28.487L86.621,28.761L86.718,29.036L86.814,29.311L86.908,29.588L87,29.865L87.091,30.143L87.181,30.422L87.268,30.701L87.355,30.982L87.439,31.263L87.522,31.545L87.603,31.827L87.683,32.11L87.761,32.394L87.838,32.679L87.912,32.964L87.986,33.25L88.057,33.537L88.127,33.824L88.195,34.112L88.262,34.401L88.326,34.69L88.39,34.98L88.451,35.271L88.511,35.563L88.569,35.854L88.625,36.147L88.68,36.44L88.733,36.734L88.784,37.029L88.834,37.324L88.882,37.62L88.928,37.916L88.972,38.213L89.015,38.51L89.056,38.808L89.095,39.107L89.132,39.406L89.168,39.706L89.201,40.006L89.233,40.307L89.264,40.609L89.292,40.911L89.319,41.213L89.343,41.516L89.366,41.82L89.388,42.124L89.407,42.428L89.425,42.733L89.44,43.039L89.454,43.345L89.466,43.651L89.477,43.958L89.485,44.266L89.492,44.574L89.496,44.882L89.499,45.191L89.5,45.5L89.499,45.809L89.496,46.118L89.492,46.426L89.485,46.734L89.477,47.042L89.466,47.349L89.454,47.655L89.44,47.961L89.425,48.267L89.407,48.572L89.388,48.876L89.366,49.18L89.343,49.484L89.319,49.787L89.292,50.089L89.264,50.391L89.233,50.693L89.201,50.994L89.168,51.294L89.132,51.594L89.095,51.893L89.056,52.192L89.015,52.49L88.972,52.787L88.928,53.084L88.882,53.38L88.834,53.676L88.784,53.971L88.733,54.266L88.68,54.56L88.625,54.853L88.569,55.146L88.511,55.437L88.451,55.729L88.39,56.02L88.326,56.31L88.262,56.599L88.195,56.888L88.127,57.176L88.057,57.463L87.986,57.75L87.912,58.036L87.838,58.321L87.761,58.606L87.683,58.89L87.603,59.173L87.522,59.455L87.439,59.737L87.355,60.018L87.268,60.299L87.181,60.578L87.091,60.857L87,61.135L86.908,61.412L86.814,61.689L86.718,61.964L86.621,62.239L86.522,62.513L86.422,62.787L86.32,63.059L86.216,63.331L86.111,63.602L86.005,63.872L85.897,64.141L85.787,64.41L85.676,64.677L85.564,64.944L85.449,65.21L85.334,65.475L85.217,65.739L85.098,66.003L84.978,66.265L84.857,66.527L84.734,66.788L84.609,67.048L84.483,67.307L84.356,67.565L84.227,67.822L84.097,68.078L83.965,68.333L83.832,68.588L83.697,68.841L83.561,69.094L83.424,69.345L83.285,69.596L83.145,69.846L83.003,70.094L82.86,70.342L82.716,70.589L82.57,70.835L82.423,71.08L82.274,71.323L82.124,71.566L81.973,71.808L81.82,72.049L81.666,72.289L81.511,72.528L81.355,72.765L81.197,73.002L81.037,73.238L80.877,73.473L80.715,73.706L80.551,73.939L80.387,74.17L80.221,74.401L80.054,74.63L79.885,74.859L79.716,75.086L79.545,75.312L79.372,75.537L79.199,75.761L79.024,75.984L78.848,76.206L78.671,76.426L78.492,76.646L78.312,76.864L78.131,77.081L77.949,77.298L77.766,77.513L77.581,77.726L77.395,77.939L77.208,78.15L77.02,78.361L76.83,78.57L76.639,78.778L76.447,78.985L76.254,79.19L76.06,79.395L75.865,79.598L75.668,79.8L75.47,80.001L75.272,80.2L75.072,80.398L74.87,80.595L74.668,80.791L74.465,80.986L74.26,81.179L74.054,81.371L73.848,81.562L73.64,81.752L73.431,81.94L73.221,82.127L73.009,82.313L72.797,82.497L72.584,82.68L72.369,82.862L72.154,83.042L71.937,83.221L71.72,83.399L71.501,83.576L71.281,83.751L71.06,83.925L70.839,84.097L70.616,84.268L70.392,84.438L70.167,84.607L69.941,84.774L69.714,84.939L69.486,85.103L69.257,85.266L69.027,85.428L68.796,85.588L68.565,85.747L68.332,85.904L68.098,86.06L67.863,86.214L67.627,86.367L67.391,86.519L67.153,86.669L66.914,86.817L66.675,86.964L66.434,87.11L66.193,87.254L65.951,87.397L65.707,87.539L65.463,87.678L65.218,87.817L64.972,87.953L64.725,88.089L64.478,88.223L64.229,88.355L63.979,88.486L63.729,88.615L63.478,88.743L63.226,88.869L62.973,88.993L62.719,89.116L62.464,89.238L62.209,89.358L61.953,89.476L61.695,89.593L61.437,89.708L61.179,89.822L60.919,89.934L60.659,90.044L60.398,90.153L60.136,90.26L59.873,90.365L59.609,90.469L59.345,90.572L59.08,90.672L58.814,90.771L58.548,90.869L58.28,90.964L58.012,91.058L57.743,91.151L57.474,91.241L57.204,91.33L56.933,91.417L56.661,91.503L56.389,91.587L56.115,91.669L55.842,91.749L55.567,91.828L55.292,91.905L55.016,91.98L54.74,92.054L54.463,92.126L54.185,92.196L53.906,92.264L53.627,92.331L53.347,92.395L53.067,92.458L52.786,92.519L52.504,92.579L52.222,92.636L51.939,92.692L51.656,92.746L51.372,92.798L51.087,92.849L50.802,92.897L50.516,92.944L50.23,92.989L49.943,93.032L49.655,93.073L49.367,93.112L49.078,93.15L48.789,93.185L48.5,93.219L48.209,93.251L47.919,93.281L47.627,93.309L47.336,93.335L47.043,93.359L46.751,93.382L46.457,93.402L46.164,93.421L45.87,93.437L45.575,93.452L45.28,93.465L44.984,93.475L44.688,93.484L44.392,93.491L44.095,93.496L43.798,93.499L43.5,93.5L43.202,93.499L42.905,93.496L42.608,93.491L42.312,93.484L42.016,93.475L41.72,93.465L41.425,93.452L41.13,93.437L40.836,93.421L40.543,93.402L40.249,93.382L39.957,93.359L39.664,93.335L39.373,93.309L39.081,93.281L38.791,93.251L38.5,93.219L38.211,93.185L37.922,93.15L37.633,93.112L37.345,93.073L37.057,93.032L36.77,92.989L36.484,92.944L36.198,92.897L35.913,92.849L35.628,92.798L35.344,92.746L35.061,92.692L34.778,92.636L34.496,92.579L34.214,92.519L33.933,92.458L33.653,92.395L33.373,92.331L33.094,92.264L32.815,92.196L32.537,92.126L32.26,92.054L31.984,91.98L31.708,91.905L31.433,91.828L31.158,91.749L30.885,91.669L30.611,91.587L30.339,91.503L30.067,91.417L29.796,91.33L29.526,91.241L29.257,91.151L28.988,91.058L28.72,90.964L28.452,90.869L28.186,90.771L27.92,90.672L27.655,90.572L27.391,90.469L27.127,90.365L26.864,90.26L26.602,90.153L26.341,90.044L26.081,89.934L25.821,89.822L25.563,89.708L25.305,89.593L25.047,89.476L24.791,89.358L24.536,89.238L24.281,89.116L24.027,88.993L23.774,88.869L23.522,88.743L23.271,88.615L23.021,88.486L22.771,88.355L22.522,88.223L22.275,88.089L22.028,87.953L21.782,87.817L21.537,87.678L21.293,87.539L21.049,87.397L20.807,87.254L20.566,87.11L20.325,86.964L20.086,86.817L19.847,86.669L19.609,86.519L19.373,86.367L19.137,86.214L18.902,86.06L18.668,85.904L18.435,85.747L18.204,85.588L17.973,85.428L17.743,85.266L17.514,85.103L17.286,84.939L17.059,84.774L16.833,84.607L16.608,84.438L16.384,84.268L16.161,84.097L15.94,83.925L15.719,83.751L15.499,83.576L15.28,83.399L15.063,83.221L14.846,83.042L14.631,82.862L14.416,82.68L14.203,82.497L13.991,82.312L13.779,82.127L13.569,81.94L13.36,81.752L13.152,81.562L12.946,81.371L12.74,81.179L12.535,80.986L12.332,80.791L12.13,80.595L11.928,80.398L11.728,80.2L11.53,80.001L11.332,79.8L11.135,79.598L10.94,79.395L10.746,79.19L10.553,78.985L10.361,78.778L10.17,78.57L9.98,78.361L9.792,78.15L9.605,77.939L9.419,77.726L9.234,77.513L9.051,77.298L8.869,77.081L8.688,76.864L8.508,76.646L8.329,76.426L8.152,76.206L7.976,75.984L7.801,75.761L7.628,75.537L7.455,75.312L7.284,75.086L7.115,74.859L6.946,74.63L6.779,74.401L6.613,74.17L6.449,73.939L6.285,73.706L6.123,73.473L5.963,73.238L5.803,73.002L5.645,72.765L5.489,72.528L5.334,72.289L5.18,72.049L5.027,71.808L4.876,71.566L4.726,71.323L4.577,71.08L4.43,70.835L4.284,70.589L4.14,70.342L3.997,70.094L3.855,69.846L3.715,69.596L3.576,69.345L3.439,69.094L3.303,68.841L3.168,68.588L3.035,68.333L2.903,68.078L2.773,67.822L2.644,67.565L2.517,67.307L2.391,67.048L2.266,66.788L2.143,66.527L2.022,66.265L1.902,66.003L1.783,65.739L1.666,65.475L1.551,65.21L1.436,64.944L1.324,64.677L1.213,64.41L1.103,64.141L0.995,63.872L0.889,63.602L0.784,63.331L0.68,63.059L0.578,62.787L0.478,62.513L0.379,62.239L0.282,61.964L0.186,61.689L0.092,61.412L0,61.135L-0.091,60.857L-0.181,60.578L-0.268,60.299L-0.355,60.018L-0.439,59.737L-0.522,59.455L-0.603,59.173L-0.683,58.89L-0.761,58.606L-0.838,58.321L-0.912,58.036L-0.986,57.75L-1.057,57.463L-1.127,57.176L-1.195,56.888L-1.262,56.599L-1.326,56.31L-1.39,56.02L-1.451,55.729L-1.511,55.438L-1.569,55.146L-1.625,54.853L-1.68,54.56L-1.733,54.266L-1.784,53.971L-1.834,53.676L-1.882,53.38L-1.928,53.084L-1.972,52.787L-2.015,52.49L-2.056,52.192L-2.095,51.893L-2.132,51.594L-2.168,51.294L-2.201,50.994L-2.233,50.693L-2.264,50.391L-2.292,50.089L-2.319,49.787L-2.343,49.484L-2.366,49.18L-2.388,48.876L-2.407,48.572L-2.425,48.267L-2.44,47.961L-2.454,47.655L-2.466,47.349L-2.477,47.042L-2.485,46.734L-2.492,46.426L-2.496,46.118L-2.499,45.809L-2.5,45.5L-2.499,45.191L-2.496,44.882L-2.492,44.574L-2.485,44.266L-2.477,43.958L-2.466,43.651L-2.454,43.345L-2.44,43.039L-2.425,42.733L-2.407,42.428L-2.388,42.124L-2.366,41.82L-2.343,41.516L-2.319,41.213L-2.292,40.911L-2.264,40.609L-2.233,40.307L-2.201,40.006L-2.168,39.706L-2.132,39.406L-2.095,39.107L-2.056,38.808L-2.015,38.51L-1.972,38.213L-1.928,37.916L-1.882,37.62L-1.834,37.324L-1.784,37.029L-1.733,36.734L-1.68,36.44L-1.625,36.147L-1.569,35.855L-1.511,35.562L-1.451,35.271L-1.39,34.98L-1.326,34.69L-1.262,34.401L-1.195,34.112L-1.127,33.824L-1.057,33.537L-0.986,33.25L-0.912,32.964L-0.838,32.679L-0.761,32.394L-0.683,32.11L-0.603,31.827L-0.522,31.545L-0.439,31.263L-0.355,30.982L-0.268,30.701L-0.181,30.422L-0.091,30.143L0,29.865L0.092,29.588L0.186,29.311L0.282,29.036L0.379,28.761L0.478,28.487L0.578,28.213L0.68,27.941L0.784,27.669L0.889,27.398L0.995,27.128L1.103,26.859L1.213,26.59L1.324,26.323L1.436,26.056L1.551,25.79L1.666,25.525L1.783,25.261L1.902,24.997L2.022,24.735L2.143,24.473L2.266,24.212L2.391,23.952L2.517,23.693L2.644,23.435L2.773,23.178L2.903,22.922L3.035,22.667L3.168,22.412L3.303,22.159L3.439,21.906L3.576,21.655L3.715,21.404L3.855,21.154L3.997,20.906L4.14,20.658L4.284,20.411L4.43,20.165L4.577,19.92L4.726,19.677L4.876,19.434L5.027,19.192L5.18,18.951L5.334,18.711L5.489,18.472L5.645,18.235L5.803,17.998L5.963,17.762L6.123,17.527L6.285,17.294L6.449,17.061L6.613,16.83L6.779,16.599L6.946,16.37L7.115,16.141L7.284,15.914L7.455,15.688L7.628,15.463L7.801,15.239L7.976,15.016L8.152,14.794L8.329,14.574L8.508,14.354L8.688,14.136L8.869,13.919L9.051,13.702L9.234,13.487L9.419,13.274L9.605,13.061L9.792,12.85L9.98,12.639L10.17,12.43L10.361,12.222L10.553,12.015L10.746,11.81L10.94,11.605L11.135,11.402L11.332,11.2L11.53,10.999L11.728,10.8L11.928,10.602L12.13,10.405L12.332,10.209L12.535,10.014L12.74,9.821L12.946,9.629L13.152,9.438L13.36,9.248L13.569,9.06L13.779,8.873L13.991,8.687L14.203,8.503L14.416,8.32L14.631,8.138L14.846,7.958L15.063,7.779L15.28,7.601L15.499,7.424L15.719,7.249L15.94,7.075L16.161,6.903L16.384,6.732L16.608,6.562L16.833,6.393L17.059,6.226L17.286,6.061L17.514,5.897L17.743,5.734L17.973,5.572L18.204,5.412L18.435,5.253L18.668,5.096L18.902,4.94L19.137,4.786L19.373,4.633L19.609,4.481L19.847,4.331L20.086,4.183L20.325,4.036L20.566,3.89L20.807,3.746L21.049,3.603L21.293,3.461L21.537,3.322L21.782,3.183L22.028,3.047L22.275,2.911L22.522,2.777L22.771,2.645L23.021,2.514L23.271,2.385L23.522,2.257L23.774,2.131L24.027,2.007L24.281,1.884L24.536,1.762L24.791,1.642L25.047,1.524L25.305,1.407L25.563,1.292L25.821,1.178L26.081,1.066L26.341,0.956L26.602,0.847L26.864,0.74L27.127,0.635L27.391,0.531L27.655,0.428L27.92,0.328L28.186,0.229L28.452,0.131L28.72,0.036L28.988,-0.058L29.257,-0.151L29.526,-0.241L29.796,-0.33L30.067,-0.417L30.339,-0.503L30.611,-0.587L30.884,-0.669L31.158,-0.749L31.433,-0.828L31.708,-0.905L31.984,-0.98L32.26,-1.054L32.537,-1.126L32.815,-1.196L33.094,-1.264L33.373,-1.331L33.653,-1.395L33.933,-1.458L34.214,-1.519L34.496,-1.579L34.778,-1.636L35.061,-1.692L35.344,-1.746L35.628,-1.798L35.913,-1.849L36.198,-1.897L36.484,-1.944L36.77,-1.989L37.057,-2.032L37.345,-2.073L37.633,-2.112L37.922,-2.15L38.211,-2.185L38.5,-2.219L38.791,-2.251L39.081,-2.281L39.373,-2.309L39.664,-2.335L39.957,-2.359L40.249,-2.382L40.542,-2.402L40.836,-2.421L41.13,-2.437L41.425,-2.452L41.72,-2.465L42.016,-2.475L42.312,-2.484L42.608,-2.491L42.905,-2.496L43.202,-2.499L43.5,-2.5L43.798,-2.499ZM43.235,2.501L42.971,2.504L42.708,2.508L42.444,2.514L42.181,2.522L41.919,2.531L41.657,2.543L41.395,2.556L41.134,2.57L40.874,2.587L40.613,2.605L40.354,2.625L40.094,2.646L39.836,2.67L39.577,2.695L39.319,2.721L39.062,2.749L38.805,2.779L38.549,2.811L38.293,2.844L38.037,2.879L37.782,2.915L37.528,2.954L37.274,2.993L37.021,3.035L36.768,3.078L36.515,3.122L36.264,3.169L36.012,3.216L35.762,3.266L35.511,3.317L35.262,3.37L35.013,3.424L34.764,3.48L34.516,3.537L34.268,3.596L34.022,3.657L33.775,3.719L33.529,3.782L33.284,3.847L33.04,3.914L32.796,3.982L32.552,4.052L32.31,4.124L32.067,4.196L31.826,4.271L31.585,4.347L31.344,4.424L31.105,4.503L30.866,4.584L30.627,4.665L30.389,4.749L30.152,4.834L29.916,4.92L29.68,5.008L29.444,5.097L29.21,5.188L28.976,5.28L28.743,5.374L28.51,5.469L28.278,5.566L28.047,5.664L27.817,5.763L27.587,5.864L27.358,5.966L27.129,6.07L26.901,6.175L26.674,6.282L26.448,6.39L26.223,6.499L25.998,6.61L25.774,6.722L25.55,6.835L25.328,6.95L25.106,7.067L24.885,7.184L24.664,7.303L24.445,7.424L24.226,7.545L24.008,7.668L23.791,7.793L23.574,7.918L23.359,8.046L23.144,8.174L22.93,8.304L22.716,8.435L22.504,8.567L22.292,8.701L22.081,8.836L21.871,8.972L21.662,9.11L21.454,9.248L21.246,9.389L21.04,9.53L20.834,9.673L20.629,9.817L20.425,9.962L20.222,10.108L20.019,10.256L19.818,10.405L19.617,10.555L19.417,10.707L19.219,10.859L19.021,11.013L18.824,11.168L18.628,11.325L18.432,11.482L18.238,11.641L18.045,11.801L17.852,11.962L17.661,12.124L17.47,12.288L17.281,12.452L17.092,12.618L16.904,12.785L16.718,12.954L16.532,13.123L16.347,13.293L16.163,13.465L15.981,13.638L15.799,13.812L15.618,13.987L15.438,14.163L15.259,14.34L15.081,14.519L14.905,14.698L14.729,14.879L14.554,15.061L14.38,15.243L14.207,15.427L14.036,15.612L13.865,15.798L13.696,15.986L13.527,16.174L13.36,16.363L13.193,16.553L13.028,16.745L12.864,16.937L12.7,17.131L12.538,17.325L12.377,17.521L12.217,17.717L12.059,17.915L11.901,18.113L11.744,18.313L11.589,18.514L11.435,18.715L11.281,18.918L11.129,19.121L10.979,19.326L10.829,19.532L10.68,19.738L10.533,19.946L10.386,20.154L10.241,20.363L10.097,20.574L9.954,20.785L9.813,20.997L9.672,21.211L9.533,21.425L9.395,21.64L9.258,21.856L9.123,22.072L8.988,22.29L8.855,22.509L8.723,22.728L8.592,22.949L8.463,23.17L8.335,23.392L8.208,23.616L8.082,23.84L7.957,24.064L7.834,24.29L7.712,24.517L7.591,24.744L7.472,24.972L7.354,25.201L7.237,25.431L7.121,25.662L7.007,25.893L6.894,26.126L6.782,26.359L6.672,26.593L6.563,26.828L6.455,27.063L6.349,27.3L6.243,27.537L6.14,27.775L6.037,28.014L5.936,28.253L5.837,28.493L5.738,28.734L5.641,28.976L5.546,29.218L5.451,29.462L5.358,29.706L5.267,29.95L5.177,30.196L5.088,30.442L5.001,30.689L4.915,30.936L4.83,31.185L4.747,31.434L4.666,31.683L4.585,31.934L4.507,32.185L4.429,32.437L4.353,32.689L4.279,32.942L4.206,33.196L4.134,33.45L4.064,33.705L3.995,33.961L3.928,34.218L3.862,34.475L3.798,34.732L3.735,34.99L3.674,35.249L3.614,35.509L3.556,35.769L3.499,36.03L3.444,36.291L3.39,36.553L3.338,36.815L3.287,37.079L3.238,37.342L3.19,37.607L3.144,37.871L3.1,38.137L3.057,38.403L3.015,38.669L2.975,38.936L2.937,39.204L2.9,39.472L2.865,39.741L2.831,40.01L2.799,40.28L2.769,40.55L2.74,40.821L2.713,41.093L2.687,41.364L2.663,41.637L2.641,41.91L2.62,42.183L2.601,42.457L2.584,42.731L2.568,43.006L2.554,43.281L2.541,43.557L2.53,43.833L2.521,44.11L2.513,44.387L2.508,44.665L2.503,44.943L2.501,45.221L2.5,45.5L2.501,45.779L2.503,46.057L2.508,46.335L2.513,46.613L2.521,46.89L2.53,47.167L2.541,47.443L2.554,47.719L2.568,47.994L2.584,48.269L2.601,48.543L2.62,48.817L2.641,49.09L2.663,49.363L2.687,49.636L2.713,49.907L2.74,50.179L2.769,50.45L2.799,50.72L2.831,50.99L2.865,51.259L2.9,51.528L2.937,51.796L2.975,52.064L3.015,52.331L3.057,52.597L3.1,52.863L3.144,53.129L3.19,53.393L3.238,53.658L3.287,53.921L3.338,54.185L3.39,54.447L3.444,54.709L3.499,54.97L3.556,55.231L3.614,55.491L3.674,55.751L3.735,56.01L3.798,56.268L3.862,56.525L3.928,56.782L3.995,57.039L4.064,57.295L4.134,57.55L4.206,57.804L4.279,58.058L4.353,58.311L4.429,58.563L4.507,58.815L4.585,59.066L4.666,59.317L4.747,59.566L4.83,59.815L4.915,60.064L5.001,60.311L5.088,60.558L5.177,60.804L5.267,61.05L5.358,61.294L5.451,61.538L5.546,61.782L5.641,62.024L5.738,62.266L5.837,62.507L5.936,62.747L6.037,62.986L6.14,63.225L6.243,63.463L6.349,63.7L6.455,63.937L6.563,64.172L6.672,64.407L6.782,64.641L6.894,64.874L7.007,65.107L7.121,65.338L7.237,65.569L7.354,65.799L7.472,66.028L7.591,66.256L7.712,66.483L7.834,66.71L7.957,66.936L8.082,67.16L8.208,67.384L8.335,67.608L8.463,67.83L8.592,68.051L8.723,68.272L8.855,68.491L8.988,68.71L9.123,68.928L9.258,69.144L9.395,69.36L9.533,69.575L9.672,69.789L9.813,70.003L9.954,70.215L10.097,70.426L10.241,70.637L10.386,70.846L10.533,71.054L10.68,71.262L10.829,71.468L10.979,71.674L11.129,71.878L11.281,72.082L11.435,72.285L11.589,72.486L11.744,72.687L11.901,72.887L12.059,73.085L12.217,73.283L12.377,73.479L12.538,73.675L12.7,73.869L12.864,74.063L13.028,74.255L13.193,74.447L13.36,74.637L13.527,74.826L13.696,75.014L13.865,75.202L14.036,75.388L14.207,75.573L14.38,75.757L14.554,75.939L14.729,76.121L14.905,76.302L15.081,76.481L15.259,76.66L15.438,76.837L15.618,77.013L15.799,77.188L15.981,77.362L16.163,77.535L16.347,77.707L16.532,77.877L16.718,78.047L16.904,78.215L17.092,78.382L17.281,78.548L17.47,78.712L17.661,78.876L17.852,79.038L18.045,79.199L18.238,79.359L18.432,79.518L18.628,79.675L18.824,79.832L19.021,79.987L19.219,80.141L19.417,80.293L19.617,80.445L19.818,80.595L20.019,80.744L20.222,80.892L20.425,81.038L20.629,81.183L20.834,81.327L21.04,81.47L21.246,81.611L21.454,81.752L21.662,81.89L21.871,82.028L22.081,82.164L22.292,82.299L22.504,82.433L22.716,82.565L22.93,82.696L23.144,82.826L23.359,82.954L23.574,83.082L23.791,83.207L24.008,83.332L24.226,83.455L24.445,83.576L24.664,83.697L24.885,83.816L25.106,83.933L25.328,84.05L25.55,84.165L25.774,84.278L25.998,84.39L26.223,84.501L26.448,84.61L26.674,84.718L26.901,84.825L27.129,84.93L27.358,85.034L27.587,85.136L27.817,85.237L28.047,85.336L28.278,85.434L28.51,85.531L28.743,85.626L28.976,85.72L29.21,85.812L29.444,85.903L29.68,85.992L29.916,86.08L30.152,86.166L30.389,86.251L30.627,86.335L30.866,86.416L31.105,86.497L31.344,86.576L31.585,86.653L31.826,86.729L32.067,86.804L32.31,86.876L32.552,86.948L32.796,87.018L33.04,87.086L33.284,87.153L33.529,87.218L33.775,87.281L34.022,87.343L34.268,87.404L34.516,87.463L34.764,87.52L35.013,87.576L35.262,87.63L35.511,87.683L35.762,87.734L36.012,87.784L36.264,87.831L36.515,87.878L36.768,87.922L37.021,87.965L37.274,88.007L37.528,88.046L37.782,88.085L38.037,88.121L38.293,88.156L38.549,88.189L38.805,88.221L39.062,88.251L39.319,88.279L39.577,88.305L39.836,88.33L40.094,88.354L40.354,88.375L40.613,88.395L40.874,88.413L41.134,88.43L41.395,88.444L41.657,88.457L41.919,88.469L42.181,88.478L42.444,88.486L42.708,88.492L42.971,88.496L43.235,88.499L43.5,88.5L43.765,88.499L44.029,88.496L44.292,88.492L44.556,88.486L44.819,88.478L45.081,88.469L45.343,88.457L45.605,88.444L45.866,88.43L46.126,88.413L46.387,88.395L46.646,88.375L46.906,88.354L47.164,88.33L47.423,88.305L47.681,88.279L47.938,88.251L48.195,88.221L48.451,88.189L48.707,88.156L48.963,88.121L49.218,88.085L49.472,88.046L49.726,88.007L49.979,87.965L50.232,87.922L50.485,87.878L50.736,87.831L50.988,87.784L51.238,87.734L51.489,87.683L51.738,87.63L51.987,87.576L52.236,87.52L52.484,87.463L52.732,87.404L52.978,87.343L53.225,87.281L53.471,87.218L53.716,87.153L53.96,87.086L54.204,87.018L54.448,86.948L54.69,86.876L54.933,86.804L55.174,86.729L55.415,86.653L55.656,86.576L55.895,86.497L56.134,86.416L56.373,86.335L56.611,86.251L56.848,86.166L57.084,86.08L57.32,85.992L57.556,85.903L57.79,85.812L58.024,85.72L58.257,85.626L58.49,85.531L58.722,85.434L58.953,85.336L59.183,85.237L59.413,85.136L59.642,85.034L59.871,84.93L60.099,84.825L60.326,84.718L60.552,84.61L60.777,84.501L61.002,84.39L61.226,84.278L61.45,84.165L61.672,84.05L61.894,83.933L62.115,83.816L62.336,83.697L62.555,83.576L62.774,83.455L62.992,83.332L63.209,83.207L63.426,83.082L63.641,82.954L63.856,82.826L64.07,82.696L64.284,82.565L64.496,82.433L64.708,82.299L64.919,82.164L65.129,82.028L65.338,81.89L65.546,81.752L65.754,81.611L65.96,81.47L66.166,81.327L66.371,81.183L66.575,81.038L66.778,80.892L66.981,80.744L67.182,80.595L67.383,80.445L67.583,80.293L67.781,80.141L67.979,79.987L68.176,79.832L68.372,79.675L68.568,79.518L68.762,79.359L68.955,79.199L69.148,79.038L69.339,78.876L69.53,78.712L69.719,78.548L69.908,78.382L70.096,78.215L70.282,78.047L70.468,77.877L70.653,77.707L70.837,77.535L71.019,77.362L71.201,77.188L71.382,77.013L71.562,76.837L71.741,76.66L71.919,76.481L72.095,76.302L72.271,76.121L72.446,75.939L72.62,75.757L72.793,75.573L72.964,75.388L73.135,75.202L73.304,75.014L73.473,74.826L73.64,74.637L73.807,74.447L73.972,74.255L74.136,74.063L74.3,73.869L74.462,73.675L74.623,73.479L74.783,73.283L74.941,73.085L75.099,72.887L75.256,72.687L75.411,72.486L75.565,72.285L75.719,72.082L75.871,71.878L76.021,71.674L76.171,71.468L76.32,71.262L76.467,71.054L76.614,70.846L76.759,70.637L76.903,70.426L77.046,70.215L77.187,70.003L77.328,69.789L77.467,69.575L77.605,69.36L77.742,69.144L77.877,68.928L78.012,68.71L78.145,68.491L78.277,68.272L78.408,68.051L78.537,67.83L78.665,67.608L78.792,67.384L78.918,67.16L79.043,66.936L79.166,66.71L79.288,66.483L79.409,66.256L79.528,66.028L79.646,65.799L79.763,65.569L79.879,65.338L79.993,65.107L80.106,64.874L80.218,64.641L80.328,64.407L80.437,64.172L80.545,63.937L80.651,63.7L80.757,63.463L80.86,63.225L80.963,62.987L81.064,62.747L81.163,62.507L81.262,62.266L81.359,62.024L81.454,61.781L81.549,61.538L81.642,61.294L81.733,61.05L81.823,60.804L81.912,60.558L81.999,60.311L82.085,60.064L82.17,59.815L82.253,59.566L82.334,59.317L82.415,59.066L82.493,58.815L82.571,58.563L82.647,58.311L82.721,58.058L82.794,57.804L82.866,57.55L82.936,57.295L83.005,57.039L83.072,56.783L83.138,56.525L83.202,56.268L83.265,56.01L83.326,55.751L83.386,55.491L83.444,55.231L83.501,54.97L83.556,54.709L83.61,54.447L83.662,54.184L83.713,53.921L83.762,53.658L83.81,53.393L83.856,53.129L83.9,52.863L83.943,52.597L83.985,52.331L84.025,52.064L84.063,51.796L84.1,51.528L84.135,51.259L84.169,50.99L84.201,50.72L84.231,50.45L84.26,50.179L84.287,49.907L84.313,49.636L84.337,49.363L84.359,49.09L84.38,48.817L84.399,48.543L84.416,48.269L84.432,47.994L84.446,47.719L84.459,47.443L84.47,47.167L84.479,46.89L84.487,46.613L84.492,46.335L84.497,46.057L84.499,45.779L84.5,45.5L84.499,45.221L84.497,44.943L84.492,44.665L84.487,44.387L84.479,44.11L84.47,43.833L84.459,43.557L84.446,43.281L84.432,43.006L84.416,42.731L84.399,42.457L84.38,42.183L84.359,41.91L84.337,41.637L84.313,41.364L84.287,41.093L84.26,40.821L84.231,40.55L84.201,40.28L84.169,40.01L84.135,39.741L84.1,39.472L84.063,39.204L84.025,38.936L83.985,38.669L83.943,38.403L83.9,38.137L83.856,37.871L83.81,37.607L83.762,37.342L83.713,37.079L83.662,36.816L83.61,36.553L83.556,36.291L83.501,36.03L83.444,35.769L83.386,35.509L83.326,35.249L83.265,34.99L83.202,34.732L83.138,34.475L83.072,34.218L83.005,33.961L82.936,33.705L82.866,33.45L82.794,33.196L82.721,32.942L82.647,32.689L82.571,32.437L82.493,32.185L82.415,31.934L82.334,31.683L82.253,31.434L82.17,31.185L82.085,30.936L81.999,30.689L81.912,30.442L81.823,30.196L81.733,29.95L81.642,29.706L81.549,29.462L81.454,29.219L81.359,28.976L81.262,28.734L81.163,28.493L81.064,28.253L80.963,28.013L80.86,27.775L80.757,27.537L80.651,27.3L80.545,27.063L80.437,26.828L80.328,26.593L80.218,26.359L80.106,26.126L79.993,25.893L79.879,25.662L79.763,25.431L79.646,25.201L79.528,24.972L79.409,24.744L79.288,24.517L79.166,24.29L79.043,24.064L78.918,23.84L78.792,23.616L78.665,23.392L78.537,23.17L78.408,22.949L78.277,22.728L78.145,22.509L78.012,22.29L77.877,22.072L77.742,21.856L77.605,21.64L77.467,21.425L77.328,21.211L77.187,20.997L77.046,20.785L76.903,20.574L76.759,20.363L76.614,20.154L76.467,19.946L76.32,19.738L76.171,19.532L76.021,19.326L75.871,19.121L75.719,18.918L75.565,18.715L75.411,18.514L75.256,18.313L75.099,18.113L74.941,17.915L74.783,17.717L74.623,17.521L74.462,17.325L74.3,17.131L74.136,16.937L73.972,16.745L73.807,16.553L73.64,16.363L73.473,16.174L73.304,15.986L73.135,15.798L72.964,15.612L72.793,15.427L72.62,15.243L72.446,15.061L72.271,14.879L72.095,14.698L71.919,14.519L71.741,14.34L71.562,14.163L71.382,13.987L71.201,13.812L71.019,13.638L70.837,13.465L70.653,13.293L70.468,13.123L70.282,12.954L70.096,12.785L69.908,12.618L69.719,12.452L69.53,12.288L69.339,12.124L69.148,11.962L68.955,11.801L68.762,11.641L68.568,11.482L68.372,11.325L68.176,11.168L67.979,11.013L67.781,10.859L67.583,10.707L67.383,10.555L67.182,10.405L66.981,10.256L66.778,10.108L66.575,9.962L66.371,9.817L66.166,9.673L65.96,9.53L65.754,9.389L65.546,9.248L65.338,9.11L65.129,8.972L64.919,8.836L64.708,8.701L64.496,8.567L64.284,8.435L64.07,8.304L63.856,8.174L63.641,8.046L63.426,7.918L63.209,7.793L62.992,7.668L62.774,7.545L62.555,7.424L62.336,7.303L62.115,7.184L61.894,7.067L61.672,6.95L61.45,6.835L61.226,6.722L61.002,6.61L60.777,6.499L60.552,6.39L60.326,6.282L60.099,6.175L59.871,6.07L59.642,5.966L59.413,5.864L59.183,5.763L58.953,5.664L58.722,5.566L58.49,5.469L58.257,5.374L58.024,5.28L57.79,5.188L57.556,5.097L57.32,5.008L57.084,4.92L56.848,4.834L56.611,4.749L56.373,4.665L56.134,4.584L55.895,4.503L55.656,4.424L55.415,4.347L55.174,4.271L54.933,4.196L54.69,4.124L54.448,4.052L54.204,3.982L53.96,3.914L53.716,3.847L53.471,3.782L53.225,3.719L52.978,3.657L52.732,3.596L52.484,3.537L52.236,3.48L51.987,3.424L51.738,3.37L51.489,3.317L51.238,3.266L50.988,3.216L50.736,3.169L50.485,3.122L50.232,3.078L49.979,3.035L49.726,2.993L49.472,2.954L49.218,2.915L48.963,2.879L48.707,2.844L48.451,2.811L48.195,2.779L47.938,2.749L47.681,2.721L47.423,2.695L47.164,2.67L46.906,2.646L46.646,2.625L46.387,2.605L46.126,2.587L45.866,2.57L45.605,2.556L45.343,2.543L45.081,2.531L44.819,2.522L44.556,2.514L44.292,2.508L44.029,2.504L43.765,2.501L43.5,2.5L43.235,2.501Z" style="fill:white;"/>
        </g>
        <g id="Oval-1-Copy-2" transform="matrix(1.01334,0,0,1.01334,-0.480624,-0.498554)">
            <path d="M43.939,2.918L44.202,2.921L44.465,2.925L44.727,2.932L44.988,2.939L45.25,2.949L45.511,2.96L45.771,2.973L46.031,2.988L46.291,3.004L46.55,3.022L46.809,3.042L47.067,3.063L47.325,3.087L47.583,3.111L47.84,3.138L48.096,3.166L48.352,3.196L48.608,3.227L48.863,3.26L49.118,3.295L49.372,3.331L49.626,3.37L49.879,3.409L50.131,3.45L50.384,3.493L50.635,3.538L50.886,3.584L51.137,3.632L51.387,3.681L51.637,3.732L51.886,3.784L52.134,3.839L52.382,3.894L52.629,3.951L52.876,4.01L53.122,4.071L53.368,4.132L53.613,4.196L53.857,4.261L54.101,4.327L54.344,4.396L54.587,4.465L54.829,4.536L55.071,4.609L55.311,4.683L55.552,4.759L55.791,4.836L56.03,4.915L56.268,4.995L56.506,5.076L56.743,5.159L56.979,5.244L57.215,5.33L57.45,5.418L57.684,5.506L57.918,5.597L58.151,5.689L58.383,5.782L58.615,5.877L58.846,5.973L59.076,6.071L59.305,6.17L59.534,6.27L59.762,6.372L59.99,6.475L60.216,6.58L60.442,6.686L60.667,6.793L60.892,6.902L61.115,7.012L61.338,7.124L61.56,7.237L61.782,7.351L62.002,7.466L62.222,7.583L62.441,7.702L62.659,7.821L62.877,7.942L63.094,8.065L63.309,8.188L63.524,8.313L63.739,8.439L63.952,8.567L64.165,8.696L64.377,8.826L64.588,8.957L64.798,9.09L65.007,9.224L65.216,9.359L65.423,9.496L65.63,9.634L65.836,9.773L66.041,9.913L66.245,10.055L66.448,10.197L66.651,10.341L66.852,10.487L67.053,10.633L67.253,10.781L67.452,10.93L67.65,11.08L67.847,11.231L68.043,11.384L68.238,11.537L68.432,11.692L68.626,11.848L68.818,12.006L69.01,12.164L69.2,12.324L69.39,12.484L69.579,12.646L69.766,12.809L69.953,12.974L70.139,13.139L70.324,13.305L70.508,13.473L70.691,13.642L70.872,13.812L71.053,13.983L71.233,14.155L71.412,14.328L71.59,14.502L71.767,14.678L71.943,14.854L72.118,15.032L72.292,15.21L72.464,15.39L72.636,15.571L72.807,15.752L72.977,15.935L73.145,16.119L73.313,16.304L73.48,16.49L73.645,16.677L73.809,16.865L73.973,17.054L74.135,17.245L74.296,17.436L74.456,17.628L74.615,17.821L74.773,18.015L74.93,18.21L75.086,18.406L75.24,18.604L75.394,18.802L75.546,19.001L75.698,19.201L75.848,19.402L75.997,19.604L76.144,19.807L76.291,20.01L76.437,20.215L76.581,20.421L76.724,20.628L76.866,20.835L77.007,21.044L77.147,21.253L77.286,21.463L77.423,21.675L77.559,21.887L77.694,22.1L77.828,22.314L77.961,22.529L78.092,22.744L78.222,22.961L78.351,23.178L78.479,23.397L78.605,23.616L78.731,23.836L78.855,24.057L78.977,24.278L79.099,24.501L79.219,24.724L79.338,24.948L79.456,25.173L79.572,25.399L79.688,25.626L79.802,25.853L79.914,26.082L80.026,26.311L80.136,26.541L80.245,26.771L80.352,27.003L80.458,27.235L80.563,27.468L80.667,27.701L80.769,27.936L80.87,28.171L80.97,28.407L81.068,28.644L81.165,28.881L81.26,29.12L81.355,29.358L81.447,29.598L81.539,29.838L81.629,30.08L81.718,30.321L81.805,30.564L81.891,30.807L81.976,31.051L82.059,31.296L82.141,31.541L82.221,31.787L82.3,32.033L82.378,32.281L82.454,32.528L82.529,32.777L82.602,33.026L82.674,33.276L82.745,33.527L82.814,33.778L82.882,34.03L82.948,34.282L83.012,34.535L83.076,34.789L83.137,35.043L83.198,35.298L83.257,35.553L83.314,35.809L83.37,36.066L83.424,36.323L83.477,36.581L83.529,36.839L83.578,37.098L83.627,37.357L83.674,37.617L83.719,37.878L83.763,38.139L83.805,38.4L83.846,38.662L83.885,38.925L83.923,39.188L83.959,39.452L83.994,39.716L84.027,39.981L84.058,40.246L84.088,40.512L84.116,40.778L84.143,41.045L84.168,41.312L84.192,41.579L84.214,41.847L84.234,42.116L84.253,42.385L84.27,42.654L84.286,42.924L84.299,43.194L84.312,43.465L84.322,43.736L84.332,44.008L84.339,44.28L84.345,44.552L84.349,44.825L84.351,45.098L84.352,45.372L84.351,45.645L84.349,45.919L84.345,46.191L84.339,46.464L84.332,46.736L84.322,47.007L84.312,47.279L84.299,47.549L84.286,47.82L84.27,48.089L84.253,48.359L84.234,48.628L84.214,48.896L84.192,49.164L84.168,49.432L84.143,49.699L84.116,49.966L84.088,50.232L84.058,50.498L84.027,50.763L83.994,51.028L83.959,51.292L83.923,51.555L83.885,51.819L83.846,52.081L83.805,52.343L83.763,52.605L83.719,52.866L83.674,53.127L83.627,53.387L83.578,53.646L83.529,53.905L83.477,54.163L83.424,54.421L83.37,54.678L83.314,54.935L83.257,55.191L83.198,55.446L83.137,55.701L83.076,55.955L83.012,56.209L82.948,56.462L82.882,56.714L82.814,56.966L82.745,57.217L82.674,57.468L82.602,57.718L82.529,57.967L82.454,58.215L82.378,58.463L82.3,58.71L82.221,58.957L82.141,59.203L82.059,59.448L81.976,59.693L81.891,59.937L81.805,60.18L81.718,60.422L81.629,60.664L81.539,60.905L81.447,61.146L81.355,61.385L81.26,61.624L81.165,61.862L81.068,62.1L80.97,62.337L80.87,62.573L80.769,62.808L80.667,63.042L80.563,63.276L80.458,63.509L80.352,63.741L80.245,63.973L80.136,64.203L80.026,64.433L79.914,64.662L79.802,64.89L79.688,65.118L79.572,65.345L79.456,65.57L79.338,65.795L79.219,66.02L79.099,66.243L78.977,66.465L78.855,66.687L78.731,66.908L78.605,67.128L78.479,67.347L78.351,67.565L78.222,67.783L78.092,68L77.961,68.215L77.828,68.43L77.694,68.644L77.559,68.857L77.423,69.069L77.286,69.28L77.147,69.491L77.007,69.7L76.866,69.909L76.724,70.116L76.581,70.323L76.437,70.529L76.291,70.733L76.144,70.937L75.997,71.14L75.848,71.342L75.698,71.543L75.546,71.743L75.394,71.942L75.24,72.14L75.086,72.337L74.93,72.533L74.773,72.729L74.615,72.923L74.456,73.116L74.296,73.308L74.135,73.499L73.973,73.689L73.809,73.878L73.645,74.066L73.48,74.254L73.313,74.44L73.145,74.624L72.977,74.808L72.807,74.991L72.636,75.173L72.464,75.354L72.292,75.534L72.118,75.712L71.943,75.89L71.767,76.066L71.59,76.242L71.412,76.416L71.233,76.589L71.053,76.761L70.873,76.932L70.691,77.102L70.508,77.271L70.324,77.438L70.139,77.605L69.953,77.77L69.766,77.934L69.579,78.097L69.39,78.259L69.2,78.42L69.01,78.58L68.818,78.738L68.626,78.895L68.432,79.051L68.238,79.206L68.043,79.36L67.847,79.513L67.65,79.664L67.452,79.814L67.253,79.963L67.053,80.111L66.852,80.257L66.651,80.402L66.448,80.546L66.245,80.689L66.041,80.831L65.836,80.971L65.63,81.11L65.423,81.248L65.216,81.384L65.007,81.52L64.798,81.654L64.588,81.786L64.377,81.918L64.165,82.048L63.952,82.177L63.739,82.304L63.524,82.431L63.309,82.556L63.093,82.679L62.877,82.802L62.659,82.922L62.441,83.042L62.222,83.16L62.002,83.277L61.782,83.393L61.56,83.507L61.338,83.62L61.115,83.732L60.892,83.842L60.667,83.951L60.442,84.058L60.216,84.164L59.99,84.269L59.762,84.372L59.534,84.474L59.305,84.574L59.076,84.673L58.846,84.771L58.615,84.867L58.383,84.962L58.151,85.055L57.918,85.147L57.684,85.237L57.45,85.326L57.215,85.414L56.979,85.5L56.743,85.584L56.506,85.667L56.268,85.749L56.03,85.829L55.791,85.908L55.552,85.985L55.311,86.061L55.071,86.135L54.829,86.207L54.587,86.279L54.344,86.348L54.101,86.416L53.857,86.483L53.613,86.548L53.368,86.611L53.122,86.673L52.876,86.734L52.629,86.792L52.382,86.85L52.134,86.905L51.886,86.959L51.637,87.012L51.387,87.063L51.137,87.112L50.886,87.16L50.635,87.206L50.384,87.25L50.131,87.293L49.879,87.335L49.626,87.374L49.372,87.412L49.118,87.449L48.863,87.483L48.608,87.517L48.352,87.548L48.096,87.578L47.84,87.606L47.583,87.632L47.325,87.657L47.067,87.68L46.809,87.702L46.55,87.722L46.291,87.74L46.031,87.756L45.771,87.771L45.511,87.784L45.25,87.795L44.988,87.804L44.727,87.812L44.465,87.818L44.202,87.823L43.939,87.825L43.676,87.826L43.413,87.825L43.15,87.823L42.887,87.818L42.625,87.812L42.364,87.804L42.102,87.795L41.842,87.784L41.581,87.771L41.321,87.756L41.061,87.74L40.802,87.722L40.543,87.702L40.285,87.68L40.027,87.657L39.77,87.632L39.512,87.606L39.256,87.578L39,87.548L38.744,87.517L38.489,87.483L38.234,87.449L37.98,87.412L37.727,87.374L37.473,87.335L37.221,87.293L36.969,87.25L36.717,87.206L36.466,87.16L36.215,87.112L35.965,87.063L35.716,87.012L35.467,86.959L35.218,86.905L34.97,86.85L34.723,86.792L34.476,86.734L34.23,86.673L33.984,86.611L33.739,86.548L33.495,86.483L33.251,86.416L33.008,86.348L32.765,86.279L32.523,86.207L32.282,86.135L32.041,86.061L31.801,85.985L31.561,85.908L31.322,85.829L31.084,85.749L30.846,85.667L30.609,85.584L30.373,85.5L30.137,85.414L29.902,85.326L29.668,85.237L29.434,85.147L29.201,85.055L28.969,84.962L28.737,84.867L28.506,84.771L28.276,84.673L28.047,84.574L27.818,84.474L27.59,84.372L27.363,84.269L27.136,84.164L26.91,84.058L26.685,83.951L26.461,83.842L26.237,83.732L26.014,83.62L25.792,83.507L25.571,83.393L25.35,83.277L25.13,83.16L24.911,83.042L24.693,82.922L24.475,82.802L24.259,82.679L24.043,82.556L23.828,82.431L23.613,82.304L23.4,82.177L23.187,82.048L22.975,81.918L22.764,81.786L22.554,81.654L22.345,81.52L22.137,81.384L21.929,81.248L21.722,81.11L21.516,80.971L21.311,80.831L21.107,80.689L20.904,80.546L20.701,80.402L20.5,80.257L20.299,80.111L20.099,79.963L19.9,79.814L19.702,79.664L19.505,79.513L19.309,79.36L19.114,79.206L18.92,79.051L18.726,78.895L18.534,78.738L18.342,78.58L18.152,78.42L17.962,78.259L17.773,78.097L17.586,77.934L17.399,77.77L17.213,77.605L17.028,77.438L16.844,77.271L16.662,77.102L16.48,76.932L16.299,76.761L16.119,76.589L15.94,76.416L15.762,76.242L15.585,76.066L15.409,75.89L15.234,75.712L15.061,75.534L14.888,75.354L14.716,75.173L14.545,74.991L14.375,74.808L14.207,74.624L14.039,74.44L13.873,74.253L13.707,74.066L13.543,73.878L13.379,73.689L13.217,73.499L13.056,73.308L12.896,73.116L12.737,72.923L12.579,72.729L12.422,72.533L12.266,72.337L12.112,72.14L11.958,71.942L11.806,71.743L11.655,71.543L11.504,71.342L11.356,71.14L11.208,70.937L11.061,70.733L10.915,70.529L10.771,70.323L10.628,70.116L10.486,69.909L10.345,69.7L10.205,69.491L10.067,69.28L9.929,69.069L9.793,68.857L9.658,68.644L9.524,68.43L9.392,68.215L9.26,67.999L9.13,67.783L9.001,67.565L8.873,67.347L8.747,67.128L8.622,66.908L8.498,66.687L8.375,66.465L8.253,66.243L8.133,66.02L8.014,65.795L7.896,65.57L7.78,65.345L7.664,65.118L7.55,64.89L7.438,64.662L7.326,64.433L7.216,64.203L7.107,63.973L7,63.741L6.894,63.509L6.789,63.276L6.685,63.042L6.583,62.808L6.482,62.573L6.383,62.337L6.284,62.1L6.187,61.862L6.092,61.624L5.998,61.385L5.905,61.146L5.813,60.905L5.723,60.664L5.634,60.422L5.547,60.18L5.461,59.937L5.376,59.693L5.293,59.448L5.211,59.203L5.131,58.957L5.052,58.71L4.974,58.463L4.898,58.215L4.823,57.967L4.75,57.717L4.678,57.468L4.607,57.217L4.538,56.966L4.471,56.714L4.404,56.462L4.34,56.209L4.277,55.955L4.215,55.701L4.154,55.446L4.096,55.191L4.038,54.935L3.982,54.678L3.928,54.421L3.875,54.163L3.824,53.905L3.774,53.646L3.725,53.387L3.678,53.127L3.633,52.866L3.589,52.605L3.547,52.343L3.506,52.081L3.467,51.819L3.429,51.555L3.393,51.292L3.359,51.028L3.326,50.763L3.294,50.498L3.264,50.232L3.236,49.966L3.209,49.699L3.184,49.432L3.16,49.164L3.139,48.896L3.118,48.628L3.099,48.359L3.082,48.089L3.067,47.82L3.053,47.549L3.04,47.279L3.03,47.007L3.021,46.736L3.013,46.464L3.007,46.191L3.003,45.919L3.001,45.645L3,45.372L3.001,45.098L3.003,44.825L3.007,44.552L3.013,44.28L3.021,44.008L3.03,43.736L3.04,43.465L3.053,43.194L3.067,42.924L3.082,42.654L3.099,42.385L3.118,42.116L3.139,41.847L3.16,41.579L3.184,41.312L3.209,41.045L3.236,40.778L3.264,40.512L3.294,40.246L3.326,39.981L3.359,39.716L3.393,39.452L3.429,39.188L3.467,38.925L3.506,38.662L3.547,38.4L3.589,38.139L3.633,37.878L3.678,37.617L3.725,37.357L3.774,37.098L3.824,36.839L3.875,36.581L3.928,36.323L3.982,36.066L4.038,35.809L4.096,35.553L4.154,35.298L4.215,35.043L4.277,34.789L4.34,34.535L4.404,34.282L4.471,34.03L4.538,33.778L4.607,33.527L4.678,33.276L4.75,33.026L4.823,32.777L4.898,32.528L4.974,32.281L5.052,32.033L5.131,31.787L5.211,31.541L5.293,31.296L5.376,31.051L5.461,30.807L5.547,30.564L5.634,30.321L5.723,30.08L5.813,29.838L5.905,29.598L5.998,29.358L6.092,29.12L6.187,28.881L6.284,28.644L6.383,28.407L6.482,28.171L6.583,27.936L6.685,27.701L6.789,27.468L6.894,27.235L7,27.003L7.107,26.771L7.216,26.541L7.326,26.311L7.438,26.082L7.55,25.853L7.664,25.626L7.78,25.399L7.896,25.173L8.014,24.948L8.133,24.724L8.253,24.501L8.375,24.278L8.498,24.057L8.622,23.836L8.747,23.616L8.873,23.397L9.001,23.178L9.13,22.961L9.26,22.744L9.392,22.529L9.524,22.314L9.658,22.1L9.793,21.887L9.929,21.675L10.067,21.463L10.205,21.253L10.345,21.044L10.486,20.835L10.628,20.628L10.771,20.421L10.915,20.215L11.061,20.01L11.208,19.807L11.356,19.604L11.504,19.402L11.655,19.201L11.806,19.001L11.958,18.802L12.112,18.604L12.266,18.406L12.422,18.21L12.579,18.015L12.737,17.821L12.896,17.628L13.056,17.436L13.217,17.245L13.379,17.054L13.543,16.865L13.707,16.677L13.873,16.49L14.039,16.304L14.207,16.119L14.375,15.935L14.545,15.752L14.716,15.571L14.888,15.39L15.061,15.21L15.234,15.032L15.409,14.854L15.585,14.678L15.762,14.502L15.94,14.328L16.119,14.155L16.299,13.983L16.48,13.812L16.662,13.642L16.844,13.473L17.028,13.305L17.213,13.139L17.399,12.974L17.586,12.809L17.773,12.646L17.962,12.484L18.152,12.324L18.342,12.164L18.534,12.006L18.726,11.848L18.92,11.692L19.114,11.537L19.309,11.384L19.505,11.231L19.702,11.08L19.9,10.93L20.099,10.781L20.299,10.633L20.5,10.487L20.701,10.341L20.904,10.197L21.107,10.055L21.311,9.913L21.516,9.773L21.722,9.634L21.929,9.496L22.137,9.359L22.345,9.224L22.554,9.09L22.765,8.957L22.975,8.826L23.187,8.696L23.4,8.567L23.613,8.439L23.828,8.313L24.043,8.188L24.259,8.065L24.475,7.942L24.693,7.821L24.911,7.702L25.13,7.583L25.35,7.466L25.571,7.351L25.792,7.237L26.014,7.124L26.237,7.012L26.461,6.902L26.685,6.793L26.91,6.686L27.136,6.58L27.363,6.475L27.59,6.372L27.818,6.27L28.047,6.17L28.276,6.071L28.506,5.973L28.737,5.877L28.969,5.782L29.201,5.689L29.434,5.597L29.668,5.506L29.902,5.418L30.137,5.33L30.373,5.244L30.609,5.159L30.846,5.076L31.084,4.995L31.322,4.915L31.561,4.836L31.801,4.759L32.041,4.683L32.282,4.609L32.523,4.536L32.765,4.465L33.008,4.396L33.251,4.327L33.495,4.261L33.739,4.196L33.984,4.132L34.23,4.071L34.476,4.01L34.723,3.951L34.97,3.894L35.218,3.839L35.467,3.784L35.716,3.732L35.965,3.681L36.215,3.632L36.466,3.584L36.717,3.538L36.969,3.493L37.221,3.45L37.473,3.409L37.727,3.37L37.98,3.331L38.234,3.295L38.489,3.26L38.744,3.227L39,3.196L39.256,3.166L39.512,3.138L39.77,3.111L40.027,3.087L40.285,3.063L40.543,3.042L40.802,3.022L41.061,3.004L41.321,2.988L41.581,2.973L41.842,2.96L42.102,2.949L42.364,2.939L42.625,2.932L42.888,2.925L43.15,2.921L43.413,2.918L43.676,2.918L43.939,2.918ZM43.439,6.918L43.203,6.921L42.967,6.925L42.732,6.93L42.496,6.937L42.262,6.946L42.027,6.956L41.793,6.967L41.559,6.981L41.326,6.995L41.093,7.012L40.861,7.029L40.629,7.049L40.397,7.069L40.166,7.092L39.936,7.115L39.705,7.141L39.475,7.167L39.246,7.196L39.017,7.225L38.788,7.257L38.56,7.289L38.333,7.323L38.105,7.359L37.879,7.396L37.652,7.435L37.427,7.474L37.201,7.516L36.976,7.559L36.752,7.603L36.528,7.649L36.305,7.696L36.082,7.744L35.859,7.794L35.637,7.846L35.416,7.898L35.195,7.952L34.975,8.008L34.755,8.065L34.535,8.123L34.316,8.183L34.098,8.244L33.88,8.307L33.663,8.37L33.446,8.436L33.23,8.502L33.015,8.57L32.8,8.639L32.585,8.71L32.371,8.782L32.158,8.855L31.945,8.93L31.733,9.006L31.521,9.083L31.31,9.162L31.099,9.242L30.89,9.323L30.68,9.405L30.472,9.489L30.264,9.574L30.056,9.661L29.849,9.748L29.643,9.837L29.437,9.928L29.232,10.019L29.028,10.112L28.824,10.206L28.621,10.301L28.419,10.398L28.217,10.496L28.016,10.595L27.815,10.695L27.615,10.797L27.416,10.899L27.218,11.004L27.02,11.109L26.823,11.215L26.626,11.323L26.431,11.432L26.236,11.542L26.041,11.653L25.848,11.766L25.655,11.879L25.462,11.994L25.271,12.11L25.08,12.228L24.89,12.346L24.701,12.466L24.512,12.586L24.324,12.708L24.137,12.831L23.951,12.955L23.765,13.081L23.58,13.207L23.396,13.335L23.213,13.464L23.03,13.594L22.848,13.725L22.667,13.857L22.487,13.99L22.308,14.124L22.129,14.26L21.951,14.396L21.774,14.534L21.598,14.673L21.423,14.813L21.248,14.953L21.074,15.095L20.901,15.239L20.729,15.383L20.558,15.528L20.387,15.674L20.218,15.821L20.049,15.97L19.881,16.119L19.714,16.27L19.548,16.421L19.383,16.574L19.218,16.727L19.055,16.882L18.892,17.037L18.731,17.194L18.57,17.351L18.41,17.51L18.251,17.669L18.093,17.83L17.935,17.992L17.779,18.154L17.624,18.318L17.469,18.482L17.316,18.648L17.163,18.814L17.011,18.981L16.861,19.15L16.711,19.319L16.562,19.489L16.414,19.66L16.267,19.832L16.121,20.005L15.976,20.179L15.832,20.354L15.689,20.53L15.547,20.707L15.406,20.884L15.266,21.063L15.127,21.242L14.989,21.423L14.852,21.604L14.716,21.786L14.581,21.969L14.447,22.153L14.315,22.337L14.183,22.523L14.052,22.709L13.922,22.897L13.793,23.085L13.666,23.274L13.539,23.463L13.413,23.654L13.289,23.845L13.165,24.038L13.043,24.231L12.922,24.425L12.802,24.62L12.683,24.815L12.565,25.011L12.448,25.209L12.332,25.406L12.217,25.605L12.103,25.805L11.991,26.005L11.88,26.206L11.769,26.408L11.66,26.61L11.552,26.814L11.446,27.018L11.34,27.223L11.235,27.428L11.132,27.635L11.03,27.842L10.929,28.049L10.829,28.258L10.73,28.467L10.633,28.677L10.536,28.888L10.441,29.099L10.347,29.311L10.254,29.524L10.163,29.737L10.072,29.951L9.983,30.166L9.895,30.382L9.809,30.598L9.723,30.815L9.639,31.032L9.556,31.25L9.474,31.469L9.393,31.689L9.314,31.909L9.236,32.13L9.159,32.351L9.084,32.573L9.009,32.796L8.936,33.019L8.865,33.243L8.794,33.467L8.725,33.692L8.657,33.918L8.59,34.144L8.525,34.371L8.461,34.599L8.398,34.827L8.337,35.055L8.277,35.285L8.218,35.515L8.161,35.745L8.104,35.976L8.05,36.207L7.996,36.439L7.944,36.672L7.893,36.905L7.844,37.139L7.796,37.373L7.749,37.608L7.704,37.843L7.66,38.079L7.617,38.315L7.576,38.552L7.536,38.789L7.498,39.027L7.461,39.265L7.425,39.504L7.391,39.743L7.358,39.983L7.326,40.223L7.296,40.464L7.268,40.705L7.241,40.947L7.215,41.189L7.19,41.432L7.168,41.675L7.146,41.918L7.126,42.162L7.108,42.407L7.091,42.651L7.075,42.897L7.061,43.142L7.048,43.388L7.037,43.635L7.027,43.882L7.019,44.129L7.012,44.377L7.007,44.625L7.003,44.874L7.001,45.123L7,45.372L7.001,45.621L7.003,45.87L7.007,46.119L7.012,46.367L7.019,46.615L7.027,46.862L7.037,47.109L7.048,47.355L7.061,47.601L7.075,47.847L7.091,48.092L7.108,48.337L7.126,48.582L7.146,48.826L7.168,49.069L7.19,49.312L7.215,49.555L7.241,49.797L7.268,50.039L7.296,50.28L7.326,50.52L7.358,50.761L7.391,51L7.425,51.24L7.461,51.479L7.498,51.717L7.536,51.955L7.576,52.192L7.617,52.429L7.66,52.665L7.704,52.901L7.749,53.136L7.796,53.371L7.844,53.605L7.893,53.839L7.944,54.072L7.996,54.304L8.05,54.536L8.104,54.768L8.161,54.999L8.218,55.229L8.277,55.459L8.337,55.688L8.398,55.917L8.461,56.145L8.525,56.372L8.59,56.599L8.657,56.826L8.725,57.051L8.794,57.276L8.865,57.501L8.936,57.725L9.009,57.948L9.084,58.171L9.159,58.393L9.236,58.614L9.314,58.835L9.393,59.055L9.474,59.274L9.556,59.493L9.639,59.711L9.723,59.929L9.809,60.146L9.895,60.362L9.983,60.577L10.072,60.792L10.163,61.006L10.254,61.22L10.347,61.433L10.441,61.645L10.536,61.856L10.633,62.067L10.73,62.277L10.829,62.486L10.929,62.694L11.03,62.902L11.132,63.109L11.235,63.316L11.34,63.521L11.446,63.726L11.552,63.93L11.66,64.133L11.769,64.336L11.88,64.538L11.991,64.739L12.103,64.939L12.217,65.139L12.332,65.337L12.448,65.535L12.565,65.732L12.683,65.929L12.802,66.124L12.922,66.319L13.043,66.513L13.165,66.706L13.289,66.898L13.413,67.09L13.539,67.28L13.666,67.47L13.793,67.659L13.922,67.847L14.052,68.035L14.183,68.221L14.315,68.406L14.447,68.591L14.581,68.775L14.716,68.958L14.852,69.14L14.989,69.321L15.127,69.501L15.266,69.681L15.406,69.859L15.547,70.037L15.689,70.214L15.832,70.389L15.976,70.564L16.121,70.738L16.267,70.911L16.414,71.083L16.562,71.255L16.711,71.425L16.861,71.594L17.011,71.762L17.163,71.93L17.316,72.096L17.469,72.262L17.624,72.426L17.779,72.59L17.935,72.752L18.093,72.914L18.251,73.074L18.41,73.234L18.57,73.392L18.731,73.55L18.892,73.707L19.055,73.862L19.218,74.017L19.383,74.17L19.548,74.323L19.714,74.474L19.881,74.625L20.049,74.774L20.218,74.922L20.387,75.07L20.558,75.216L20.729,75.361L20.901,75.505L21.074,75.648L21.248,75.79L21.423,75.931L21.598,76.071L21.774,76.21L21.951,76.347L22.129,76.484L22.308,76.619L22.487,76.754L22.667,76.887L22.848,77.019L23.03,77.15L23.213,77.28L23.396,77.409L23.58,77.537L23.765,77.663L23.951,77.788L24.137,77.913L24.324,78.036L24.512,78.158L24.701,78.278L24.89,78.398L25.08,78.516L25.271,78.633L25.462,78.75L25.655,78.864L25.848,78.978L26.041,79.091L26.236,79.202L26.431,79.312L26.626,79.421L26.823,79.529L27.02,79.635L27.218,79.74L27.416,79.844L27.615,79.947L27.815,80.049L28.016,80.149L28.217,80.248L28.419,80.346L28.621,80.442L28.824,80.538L29.028,80.632L29.232,80.725L29.437,80.816L29.643,80.906L29.849,80.995L30.056,81.083L30.263,81.17L30.472,81.255L30.68,81.338L30.89,81.421L31.099,81.502L31.31,81.582L31.521,81.661L31.733,81.738L31.945,81.814L32.158,81.889L32.371,81.962L32.585,82.034L32.8,82.104L33.015,82.174L33.23,82.242L33.446,82.308L33.663,82.373L33.88,82.437L34.098,82.5L34.316,82.561L34.535,82.62L34.755,82.679L34.975,82.736L35.195,82.791L35.416,82.845L35.637,82.898L35.859,82.95L36.082,83L36.305,83.048L36.528,83.095L36.752,83.141L36.976,83.185L37.201,83.228L37.427,83.269L37.652,83.309L37.879,83.348L38.105,83.385L38.333,83.42L38.56,83.455L38.788,83.487L39.017,83.518L39.246,83.548L39.475,83.576L39.705,83.603L39.936,83.628L40.166,83.652L40.397,83.674L40.629,83.695L40.861,83.714L41.093,83.732L41.326,83.748L41.559,83.763L41.793,83.776L42.027,83.788L42.262,83.798L42.496,83.807L42.732,83.814L42.967,83.819L43.203,83.823L43.439,83.825L43.676,83.826L43.913,83.825L44.149,83.823L44.385,83.819L44.621,83.814L44.856,83.807L45.091,83.798L45.325,83.788L45.559,83.776L45.793,83.763L46.026,83.748L46.259,83.732L46.491,83.714L46.723,83.695L46.955,83.674L47.186,83.652L47.417,83.628L47.647,83.603L47.877,83.576L48.106,83.548L48.335,83.518L48.564,83.487L48.792,83.455L49.02,83.42L49.247,83.385L49.473,83.348L49.7,83.309L49.926,83.269L50.151,83.228L50.376,83.185L50.6,83.141L50.824,83.095L51.048,83.048L51.27,83L51.493,82.95L51.715,82.898L51.936,82.845L52.157,82.791L52.378,82.736L52.597,82.679L52.817,82.62L53.036,82.561L53.254,82.5L53.472,82.437L53.689,82.373L53.906,82.308L54.122,82.242L54.338,82.174L54.553,82.104L54.767,82.034L54.981,81.962L55.194,81.889L55.407,81.814L55.619,81.738L55.831,81.661L56.042,81.582L56.253,81.502L56.463,81.421L56.672,81.338L56.881,81.255L57.089,81.17L57.296,81.083L57.503,80.995L57.709,80.906L57.915,80.816L58.12,80.725L58.324,80.632L58.528,80.538L58.731,80.442L58.934,80.346L59.135,80.248L59.336,80.149L59.537,80.049L59.737,79.947L59.936,79.844L60.134,79.74L60.332,79.635L60.529,79.529L60.726,79.421L60.922,79.312L61.117,79.202L61.311,79.091L61.505,78.978L61.698,78.864L61.89,78.75L62.081,78.633L62.272,78.516L62.462,78.398L62.652,78.278L62.84,78.158L63.028,78.036L63.215,77.913L63.402,77.788L63.587,77.663L63.772,77.537L63.956,77.409L64.139,77.28L64.322,77.15L64.504,77.019L64.685,76.887L64.865,76.754L65.044,76.619L65.223,76.484L65.401,76.347L65.578,76.21L65.754,76.071L65.93,75.931L66.104,75.79L66.278,75.648L66.451,75.505L66.623,75.361L66.794,75.216L66.965,75.07L67.134,74.922L67.303,74.774L67.471,74.625L67.638,74.474L67.804,74.323L67.969,74.17L68.134,74.017L68.297,73.862L68.46,73.707L68.622,73.55L68.782,73.392L68.942,73.234L69.101,73.074L69.26,72.914L69.417,72.752L69.573,72.59L69.729,72.426L69.883,72.262L70.037,72.096L70.189,71.93L70.341,71.762L70.492,71.594L70.641,71.425L70.79,71.255L70.938,71.083L71.085,70.911L71.231,70.738L71.376,70.564L71.52,70.389L71.663,70.214L71.805,70.037L71.946,69.859L72.086,69.681L72.225,69.501L72.363,69.321L72.5,69.14L72.636,68.958L72.771,68.775L72.905,68.591L73.038,68.406L73.169,68.221L73.3,68.035L73.43,67.847L73.559,67.659L73.687,67.47L73.813,67.28L73.939,67.09L74.063,66.898L74.187,66.706L74.309,66.513L74.43,66.319L74.551,66.124L74.67,65.929L74.788,65.732L74.905,65.535L75.02,65.337L75.135,65.139L75.249,64.939L75.361,64.739L75.472,64.538L75.583,64.336L75.692,64.133L75.8,63.93L75.907,63.726L76.012,63.521L76.117,63.316L76.22,63.109L76.322,62.902L76.423,62.694L76.523,62.486L76.622,62.277L76.72,62.067L76.816,61.856L76.911,61.645L77.005,61.433L77.098,61.22L77.189,61.006L77.28,60.792L77.369,60.577L77.457,60.362L77.544,60.146L77.629,59.929L77.713,59.711L77.796,59.493L77.878,59.274L77.959,59.055L78.038,58.835L78.116,58.614L78.193,58.393L78.269,58.171L78.343,57.948L78.416,57.725L78.488,57.501L78.558,57.276L78.627,57.051L78.695,56.826L78.762,56.599L78.827,56.372L78.891,56.145L78.954,55.917L79.015,55.688L79.075,55.459L79.134,55.229L79.192,54.999L79.248,54.768L79.303,54.536L79.356,54.304L79.408,54.072L79.459,53.839L79.508,53.605L79.556,53.371L79.603,53.136L79.648,52.901L79.692,52.665L79.735,52.429L79.776,52.192L79.816,51.955L79.854,51.717L79.892,51.479L79.927,51.24L79.961,51L79.994,50.761L80.026,50.52L80.056,50.28L80.084,50.039L80.112,49.797L80.137,49.555L80.162,49.312L80.185,49.069L80.206,48.826L80.226,48.582L80.245,48.337L80.262,48.092L80.277,47.847L80.291,47.601L80.304,47.355L80.315,47.109L80.325,46.862L80.333,46.615L80.34,46.367L80.345,46.119L80.349,45.87L80.351,45.621L80.352,45.372L80.351,45.123L80.349,44.874L80.345,44.625L80.34,44.377L80.333,44.129L80.325,43.882L80.315,43.635L80.304,43.388L80.291,43.142L80.277,42.897L80.262,42.651L80.245,42.407L80.226,42.162L80.206,41.918L80.185,41.675L80.162,41.432L80.137,41.189L80.112,40.947L80.084,40.705L80.056,40.464L80.026,40.223L79.994,39.983L79.961,39.743L79.927,39.504L79.892,39.265L79.854,39.027L79.816,38.789L79.776,38.552L79.735,38.315L79.692,38.079L79.648,37.843L79.603,37.608L79.556,37.373L79.508,37.139L79.459,36.905L79.408,36.672L79.356,36.439L79.303,36.207L79.248,35.976L79.192,35.745L79.134,35.515L79.075,35.285L79.015,35.055L78.954,34.827L78.891,34.599L78.827,34.371L78.762,34.144L78.695,33.918L78.627,33.692L78.558,33.467L78.488,33.243L78.416,33.019L78.343,32.796L78.269,32.573L78.193,32.351L78.116,32.13L78.038,31.909L77.959,31.689L77.878,31.469L77.796,31.25L77.713,31.032L77.629,30.815L77.544,30.598L77.457,30.382L77.369,30.166L77.28,29.951L77.189,29.737L77.098,29.524L77.005,29.311L76.911,29.099L76.816,28.888L76.72,28.677L76.622,28.467L76.523,28.258L76.423,28.049L76.322,27.842L76.22,27.635L76.117,27.428L76.012,27.223L75.907,27.018L75.8,26.814L75.692,26.61L75.583,26.408L75.472,26.206L75.361,26.005L75.249,25.805L75.135,25.605L75.02,25.406L74.905,25.209L74.788,25.011L74.67,24.815L74.551,24.62L74.43,24.425L74.309,24.231L74.187,24.038L74.063,23.845L73.939,23.654L73.813,23.463L73.687,23.274L73.559,23.085L73.43,22.897L73.3,22.709L73.169,22.523L73.038,22.337L72.905,22.153L72.771,21.969L72.636,21.786L72.5,21.604L72.363,21.423L72.225,21.242L72.086,21.063L71.946,20.884L71.805,20.707L71.663,20.53L71.52,20.354L71.376,20.179L71.231,20.005L71.085,19.832L70.938,19.66L70.79,19.489L70.641,19.319L70.492,19.15L70.341,18.981L70.189,18.814L70.037,18.648L69.883,18.482L69.729,18.318L69.573,18.154L69.417,17.992L69.26,17.83L69.101,17.669L68.942,17.51L68.782,17.351L68.622,17.194L68.46,17.037L68.297,16.882L68.134,16.727L67.969,16.574L67.804,16.421L67.638,16.27L67.471,16.119L67.303,15.97L67.134,15.821L66.965,15.674L66.794,15.528L66.623,15.383L66.451,15.239L66.278,15.095L66.104,14.953L65.93,14.813L65.754,14.673L65.578,14.534L65.401,14.396L65.223,14.26L65.044,14.124L64.865,13.99L64.685,13.857L64.504,13.725L64.322,13.594L64.139,13.464L63.956,13.335L63.772,13.207L63.587,13.081L63.402,12.955L63.215,12.831L63.028,12.708L62.84,12.586L62.652,12.466L62.462,12.346L62.272,12.228L62.081,12.11L61.89,11.994L61.698,11.879L61.505,11.766L61.311,11.653L61.117,11.542L60.922,11.432L60.726,11.323L60.529,11.215L60.332,11.109L60.134,11.004L59.936,10.899L59.737,10.797L59.537,10.695L59.336,10.595L59.135,10.496L58.934,10.398L58.731,10.301L58.528,10.206L58.324,10.112L58.12,10.019L57.915,9.928L57.709,9.837L57.503,9.748L57.296,9.661L57.089,9.574L56.881,9.489L56.672,9.405L56.463,9.323L56.253,9.242L56.042,9.162L55.831,9.083L55.619,9.006L55.407,8.93L55.194,8.855L54.981,8.782L54.767,8.71L54.553,8.639L54.338,8.57L54.122,8.502L53.906,8.436L53.689,8.37L53.472,8.307L53.254,8.244L53.036,8.183L52.817,8.123L52.597,8.065L52.378,8.008L52.157,7.952L51.936,7.898L51.715,7.846L51.493,7.794L51.27,7.744L51.048,7.696L50.824,7.649L50.6,7.603L50.376,7.559L50.151,7.516L49.926,7.474L49.7,7.435L49.473,7.396L49.247,7.359L49.02,7.323L48.792,7.289L48.564,7.257L48.335,7.225L48.106,7.196L47.877,7.167L47.647,7.141L47.417,7.115L47.186,7.092L46.955,7.069L46.723,7.049L46.491,7.029L46.259,7.012L46.026,6.995L45.793,6.981L45.559,6.967L45.325,6.956L45.091,6.946L44.856,6.937L44.621,6.93L44.385,6.925L44.149,6.921L43.913,6.918L43.676,6.918L43.439,6.918Z" style="fill:rgb(89,74,56);"/>
        </g>
        <g id="Oval-1-Copy" transform="matrix(1,0,0,1,1,0)">
            <path d="M63.3,29.444C62.388,28.187 61.371,27.018 60.262,25.951C55.774,21.635 49.784,19 43.207,19C29.285,19 18,30.804 18,45.366C18,59.927 29.285,71.731 43.207,71.731C51.377,71.731 58.639,67.666 63.245,61.363" style="fill:rgb(142,193,109);"/>
            <path d="M43.395,13.501L43.584,13.502L43.772,13.505L43.959,13.509L44.147,13.515L44.334,13.521L44.521,13.529L44.708,13.538L44.895,13.547L45.081,13.559L45.267,13.571L45.453,13.584L45.638,13.599L45.824,13.614L46.009,13.631L46.193,13.649L46.378,13.668L46.562,13.688L46.745,13.71L46.929,13.732L47.112,13.756L47.295,13.78L47.477,13.806L47.66,13.833L47.841,13.861L48.023,13.89L48.204,13.921L48.385,13.952L48.565,13.984L48.745,14.018L48.925,14.052L49.105,14.088L49.284,14.125L49.462,14.163L49.641,14.202L49.819,14.242L49.996,14.283L50.173,14.325L50.35,14.368L50.526,14.412L50.702,14.457L50.878,14.504L51.053,14.551L51.228,14.599L51.402,14.649L51.576,14.699L51.75,14.751L51.923,14.803L52.095,14.857L52.268,14.911L52.439,14.967L52.611,15.023L52.781,15.081L52.952,15.139L53.122,15.199L53.291,15.259L53.46,15.321L53.629,15.383L53.797,15.447L53.965,15.511L54.132,15.577L54.299,15.643L54.465,15.711L54.63,15.779L54.796,15.848L54.96,15.919L55.125,15.99L55.288,16.062L55.452,16.135L55.614,16.209L55.777,16.284L55.938,16.36L56.099,16.437L56.26,16.515L56.42,16.593L56.58,16.673L56.739,16.754L56.897,16.835L57.055,16.917L57.213,17.001L57.37,17.085L57.526,17.17L57.682,17.256L57.837,17.343L57.992,17.43L58.146,17.519L58.3,17.608L58.453,17.699L58.605,17.79L58.757,17.882L58.908,17.975L59.059,18.069L59.209,18.163L59.359,18.259L59.507,18.355L59.656,18.452L59.804,18.55L59.951,18.649L60.097,18.749L60.243,18.85L60.389,18.951L60.533,19.053L60.678,19.156L60.821,19.26L60.964,19.365L61.106,19.47L61.248,19.576L61.389,19.683L61.53,19.791L61.669,19.9L61.809,20.009L61.947,20.119L62.085,20.23L62.222,20.342L62.359,20.455L62.495,20.568L62.63,20.682L62.765,20.797L62.899,20.913L63.032,21.029L63.165,21.146L63.297,21.264L63.428,21.383L63.559,21.502L63.688,21.622L63.818,21.743L63.946,21.865L64.074,21.987L64.2,22.109L64.325,22.231L64.45,22.354L64.573,22.478L64.696,22.602L64.819,22.727L64.94,22.853L65.061,22.98L65.182,23.107L65.301,23.235L65.42,23.363L65.539,23.492L65.656,23.622L65.773,23.753L65.889,23.884L66.004,24.016L66.119,24.149L66.233,24.282L66.346,24.416L66.459,24.55L66.571,24.685L66.682,24.821L66.792,24.958L66.902,25.095L67.011,25.232L67.119,25.371L67.226,25.51L67.333,25.649L67.439,25.79L67.544,25.931L67.648,26.072L67.743,26.202L58.857,32.685L58.78,32.58L58.712,32.487L58.643,32.395L58.573,32.303L58.504,32.212L58.433,32.121L58.363,32.031L58.291,31.941L58.22,31.851L58.148,31.762L58.075,31.673L58.002,31.585L57.929,31.497L57.855,31.41L57.78,31.323L57.705,31.236L57.63,31.15L57.554,31.064L57.478,30.979L57.402,30.895L57.325,30.811L57.247,30.727L57.169,30.644L57.091,30.561L57.012,30.479L56.933,30.397L56.854,30.315L56.774,30.234L56.693,30.154L56.613,30.074L56.531,29.995L56.45,29.916L56.367,29.836L56.283,29.758L56.2,29.679L56.115,29.601L56.031,29.524L55.946,29.447L55.86,29.371L55.774,29.295L55.688,29.22L55.602,29.145L55.515,29.071L55.427,28.997L55.339,28.924L55.251,28.851L55.163,28.779L55.074,28.708L54.984,28.637L54.895,28.566L54.805,28.496L54.714,28.427L54.623,28.358L54.532,28.289L54.441,28.222L54.349,28.154L54.257,28.088L54.164,28.022L54.071,27.956L53.978,27.891L53.884,27.826L53.79,27.763L53.696,27.699L53.601,27.636L53.506,27.574L53.411,27.512L53.315,27.451L53.219,27.391L53.123,27.331L53.026,27.272L52.929,27.213L52.832,27.155L52.735,27.097L52.637,27.04L52.538,26.983L52.44,26.927L52.341,26.872L52.242,26.817L52.142,26.763L52.042,26.71L51.942,26.657L51.842,26.605L51.741,26.553L51.64,26.502L51.539,26.451L51.437,26.401L51.335,26.352L51.233,26.303L51.131,26.255L51.028,26.207L50.925,26.161L50.822,26.114L50.718,26.069L50.614,26.024L50.51,25.979L50.405,25.935L50.301,25.892L50.196,25.85L50.09,25.808L49.985,25.766L49.879,25.726L49.773,25.685L49.667,25.646L49.56,25.607L49.453,25.569L49.346,25.532L49.239,25.495L49.131,25.458L49.023,25.423L48.915,25.388L48.807,25.353L48.698,25.32L48.589,25.287L48.48,25.254L48.37,25.223L48.261,25.192L48.151,25.161L48.041,25.131L47.93,25.102L47.82,25.074L47.709,25.046L47.598,25.019L47.486,24.993L47.375,24.967L47.263,24.942L47.151,24.917L47.039,24.893L46.926,24.87L46.813,24.848L46.7,24.826L46.587,24.805L46.474,24.785L46.36,24.765L46.246,24.746L46.132,24.728L46.018,24.71L45.903,24.693L45.788,24.677L45.673,24.661L45.558,24.647L45.443,24.632L45.327,24.619L45.211,24.606L45.095,24.594L44.978,24.583L44.862,24.572L44.745,24.562L44.628,24.553L44.511,24.545L44.393,24.537L44.276,24.53L44.158,24.524L44.04,24.518L43.921,24.513L43.803,24.509L43.684,24.506L43.565,24.503L43.446,24.502L43.326,24.5L43.207,24.5L43.08,24.5L42.954,24.502L42.828,24.504L42.702,24.507L42.576,24.51L42.451,24.515L42.326,24.52L42.201,24.527L42.076,24.534L41.952,24.541L41.828,24.55L41.704,24.56L41.58,24.57L41.457,24.581L41.333,24.593L41.21,24.605L41.088,24.619L40.965,24.633L40.843,24.648L40.721,24.664L40.6,24.68L40.478,24.698L40.357,24.716L40.236,24.735L40.115,24.755L39.995,24.775L39.875,24.796L39.755,24.818L39.635,24.841L39.516,24.865L39.397,24.889L39.278,24.914L39.159,24.94L39.041,24.966L38.923,24.993L38.805,25.022L38.687,25.05L38.57,25.08L38.453,25.11L38.336,25.141L38.22,25.173L38.104,25.205L37.988,25.239L37.872,25.273L37.757,25.307L37.642,25.343L37.527,25.379L37.413,25.416L37.298,25.453L37.184,25.491L37.071,25.53L36.957,25.57L36.844,25.611L36.732,25.652L36.619,25.694L36.507,25.736L36.395,25.779L36.283,25.823L36.172,25.868L36.061,25.913L35.951,25.959L35.84,26.006L35.73,26.054L35.62,26.102L35.511,26.151L35.402,26.2L35.293,26.25L35.185,26.301L35.076,26.353L34.969,26.405L34.861,26.458L34.754,26.511L34.647,26.566L34.541,26.621L34.435,26.676L34.329,26.732L34.223,26.789L34.118,26.847L34.013,26.905L33.909,26.964L33.805,27.024L33.701,27.084L33.598,27.145L33.495,27.206L33.392,27.269L33.29,27.331L33.188,27.395L33.086,27.459L32.985,27.524L32.884,27.589L32.784,27.655L32.684,27.722L32.584,27.789L32.485,27.857L32.386,27.925L32.287,27.995L32.189,28.064L32.092,28.135L31.994,28.206L31.897,28.277L31.801,28.35L31.705,28.422L31.609,28.496L31.514,28.57L31.419,28.645L31.325,28.72L31.231,28.796L31.137,28.872L31.044,28.949L30.951,29.027L30.859,29.105L30.767,29.184L30.675,29.263L30.584,29.343L30.494,29.424L30.404,29.505L30.314,29.587L30.225,29.669L30.136,29.752L30.048,29.835L29.96,29.92L29.873,30.004L29.786,30.089L29.699,30.175L29.613,30.261L29.528,30.348L29.443,30.435L29.358,30.523L29.274,30.612L29.191,30.7L29.108,30.79L29.025,30.88L28.943,30.971L28.862,31.062L28.78,31.153L28.7,31.246L28.62,31.338L28.54,31.431L28.461,31.525L28.383,31.619L28.305,31.714L28.227,31.809L28.15,31.905L28.074,32.001L27.998,32.098L27.923,32.196L27.848,32.293L27.773,32.392L27.7,32.49L27.627,32.59L27.554,32.689L27.482,32.79L27.41,32.89L27.339,32.991L27.269,33.093L27.199,33.195L27.13,33.298L27.061,33.401L26.993,33.505L26.925,33.608L26.858,33.713L26.792,33.818L26.726,33.923L26.66,34.029L26.596,34.135L26.532,34.242L26.468,34.349L26.405,34.457L26.343,34.565L26.281,34.673L26.22,34.782L26.159,34.892L26.099,35.001L26.04,35.112L25.981,35.222L25.923,35.333L25.866,35.445L25.809,35.557L25.753,35.669L25.697,35.782L25.642,35.895L25.588,36.008L25.534,36.122L25.481,36.236L25.429,36.351L25.377,36.466L25.326,36.582L25.275,36.697L25.225,36.814L25.176,36.93L25.128,37.047L25.08,37.165L25.033,37.283L24.986,37.401L24.94,37.519L24.895,37.638L24.85,37.757L24.806,37.877L24.763,37.997L24.721,38.117L24.679,38.238L24.638,38.359L24.597,38.481L24.557,38.602L24.518,38.725L24.48,38.847L24.442,38.97L24.405,39.093L24.369,39.217L24.333,39.34L24.298,39.464L24.264,39.589L24.231,39.714L24.198,39.839L24.166,39.964L24.134,40.09L24.104,40.216L24.074,40.343L24.045,40.47L24.016,40.597L23.989,40.724L23.962,40.852L23.935,40.98L23.91,41.108L23.885,41.237L23.861,41.366L23.838,41.495L23.815,41.624L23.793,41.754L23.772,41.884L23.752,42.015L23.733,42.145L23.714,42.276L23.696,42.408L23.679,42.539L23.662,42.671L23.647,42.803L23.632,42.936L23.618,43.068L23.604,43.201L23.592,43.335L23.58,43.468L23.569,43.602L23.559,43.736L23.55,43.871L23.541,44.005L23.533,44.14L23.526,44.275L23.52,44.411L23.515,44.546L23.51,44.682L23.507,44.818L23.504,44.955L23.502,45.092L23.5,45.229L23.5,45.366L23.5,45.503L23.502,45.64L23.504,45.777L23.507,45.913L23.51,46.049L23.515,46.185L23.52,46.321L23.526,46.456L23.533,46.591L23.541,46.726L23.55,46.861L23.559,46.995L23.569,47.129L23.58,47.263L23.592,47.397L23.604,47.53L23.618,47.663L23.632,47.796L23.647,47.928L23.662,48.06L23.679,48.192L23.696,48.324L23.714,48.455L23.733,48.586L23.752,48.717L23.772,48.847L23.793,48.977L23.815,49.107L23.838,49.237L23.861,49.366L23.885,49.495L23.91,49.623L23.935,49.752L23.962,49.88L23.989,50.007L24.016,50.135L24.045,50.262L24.074,50.389L24.104,50.515L24.134,50.641L24.166,50.767L24.198,50.892L24.231,51.018L24.264,51.142L24.298,51.267L24.333,51.391L24.369,51.515L24.405,51.638L24.442,51.762L24.48,51.884L24.518,52.007L24.557,52.129L24.597,52.251L24.638,52.372L24.679,52.493L24.721,52.614L24.763,52.734L24.806,52.854L24.85,52.974L24.895,53.093L24.94,53.212L24.986,53.331L25.033,53.449L25.08,53.567L25.128,53.684L25.176,53.801L25.225,53.918L25.275,54.034L25.326,54.15L25.377,54.265L25.429,54.38L25.481,54.495L25.534,54.609L25.588,54.723L25.642,54.837L25.697,54.95L25.753,55.063L25.809,55.175L25.866,55.287L25.923,55.398L25.981,55.509L26.04,55.62L26.099,55.73L26.159,55.84L26.22,55.949L26.281,56.058L26.343,56.167L26.405,56.275L26.468,56.382L26.532,56.489L26.596,56.596L26.66,56.702L26.726,56.808L26.792,56.914L26.858,57.018L26.925,57.123L26.993,57.227L27.061,57.331L27.13,57.434L27.199,57.536L27.269,57.638L27.339,57.74L27.41,57.841L27.482,57.942L27.554,58.042L27.627,58.142L27.7,58.241L27.773,58.34L27.848,58.438L27.923,58.536L27.998,58.633L28.074,58.73L28.15,58.826L28.227,58.922L28.305,59.017L28.383,59.112L28.461,59.206L28.54,59.3L28.62,59.393L28.7,59.486L28.78,59.578L28.862,59.67L28.943,59.761L29.025,59.851L29.108,59.941L29.191,60.031L29.274,60.12L29.358,60.208L29.443,60.296L29.528,60.384L29.613,60.47L29.699,60.557L29.786,60.642L29.873,60.727L29.96,60.812L30.048,60.896L30.136,60.979L30.225,61.062L30.314,61.145L30.404,61.226L30.494,61.307L30.584,61.388L30.675,61.468L30.767,61.547L30.859,61.626L30.951,61.704L31.044,61.782L31.137,61.859L31.231,61.936L31.325,62.011L31.419,62.087L31.514,62.161L31.609,62.235L31.705,62.309L31.801,62.382L31.897,62.454L31.994,62.526L32.092,62.597L32.189,62.667L32.288,62.737L32.386,62.806L32.485,62.875L32.584,62.942L32.684,63.01L32.784,63.076L32.884,63.142L32.985,63.208L33.086,63.273L33.188,63.337L33.29,63.4L33.392,63.463L33.495,63.525L33.598,63.587L33.701,63.648L33.805,63.708L33.909,63.767L34.013,63.826L34.118,63.884L34.223,63.942L34.329,63.999L34.435,64.055L34.541,64.111L34.647,64.166L34.754,64.22L34.861,64.274L34.969,64.326L35.076,64.379L35.185,64.43L35.293,64.481L35.402,64.531L35.511,64.581L35.62,64.63L35.73,64.678L35.84,64.725L35.951,64.772L36.061,64.818L36.172,64.863L36.283,64.908L36.395,64.952L36.507,64.995L36.619,65.038L36.732,65.08L36.844,65.121L36.957,65.161L37.071,65.201L37.184,65.24L37.298,65.278L37.413,65.316L37.527,65.353L37.642,65.389L37.757,65.424L37.872,65.459L37.988,65.493L38.104,65.526L38.22,65.559L38.337,65.59L38.453,65.621L38.57,65.652L38.688,65.681L38.805,65.71L38.923,65.738L39.041,65.765L39.159,65.792L39.278,65.818L39.397,65.843L39.516,65.867L39.635,65.89L39.755,65.913L39.875,65.935L39.995,65.956L40.115,65.977L40.236,65.997L40.357,66.015L40.478,66.034L40.6,66.051L40.721,66.068L40.843,66.083L40.965,66.098L41.088,66.113L41.211,66.126L41.333,66.139L41.457,66.151L41.58,66.162L41.704,66.172L41.828,66.181L41.952,66.19L42.076,66.198L42.201,66.205L42.326,66.211L42.451,66.216L42.576,66.221L42.702,66.225L42.828,66.228L42.954,66.23L43.08,66.231L43.205,66.231L43.355,66.231L43.504,66.229L43.651,66.226L43.799,66.222L43.946,66.217L44.093,66.211L44.24,66.203L44.386,66.195L44.532,66.185L44.677,66.174L44.823,66.163L44.967,66.15L45.112,66.135L45.256,66.12L45.4,66.104L45.544,66.087L45.687,66.068L45.83,66.049L45.972,66.028L46.114,66.007L46.256,65.984L46.397,65.96L46.538,65.935L46.679,65.909L46.819,65.882L46.959,65.854L47.099,65.825L47.238,65.795L47.377,65.764L47.516,65.732L47.654,65.699L47.792,65.665L47.929,65.629L48.066,65.593L48.203,65.556L48.339,65.518L48.475,65.478L48.611,65.438L48.746,65.397L48.881,65.355L49.015,65.311L49.149,65.267L49.283,65.222L49.416,65.175L49.549,65.128L49.681,65.08L49.813,65.031L49.945,64.981L50.076,64.93L50.207,64.877L50.337,64.824L50.467,64.77L50.596,64.715L50.726,64.659L50.854,64.603L50.982,64.545L51.11,64.486L51.237,64.426L51.364,64.366L51.491,64.304L51.617,64.242L51.742,64.178L51.867,64.114L51.992,64.048L52.116,63.982L52.24,63.915L52.363,63.847L52.485,63.778L52.608,63.708L52.729,63.638L52.851,63.566L52.971,63.493L53.092,63.42L53.211,63.346L53.331,63.27L53.449,63.194L53.567,63.117L53.685,63.04L53.802,62.961L53.919,62.881L54.035,62.801L54.151,62.72L54.265,62.637L54.38,62.554L54.494,62.471L54.607,62.386L54.72,62.3L54.832,62.214L54.944,62.127L55.055,62.039L55.165,61.95L55.275,61.86L55.385,61.77L55.493,61.678L55.601,61.586L55.709,61.493L55.816,61.4L55.922,61.305L56.028,61.21L56.133,61.114L56.237,61.017L56.341,60.919L56.445,60.821L56.547,60.721L56.649,60.621L56.75,60.521L56.851,60.419L56.951,60.317L57.05,60.214L57.149,60.11L57.247,60.005L57.344,59.9L57.441,59.794L57.536,59.687L57.632,59.58L57.726,59.472L57.82,59.363L57.913,59.253L58.006,59.143L58.097,59.031L58.188,58.92L58.278,58.807L58.368,58.694L58.457,58.58L58.545,58.466L58.632,58.35L58.719,58.234L58.816,58.102L67.674,64.624L67.555,64.786L67.423,64.963L67.289,65.139L67.154,65.314L67.019,65.489L66.882,65.662L66.744,65.834L66.605,66.005L66.464,66.175L66.323,66.344L66.18,66.512L66.036,66.679L65.891,66.845L65.745,67.01L65.598,67.173L65.45,67.336L65.3,67.498L65.15,67.659L64.998,67.818L64.846,67.976L64.692,68.134L64.537,68.29L64.381,68.445L64.224,68.599L64.066,68.752L63.907,68.904L63.747,69.055L63.586,69.204L63.424,69.352L63.261,69.5L63.096,69.646L62.931,69.791L62.765,69.934L62.597,70.077L62.429,70.218L62.26,70.359L62.089,70.498L61.918,70.635L61.746,70.772L61.572,70.907L61.398,71.041L61.223,71.174L61.047,71.306L60.869,71.436L60.691,71.566L60.512,71.693L60.332,71.82L60.151,71.945L59.969,72.07L59.787,72.192L59.603,72.314L59.418,72.434L59.233,72.553L59.046,72.671L58.859,72.787L58.671,72.902L58.481,73.016L58.291,73.128L58.101,73.239L57.909,73.348L57.716,73.457L57.523,73.563L57.328,73.669L57.133,73.773L56.937,73.876L56.74,73.977L56.543,74.077L56.344,74.175L56.145,74.272L55.945,74.368L55.744,74.462L55.542,74.555L55.34,74.646L55.137,74.736L54.933,74.825L54.728,74.912L54.522,74.997L54.316,75.081L54.109,75.164L53.901,75.245L53.693,75.324L53.483,75.402L53.273,75.479L53.063,75.553L52.851,75.627L52.639,75.699L52.427,75.769L52.213,75.838L51.999,75.905L51.784,75.97L51.569,76.034L51.353,76.097L51.136,76.158L50.919,76.217L50.701,76.275L50.482,76.331L50.263,76.385L50.043,76.438L49.822,76.489L49.601,76.539L49.38,76.586L49.157,76.633L48.935,76.677L48.711,76.72L48.488,76.761L48.263,76.801L48.038,76.839L47.813,76.875L47.587,76.909L47.36,76.942L47.133,76.973L46.906,77.002L46.678,77.03L46.449,77.056L46.22,77.08L45.991,77.102L45.761,77.122L45.531,77.141L45.3,77.158L45.069,77.174L44.838,77.187L44.606,77.199L44.374,77.209L44.141,77.217L43.908,77.223L43.675,77.228L43.441,77.231L43.208,77.231L43.007,77.231L42.808,77.229L42.609,77.226L42.41,77.221L42.212,77.215L42.014,77.208L41.816,77.199L41.618,77.189L41.421,77.178L41.224,77.166L41.027,77.152L40.831,77.137L40.635,77.121L40.439,77.103L40.244,77.085L40.049,77.065L39.854,77.043L39.659,77.021L39.465,76.997L39.271,76.972L39.078,76.945L38.885,76.918L38.692,76.889L38.5,76.859L38.308,76.827L38.117,76.795L37.925,76.761L37.735,76.726L37.544,76.69L37.354,76.652L37.165,76.614L36.976,76.574L36.787,76.533L36.599,76.491L36.411,76.447L36.223,76.403L36.036,76.357L35.85,76.31L35.664,76.262L35.478,76.212L35.293,76.162L35.108,76.11L34.924,76.058L34.74,76.004L34.557,75.948L34.374,75.892L34.191,75.835L34.01,75.776L33.828,75.717L33.647,75.656L33.467,75.594L33.287,75.531L33.108,75.467L32.929,75.402L32.751,75.335L32.573,75.268L32.396,75.199L32.219,75.13L32.043,75.059L31.867,74.987L31.692,74.914L31.517,74.84L31.343,74.765L31.17,74.689L30.997,74.612L30.825,74.534L30.653,74.455L30.482,74.374L30.311,74.293L30.141,74.211L29.972,74.127L29.803,74.043L29.635,73.958L29.467,73.871L29.3,73.784L29.134,73.695L28.968,73.606L28.803,73.515L28.639,73.424L28.475,73.331L28.311,73.238L28.149,73.143L27.987,73.048L27.825,72.951L27.664,72.854L27.504,72.756L27.345,72.656L27.186,72.556L27.028,72.455L26.87,72.353L26.713,72.25L26.557,72.146L26.402,72.041L26.247,71.935L26.093,71.828L25.939,71.72L25.787,71.612L25.634,71.502L25.483,71.392L25.332,71.28L25.182,71.168L25.033,71.055L24.884,70.941L24.736,70.826L24.589,70.71L24.443,70.593L24.297,70.475L24.152,70.357L24.008,70.238L23.864,70.117L23.721,69.996L23.579,69.874L23.438,69.751L23.297,69.628L23.157,69.503L23.018,69.378L22.879,69.252L22.742,69.125L22.605,68.997L22.469,68.868L22.333,68.739L22.199,68.609L22.065,68.477L21.932,68.345L21.8,68.213L21.668,68.079L21.537,67.945L21.407,67.81L21.278,67.674L21.15,67.537L21.022,67.4L20.896,67.262L20.77,67.123L20.645,66.983L20.52,66.842L20.397,66.701L20.274,66.559L20.152,66.416L20.031,66.273L19.911,66.128L19.791,65.983L19.673,65.837L19.555,65.691L19.438,65.544L19.322,65.396L19.207,65.247L19.093,65.097L18.979,64.947L18.866,64.796L18.755,64.645L18.644,64.493L18.534,64.34L18.424,64.186L18.316,64.032L18.209,63.877L18.102,63.721L17.996,63.564L17.892,63.407L17.788,63.25L17.685,63.091L17.583,62.932L17.482,62.772L17.381,62.612L17.282,62.451L17.183,62.289L17.086,62.127L16.989,61.964L16.893,61.8L16.799,61.636L16.705,61.471L16.612,61.305L16.52,61.139L16.429,60.972L16.339,60.805L16.25,60.637L16.161,60.468L16.074,60.299L15.988,60.129L15.902,59.959L15.818,59.788L15.735,59.616L15.652,59.444L15.571,59.271L15.49,59.098L15.411,58.924L15.332,58.749L15.255,58.574L15.178,58.398L15.103,58.222L15.028,58.045L14.954,57.868L14.882,57.69L14.81,57.512L14.74,57.333L14.67,57.154L14.602,56.974L14.535,56.793L14.468,56.612L14.403,56.43L14.338,56.248L14.275,56.066L14.213,55.883L14.152,55.699L14.091,55.515L14.032,55.33L13.974,55.145L13.917,54.96L13.861,54.774L13.807,54.587L13.753,54.4L13.7,54.213L13.648,54.025L13.598,53.836L13.548,53.648L13.5,53.458L13.453,53.269L13.407,53.078L13.362,52.888L13.318,52.697L13.275,52.505L13.233,52.313L13.192,52.121L13.153,51.928L13.114,51.735L13.077,51.542L13.041,51.348L13.006,51.153L12.972,50.959L12.939,50.764L12.908,50.568L12.877,50.372L12.848,50.176L12.82,49.979L12.793,49.782L12.767,49.585L12.743,49.387L12.719,49.189L12.697,48.991L12.676,48.792L12.656,48.593L12.637,48.394L12.62,48.194L12.603,47.994L12.588,47.793L12.574,47.593L12.561,47.392L12.55,47.19L12.539,46.989L12.53,46.787L12.522,46.585L12.515,46.382L12.51,46.179L12.506,45.976L12.502,45.773L12.501,45.57L12.5,45.366L12.501,45.162L12.502,44.958L12.506,44.755L12.51,44.552L12.515,44.349L12.522,44.147L12.53,43.945L12.539,43.743L12.55,43.541L12.561,43.34L12.574,43.139L12.588,42.938L12.603,42.738L12.62,42.538L12.637,42.338L12.656,42.138L12.676,41.939L12.697,41.741L12.719,41.542L12.743,41.344L12.767,41.146L12.793,40.949L12.82,40.752L12.848,40.555L12.877,40.359L12.908,40.163L12.939,39.968L12.972,39.773L13.006,39.578L13.041,39.384L13.077,39.19L13.114,38.996L13.153,38.803L13.192,38.61L13.233,38.418L13.275,38.226L13.318,38.035L13.362,37.844L13.407,37.653L13.453,37.463L13.5,37.273L13.548,37.084L13.598,36.895L13.648,36.707L13.7,36.519L13.753,36.331L13.807,36.144L13.861,35.958L13.917,35.772L13.974,35.586L14.032,35.401L14.091,35.216L14.152,35.032L14.213,34.849L14.275,34.666L14.338,34.483L14.403,34.301L14.468,34.119L14.535,33.938L14.602,33.758L14.67,33.578L14.74,33.398L14.81,33.22L14.882,33.041L14.954,32.863L15.028,32.686L15.103,32.509L15.178,32.333L15.255,32.157L15.332,31.982L15.411,31.808L15.49,31.634L15.571,31.46L15.652,31.288L15.735,31.115L15.818,30.944L15.902,30.773L15.988,30.602L16.074,30.433L16.161,30.263L16.25,30.095L16.339,29.927L16.429,29.759L16.52,29.592L16.612,29.426L16.705,29.261L16.799,29.096L16.893,28.931L16.989,28.768L17.086,28.605L17.183,28.442L17.282,28.281L17.381,28.12L17.482,27.959L17.583,27.799L17.685,27.64L17.788,27.482L17.892,27.324L17.996,27.167L18.102,27.011L18.209,26.855L18.316,26.7L18.424,26.545L18.534,26.392L18.644,26.239L18.755,26.087L18.866,25.935L18.979,25.784L19.093,25.634L19.207,25.485L19.322,25.336L19.438,25.188L19.555,25.041L19.673,24.894L19.791,24.748L19.911,24.603L20.031,24.459L20.152,24.315L20.274,24.173L20.397,24.03L20.52,23.889L20.644,23.749L20.77,23.609L20.896,23.47L21.022,23.332L21.15,23.194L21.278,23.057L21.407,22.922L21.537,22.786L21.668,22.652L21.8,22.519L21.932,22.386L22.065,22.254L22.199,22.123L22.333,21.993L22.469,21.863L22.605,21.735L22.742,21.607L22.879,21.48L23.018,21.354L23.157,21.228L23.297,21.104L23.438,20.98L23.579,20.857L23.721,20.735L23.864,20.614L24.008,20.494L24.152,20.375L24.297,20.256L24.443,20.138L24.589,20.022L24.736,19.906L24.884,19.791L25.033,19.677L25.182,19.564L25.332,19.451L25.483,19.34L25.634,19.229L25.787,19.12L25.939,19.011L26.093,18.903L26.247,18.797L26.402,18.691L26.557,18.586L26.714,18.482L26.87,18.379L27.028,18.276L27.186,18.175L27.345,18.075L27.504,17.976L27.664,17.877L27.825,17.78L27.987,17.684L28.149,17.588L28.311,17.494L28.475,17.4L28.639,17.308L28.803,17.216L28.968,17.126L29.134,17.036L29.3,16.948L29.467,16.86L29.635,16.774L29.803,16.688L29.972,16.604L30.141,16.521L30.311,16.438L30.482,16.357L30.653,16.277L30.825,16.197L30.997,16.119L31.17,16.042L31.343,15.966L31.517,15.891L31.692,15.817L31.867,15.744L32.043,15.673L32.219,15.602L32.396,15.532L32.573,15.464L32.751,15.396L32.929,15.33L33.108,15.265L33.287,15.2L33.467,15.137L33.647,15.076L33.828,15.015L34.009,14.955L34.191,14.897L34.374,14.839L34.557,14.783L34.74,14.728L34.924,14.674L35.108,14.621L35.293,14.569L35.478,14.519L35.664,14.47L35.85,14.422L36.036,14.375L36.223,14.329L36.411,14.284L36.599,14.241L36.787,14.198L36.976,14.157L37.165,14.118L37.354,14.079L37.544,14.042L37.735,14.005L37.925,13.97L38.117,13.937L38.308,13.904L38.5,13.873L38.692,13.843L38.885,13.814L39.078,13.786L39.271,13.76L39.465,13.735L39.659,13.711L39.854,13.688L40.049,13.667L40.244,13.647L40.439,13.628L40.635,13.61L40.831,13.594L41.027,13.579L41.224,13.566L41.421,13.553L41.618,13.542L41.816,13.532L42.014,13.524L42.212,13.516L42.411,13.511L42.609,13.506L42.808,13.503L43.007,13.501L43.206,13.5L43.395,13.501Z" style="fill:rgb(89,74,55);"/>
        </g>
        <g id="Oval-3" transform="matrix(1,0,0,1,1,0)">
            <ellipse cx="43.361" cy="45.172" rx="6.75" ry="7.06" style="fill:rgb(89,74,56);"/>
        </g>
    </g>
</svg>
