<?xml version="1.0" encoding="UTF-8" standalone="no"?>
<svg width="392px" height="51px" viewBox="0 0 392 51" version="1.1" xmlns="http://www.w3.org/2000/svg" xmlns:xlink="http://www.w3.org/1999/xlink" xmlns:sketch="http://www.bohemiancoding.com/sketch/ns">
    <!-- Generator: Sketch 3.5.2 (25235) - http://www.bohemiancoding.com/sketch -->
    <title>ChocolateChip-Title</title>
    <desc>Created with Sketch.</desc>
    <defs></defs>
    <g id="Page-1" stroke="none" stroke-width="1" fill="none" fill-rule="evenodd" sketch:type="MSPage">
        <path d="M19.5585938,6.79882812 C17.0520708,6.79882812 14.8141375,7.52310474 12.8447266,8.97167969 C10.8753157,10.4202546 9.30062439,12.5320499 8.12060547,15.3071289 C6.94058655,18.0822079 6.35058594,21.1298662 6.35058594,24.4501953 C6.35058594,27.3798975 7.02196594,29.6218998 8.36474609,31.1762695 C9.70752625,32.7306393 11.6891145,33.5078125 14.3095703,33.5078125 C16.6045037,33.5078125 19.2818857,32.9544326 22.3417969,31.8476562 L22.3417969,36.8525391 C19.4120947,37.9430393 16.3685054,38.4882812 13.2109375,38.4882812 C9.17445898,38.4882812 6.01286951,37.2797972 3.72607422,34.862793 C1.43927893,32.4457887 0.295898438,29.0563369 0.295898438,24.6943359 C0.295898438,20.4625439 1.15445105,16.5319192 2.87158203,12.9023438 C4.58871301,9.27276831 6.87954297,6.51400684 9.74414062,4.62597656 C12.6087383,2.73794629 15.8801899,1.79394531 19.5585938,1.79394531 C23.0905125,1.79394531 26.2561709,2.54263574 29.0556641,4.04003906 L26.7607422,8.80078125 C25.7353464,8.24739307 24.6448625,7.77539258 23.4892578,7.38476562 C22.3336531,6.99413867 21.0234448,6.79882812 19.5585938,6.79882812 L19.5585938,6.79882812 Z M43.9992598,38 L47.4660567,21.59375 C47.7590269,20.1288989 47.9055098,19.0953806 47.9055098,18.4931641 C47.9055098,16.2958875 46.8557156,15.1972656 44.7560958,15.1972656 C42.93317,15.1972656 41.2282717,16.2145081 39.6413497,18.2490234 C38.0544277,20.2835388 36.8947713,23.0667141 36.1623458,26.5986328 L33.7697676,38 L28.0080489,38 L36.0646895,0.01171875 L41.8019942,0.01171875 L40.4103926,6.40820312 C39.9709373,8.45899463 39.3768677,10.8434109 38.6281661,13.5615234 L38.1642989,15.3925781 L38.3596114,15.3925781 C39.7268057,13.6673091 41.0980485,12.4222043 42.4733809,11.6572266 C43.8487133,10.8922488 45.2931976,10.5097656 46.806877,10.5097656 C49.0204297,10.5097656 50.7171901,11.1404559 51.897209,12.4018555 C53.077228,13.663255 53.6672286,15.4658086 53.6672286,17.8095703 C53.6672286,19.0465557 53.480056,20.4625571 53.1057051,22.0576172 L49.7121504,38 L43.9992598,38 Z M76.8627774,20.8613281 C76.8627774,19.119783 76.4640184,17.7566781 75.6664884,16.7719727 C74.8689583,15.7872672 73.7296468,15.2949219 72.2485196,15.2949219 C70.7348402,15.2949219 69.3798733,15.8767845 68.1835782,17.0405273 C66.9872832,18.2042701 66.0595581,19.7830304 65.4003751,21.7768555 C64.7411921,23.7706805 64.4116056,25.8987517 64.4116056,28.1611328 C64.4116056,29.9677825 64.8144336,31.3512322 65.6201017,32.3115234 C66.4257698,33.2718147 67.6179779,33.7519531 69.1967618,33.7519531 C70.6616129,33.7519531 71.9799591,33.1985732 73.1518399,32.0917969 C74.3237208,30.9850205 75.23517,29.434743 75.8862149,27.440918 C76.5372599,25.4470929 76.8627774,23.2539182 76.8627774,20.8613281 L76.8627774,20.8613281 Z M82.6489103,21.1054688 C82.6489103,24.3932456 82.0548407,27.3839384 80.8666837,30.0776367 C79.6785267,32.7713351 78.0468698,34.8383717 75.9716642,36.2788086 C73.8964585,37.7192455 71.5079732,38.4394531 68.8061368,38.4394531 C65.6811212,38.4394531 63.1990497,37.5076591 61.3598478,35.644043 C59.5206458,33.7804269 58.6010587,31.2454587 58.6010587,28.0390625 C58.6010587,24.800114 59.1829214,21.8297661 60.3466642,19.1279297 C61.510407,16.4260933 63.1420638,14.3224359 65.2416837,12.8168945 C67.3413036,11.3113531 69.7664095,10.5585938 72.5170743,10.5585938 C75.6909183,10.5585938 78.1729898,11.5025947 79.9633634,13.390625 C81.7537369,15.2786553 82.6489103,17.8502441 82.6489103,21.1054688 L82.6489103,21.1054688 Z M97.2751232,38.4882812 C94.0850031,38.4882812 91.6110695,37.6256597 89.8532482,35.9003906 C88.0954269,34.1751216 87.2165294,31.7093259 87.2165294,28.5029297 C87.2165294,25.1337722 87.814668,22.069838 89.010963,19.3110352 C90.2072581,16.5522323 91.8877426,14.3956783 94.0524669,12.8413086 C96.2171913,11.2869388 98.674849,10.5097656 101.425514,10.5097656 C104.094798,10.5097656 106.511766,11.0061799 108.67649,11.9990234 L106.967506,16.4912109 C104.981819,15.6285764 103.183334,15.1972656 101.571998,15.1972656 C99.1305797,15.1972656 97.0960949,16.4464393 95.4684826,18.9448242 C93.8408703,21.4432091 93.0270763,24.5315571 93.0270763,28.2099609 C93.0270763,30.0166106 93.4828009,31.4081982 94.3942638,32.3847656 C95.3057267,33.361333 96.5671073,33.8496094 98.1784435,33.8496094 C99.3828766,33.8496094 100.509981,33.6705747 101.559791,33.3125 C102.609601,32.9544253 103.663464,32.5149766 104.721412,31.9941406 L104.721412,36.7548828 C102.442755,37.9104875 99.9606835,38.4882812 97.2751232,38.4882812 L97.2751232,38.4882812 Z M128.722625,20.8613281 C128.722625,19.119783 128.323866,17.7566781 127.526336,16.7719727 C126.728806,15.7872672 125.589495,15.2949219 124.108367,15.2949219 C122.594688,15.2949219 121.239721,15.8767845 120.043426,17.0405273 C118.847131,18.2042701 117.919406,19.7830304 117.260223,21.7768555 C116.60104,23.7706805 116.271453,25.8987517 116.271453,28.1611328 C116.271453,29.9677825 116.674281,31.3512322 117.479949,32.3115234 C118.285618,33.2718147 119.477826,33.7519531 121.05661,33.7519531 C122.521461,33.7519531 123.839807,33.1985732 125.011688,32.0917969 C126.183569,30.9850205 127.095018,29.434743 127.746063,27.440918 C128.397108,25.4470929 128.722625,23.2539182 128.722625,20.8613281 L128.722625,20.8613281 Z M134.508758,21.1054688 C134.508758,24.3932456 133.914688,27.3839384 132.726531,30.0776367 C131.538374,32.7713351 129.906718,34.8383717 127.831512,36.2788086 C125.756306,37.7192455 123.367821,38.4394531 120.665985,38.4394531 C117.540969,38.4394531 115.058897,37.5076591 113.219696,35.644043 C111.380494,33.7804269 110.460906,31.2454587 110.460906,28.0390625 C110.460906,24.800114 111.042769,21.8297661 112.206512,19.1279297 C113.370255,16.4260933 115.001912,14.3224359 117.101531,12.8168945 C119.201151,11.3113531 121.626257,10.5585938 124.376922,10.5585938 C127.550766,10.5585938 130.032838,11.5025947 131.823211,13.390625 C133.613585,15.2786553 134.508758,17.8502441 134.508758,21.1054688 L134.508758,21.1054688 Z M143.641807,38 L137.928916,38 L145.985557,0.01171875 L151.722862,0.01171875 L143.641807,38 Z M160.221145,38.4882812 C157.926211,38.4882812 156.111451,37.6622804 154.776809,36.0102539 C153.442167,34.3582274 152.774856,32.0348457 152.774856,29.0400391 C152.774856,25.7522622 153.340443,22.6761211 154.471633,19.8115234 C155.602824,16.9469258 157.161239,14.6805096 159.146926,13.012207 C161.132613,11.3439044 163.313581,10.5097656 165.689895,10.5097656 C167.268679,10.5097656 168.627715,10.8800419 169.767043,11.6206055 C170.906372,12.3611691 171.793407,13.439446 172.428176,14.8554688 L172.672317,14.8554688 L174.185989,10.9980469 L178.58052,10.9980469 L172.818801,38 L168.375442,38 L168.888137,33.703125 L168.741653,33.703125 C166.170025,36.8932451 163.329884,38.4882812 160.221145,38.4882812 L160.221145,38.4882812 Z M162.320754,33.8496094 C163.655396,33.8496094 164.965605,33.2189191 166.251418,31.9575195 C167.537232,30.69612 168.595164,29.0074976 169.425246,26.8916016 C170.255329,24.7757056 170.670364,22.4645308 170.670364,19.9580078 C170.670364,18.525709 170.28788,17.3741906 169.522903,16.503418 C168.757925,15.6326454 167.756958,15.1972656 166.519973,15.1972656 C165.136502,15.1972656 163.834432,15.823887 162.613723,17.0771484 C161.393014,18.3304099 160.416461,20.0353082 159.684035,22.1918945 C158.95161,24.3484808 158.585403,26.5823452 158.585403,28.8935547 C158.585403,30.5537192 158.914989,31.794755 159.574172,32.6166992 C160.233355,33.4386434 161.148873,33.8496094 162.320754,33.8496094 L162.320754,33.8496094 Z M190.496772,33.8496094 C191.603548,33.8496094 192.832377,33.5973333 194.183295,33.0927734 L194.183295,37.4384766 C193.613631,37.7151707 192.840527,37.9593088 191.863959,38.1708984 C190.887392,38.382488 189.910839,38.4882812 188.934272,38.4882812 C184.474614,38.4882812 182.244819,36.4782102 182.244819,32.4580078 C182.244819,31.5302688 182.375026,30.4641987 182.635444,29.2597656 L185.589545,15.34375 L181.634467,15.34375 L182.147162,12.6582031 L186.785834,10.65625 L189.935248,4.9921875 L193.499702,4.9921875 L192.23017,10.9980469 L199.041694,10.9980469 L198.089545,15.34375 L191.32685,15.34375 L188.348334,29.3085938 C188.136745,30.2037805 188.030952,30.9524709 188.030952,31.5546875 C188.030952,32.2545608 188.2344,32.8120096 188.641303,33.2270508 C189.048206,33.6420919 189.66669,33.8496094 190.496772,33.8496094 L190.496772,33.8496094 Z M213.912047,14.9042969 C212.349539,14.9042969 210.880641,15.6041597 209.505309,17.0039062 C208.129977,18.4036528 207.141217,20.2509651 206.539,22.5458984 L207.247008,22.5458984 C210.306919,22.5458984 212.699474,22.1105187 214.424743,21.2397461 C216.150012,20.3689735 217.012633,19.1360757 217.012633,17.5410156 C217.012633,16.7109333 216.752219,16.0639672 216.231383,15.6000977 C215.710547,15.1362281 214.937443,14.9042969 213.912047,14.9042969 L213.912047,14.9042969 Z M210.20111,38.4882812 C206.994714,38.4882812 204.492297,37.58497 202.693786,35.7783203 C200.895274,33.9716707 199.996032,31.4489094 199.996032,28.2099609 C199.996032,24.9872886 200.626722,21.9884579 201.888121,19.2133789 C203.149521,16.4382999 204.858488,14.2939529 207.015075,12.7802734 C209.171661,11.266594 211.58456,10.5097656 214.253844,10.5097656 C216.8743,10.5097656 218.912854,11.0997662 220.369567,12.2797852 C221.82628,13.4598041 222.554625,15.1321506 222.554625,17.296875 C222.554625,20.2591294 221.199658,22.5743732 218.489684,24.2426758 C215.779709,25.9109784 211.918257,26.7451172 206.905211,26.7451172 L205.855407,26.7451172 L205.806579,27.5019531 L205.806579,28.2099609 C205.806579,30.0166106 206.266372,31.4326121 207.185973,32.4580078 C208.105574,33.4834036 209.476817,33.9960938 211.299743,33.9960938 C212.471623,33.9960938 213.635349,33.8414729 214.790954,33.5322266 C215.946558,33.2229802 217.313732,32.6940142 218.892516,31.9453125 L218.892516,36.5107422 C217.330008,37.2268916 215.893662,37.7355128 214.583434,38.0366211 C213.273206,38.3377294 211.812446,38.4882812 210.20111,38.4882812 L210.20111,38.4882812 Z M246.458182,6.79882812 C243.951659,6.79882812 241.713726,7.52310474 239.744315,8.97167969 C237.774904,10.4202546 236.200213,12.5320499 235.020194,15.3071289 C233.840175,18.0822079 233.250174,21.1298662 233.250174,24.4501953 C233.250174,27.3798975 233.921554,29.6218998 235.264334,31.1762695 C236.607115,32.7306393 238.588703,33.5078125 241.209159,33.5078125 C243.504092,33.5078125 246.181474,32.9544326 249.241385,31.8476562 L249.241385,36.8525391 C246.311683,37.9430393 243.268094,38.4882812 240.110526,38.4882812 C236.074047,38.4882812 232.912458,37.2797972 230.625663,34.862793 C228.338867,32.4457887 227.195487,29.0563369 227.195487,24.6943359 C227.195487,20.4625439 228.054039,16.5319192 229.77117,12.9023438 C231.488301,9.27276831 233.779131,6.51400684 236.643729,4.62597656 C239.508327,2.73794629 242.779778,1.79394531 246.458182,1.79394531 C249.990101,1.79394531 253.155759,2.54263574 255.955252,4.04003906 L253.660331,8.80078125 C252.634935,8.24739307 251.544451,7.77539258 250.388846,7.38476562 C249.233241,6.99413867 247.923033,6.79882812 246.458182,6.79882812 L246.458182,6.79882812 Z M270.898848,38 L274.365645,21.59375 C274.658615,20.1288989 274.805098,19.0953806 274.805098,18.4931641 C274.805098,16.2958875 273.755304,15.1972656 271.655684,15.1972656 C269.832758,15.1972656 268.12786,16.2145081 266.540938,18.2490234 C264.954016,20.2835388 263.79436,23.0667141 263.061934,26.5986328 L260.669356,38 L254.907637,38 L262.964278,0.01171875 L268.701583,0.01171875 L267.309981,6.40820312 C266.870526,8.45899463 266.276456,10.8434109 265.527754,13.5615234 L265.063887,15.3925781 L265.2592,15.3925781 C266.626394,13.6673091 267.997637,12.4222043 269.372969,11.6572266 C270.748302,10.8922488 272.192786,10.5097656 273.706465,10.5097656 C275.920018,10.5097656 277.616778,11.1404559 278.796797,12.4018555 C279.976816,13.663255 280.566817,15.4658086 280.566817,17.8095703 C280.566817,19.0465557 280.379644,20.4625571 280.005293,22.0576172 L276.611739,38 L270.898848,38 Z M291.262366,4.35742188 C291.262366,3.25064551 291.579745,2.35547217 292.214514,1.671875 C292.849283,0.988277832 293.744456,0.646484375 294.900061,0.646484375 C295.762696,0.646484375 296.462558,0.862139771 296.99967,1.29345703 C297.536783,1.72477429 297.805335,2.37987842 297.805335,3.25878906 C297.805335,4.4143938 297.479817,5.32584302 296.828772,5.99316406 C296.177727,6.66048511 295.323243,6.99414062 294.265295,6.99414062 C293.402661,6.99414062 292.686522,6.7825542 292.116858,6.359375 C291.547194,5.9361958 291.262366,5.26888477 291.262366,4.35742188 L291.262366,4.35742188 Z M290.114905,38 L284.353186,38 L290.114905,10.9980469 L295.85221,10.9980469 L290.114905,38 Z M311.015532,38.4882812 C308.069554,38.4882812 305.880448,37.0560039 304.448149,34.1914062 L304.204008,34.1914062 C304.090076,35.7701902 303.886627,37.275709 303.593657,38.7080078 L301.249907,50.0117188 L295.56143,50.0117188 L303.813383,10.9980469 L308.305571,10.9980469 L307.792876,15.5878906 L308.012602,15.5878906 C310.567953,12.202457 313.367405,10.5097656 316.41104,10.5097656 C318.738525,10.5097656 320.561424,11.3479734 321.87979,13.0244141 C323.198156,14.7008547 323.857329,17.0283054 323.857329,20.0068359 C323.857329,23.327165 323.287673,26.4317889 322.148344,29.3208008 C321.009016,32.2098126 319.458738,34.4599529 317.497465,36.0712891 C315.536193,37.6826252 313.37557,38.4882812 311.015532,38.4882812 L311.015532,38.4882812 Z M314.262602,15.1972656 C312.944236,15.1972656 311.634028,15.8442318 310.331938,17.1381836 C309.029848,18.4321354 307.967847,20.1451716 307.145903,22.2773438 C306.323959,24.4095159 305.912993,26.6148975 305.912993,28.8935547 C305.912993,30.4560625 306.291407,31.6726844 307.048247,32.543457 C307.805086,33.4142296 308.875225,33.8496094 310.258696,33.8496094 C311.642166,33.8496094 312.936099,33.2107811 314.140532,31.9331055 C315.344965,30.6554298 316.297104,28.9464625 316.996977,26.8061523 C317.69685,24.6658422 318.046782,22.4319778 318.046782,20.1044922 C318.046782,16.8329915 316.785401,15.1972656 314.262602,15.1972656 L314.262602,15.1972656 Z M327.301901,27.1113281 L328.400534,22.1552734 L340.656393,22.1552734 L339.55776,27.1113281 L327.301901,27.1113281 Z M376.596083,2.30664062 L371.664442,25.6464844 C370.752979,29.9922092 369.060288,33.2189022 366.586317,35.3266602 C364.112346,37.4344181 360.832757,38.4882812 356.74745,38.4882812 C353.215531,38.4882812 350.485253,37.6256597 348.556532,35.9003906 C346.627811,34.1751216 345.663466,31.69305 345.663466,28.4541016 C345.663466,27.1031833 345.826224,25.7197336 346.151747,24.3037109 L350.863661,2.30664062 L356.649794,2.30664062 L351.962294,24.4013672 C351.620495,25.833666 351.449598,27.1194604 351.449598,28.2587891 C351.449598,29.9189536 351.933806,31.208817 352.902235,32.128418 C353.870664,33.0480189 355.339562,33.5078125 357.308973,33.5078125 C359.669011,33.5078125 361.540737,32.8527084 362.924208,31.5424805 C364.307678,30.2322526 365.316783,28.1041814 365.951551,25.1582031 L370.80995,2.30664062 L376.596083,2.30664062 Z M377.770147,38 L385.362921,2.30664062 L391.100225,2.30664062 L383.507452,38 L377.770147,38 Z" id="ChocolateChip-UI" fill="#FFFFFF" sketch:type="MSShapeGroup"></path>
    </g>
</svg>