<?xml version="1.0" encoding="UTF-8" standalone="no"?>
<svg width="375px" height="43px" viewBox="0 0 375 43" version="1.1" xmlns="http://www.w3.org/2000/svg" xmlns:xlink="http://www.w3.org/1999/xlink" xmlns:sketch="http://www.bohemiancoding.com/sketch/ns">
    <!-- Generator: Sketch 3.5.2 (25235) - http://www.bohemiancoding.com/sketch -->
    <title>ChocolateChip-Title</title>
    <desc>Created with Sketch.</desc>
    <defs></defs>
    <g id="Page-1" stroke="none" stroke-width="1" fill="none" fill-rule="evenodd" sketch:type="MSPage">
        <path d="M28.2714844,23.0527344 C28.2714844,24.0553436 28.0244165,25.1402936 27.5302734,26.3076172 C27.0361303,27.4749407 26.2591199,28.6207626 25.1992188,29.7451172 C24.1393176,30.8694718 22.7858155,31.7825486 21.1386719,32.484375 C19.4915282,33.1862014 17.5722766,33.5371094 15.3808594,33.5371094 C13.7193927,33.5371094 12.2083401,33.3795589 10.8476562,33.0644531 C9.48697236,32.7493474 8.25163315,32.2587924 7.14160156,31.5927734 C6.03156997,30.9267545 5.01107236,30.0494846 4.08007812,28.9609375 C3.2493448,27.9726513 2.54036752,26.8662171 1.953125,25.6416016 C1.36588248,24.4169861 0.925457197,23.110033 0.631835938,21.7207031 C0.338214678,20.3313733 0.19140625,18.8561276 0.19140625,17.2949219 C0.19140625,14.7597529 0.560217666,12.4895934 1.29785156,10.484375 C2.03548546,8.47915664 3.09179,6.76400452 4.46679688,5.33886719 C5.84180375,3.91372985 7.45311576,2.82877977 9.30078125,2.08398438 C11.1484467,1.33918898 13.1178281,0.966796875 15.2089844,0.966796875 C17.7584763,0.966796875 20.0286359,1.47525533 22.0195312,2.4921875 C24.0104266,3.50911967 25.535802,4.76594304 26.5957031,6.26269531 C27.6556043,7.75944759 28.1855469,9.17382146 28.1855469,10.5058594 C28.1855469,11.2363318 27.927737,11.8808566 27.4121094,12.4394531 C26.8964818,12.9980497 26.2734412,13.2773437 25.5429688,13.2773437 C24.7265584,13.2773437 24.1142599,13.0839863 23.7060547,12.6972656 C23.2978495,12.3105449 22.8431015,11.644536 22.3417969,10.6992188 C21.5110636,9.13801303 20.5335343,7.97070699 19.4091797,7.19726562 C18.2848251,6.42382426 16.8990968,6.03710938 15.2519531,6.03710938 C12.6308463,6.03710938 10.543302,7.03254213 8.98925781,9.0234375 C7.43521358,11.0143329 6.65820312,13.8430806 6.65820312,17.5097656 C6.65820312,19.9589966 7.00194969,21.9964111 7.68945312,23.6220703 C8.37695656,25.2477295 9.35090516,26.4615845 10.6113281,27.2636719 C11.8717511,28.0657592 13.3469968,28.4667969 15.0371094,28.4667969 C16.8704519,28.4667969 18.4208921,28.0120488 19.6884766,27.1025391 C20.956061,26.1930293 21.9121062,24.8574307 22.5566406,23.0957031 C22.8287774,22.2649698 23.1653626,21.5882188 23.5664062,21.0654297 C23.9674499,20.5426406 24.6119747,20.28125 25.5,20.28125 C26.2591184,20.28125 26.9108046,20.5462213 27.4550781,21.0761719 C27.9993517,21.6061224 28.2714844,22.26497 28.2714844,23.0527344 L28.2714844,23.0527344 Z M39.2948955,4.53320312 L39.2948955,13.234375 C40.0396909,12.3749957 40.7665716,11.694664 41.4755596,11.1933594 C42.1845475,10.6920548 42.9687193,10.316082 43.8280986,10.0654297 C44.6874779,9.81477739 45.6112968,9.68945312 46.599583,9.68945312 C48.0891738,9.68945312 49.4104496,10.0045541 50.5634502,10.6347656 C51.7164508,11.2649771 52.6223662,12.1816346 53.2812236,13.3847656 C53.6965903,14.0865921 53.9758844,14.8707639 54.1191143,15.7373047 C54.2623441,16.6038455 54.333958,17.6028589 54.333958,18.734375 L54.333958,29.9707031 C54.333958,31.1451882 54.065406,32.0332001 53.5282939,32.6347656 C52.9911819,33.2363311 52.2786239,33.5371094 51.3905986,33.5371094 C49.4569952,33.5371094 48.490208,32.3483192 48.490208,29.9707031 L48.490208,20.0664062 C48.490208,18.1900948 48.2109139,16.7470754 47.6523174,15.7373047 C47.0937208,14.727534 46.0338356,14.2226562 44.4726299,14.2226562 C43.4270517,14.2226562 42.4853294,14.5198538 41.6474346,15.1142578 C40.8095398,15.7086618 40.1829184,16.5214792 39.7675518,17.5527344 C39.452446,18.4264367 39.2948955,19.9804576 39.2948955,22.2148438 L39.2948955,29.9707031 C39.2948955,31.1308652 39.0335049,32.0152964 38.5107158,32.6240234 C37.9879267,33.2327504 37.261046,33.5371094 36.3300518,33.5371094 C34.3964483,33.5371094 33.4296611,32.3483192 33.4296611,29.9707031 L33.4296611,4.53320312 C33.4296611,3.3443951 33.6838904,2.45280245 34.1923564,1.85839844 C34.7008225,1.26399442 35.4133805,0.966796875 36.3300518,0.966796875 C37.261046,0.966796875 37.9879267,1.26757512 38.5107158,1.86914062 C39.0335049,2.47070613 39.2948955,3.35871809 39.2948955,4.53320312 L39.2948955,4.53320312 Z M82.0507285,21.6132812 C82.0507285,23.3606858 81.7785958,24.9719978 81.2343223,26.4472656 C80.6900487,27.9225334 79.9022962,29.1900989 78.871041,30.25 C77.8397859,31.3099011 76.6080273,32.1227185 75.1757285,32.6884766 C73.7434297,33.2542346 72.1321177,33.5371094 70.3417441,33.5371094 C68.5656936,33.5371094 66.9687044,33.2506539 65.5507285,32.6777344 C64.1327527,32.1048148 62.9045749,31.2848361 61.8661582,30.2177734 C60.8277416,29.1507108 60.039989,27.8903067 59.502877,26.4365234 C58.9657649,24.9827401 58.6972129,23.3750088 58.6972129,21.6132812 C58.6972129,19.8372307 58.9693456,18.2115959 59.5136191,16.7363281 C60.0578927,15.2610603 60.8384838,14.0006563 61.855416,12.9550781 C62.8723482,11.9095 64.1041067,11.103844 65.5507285,10.5380859 C66.9973503,9.9723279 68.5943396,9.68945312 70.3417441,9.68945312 C72.1177947,9.68945312 73.7291067,9.97590859 75.1757285,10.5488281 C76.6223503,11.1217477 77.8612702,11.9381457 78.8925254,12.9980469 C79.9237805,14.057948 80.7079524,15.3183521 81.2450645,16.7792969 C81.7821765,18.2402417 82.0507285,19.8515537 82.0507285,21.6132812 L82.0507285,21.6132812 Z M76.1640098,21.6132812 C76.1640098,19.2213422 75.6376478,17.3593817 74.5849082,16.0273438 C73.5321686,14.6953058 72.1177947,14.0292969 70.3417441,14.0292969 C69.1959051,14.0292969 68.1861495,14.3264944 67.3124473,14.9208984 C66.438745,15.5153025 65.7655746,16.3925723 65.292916,17.5527344 C64.8202574,18.7128964 64.5839316,20.0663985 64.5839316,21.6132812 C64.5839316,23.145841 64.8166767,24.4850203 65.2821738,25.6308594 C65.7476709,26.7766984 66.4136799,27.6539683 67.2802207,28.2626953 C68.1467615,28.8714223 69.1672591,29.1757812 70.3417441,29.1757812 C72.1177947,29.1757812 73.5321686,28.5061916 74.5849082,27.1669922 C75.6376478,25.8277928 76.1640098,23.9765743 76.1640098,21.6132812 L76.1640098,21.6132812 Z M107.66203,26.2753906 C107.66203,27.005863 107.443608,27.7864542 107.006757,28.6171875 C106.569906,29.4479208 105.903897,30.2392541 105.00871,30.9912109 C104.113523,31.7431678 102.985605,32.348305 101.624921,32.8066406 C100.264237,33.2649763 98.7317003,33.4941406 97.0272646,33.4941406 C93.4035486,33.4941406 90.5748009,32.4378361 88.5409365,30.3251953 C86.5070722,28.2125545 85.4901553,25.3802261 85.4901553,21.828125 C85.4901553,19.421863 85.9556454,17.2949311 86.8866396,15.4472656 C87.8176339,13.5996001 89.1639746,12.1709035 90.9257021,11.1611328 C92.6874297,10.1513621 94.7928774,9.64648438 97.2421084,9.64648438 C98.7603452,9.64648438 100.153235,9.86848736 101.420819,10.3125 C102.688404,10.7565126 103.762612,11.3294236 104.643476,12.03125 C105.524339,12.7330764 106.19751,13.4814413 106.663007,14.2763672 C107.128504,15.071293 107.361249,15.8124966 107.361249,16.5 C107.361249,17.2018264 107.099858,17.7962215 106.577069,18.2832031 C106.05428,18.7701847 105.420498,19.0136719 104.675702,19.0136719 C104.188721,19.0136719 103.784102,18.8883476 103.461835,18.6376953 C103.139568,18.387043 102.777918,17.9824247 102.376874,17.4238281 C101.660725,16.335281 100.91236,15.5188829 100.131757,14.9746094 C99.351154,14.4303358 98.3593019,14.1582031 97.1561709,14.1582031 C95.4230893,14.1582031 94.0266189,14.8349542 92.9667178,16.1884766 C91.9068166,17.541999 91.376874,19.3932174 91.376874,21.7421875 C91.376874,22.8450576 91.5129404,23.8583938 91.7850771,24.7822266 C92.0572139,25.7060593 92.4510902,26.4938118 92.9667178,27.1455078 C93.4823454,27.7972038 94.105386,28.2913395 94.8358584,28.6279297 C95.5663308,28.9645199 96.3684061,29.1328125 97.2421084,29.1328125 C98.4165934,29.1328125 99.4227683,28.8606798 100.260663,28.3164062 C101.098558,27.7721327 101.839761,26.9414118 102.484296,25.8242188 C102.842371,25.1653613 103.229085,24.6497414 103.644452,24.2773438 C104.059819,23.9049461 104.568277,23.71875 105.169843,23.71875 C105.885992,23.71875 106.480387,23.9908827 106.953046,24.5351562 C107.425705,25.0794298 107.66203,25.6595021 107.66203,26.2753906 L107.66203,26.2753906 Z M134.691301,21.6132812 C134.691301,23.3606858 134.419168,24.9719978 133.874895,26.4472656 C133.330621,27.9225334 132.542868,29.1900989 131.511613,30.25 C130.480358,31.3099011 129.2486,32.1227185 127.816301,32.6884766 C126.384002,33.2542346 124.77269,33.5371094 122.982316,33.5371094 C121.206266,33.5371094 119.609277,33.2506539 118.191301,32.6777344 C116.773325,32.1048148 115.545147,31.2848361 114.50673,30.2177734 C113.468314,29.1507108 112.680561,27.8903067 112.143449,26.4365234 C111.606337,24.9827401 111.337785,23.3750088 111.337785,21.6132812 C111.337785,19.8372307 111.609918,18.2115959 112.154191,16.7363281 C112.698465,15.2610603 113.479056,14.0006563 114.495988,12.9550781 C115.51292,11.9095 116.744679,11.103844 118.191301,10.5380859 C119.637923,9.9723279 121.234912,9.68945312 122.982316,9.68945312 C124.758367,9.68945312 126.369679,9.97590859 127.816301,10.5488281 C129.262923,11.1217477 130.501842,11.9381457 131.533098,12.9980469 C132.564353,14.057948 133.348525,15.3183521 133.885637,16.7792969 C134.422749,18.2402417 134.691301,19.8515537 134.691301,21.6132812 L134.691301,21.6132812 Z M128.804582,21.6132812 C128.804582,19.2213422 128.27822,17.3593817 127.22548,16.0273438 C126.172741,14.6953058 124.758367,14.0292969 122.982316,14.0292969 C121.836477,14.0292969 120.826722,14.3264944 119.95302,14.9208984 C119.079317,15.5153025 118.406147,16.3925723 117.933488,17.5527344 C117.46083,18.7128964 117.224504,20.0663985 117.224504,21.6132812 C117.224504,23.145841 117.457249,24.4850203 117.922746,25.6308594 C118.388243,26.7766984 119.054252,27.6539683 119.920793,28.2626953 C120.787334,28.8714223 121.807831,29.1757812 122.982316,29.1757812 C124.758367,29.1757812 126.172741,28.5061916 127.22548,27.1669922 C128.27822,25.8277928 128.804582,23.9765743 128.804582,21.6132812 L128.804582,21.6132812 Z M139.269399,29.9707031 L139.269399,4.53320312 C139.269399,3.35871809 139.53079,2.47070613 140.053579,1.86914062 C140.576368,1.26757512 141.281765,0.966796875 142.16979,0.966796875 C143.057815,0.966796875 143.773954,1.26399442 144.318228,1.85839844 C144.862501,2.45280245 145.134634,3.3443951 145.134634,4.53320312 L145.134634,29.9707031 C145.134634,31.1595112 144.85892,32.0511038 144.307485,32.6455078 C143.75605,33.2399118 143.043492,33.5371094 142.16979,33.5371094 C141.310411,33.5371094 140.612176,33.2291697 140.075063,32.6132812 C139.537951,31.9973928 139.269399,31.1165422 139.269399,29.9707031 L139.269399,29.9707031 Z M165.976404,30.2285156 C164.558428,31.3313857 163.187023,32.1585259 161.862146,32.7099609 C160.53727,33.261396 159.051282,33.5371094 157.404139,33.5371094 C155.900225,33.5371094 154.578949,33.2399118 153.440271,32.6455078 C152.301594,32.0511038 151.424324,31.2454478 150.808436,30.2285156 C150.192547,29.2115835 149.884607,28.1087299 149.884607,26.9199219 C149.884607,25.3157472 150.393066,23.9479223 151.409998,22.8164062 C152.42693,21.6848902 153.823401,20.9257832 155.599451,20.5390625 C155.971849,20.4531246 156.895668,20.2597671 158.370936,19.9589844 C159.846203,19.6582016 161.110188,19.3824882 162.162928,19.1318359 C163.215667,18.8811836 164.357909,18.5768247 165.589686,18.21875 C165.518071,16.6718673 165.20655,15.5367875 164.655115,14.8134766 C164.10368,14.0901657 162.961439,13.7285156 161.228357,13.7285156 C159.738767,13.7285156 158.61801,13.9361958 157.866053,14.3515625 C157.114096,14.7669292 156.469571,15.3899698 155.932459,16.2207031 C155.395347,17.0514364 155.015793,17.5992825 154.793787,17.8642578 C154.571781,18.1292331 154.095549,18.2617188 153.365076,18.2617188 C152.706219,18.2617188 152.136888,18.0504578 151.657068,17.6279297 C151.177248,17.2054015 150.937342,16.6647168 150.937342,16.0058594 C150.937342,14.9746042 151.302573,13.9720101 152.033045,12.9980469 C152.763517,12.0240837 153.902178,11.2220084 155.449061,10.5917969 C156.995943,9.96158539 158.922356,9.64648438 161.228357,9.64648438 C163.806495,9.64648438 165.833168,9.95084331 167.308436,10.5595703 C168.783703,11.1682973 169.825685,12.1315038 170.434412,13.4492188 C171.043139,14.7669337 171.347498,16.514312 171.347498,18.6914062 C171.347498,20.0664131 171.343917,21.2337192 171.336756,22.1933594 C171.329594,23.1529996 171.318852,24.2200462 171.304529,25.3945312 C171.304529,26.4974013 171.487145,27.6468039 171.852381,28.8427734 C172.217617,30.038743 172.400232,30.808592 172.400232,31.1523438 C172.400232,31.7539093 172.117358,32.3017553 171.5516,32.7958984 C170.985842,33.2900415 170.344897,33.5371094 169.628748,33.5371094 C169.027183,33.5371094 168.432787,33.2542346 167.845545,32.6884766 C167.258302,32.1227185 166.635262,31.3027397 165.976404,30.2285156 L165.976404,30.2285156 Z M165.589686,21.7421875 C164.730306,22.0572932 163.480644,22.3902977 161.840662,22.7412109 C160.20068,23.0921242 159.0656,23.3499341 158.435389,23.5146484 C157.805177,23.6793628 157.203621,24.0016252 156.630701,24.4814453 C156.057782,24.9612654 155.771326,25.6308551 155.771326,26.4902344 C155.771326,27.3782596 156.107911,28.1337859 156.781092,28.7568359 C157.454272,29.3798859 158.335123,29.6914062 159.42367,29.6914062 C160.583832,29.6914062 161.654459,29.437177 162.635584,28.9287109 C163.616709,28.4202449 164.336428,27.764978 164.794764,26.9628906 C165.324714,26.0748654 165.589686,24.6139425 165.589686,22.5800781 L165.589686,21.7421875 Z M176.48419,10.2050781 L177.128722,10.2050781 L177.128722,6.68164062 C177.128722,5.7363234 177.153787,4.99511987 177.203917,4.45800781 C177.254047,3.92089575 177.393694,3.45898631 177.622862,3.07226562 C177.85203,2.67122195 178.181454,2.34537886 178.611144,2.09472656 C179.040833,1.84407427 179.520646,1.71875 180.050597,1.71875 C180.795392,1.71875 181.468562,1.99804408 182.070128,2.55664062 C182.471172,2.92903832 182.725401,3.38378638 182.832823,3.92089844 C182.940246,4.4580105 182.993956,5.22069818 182.993956,6.20898438 L182.993956,10.2050781 L185.142394,10.2050781 C185.973127,10.2050781 186.60691,10.4020163 187.043761,10.7958984 C187.480612,11.1897806 187.699034,11.6946584 187.699034,12.3105469 C187.699034,13.0983112 187.387514,13.649738 186.764464,13.9648438 C186.141414,14.2799495 185.249821,14.4375 184.089659,14.4375 L182.993956,14.4375 L182.993956,25.2226562 C182.993956,26.1393275 183.026182,26.8447241 183.090636,27.3388672 C183.155089,27.8330103 183.326962,28.2340479 183.606261,28.5419922 C183.885559,28.8499364 184.340307,29.0039062 184.970519,29.0039062 C185.31427,29.0039062 185.77976,28.9430345 186.367003,28.8212891 C186.954245,28.6995437 187.412574,28.6386719 187.742003,28.6386719 C188.214662,28.6386719 188.640764,28.8284486 189.020323,29.2080078 C189.399882,29.587567 189.589659,30.0566378 189.589659,30.6152344 C189.589659,31.5605516 189.074039,32.2838517 188.042784,32.7851562 C187.011529,33.2864608 185.529122,33.5371094 183.595519,33.5371094 C181.762176,33.5371094 180.372867,33.2291697 179.42755,32.6132812 C178.482233,31.9973928 177.862773,31.1451877 177.569151,30.0566406 C177.27553,28.9680935 177.128722,27.514332 177.128722,25.6953125 L177.128722,14.4375 L176.355284,14.4375 C175.510228,14.4375 174.865703,14.2369812 174.42169,13.8359375 C173.977678,13.4348938 173.755675,12.9264354 173.755675,12.3105469 C173.755675,11.6946584 173.98842,11.1897806 174.453917,10.7958984 C174.919414,10.4020163 175.596165,10.2050781 176.48419,10.2050781 L176.48419,10.2050781 Z M208.068148,23.0527344 L196.595492,23.0527344 C196.609815,24.3847723 196.878367,25.5592397 197.401156,26.5761719 C197.923945,27.593104 198.6186,28.3593724 199.485141,28.875 C200.351681,29.3906276 201.307727,29.6484375 202.353305,29.6484375 C203.055131,29.6484375 203.696075,29.5660816 204.276156,29.4013672 C204.856237,29.2366528 205.418406,28.9788429 205.96268,28.6279297 C206.506953,28.2770165 207.00825,27.9010437 207.466586,27.5 C207.924922,27.0989563 208.519317,26.5546909 209.249789,25.8671875 C209.550572,25.6093737 209.980255,25.4804688 210.538852,25.4804688 C211.140417,25.4804688 211.627391,25.6451806 211.999789,25.9746094 C212.372187,26.3040381 212.558383,26.7695282 212.558383,27.3710938 C212.558383,27.9010443 212.350703,28.5205043 211.935336,29.2294922 C211.519969,29.9384801 210.893348,30.6188118 210.055453,31.2705078 C209.217558,31.9222038 208.164834,32.4628885 206.89725,32.8925781 C205.629666,33.3222678 204.172323,33.5371094 202.52518,33.5371094 C198.758234,33.5371094 195.829227,32.4629014 193.73807,30.3144531 C191.646914,28.1660049 190.601352,25.2513205 190.601352,21.5703125 C190.601352,19.8372309 190.859161,18.2294996 191.374789,16.7470703 C191.890417,15.264641 192.642362,13.9934949 193.630648,12.9335938 C194.618935,11.8736926 195.83637,11.0608752 197.282992,10.4951172 C198.729614,9.92935915 200.333765,9.64648438 202.095492,9.64648438 C204.38717,9.64648438 206.352971,10.129878 207.992953,11.0966797 C209.632935,12.0634814 210.861113,13.3131434 211.677523,14.8457031 C212.493934,16.3782629 212.902133,17.9394452 212.902133,19.5292969 C212.902133,21.0045647 212.479611,21.9606098 211.634555,22.3974609 C210.789498,22.8343121 209.600708,23.0527344 208.068148,23.0527344 L208.068148,23.0527344 Z M196.595492,19.7226563 L207.230258,19.7226563 C207.087028,17.7174379 206.546343,16.2171274 205.608187,15.2216797 C204.670032,14.226232 203.434693,13.7285156 201.902133,13.7285156 C200.441188,13.7285156 199.241656,14.2333934 198.3035,15.2431641 C197.365344,16.2529347 196.796014,17.7460839 196.595492,19.7226563 L196.595492,19.7226563 Z M245.044685,23.0527344 C245.044685,24.0553436 244.797617,25.1402936 244.303474,26.3076172 C243.809331,27.4749407 243.03232,28.6207626 241.972419,29.7451172 C240.912518,30.8694718 239.559016,31.7825486 237.911872,32.484375 C236.264728,33.1862014 234.345477,33.5371094 232.15406,33.5371094 C230.492593,33.5371094 228.98154,33.3795589 227.620856,33.0644531 C226.260173,32.7493474 225.024833,32.2587924 223.914802,31.5927734 C222.80477,30.9267545 221.784273,30.0494846 220.853278,28.9609375 C220.022545,27.9726513 219.313568,26.8662171 218.726325,25.6416016 C218.139083,24.4169861 217.698657,23.110033 217.405036,21.7207031 C217.111415,20.3313733 216.964606,18.8561276 216.964606,17.2949219 C216.964606,14.7597529 217.333418,12.4895934 218.071052,10.484375 C218.808686,8.47915664 219.86499,6.76400452 221.239997,5.33886719 C222.615004,3.91372985 224.226316,2.82877977 226.073981,2.08398438 C227.921647,1.33918898 229.891028,0.966796875 231.982185,0.966796875 C234.531676,0.966796875 236.801836,1.47525533 238.792731,2.4921875 C240.783627,3.50911967 242.309002,4.76594304 243.368903,6.26269531 C244.428804,7.75944759 244.958747,9.17382146 244.958747,10.5058594 C244.958747,11.2363318 244.700937,11.8808566 244.18531,12.4394531 C243.669682,12.9980497 243.046641,13.2773437 242.316169,13.2773437 C241.499759,13.2773437 240.88746,13.0839863 240.479255,12.6972656 C240.07105,12.3105449 239.616302,11.644536 239.114997,10.6992188 C238.284264,9.13801303 237.306734,7.97070699 236.18238,7.19726562 C235.058025,6.42382426 233.672297,6.03710938 232.025153,6.03710938 C229.404046,6.03710938 227.316502,7.03254213 225.762458,9.0234375 C224.208414,11.0143329 223.431403,13.8430806 223.431403,17.5097656 C223.431403,19.9589966 223.77515,21.9964111 224.462653,23.6220703 C225.150157,25.2477295 226.124105,26.4615845 227.384528,27.2636719 C228.644951,28.0657592 230.120197,28.4667969 231.81031,28.4667969 C233.643652,28.4667969 235.194092,28.0120488 236.461677,27.1025391 C237.729261,26.1930293 238.685306,24.8574307 239.329841,23.0957031 C239.601978,22.2649698 239.938563,21.5882188 240.339606,21.0654297 C240.74065,20.5426406 241.385175,20.28125 242.2732,20.28125 C243.032319,20.28125 243.684005,20.5462213 244.228278,21.0761719 C244.772552,21.6061224 245.044685,22.26497 245.044685,23.0527344 L245.044685,23.0527344 Z M256.068096,4.53320312 L256.068096,13.234375 C256.812891,12.3749957 257.539772,11.694664 258.24876,11.1933594 C258.957748,10.6920548 259.74192,10.316082 260.601299,10.0654297 C261.460678,9.81477739 262.384497,9.68945312 263.372783,9.68945312 C264.862374,9.68945312 266.18365,10.0045541 267.33665,10.6347656 C268.489651,11.2649771 269.395566,12.1816346 270.054424,13.3847656 C270.46979,14.0865921 270.749085,14.8707639 270.892314,15.7373047 C271.035544,16.6038455 271.107158,17.6028589 271.107158,18.734375 L271.107158,29.9707031 C271.107158,31.1451882 270.838606,32.0332001 270.301494,32.6347656 C269.764382,33.2363311 269.051824,33.5371094 268.163799,33.5371094 C266.230195,33.5371094 265.263408,32.3483192 265.263408,29.9707031 L265.263408,20.0664062 C265.263408,18.1900948 264.984114,16.7470754 264.425518,15.7373047 C263.866921,14.727534 262.807036,14.2226562 261.24583,14.2226562 C260.200252,14.2226562 259.25853,14.5198538 258.420635,15.1142578 C257.58274,15.7086618 256.956119,16.5214792 256.540752,17.5527344 C256.225646,18.4264367 256.068096,19.9804576 256.068096,22.2148438 L256.068096,29.9707031 C256.068096,31.1308652 255.806705,32.0152964 255.283916,32.6240234 C254.761127,33.2327504 254.034246,33.5371094 253.103252,33.5371094 C251.169649,33.5371094 250.202861,32.3483192 250.202861,29.9707031 L250.202861,4.53320312 C250.202861,3.3443951 250.457091,2.45280245 250.965557,1.85839844 C251.474023,1.26399442 252.186581,0.966796875 253.103252,0.966796875 C254.034246,0.966796875 254.761127,1.26757512 255.283916,1.86914062 C255.806705,2.47070613 256.068096,3.35871809 256.068096,4.53320312 L256.068096,4.53320312 Z M282.732132,13.0195312 L282.732132,29.9707031 C282.732132,31.1451882 282.452838,32.0332001 281.894241,32.6347656 C281.335645,33.2363311 280.626667,33.5371094 279.767288,33.5371094 C278.907909,33.5371094 278.209674,33.2291697 277.672562,32.6132812 C277.135449,31.9973928 276.866897,31.1165422 276.866897,29.9707031 L276.866897,13.1914062 C276.866897,12.0312442 277.135449,11.157555 277.672562,10.5703125 C278.209674,9.98306998 278.907909,9.68945312 279.767288,9.68945312 C280.626667,9.68945312 281.335645,9.98306998 281.894241,10.5703125 C282.452838,11.157555 282.732132,11.9739531 282.732132,13.0195312 L282.732132,13.0195312 Z M279.831741,6.9609375 C279.015331,6.9609375 278.317096,6.71028896 277.737015,6.20898438 C277.156934,5.70767979 276.866897,4.9987025 276.866897,4.08203125 C276.866897,3.25129793 277.164095,2.5673855 277.758499,2.03027344 C278.352903,1.49316138 279.043977,1.22460938 279.831741,1.22460938 C280.59086,1.22460938 281.26403,1.46809652 281.851272,1.95507812 C282.438515,2.44205973 282.732132,3.15103701 282.732132,4.08203125 C282.732132,4.98437951 282.445676,5.6897761 281.872757,6.19824219 C281.299837,6.70670827 280.619506,6.9609375 279.831741,6.9609375 L279.831741,6.9609375 Z M294.163746,12.9765625 L294.163746,13.6855469 C295.266616,12.324863 296.412438,11.3258495 297.601246,10.6884766 C298.790054,10.0511036 300.136395,9.73242188 301.640309,9.73242188 C303.445005,9.73242188 305.106447,10.197912 306.624684,11.1289062 C308.14292,12.0599005 309.342453,13.420564 310.223316,15.2109375 C311.10418,17.001311 311.544605,19.1210815 311.544605,21.5703125 C311.544605,23.375009 311.290376,25.03287 310.78191,26.5439453 C310.273444,28.0550206 309.575209,29.322586 308.687184,30.3466797 C307.799158,31.3707733 306.750015,32.1585259 305.539723,32.7099609 C304.32943,33.261396 303.029638,33.5371094 301.640309,33.5371094 C299.964519,33.5371094 298.557306,33.2005242 297.418629,32.5273438 C296.279951,31.8541633 295.195001,30.8658919 294.163746,29.5625 L294.163746,38.3710938 C294.163746,40.9492316 293.225604,42.2382812 291.349293,42.2382812 C290.246423,42.2382812 289.515961,41.9052768 289.157887,41.2392578 C288.799812,40.5732389 288.620777,39.602871 288.620777,38.328125 L288.620777,13.0195312 C288.620777,11.9023382 288.864264,11.0680366 289.351246,10.5166016 C289.838228,9.96516651 290.504237,9.68945312 291.349293,9.68945312 C292.180026,9.68945312 292.856777,9.9723279 293.379566,10.5380859 C293.902355,11.103844 294.163746,11.9166614 294.163746,12.9765625 L294.163746,12.9765625 Z M305.657887,21.5058594 C305.657887,19.9589766 305.421561,18.6305394 304.948902,17.5205078 C304.476244,16.4104762 303.820977,15.5582712 302.983082,14.9638672 C302.145187,14.3694632 301.217788,14.0722656 300.200855,14.0722656 C298.582358,14.0722656 297.218114,14.709629 296.108082,15.984375 C294.99805,17.259121 294.443043,19.1354043 294.443043,21.6132812 C294.443043,23.9479283 294.99447,25.7633399 296.09734,27.0595703 C297.20021,28.3558008 298.568035,29.0039062 300.200855,29.0039062 C301.174819,29.0039062 302.077153,28.7210315 302.907887,28.1552734 C303.73862,27.5895154 304.404629,26.7408911 304.905934,25.609375 C305.407238,24.4778589 305.657887,23.1100341 305.657887,21.5058594 L305.657887,21.5058594 Z M323.921532,24.1484375 L317.13247,24.1484375 C316.101215,24.1484375 315.317043,23.908531 314.779931,23.4287109 C314.242819,22.9488908 313.974267,22.3294309 313.974267,21.5703125 C313.974267,20.7968711 314.235657,20.1702498 314.758446,19.6904297 C315.281235,19.2106096 316.072569,18.9707031 317.13247,18.9707031 L323.921532,18.9707031 C324.981433,18.9707031 325.772767,19.2106096 326.295556,19.6904297 C326.818345,20.1702498 327.079735,20.7968711 327.079735,21.5703125 C327.079735,22.3294309 326.821925,22.9488908 326.306298,23.4287109 C325.79067,23.908531 324.995756,24.1484375 323.921532,24.1484375 L323.921532,24.1484375 Z M331.271115,19.9804688 L331.271115,4.83398438 C331.271115,3.54491543 331.561151,2.57812822 332.141232,1.93359375 C332.721313,1.28905928 333.484001,0.966796875 334.429318,0.966796875 C335.417605,0.966796875 336.201776,1.28905928 336.781857,1.93359375 C337.361938,2.57812822 337.651975,3.54491543 337.651975,4.83398438 L337.651975,20.3242188 C337.651975,22.0859463 337.848913,23.5576113 338.242795,24.7392578 C338.636677,25.9209043 339.334912,26.8375618 340.337521,27.4892578 C341.340131,28.1409538 342.743762,28.4667969 344.548459,28.4667969 C347.040659,28.4667969 348.80236,27.8043686 349.833615,26.4794922 C350.86487,25.1546158 351.38049,23.1458468 351.38049,20.453125 L351.38049,4.83398438 C351.38049,3.53059244 351.666946,2.56022454 352.239865,1.92285156 C352.812785,1.28547858 353.579053,0.966796875 354.538693,0.966796875 C355.498334,0.966796875 356.275344,1.28547858 356.869748,1.92285156 C357.464152,2.56022454 357.76135,3.53059244 357.76135,4.83398438 L357.76135,19.9804688 C357.76135,22.4440227 357.521443,24.4993407 357.041623,26.1464844 C356.561803,27.793628 355.655888,29.2402281 354.32385,30.4863281 C353.178011,31.5462293 351.845993,32.319659 350.327756,32.8066406 C348.809519,33.2936222 347.033495,33.5371094 344.999631,33.5371094 C342.579046,33.5371094 340.495082,33.2757188 338.747678,32.7529297 C337.000273,32.2301406 335.575157,31.4209039 334.472287,30.3251953 C333.369417,29.2294867 332.56018,27.8258549 332.044553,26.1142578 C331.528925,24.4026607 331.271115,22.3580848 331.271115,19.9804688 L331.271115,19.9804688 Z M364.874604,29.6484375 L364.874604,4.83398438 C364.874604,3.54491543 365.168221,2.57812822 365.755464,1.93359375 C366.342706,1.28905928 367.101813,0.966796875 368.032808,0.966796875 C368.992448,0.966796875 369.769458,1.28547858 370.363862,1.92285156 C370.958266,2.56022454 371.255464,3.53059244 371.255464,4.83398438 L371.255464,29.6484375 C371.255464,30.9518294 370.958266,31.925778 370.363862,32.5703125 C369.769458,33.214847 368.992448,33.5371094 368.032808,33.5371094 C367.116136,33.5371094 366.36061,33.2112663 365.766206,32.5595703 C365.171802,31.9078743 364.874604,30.9375064 364.874604,29.6484375 L364.874604,29.6484375 Z" id="ChocolateChip-UI" fill="#FFFFFF" sketch:type="MSShapeGroup"></path>
    </g>
</svg>