<?xml version="1.0" standalone="no"?>
<!DOCTYPE svg PUBLIC "-//W3C//DTD SVG 1.1//EN" "http://www.w3.org/Graphics/SVG/1.1/DTD/svg11.dtd">
<svg width="100%" height="100%" viewBox="0 0 93 97" version="1.1" xmlns="http://www.w3.org/2000/svg" xmlns:xlink="http://www.w3.org/1999/xlink" xml:space="preserve" style="fill-rule:evenodd;clip-rule:evenodd;stroke-linejoin:round;stroke-miterlimit:1.41421;">
    <g id="Group" transform="matrix(1,0,0,1,3,3)">
        <g id="Oval-1">
            <ellipse cx="43.5" cy="45.5" rx="43.5" ry="45.5" style="fill:rgb(142,193,109);"/>
            <path d="M43.798,-2.499L44.095,-2.496L44.392,-2.491L44.688,-2.484L44.984,-2.475L45.28,-2.465L45.575,-2.452L45.87,-2.437L46.164,-2.421L46.458,-2.402L46.751,-2.382L47.043,-2.359L47.336,-2.335L47.627,-2.309L47.919,-2.281L48.209,-2.251L48.5,-2.219L48.789,-2.185L49.078,-2.15L49.367,-2.112L49.655,-2.073L49.943,-2.032L50.23,-1.989L50.516,-1.944L50.802,-1.897L51.087,-1.849L51.372,-1.798L51.656,-1.746L51.939,-1.692L52.222,-1.636L52.504,-1.579L52.786,-1.519L53.067,-1.458L53.347,-1.395L53.627,-1.331L53.906,-1.264L54.185,-1.196L54.463,-1.126L54.74,-1.054L55.016,-0.98L55.292,-0.905L55.567,-0.828L55.842,-0.749L56.116,-0.669L56.389,-0.587L56.661,-0.503L56.933,-0.417L57.204,-0.33L57.474,-0.241L57.743,-0.151L58.012,-0.058L58.28,0.036L58.548,0.131L58.814,0.229L59.08,0.328L59.345,0.428L59.609,0.531L59.873,0.635L60.136,0.74L60.398,0.847L60.659,0.956L60.919,1.066L61.179,1.178L61.437,1.292L61.695,1.407L61.953,1.524L62.209,1.642L62.464,1.762L62.719,1.884L62.973,2.007L63.226,2.131L63.478,2.257L63.729,2.385L63.979,2.514L64.229,2.645L64.478,2.777L64.725,2.911L64.972,3.047L65.218,3.183L65.463,3.322L65.707,3.461L65.951,3.603L66.193,3.746L66.434,3.89L66.675,4.036L66.914,4.183L67.153,4.331L67.391,4.481L67.627,4.633L67.863,4.786L68.098,4.94L68.332,5.096L68.565,5.253L68.796,5.412L69.027,5.572L69.257,5.734L69.486,5.897L69.714,6.061L69.941,6.226L70.167,6.393L70.392,6.562L70.616,6.732L70.839,6.903L71.06,7.075L71.281,7.249L71.501,7.424L71.72,7.601L71.937,7.779L72.154,7.958L72.369,8.138L72.584,8.32L72.797,8.503L73.009,8.687L73.221,8.873L73.431,9.06L73.64,9.248L73.848,9.438L74.054,9.629L74.26,9.821L74.465,10.014L74.668,10.209L74.87,10.405L75.072,10.602L75.272,10.8L75.47,10.999L75.668,11.2L75.865,11.402L76.06,11.605L76.254,11.81L76.447,12.015L76.639,12.222L76.83,12.43L77.02,12.639L77.208,12.85L77.395,13.061L77.581,13.274L77.766,13.487L77.949,13.702L78.131,13.919L78.312,14.136L78.492,14.354L78.671,14.574L78.848,14.794L79.024,15.016L79.199,15.239L79.372,15.463L79.545,15.688L79.716,15.914L79.885,16.141L80.054,16.37L80.221,16.599L80.387,16.83L80.551,17.061L80.715,17.294L80.877,17.527L81.037,17.762L81.197,17.998L81.355,18.235L81.511,18.472L81.666,18.711L81.82,18.951L81.973,19.192L82.124,19.434L82.274,19.677L82.423,19.92L82.57,20.165L82.716,20.411L82.86,20.658L83.003,20.906L83.145,21.154L83.285,21.404L83.424,21.655L83.561,21.906L83.697,22.159L83.832,22.412L83.965,22.667L84.097,22.922L84.227,23.178L84.356,23.435L84.483,23.693L84.609,23.952L84.734,24.212L84.857,24.473L84.978,24.735L85.098,24.997L85.217,25.261L85.334,25.525L85.449,25.79L85.564,26.056L85.676,26.323L85.787,26.59L85.897,26.859L86.005,27.128L86.111,27.398L86.216,27.669L86.32,27.941L86.422,28.213L86.522,28.487L86.621,28.761L86.718,29.036L86.814,29.311L86.908,29.588L87,29.865L87.091,30.143L87.181,30.422L87.268,30.701L87.355,30.982L87.439,31.263L87.522,31.545L87.603,31.827L87.683,32.11L87.761,32.394L87.838,32.679L87.912,32.964L87.986,33.25L88.057,33.537L88.127,33.824L88.195,34.112L88.262,34.401L88.326,34.69L88.39,34.98L88.451,35.271L88.511,35.563L88.569,35.854L88.625,36.147L88.68,36.44L88.733,36.734L88.784,37.029L88.834,37.324L88.882,37.62L88.928,37.916L88.972,38.213L89.015,38.51L89.056,38.808L89.095,39.107L89.132,39.406L89.168,39.706L89.201,40.006L89.233,40.307L89.264,40.609L89.292,40.911L89.319,41.213L89.343,41.516L89.366,41.82L89.388,42.124L89.407,42.428L89.425,42.733L89.44,43.039L89.454,43.345L89.466,43.651L89.477,43.958L89.485,44.266L89.492,44.574L89.496,44.882L89.499,45.191L89.5,45.5L89.499,45.809L89.496,46.118L89.492,46.426L89.485,46.734L89.477,47.042L89.466,47.349L89.454,47.655L89.44,47.961L89.425,48.267L89.407,48.572L89.388,48.876L89.366,49.18L89.343,49.484L89.319,49.787L89.292,50.089L89.264,50.391L89.233,50.693L89.201,50.994L89.168,51.294L89.132,51.594L89.095,51.893L89.056,52.192L89.015,52.49L88.972,52.787L88.928,53.084L88.882,53.38L88.834,53.676L88.784,53.971L88.733,54.266L88.68,54.56L88.625,54.853L88.569,55.146L88.511,55.437L88.451,55.729L88.39,56.02L88.326,56.31L88.262,56.599L88.195,56.888L88.127,57.176L88.057,57.463L87.986,57.75L87.912,58.036L87.838,58.321L87.761,58.606L87.683,58.89L87.603,59.173L87.522,59.455L87.439,59.737L87.355,60.018L87.268,60.299L87.181,60.578L87.091,60.857L87,61.135L86.908,61.412L86.814,61.689L86.718,61.964L86.621,62.239L86.522,62.513L86.422,62.787L86.32,63.059L86.216,63.331L86.111,63.602L86.005,63.872L85.897,64.141L85.787,64.41L85.676,64.677L85.564,64.944L85.449,65.21L85.334,65.475L85.217,65.739L85.098,66.003L84.978,66.265L84.857,66.527L84.734,66.788L84.609,67.048L84.483,67.307L84.356,67.565L84.227,67.822L84.097,68.078L83.965,68.333L83.832,68.588L83.697,68.841L83.561,69.094L83.424,69.345L83.285,69.596L83.145,69.846L83.003,70.094L82.86,70.342L82.716,70.589L82.57,70.835L82.423,71.08L82.274,71.323L82.124,71.566L81.973,71.808L81.82,72.049L81.666,72.289L81.511,72.528L81.355,72.765L81.197,73.002L81.037,73.238L80.877,73.473L80.715,73.706L80.551,73.939L80.387,74.17L80.221,74.401L80.054,74.63L79.885,74.859L79.716,75.086L79.545,75.312L79.372,75.537L79.199,75.761L79.024,75.984L78.848,76.206L78.671,76.426L78.492,76.646L78.312,76.864L78.131,77.081L77.949,77.298L77.766,77.513L77.581,77.726L77.395,77.939L77.208,78.15L77.02,78.361L76.83,78.57L76.639,78.778L76.447,78.985L76.254,79.19L76.06,79.395L75.865,79.598L75.668,79.8L75.47,80.001L75.272,80.2L75.072,80.398L74.87,80.595L74.668,80.791L74.465,80.986L74.26,81.179L74.054,81.371L73.848,81.562L73.64,81.752L73.431,81.94L73.221,82.127L73.009,82.313L72.797,82.497L72.584,82.68L72.369,82.862L72.154,83.042L71.937,83.221L71.72,83.399L71.501,83.576L71.281,83.751L71.06,83.925L70.839,84.097L70.616,84.268L70.392,84.438L70.167,84.607L69.941,84.774L69.714,84.939L69.486,85.103L69.257,85.266L69.027,85.428L68.796,85.588L68.565,85.747L68.332,85.904L68.098,86.06L67.863,86.214L67.627,86.367L67.391,86.519L67.153,86.669L66.914,86.817L66.675,86.964L66.434,87.11L66.193,87.254L65.951,87.397L65.707,87.539L65.463,87.678L65.218,87.817L64.972,87.953L64.725,88.089L64.478,88.223L64.229,88.355L63.979,88.486L63.729,88.615L63.478,88.743L63.226,88.869L62.973,88.993L62.719,89.116L62.464,89.238L62.209,89.358L61.953,89.476L61.695,89.593L61.437,89.708L61.179,89.822L60.919,89.934L60.659,90.044L60.398,90.153L60.136,90.26L59.873,90.365L59.609,90.469L59.345,90.572L59.08,90.672L58.814,90.771L58.548,90.869L58.28,90.964L58.012,91.058L57.743,91.151L57.474,91.241L57.204,91.33L56.933,91.417L56.661,91.503L56.389,91.587L56.115,91.669L55.842,91.749L55.567,91.828L55.292,91.905L55.016,91.98L54.74,92.054L54.463,92.126L54.185,92.196L53.906,92.264L53.627,92.331L53.347,92.395L53.067,92.458L52.786,92.519L52.504,92.579L52.222,92.636L51.939,92.692L51.656,92.746L51.372,92.798L51.087,92.849L50.802,92.897L50.516,92.944L50.23,92.989L49.943,93.032L49.655,93.073L49.367,93.112L49.078,93.15L48.789,93.185L48.5,93.219L48.209,93.251L47.919,93.281L47.627,93.309L47.336,93.335L47.043,93.359L46.751,93.382L46.457,93.402L46.164,93.421L45.87,93.437L45.575,93.452L45.28,93.465L44.984,93.475L44.688,93.484L44.392,93.491L44.095,93.496L43.798,93.499L43.5,93.5L43.202,93.499L42.905,93.496L42.608,93.491L42.312,93.484L42.016,93.475L41.72,93.465L41.425,93.452L41.13,93.437L40.836,93.421L40.543,93.402L40.249,93.382L39.957,93.359L39.664,93.335L39.373,93.309L39.081,93.281L38.791,93.251L38.5,93.219L38.211,93.185L37.922,93.15L37.633,93.112L37.345,93.073L37.057,93.032L36.77,92.989L36.484,92.944L36.198,92.897L35.913,92.849L35.628,92.798L35.344,92.746L35.061,92.692L34.778,92.636L34.496,92.579L34.214,92.519L33.933,92.458L33.653,92.395L33.373,92.331L33.094,92.264L32.815,92.196L32.537,92.126L32.26,92.054L31.984,91.98L31.708,91.905L31.433,91.828L31.158,91.749L30.885,91.669L30.611,91.587L30.339,91.503L30.067,91.417L29.796,91.33L29.526,91.241L29.257,91.151L28.988,91.058L28.72,90.964L28.452,90.869L28.186,90.771L27.92,90.672L27.655,90.572L27.391,90.469L27.127,90.365L26.864,90.26L26.602,90.153L26.341,90.044L26.081,89.934L25.821,89.822L25.563,89.708L25.305,89.593L25.047,89.476L24.791,89.358L24.536,89.238L24.281,89.116L24.027,88.993L23.774,88.869L23.522,88.743L23.271,88.615L23.021,88.486L22.771,88.355L22.522,88.223L22.275,88.089L22.028,87.953L21.782,87.817L21.537,87.678L21.293,87.539L21.049,87.397L20.807,87.254L20.566,87.11L20.325,86.964L20.086,86.817L19.847,86.669L19.609,86.519L19.373,86.367L19.137,86.214L18.902,86.06L18.668,85.904L18.435,85.747L18.204,85.588L17.973,85.428L17.743,85.266L17.514,85.103L17.286,84.939L17.059,84.774L16.833,84.607L16.608,84.438L16.384,84.268L16.161,84.097L15.94,83.925L15.719,83.751L15.499,83.576L15.28,83.399L15.063,83.221L14.846,83.042L14.631,82.862L14.416,82.68L14.203,82.497L13.991,82.312L13.779,82.127L13.569,81.94L13.36,81.752L13.152,81.562L12.946,81.371L12.74,81.179L12.535,80.986L12.332,80.791L12.13,80.595L11.928,80.398L11.728,80.2L11.53,80.001L11.332,79.8L11.135,79.598L10.94,79.395L10.746,79.19L10.553,78.985L10.361,78.778L10.17,78.57L9.98,78.361L9.792,78.15L9.605,77.939L9.419,77.726L9.234,77.513L9.051,77.298L8.869,77.081L8.688,76.864L8.508,76.646L8.329,76.426L8.152,76.206L7.976,75.984L7.801,75.761L7.628,75.537L7.455,75.312L7.284,75.086L7.115,74.859L6.946,74.63L6.779,74.401L6.613,74.17L6.449,73.939L6.285,73.706L6.123,73.473L5.963,73.238L5.803,73.002L5.645,72.765L5.489,72.528L5.334,72.289L5.18,72.049L5.027,71.808L4.876,71.566L4.726,71.323L4.577,71.08L4.43,70.835L4.284,70.589L4.14,70.342L3.997,70.094L3.855,69.846L3.715,69.596L3.576,69.345L3.439,69.094L3.303,68.841L3.168,68.588L3.035,68.333L2.903,68.078L2.773,67.822L2.644,67.565L2.517,67.307L2.391,67.048L2.266,66.788L2.143,66.527L2.022,66.265L1.902,66.003L1.783,65.739L1.666,65.475L1.551,65.21L1.436,64.944L1.324,64.677L1.213,64.41L1.103,64.141L0.995,63.872L0.889,63.602L0.784,63.331L0.68,63.059L0.578,62.787L0.478,62.513L0.379,62.239L0.282,61.964L0.186,61.689L0.092,61.412L0,61.135L-0.091,60.857L-0.181,60.578L-0.268,60.299L-0.355,60.018L-0.439,59.737L-0.522,59.455L-0.603,59.173L-0.683,58.89L-0.761,58.606L-0.838,58.321L-0.912,58.036L-0.986,57.75L-1.057,57.463L-1.127,57.176L-1.195,56.888L-1.262,56.599L-1.326,56.31L-1.39,56.02L-1.451,55.729L-1.511,55.438L-1.569,55.146L-1.625,54.853L-1.68,54.56L-1.733,54.266L-1.784,53.971L-1.834,53.676L-1.882,53.38L-1.928,53.084L-1.972,52.787L-2.015,52.49L-2.056,52.192L-2.095,51.893L-2.132,51.594L-2.168,51.294L-2.201,50.994L-2.233,50.693L-2.264,50.391L-2.292,50.089L-2.319,49.787L-2.343,49.484L-2.366,49.18L-2.388,48.876L-2.407,48.572L-2.425,48.267L-2.44,47.961L-2.454,47.655L-2.466,47.349L-2.477,47.042L-2.485,46.734L-2.492,46.426L-2.496,46.118L-2.499,45.809L-2.5,45.5L-2.499,45.191L-2.496,44.882L-2.492,44.574L-2.485,44.266L-2.477,43.958L-2.466,43.651L-2.454,43.345L-2.44,43.039L-2.425,42.733L-2.407,42.428L-2.388,42.124L-2.366,41.82L-2.343,41.516L-2.319,41.213L-2.292,40.911L-2.264,40.609L-2.233,40.307L-2.201,40.006L-2.168,39.706L-2.132,39.406L-2.095,39.107L-2.056,38.808L-2.015,38.51L-1.972,38.213L-1.928,37.916L-1.882,37.62L-1.834,37.324L-1.784,37.029L-1.733,36.734L-1.68,36.44L-1.625,36.147L-1.569,35.855L-1.511,35.562L-1.451,35.271L-1.39,34.98L-1.326,34.69L-1.262,34.401L-1.195,34.112L-1.127,33.824L-1.057,33.537L-0.986,33.25L-0.912,32.964L-0.838,32.679L-0.761,32.394L-0.683,32.11L-0.603,31.827L-0.522,31.545L-0.439,31.263L-0.355,30.982L-0.268,30.701L-0.181,30.422L-0.091,30.143L0,29.865L0.092,29.588L0.186,29.311L0.282,29.036L0.379,28.761L0.478,28.487L0.578,28.213L0.68,27.941L0.784,27.669L0.889,27.398L0.995,27.128L1.103,26.859L1.213,26.59L1.324,26.323L1.436,26.056L1.551,25.79L1.666,25.525L1.783,25.261L1.902,24.997L2.022,24.735L2.143,24.473L2.266,24.212L2.391,23.952L2.517,23.693L2.644,23.435L2.773,23.178L2.903,22.922L3.035,22.667L3.168,22.412L3.303,22.159L3.439,21.906L3.576,21.655L3.715,21.404L3.855,21.154L3.997,20.906L4.14,20.658L4.284,20.411L4.43,20.165L4.577,19.92L4.726,19.677L4.876,19.434L5.027,19.192L5.18,18.951L5.334,18.711L5.489,18.472L5.645,18.235L5.803,17.998L5.963,17.762L6.123,17.527L6.285,17.294L6.449,17.061L6.613,16.83L6.779,16.599L6.946,16.37L7.115,16.141L7.284,15.914L7.455,15.688L7.628,15.463L7.801,15.239L7.976,15.016L8.152,14.794L8.329,14.574L8.508,14.354L8.688,14.136L8.869,13.919L9.051,13.702L9.234,13.487L9.419,13.274L9.605,13.061L9.792,12.85L9.98,12.639L10.17,12.43L10.361,12.222L10.553,12.015L10.746,11.81L10.94,11.605L11.135,11.402L11.332,11.2L11.53,10.999L11.728,10.8L11.928,10.602L12.13,10.405L12.332,10.209L12.535,10.014L12.74,9.821L12.946,9.629L13.152,9.438L13.36,9.248L13.569,9.06L13.779,8.873L13.991,8.687L14.203,8.503L14.416,8.32L14.631,8.138L14.846,7.958L15.063,7.779L15.28,7.601L15.499,7.424L15.719,7.249L15.94,7.075L16.161,6.903L16.384,6.732L16.608,6.562L16.833,6.393L17.059,6.226L17.286,6.061L17.514,5.897L17.743,5.734L17.973,5.572L18.204,5.412L18.435,5.253L18.668,5.096L18.902,4.94L19.137,4.786L19.373,4.633L19.609,4.481L19.847,4.331L20.086,4.183L20.325,4.036L20.566,3.89L20.807,3.746L21.049,3.603L21.293,3.461L21.537,3.322L21.782,3.183L22.028,3.047L22.275,2.911L22.522,2.777L22.771,2.645L23.021,2.514L23.271,2.385L23.522,2.257L23.774,2.131L24.027,2.007L24.281,1.884L24.536,1.762L24.791,1.642L25.047,1.524L25.305,1.407L25.563,1.292L25.821,1.178L26.081,1.066L26.341,0.956L26.602,0.847L26.864,0.74L27.127,0.635L27.391,0.531L27.655,0.428L27.92,0.328L28.186,0.229L28.452,0.131L28.72,0.036L28.988,-0.058L29.257,-0.151L29.526,-0.241L29.796,-0.33L30.067,-0.417L30.339,-0.503L30.611,-0.587L30.884,-0.669L31.158,-0.749L31.433,-0.828L31.708,-0.905L31.984,-0.98L32.26,-1.054L32.537,-1.126L32.815,-1.196L33.094,-1.264L33.373,-1.331L33.653,-1.395L33.933,-1.458L34.214,-1.519L34.496,-1.579L34.778,-1.636L35.061,-1.692L35.344,-1.746L35.628,-1.798L35.913,-1.849L36.198,-1.897L36.484,-1.944L36.77,-1.989L37.057,-2.032L37.345,-2.073L37.633,-2.112L37.922,-2.15L38.211,-2.185L38.5,-2.219L38.791,-2.251L39.081,-2.281L39.373,-2.309L39.664,-2.335L39.957,-2.359L40.249,-2.382L40.542,-2.402L40.836,-2.421L41.13,-2.437L41.425,-2.452L41.72,-2.465L42.016,-2.475L42.312,-2.484L42.608,-2.491L42.905,-2.496L43.202,-2.499L43.5,-2.5L43.798,-2.499ZM43.235,2.501L42.971,2.504L42.708,2.508L42.444,2.514L42.181,2.522L41.919,2.531L41.657,2.543L41.395,2.556L41.134,2.57L40.874,2.587L40.613,2.605L40.354,2.625L40.094,2.646L39.836,2.67L39.577,2.695L39.319,2.721L39.062,2.749L38.805,2.779L38.549,2.811L38.293,2.844L38.037,2.879L37.782,2.915L37.528,2.954L37.274,2.993L37.021,3.035L36.768,3.078L36.515,3.122L36.264,3.169L36.012,3.216L35.762,3.266L35.511,3.317L35.262,3.37L35.013,3.424L34.764,3.48L34.516,3.537L34.268,3.596L34.022,3.657L33.775,3.719L33.529,3.782L33.284,3.847L33.04,3.914L32.796,3.982L32.552,4.052L32.31,4.124L32.067,4.196L31.826,4.271L31.585,4.347L31.344,4.424L31.105,4.503L30.866,4.584L30.627,4.665L30.389,4.749L30.152,4.834L29.916,4.92L29.68,5.008L29.444,5.097L29.21,5.188L28.976,5.28L28.743,5.374L28.51,5.469L28.278,5.566L28.047,5.664L27.817,5.763L27.587,5.864L27.358,5.966L27.129,6.07L26.901,6.175L26.674,6.282L26.448,6.39L26.223,6.499L25.998,6.61L25.774,6.722L25.55,6.835L25.328,6.95L25.106,7.067L24.885,7.184L24.664,7.303L24.445,7.424L24.226,7.545L24.008,7.668L23.791,7.793L23.574,7.918L23.359,8.046L23.144,8.174L22.93,8.304L22.716,8.435L22.504,8.567L22.292,8.701L22.081,8.836L21.871,8.972L21.662,9.11L21.454,9.248L21.246,9.389L21.04,9.53L20.834,9.673L20.629,9.817L20.425,9.962L20.222,10.108L20.019,10.256L19.818,10.405L19.617,10.555L19.417,10.707L19.219,10.859L19.021,11.013L18.824,11.168L18.628,11.325L18.432,11.482L18.238,11.641L18.045,11.801L17.852,11.962L17.661,12.124L17.47,12.288L17.281,12.452L17.092,12.618L16.904,12.785L16.718,12.954L16.532,13.123L16.347,13.293L16.163,13.465L15.981,13.638L15.799,13.812L15.618,13.987L15.438,14.163L15.259,14.34L15.081,14.519L14.905,14.698L14.729,14.879L14.554,15.061L14.38,15.243L14.207,15.427L14.036,15.612L13.865,15.798L13.696,15.986L13.527,16.174L13.36,16.363L13.193,16.553L13.028,16.745L12.864,16.937L12.7,17.131L12.538,17.325L12.377,17.521L12.217,17.717L12.059,17.915L11.901,18.113L11.744,18.313L11.589,18.514L11.435,18.715L11.281,18.918L11.129,19.121L10.979,19.326L10.829,19.532L10.68,19.738L10.533,19.946L10.386,20.154L10.241,20.363L10.097,20.574L9.954,20.785L9.813,20.997L9.672,21.211L9.533,21.425L9.395,21.64L9.258,21.856L9.123,22.072L8.988,22.29L8.855,22.509L8.723,22.728L8.592,22.949L8.463,23.17L8.335,23.392L8.208,23.616L8.082,23.84L7.957,24.064L7.834,24.29L7.712,24.517L7.591,24.744L7.472,24.972L7.354,25.201L7.237,25.431L7.121,25.662L7.007,25.893L6.894,26.126L6.782,26.359L6.672,26.593L6.563,26.828L6.455,27.063L6.349,27.3L6.243,27.537L6.14,27.775L6.037,28.014L5.936,28.253L5.837,28.493L5.738,28.734L5.641,28.976L5.546,29.218L5.451,29.462L5.358,29.706L5.267,29.95L5.177,30.196L5.088,30.442L5.001,30.689L4.915,30.936L4.83,31.185L4.747,31.434L4.666,31.683L4.585,31.934L4.507,32.185L4.429,32.437L4.353,32.689L4.279,32.942L4.206,33.196L4.134,33.45L4.064,33.705L3.995,33.961L3.928,34.218L3.862,34.475L3.798,34.732L3.735,34.99L3.674,35.249L3.614,35.509L3.556,35.769L3.499,36.03L3.444,36.291L3.39,36.553L3.338,36.815L3.287,37.079L3.238,37.342L3.19,37.607L3.144,37.871L3.1,38.137L3.057,38.403L3.015,38.669L2.975,38.936L2.937,39.204L2.9,39.472L2.865,39.741L2.831,40.01L2.799,40.28L2.769,40.55L2.74,40.821L2.713,41.093L2.687,41.364L2.663,41.637L2.641,41.91L2.62,42.183L2.601,42.457L2.584,42.731L2.568,43.006L2.554,43.281L2.541,43.557L2.53,43.833L2.521,44.11L2.513,44.387L2.508,44.665L2.503,44.943L2.501,45.221L2.5,45.5L2.501,45.779L2.503,46.057L2.508,46.335L2.513,46.613L2.521,46.89L2.53,47.167L2.541,47.443L2.554,47.719L2.568,47.994L2.584,48.269L2.601,48.543L2.62,48.817L2.641,49.09L2.663,49.363L2.687,49.636L2.713,49.907L2.74,50.179L2.769,50.45L2.799,50.72L2.831,50.99L2.865,51.259L2.9,51.528L2.937,51.796L2.975,52.064L3.015,52.331L3.057,52.597L3.1,52.863L3.144,53.129L3.19,53.393L3.238,53.658L3.287,53.921L3.338,54.185L3.39,54.447L3.444,54.709L3.499,54.97L3.556,55.231L3.614,55.491L3.674,55.751L3.735,56.01L3.798,56.268L3.862,56.525L3.928,56.782L3.995,57.039L4.064,57.295L4.134,57.55L4.206,57.804L4.279,58.058L4.353,58.311L4.429,58.563L4.507,58.815L4.585,59.066L4.666,59.317L4.747,59.566L4.83,59.815L4.915,60.064L5.001,60.311L5.088,60.558L5.177,60.804L5.267,61.05L5.358,61.294L5.451,61.538L5.546,61.782L5.641,62.024L5.738,62.266L5.837,62.507L5.936,62.747L6.037,62.986L6.14,63.225L6.243,63.463L6.349,63.7L6.455,63.937L6.563,64.172L6.672,64.407L6.782,64.641L6.894,64.874L7.007,65.107L7.121,65.338L7.237,65.569L7.354,65.799L7.472,66.028L7.591,66.256L7.712,66.483L7.834,66.71L7.957,66.936L8.082,67.16L8.208,67.384L8.335,67.608L8.463,67.83L8.592,68.051L8.723,68.272L8.855,68.491L8.988,68.71L9.123,68.928L9.258,69.144L9.395,69.36L9.533,69.575L9.672,69.789L9.813,70.003L9.954,70.215L10.097,70.426L10.241,70.637L10.386,70.846L10.533,71.054L10.68,71.262L10.829,71.468L10.979,71.674L11.129,71.878L11.281,72.082L11.435,72.285L11.589,72.486L11.744,72.687L11.901,72.887L12.059,73.085L12.217,73.283L12.377,73.479L12.538,73.675L12.7,73.869L12.864,74.063L13.028,74.255L13.193,74.447L13.36,74.637L13.527,74.826L13.696,75.014L13.865,75.202L14.036,75.388L14.207,75.573L14.38,75.757L14.554,75.939L14.729,76.121L14.905,76.302L15.081,76.481L15.259,76.66L15.438,76.837L15.618,77.013L15.799,77.188L15.981,77.362L16.163,77.535L16.347,77.707L16.532,77.877L16.718,78.047L16.904,78.215L17.092,78.382L17.281,78.548L17.47,78.712L17.661,78.876L17.852,79.038L18.045,79.199L18.238,79.359L18.432,79.518L18.628,79.675L18.824,79.832L19.021,79.987L19.219,80.141L19.417,80.293L19.617,80.445L19.818,80.595L20.019,80.744L20.222,80.892L20.425,81.038L20.629,81.183L20.834,81.327L21.04,81.47L21.246,81.611L21.454,81.752L21.662,81.89L21.871,82.028L22.081,82.164L22.292,82.299L22.504,82.433L22.716,82.565L22.93,82.696L23.144,82.826L23.359,82.954L23.574,83.082L23.791,83.207L24.008,83.332L24.226,83.455L24.445,83.576L24.664,83.697L24.885,83.816L25.106,83.933L25.328,84.05L25.55,84.165L25.774,84.278L25.998,84.39L26.223,84.501L26.448,84.61L26.674,84.718L26.901,84.825L27.129,84.93L27.358,85.034L27.587,85.136L27.817,85.237L28.047,85.336L28.278,85.434L28.51,85.531L28.743,85.626L28.976,85.72L29.21,85.812L29.444,85.903L29.68,85.992L29.916,86.08L30.152,86.166L30.389,86.251L30.627,86.335L30.866,86.416L31.105,86.497L31.344,86.576L31.585,86.653L31.826,86.729L32.067,86.804L32.31,86.876L32.552,86.948L32.796,87.018L33.04,87.086L33.284,87.153L33.529,87.218L33.775,87.281L34.022,87.343L34.268,87.404L34.516,87.463L34.764,87.52L35.013,87.576L35.262,87.63L35.511,87.683L35.762,87.734L36.012,87.784L36.264,87.831L36.515,87.878L36.768,87.922L37.021,87.965L37.274,88.007L37.528,88.046L37.782,88.085L38.037,88.121L38.293,88.156L38.549,88.189L38.805,88.221L39.062,88.251L39.319,88.279L39.577,88.305L39.836,88.33L40.094,88.354L40.354,88.375L40.613,88.395L40.874,88.413L41.134,88.43L41.395,88.444L41.657,88.457L41.919,88.469L42.181,88.478L42.444,88.486L42.708,88.492L42.971,88.496L43.235,88.499L43.5,88.5L43.765,88.499L44.029,88.496L44.292,88.492L44.556,88.486L44.819,88.478L45.081,88.469L45.343,88.457L45.605,88.444L45.866,88.43L46.126,88.413L46.387,88.395L46.646,88.375L46.906,88.354L47.164,88.33L47.423,88.305L47.681,88.279L47.938,88.251L48.195,88.221L48.451,88.189L48.707,88.156L48.963,88.121L49.218,88.085L49.472,88.046L49.726,88.007L49.979,87.965L50.232,87.922L50.485,87.878L50.736,87.831L50.988,87.784L51.238,87.734L51.489,87.683L51.738,87.63L51.987,87.576L52.236,87.52L52.484,87.463L52.732,87.404L52.978,87.343L53.225,87.281L53.471,87.218L53.716,87.153L53.96,87.086L54.204,87.018L54.448,86.948L54.69,86.876L54.933,86.804L55.174,86.729L55.415,86.653L55.656,86.576L55.895,86.497L56.134,86.416L56.373,86.335L56.611,86.251L56.848,86.166L57.084,86.08L57.32,85.992L57.556,85.903L57.79,85.812L58.024,85.72L58.257,85.626L58.49,85.531L58.722,85.434L58.953,85.336L59.183,85.237L59.413,85.136L59.642,85.034L59.871,84.93L60.099,84.825L60.326,84.718L60.552,84.61L60.777,84.501L61.002,84.39L61.226,84.278L61.45,84.165L61.672,84.05L61.894,83.933L62.115,83.816L62.336,83.697L62.555,83.576L62.774,83.455L62.992,83.332L63.209,83.207L63.426,83.082L63.641,82.954L63.856,82.826L64.07,82.696L64.284,82.565L64.496,82.433L64.708,82.299L64.919,82.164L65.129,82.028L65.338,81.89L65.546,81.752L65.754,81.611L65.96,81.47L66.166,81.327L66.371,81.183L66.575,81.038L66.778,80.892L66.981,80.744L67.182,80.595L67.383,80.445L67.583,80.293L67.781,80.141L67.979,79.987L68.176,79.832L68.372,79.675L68.568,79.518L68.762,79.359L68.955,79.199L69.148,79.038L69.339,78.876L69.53,78.712L69.719,78.548L69.908,78.382L70.096,78.215L70.282,78.047L70.468,77.877L70.653,77.707L70.837,77.535L71.019,77.362L71.201,77.188L71.382,77.013L71.562,76.837L71.741,76.66L71.919,76.481L72.095,76.302L72.271,76.121L72.446,75.939L72.62,75.757L72.793,75.573L72.964,75.388L73.135,75.202L73.304,75.014L73.473,74.826L73.64,74.637L73.807,74.447L73.972,74.255L74.136,74.063L74.3,73.869L74.462,73.675L74.623,73.479L74.783,73.283L74.941,73.085L75.099,72.887L75.256,72.687L75.411,72.486L75.565,72.285L75.719,72.082L75.871,71.878L76.021,71.674L76.171,71.468L76.32,71.262L76.467,71.054L76.614,70.846L76.759,70.637L76.903,70.426L77.046,70.215L77.187,70.003L77.328,69.789L77.467,69.575L77.605,69.36L77.742,69.144L77.877,68.928L78.012,68.71L78.145,68.491L78.277,68.272L78.408,68.051L78.537,67.83L78.665,67.608L78.792,67.384L78.918,67.16L79.043,66.936L79.166,66.71L79.288,66.483L79.409,66.256L79.528,66.028L79.646,65.799L79.763,65.569L79.879,65.338L79.993,65.107L80.106,64.874L80.218,64.641L80.328,64.407L80.437,64.172L80.545,63.937L80.651,63.7L80.757,63.463L80.86,63.225L80.963,62.987L81.064,62.747L81.163,62.507L81.262,62.266L81.359,62.024L81.454,61.781L81.549,61.538L81.642,61.294L81.733,61.05L81.823,60.804L81.912,60.558L81.999,60.311L82.085,60.064L82.17,59.815L82.253,59.566L82.334,59.317L82.415,59.066L82.493,58.815L82.571,58.563L82.647,58.311L82.721,58.058L82.794,57.804L82.866,57.55L82.936,57.295L83.005,57.039L83.072,56.783L83.138,56.525L83.202,56.268L83.265,56.01L83.326,55.751L83.386,55.491L83.444,55.231L83.501,54.97L83.556,54.709L83.61,54.447L83.662,54.184L83.713,53.921L83.762,53.658L83.81,53.393L83.856,53.129L83.9,52.863L83.943,52.597L83.985,52.331L84.025,52.064L84.063,51.796L84.1,51.528L84.135,51.259L84.169,50.99L84.201,50.72L84.231,50.45L84.26,50.179L84.287,49.907L84.313,49.636L84.337,49.363L84.359,49.09L84.38,48.817L84.399,48.543L84.416,48.269L84.432,47.994L84.446,47.719L84.459,47.443L84.47,47.167L84.479,46.89L84.487,46.613L84.492,46.335L84.497,46.057L84.499,45.779L84.5,45.5L84.499,45.221L84.497,44.943L84.492,44.665L84.487,44.387L84.479,44.11L84.47,43.833L84.459,43.557L84.446,43.281L84.432,43.006L84.416,42.731L84.399,42.457L84.38,42.183L84.359,41.91L84.337,41.637L84.313,41.364L84.287,41.093L84.26,40.821L84.231,40.55L84.201,40.28L84.169,40.01L84.135,39.741L84.1,39.472L84.063,39.204L84.025,38.936L83.985,38.669L83.943,38.403L83.9,38.137L83.856,37.871L83.81,37.607L83.762,37.342L83.713,37.079L83.662,36.816L83.61,36.553L83.556,36.291L83.501,36.03L83.444,35.769L83.386,35.509L83.326,35.249L83.265,34.99L83.202,34.732L83.138,34.475L83.072,34.218L83.005,33.961L82.936,33.705L82.866,33.45L82.794,33.196L82.721,32.942L82.647,32.689L82.571,32.437L82.493,32.185L82.415,31.934L82.334,31.683L82.253,31.434L82.17,31.185L82.085,30.936L81.999,30.689L81.912,30.442L81.823,30.196L81.733,29.95L81.642,29.706L81.549,29.462L81.454,29.219L81.359,28.976L81.262,28.734L81.163,28.493L81.064,28.253L80.963,28.013L80.86,27.775L80.757,27.537L80.651,27.3L80.545,27.063L80.437,26.828L80.328,26.593L80.218,26.359L80.106,26.126L79.993,25.893L79.879,25.662L79.763,25.431L79.646,25.201L79.528,24.972L79.409,24.744L79.288,24.517L79.166,24.29L79.043,24.064L78.918,23.84L78.792,23.616L78.665,23.392L78.537,23.17L78.408,22.949L78.277,22.728L78.145,22.509L78.012,22.29L77.877,22.072L77.742,21.856L77.605,21.64L77.467,21.425L77.328,21.211L77.187,20.997L77.046,20.785L76.903,20.574L76.759,20.363L76.614,20.154L76.467,19.946L76.32,19.738L76.171,19.532L76.021,19.326L75.871,19.121L75.719,18.918L75.565,18.715L75.411,18.514L75.256,18.313L75.099,18.113L74.941,17.915L74.783,17.717L74.623,17.521L74.462,17.325L74.3,17.131L74.136,16.937L73.972,16.745L73.807,16.553L73.64,16.363L73.473,16.174L73.304,15.986L73.135,15.798L72.964,15.612L72.793,15.427L72.62,15.243L72.446,15.061L72.271,14.879L72.095,14.698L71.919,14.519L71.741,14.34L71.562,14.163L71.382,13.987L71.201,13.812L71.019,13.638L70.837,13.465L70.653,13.293L70.468,13.123L70.282,12.954L70.096,12.785L69.908,12.618L69.719,12.452L69.53,12.288L69.339,12.124L69.148,11.962L68.955,11.801L68.762,11.641L68.568,11.482L68.372,11.325L68.176,11.168L67.979,11.013L67.781,10.859L67.583,10.707L67.383,10.555L67.182,10.405L66.981,10.256L66.778,10.108L66.575,9.962L66.371,9.817L66.166,9.673L65.96,9.53L65.754,9.389L65.546,9.248L65.338,9.11L65.129,8.972L64.919,8.836L64.708,8.701L64.496,8.567L64.284,8.435L64.07,8.304L63.856,8.174L63.641,8.046L63.426,7.918L63.209,7.793L62.992,7.668L62.774,7.545L62.555,7.424L62.336,7.303L62.115,7.184L61.894,7.067L61.672,6.95L61.45,6.835L61.226,6.722L61.002,6.61L60.777,6.499L60.552,6.39L60.326,6.282L60.099,6.175L59.871,6.07L59.642,5.966L59.413,5.864L59.183,5.763L58.953,5.664L58.722,5.566L58.49,5.469L58.257,5.374L58.024,5.28L57.79,5.188L57.556,5.097L57.32,5.008L57.084,4.92L56.848,4.834L56.611,4.749L56.373,4.665L56.134,4.584L55.895,4.503L55.656,4.424L55.415,4.347L55.174,4.271L54.933,4.196L54.69,4.124L54.448,4.052L54.204,3.982L53.96,3.914L53.716,3.847L53.471,3.782L53.225,3.719L52.978,3.657L52.732,3.596L52.484,3.537L52.236,3.48L51.987,3.424L51.738,3.37L51.489,3.317L51.238,3.266L50.988,3.216L50.736,3.169L50.485,3.122L50.232,3.078L49.979,3.035L49.726,2.993L49.472,2.954L49.218,2.915L48.963,2.879L48.707,2.844L48.451,2.811L48.195,2.779L47.938,2.749L47.681,2.721L47.423,2.695L47.164,2.67L46.906,2.646L46.646,2.625L46.387,2.605L46.126,2.587L45.866,2.57L45.605,2.556L45.343,2.543L45.081,2.531L44.819,2.522L44.556,2.514L44.292,2.508L44.029,2.504L43.765,2.501L43.5,2.5L43.235,2.501Z" style="fill:white;"/>
        </g>
        <g id="Oval-1-Copy-2" transform="matrix(1.01334,0,0,1.01334,-0.480624,-0.498554)">
            <path d="M43.939,2.918L44.202,2.921L44.465,2.925L44.727,2.932L44.988,2.939L45.25,2.949L45.511,2.96L45.771,2.973L46.031,2.988L46.291,3.004L46.55,3.022L46.809,3.042L47.067,3.063L47.325,3.087L47.583,3.111L47.84,3.138L48.096,3.166L48.352,3.196L48.608,3.227L48.863,3.26L49.118,3.295L49.372,3.331L49.626,3.37L49.879,3.409L50.131,3.45L50.384,3.493L50.635,3.538L50.886,3.584L51.137,3.632L51.387,3.681L51.637,3.732L51.886,3.784L52.134,3.839L52.382,3.894L52.629,3.951L52.876,4.01L53.122,4.071L53.368,4.132L53.613,4.196L53.857,4.261L54.101,4.327L54.344,4.396L54.587,4.465L54.829,4.536L55.071,4.609L55.311,4.683L55.552,4.759L55.791,4.836L56.03,4.915L56.268,4.995L56.506,5.076L56.743,5.159L56.979,5.244L57.215,5.33L57.45,5.418L57.684,5.506L57.918,5.597L58.151,5.689L58.383,5.782L58.615,5.877L58.846,5.973L59.076,6.071L59.305,6.17L59.534,6.27L59.762,6.372L59.99,6.475L60.216,6.58L60.442,6.686L60.667,6.793L60.892,6.902L61.115,7.012L61.338,7.124L61.56,7.237L61.782,7.351L62.002,7.466L62.222,7.583L62.441,7.702L62.659,7.821L62.877,7.942L63.094,8.065L63.309,8.188L63.524,8.313L63.739,8.439L63.952,8.567L64.165,8.696L64.377,8.826L64.588,8.957L64.798,9.09L65.007,9.224L65.216,9.359L65.423,9.496L65.63,9.634L65.836,9.773L66.041,9.913L66.245,10.055L66.448,10.197L66.651,10.341L66.852,10.487L67.053,10.633L67.253,10.781L67.452,10.93L67.65,11.08L67.847,11.231L68.043,11.384L68.238,11.537L68.432,11.692L68.626,11.848L68.818,12.006L69.01,12.164L69.2,12.324L69.39,12.484L69.579,12.646L69.766,12.809L69.953,12.974L70.139,13.139L70.324,13.305L70.508,13.473L70.691,13.642L70.872,13.812L71.053,13.983L71.233,14.155L71.412,14.328L71.59,14.502L71.767,14.678L71.943,14.854L72.118,15.032L72.292,15.21L72.464,15.39L72.636,15.571L72.807,15.752L72.977,15.935L73.145,16.119L73.313,16.304L73.48,16.49L73.645,16.677L73.809,16.865L73.973,17.054L74.135,17.245L74.296,17.436L74.456,17.628L74.615,17.821L74.773,18.015L74.93,18.21L75.086,18.406L75.24,18.604L75.394,18.802L75.546,19.001L75.698,19.201L75.848,19.402L75.997,19.604L76.144,19.807L76.291,20.01L76.437,20.215L76.581,20.421L76.724,20.628L76.866,20.835L77.007,21.044L77.147,21.253L77.286,21.463L77.423,21.675L77.559,21.887L77.694,22.1L77.828,22.314L77.961,22.529L78.092,22.744L78.222,22.961L78.351,23.178L78.479,23.397L78.605,23.616L78.731,23.836L78.855,24.057L78.977,24.278L79.099,24.501L79.219,24.724L79.338,24.948L79.456,25.173L79.572,25.399L79.688,25.626L79.802,25.853L79.914,26.082L80.026,26.311L80.136,26.541L80.245,26.771L80.352,27.003L80.458,27.235L80.563,27.468L80.667,27.701L80.769,27.936L80.87,28.171L80.97,28.407L81.068,28.644L81.165,28.881L81.26,29.12L81.355,29.358L81.447,29.598L81.539,29.838L81.629,30.08L81.718,30.321L81.805,30.564L81.891,30.807L81.976,31.051L82.059,31.296L82.141,31.541L82.221,31.787L82.3,32.033L82.378,32.281L82.454,32.528L82.529,32.777L82.602,33.026L82.674,33.276L82.745,33.527L82.814,33.778L82.882,34.03L82.948,34.282L83.012,34.535L83.076,34.789L83.137,35.043L83.198,35.298L83.257,35.553L83.314,35.809L83.37,36.066L83.424,36.323L83.477,36.581L83.529,36.839L83.578,37.098L83.627,37.357L83.674,37.617L83.719,37.878L83.763,38.139L83.805,38.4L83.846,38.662L83.885,38.925L83.923,39.188L83.959,39.452L83.994,39.716L84.027,39.981L84.058,40.246L84.088,40.512L84.116,40.778L84.143,41.045L84.168,41.312L84.192,41.579L84.214,41.847L84.234,42.116L84.253,42.385L84.27,42.654L84.286,42.924L84.299,43.194L84.312,43.465L84.322,43.736L84.332,44.008L84.339,44.28L84.345,44.552L84.349,44.825L84.351,45.098L84.352,45.372L84.351,45.645L84.349,45.919L84.345,46.191L84.339,46.464L84.332,46.736L84.322,47.007L84.312,47.279L84.299,47.549L84.286,47.82L84.27,48.089L84.253,48.359L84.234,48.628L84.214,48.896L84.192,49.164L84.168,49.432L84.143,49.699L84.116,49.966L84.088,50.232L84.058,50.498L84.027,50.763L83.994,51.028L83.959,51.292L83.923,51.555L83.885,51.819L83.846,52.081L83.805,52.343L83.763,52.605L83.719,52.866L83.674,53.127L83.627,53.387L83.578,53.646L83.529,53.905L83.477,54.163L83.424,54.421L83.37,54.678L83.314,54.935L83.257,55.191L83.198,55.446L83.137,55.701L83.076,55.955L83.012,56.209L82.948,56.462L82.882,56.714L82.814,56.966L82.745,57.217L82.674,57.468L82.602,57.718L82.529,57.967L82.454,58.215L82.378,58.463L82.3,58.71L82.221,58.957L82.141,59.203L82.059,59.448L81.976,59.693L81.891,59.937L81.805,60.18L81.718,60.422L81.629,60.664L81.539,60.905L81.447,61.146L81.355,61.385L81.26,61.624L81.165,61.862L81.068,62.1L80.97,62.337L80.87,62.573L80.769,62.808L80.667,63.042L80.563,63.276L80.458,63.509L80.352,63.741L80.245,63.973L80.136,64.203L80.026,64.433L79.914,64.662L79.802,64.89L79.688,65.118L79.572,65.345L79.456,65.57L79.338,65.795L79.219,66.02L79.099,66.243L78.977,66.465L78.855,66.687L78.731,66.908L78.605,67.128L78.479,67.347L78.351,67.565L78.222,67.783L78.092,68L77.961,68.215L77.828,68.43L77.694,68.644L77.559,68.857L77.423,69.069L77.286,69.28L77.147,69.491L77.007,69.7L76.866,69.909L76.724,70.116L76.581,70.323L76.437,70.529L76.291,70.733L76.144,70.937L75.997,71.14L75.848,71.342L75.698,71.543L75.546,71.743L75.394,71.942L75.24,72.14L75.086,72.337L74.93,72.533L74.773,72.729L74.615,72.923L74.456,73.116L74.296,73.308L74.135,73.499L73.973,73.689L73.809,73.878L73.645,74.066L73.48,74.254L73.313,74.44L73.145,74.624L72.977,74.808L72.807,74.991L72.636,75.173L72.464,75.354L72.292,75.534L72.118,75.712L71.943,75.89L71.767,76.066L71.59,76.242L71.412,76.416L71.233,76.589L71.053,76.761L70.873,76.932L70.691,77.102L70.508,77.271L70.324,77.438L70.139,77.605L69.953,77.77L69.766,77.934L69.579,78.097L69.39,78.259L69.2,78.42L69.01,78.58L68.818,78.738L68.626,78.895L68.432,79.051L68.238,79.206L68.043,79.36L67.847,79.513L67.65,79.664L67.452,79.814L67.253,79.963L67.053,80.111L66.852,80.257L66.651,80.402L66.448,80.546L66.245,80.689L66.041,80.831L65.836,80.971L65.63,81.11L65.423,81.248L65.216,81.384L65.007,81.52L64.798,81.654L64.588,81.786L64.377,81.918L64.165,82.048L63.952,82.177L63.739,82.304L63.524,82.431L63.309,82.556L63.093,82.679L62.877,82.802L62.659,82.922L62.441,83.042L62.222,83.16L62.002,83.277L61.782,83.393L61.56,83.507L61.338,83.62L61.115,83.732L60.892,83.842L60.667,83.951L60.442,84.058L60.216,84.164L59.99,84.269L59.762,84.372L59.534,84.474L59.305,84.574L59.076,84.673L58.846,84.771L58.615,84.867L58.383,84.962L58.151,85.055L57.918,85.147L57.684,85.237L57.45,85.326L57.215,85.414L56.979,85.5L56.743,85.584L56.506,85.667L56.268,85.749L56.03,85.829L55.791,85.908L55.552,85.985L55.311,86.061L55.071,86.135L54.829,86.207L54.587,86.279L54.344,86.348L54.101,86.416L53.857,86.483L53.613,86.548L53.368,86.611L53.122,86.673L52.876,86.734L52.629,86.792L52.382,86.85L52.134,86.905L51.886,86.959L51.637,87.012L51.387,87.063L51.137,87.112L50.886,87.16L50.635,87.206L50.384,87.25L50.131,87.293L49.879,87.335L49.626,87.374L49.372,87.412L49.118,87.449L48.863,87.483L48.608,87.517L48.352,87.548L48.096,87.578L47.84,87.606L47.583,87.632L47.325,87.657L47.067,87.68L46.809,87.702L46.55,87.722L46.291,87.74L46.031,87.756L45.771,87.771L45.511,87.784L45.25,87.795L44.988,87.804L44.727,87.812L44.465,87.818L44.202,87.823L43.939,87.825L43.676,87.826L43.413,87.825L43.15,87.823L42.887,87.818L42.625,87.812L42.364,87.804L42.102,87.795L41.842,87.784L41.581,87.771L41.321,87.756L41.061,87.74L40.802,87.722L40.543,87.702L40.285,87.68L40.027,87.657L39.77,87.632L39.512,87.606L39.256,87.578L39,87.548L38.744,87.517L38.489,87.483L38.234,87.449L37.98,87.412L37.727,87.374L37.473,87.335L37.221,87.293L36.969,87.25L36.717,87.206L36.466,87.16L36.215,87.112L35.965,87.063L35.716,87.012L35.467,86.959L35.218,86.905L34.97,86.85L34.723,86.792L34.476,86.734L34.23,86.673L33.984,86.611L33.739,86.548L33.495,86.483L33.251,86.416L33.008,86.348L32.765,86.279L32.523,86.207L32.282,86.135L32.041,86.061L31.801,85.985L31.561,85.908L31.322,85.829L31.084,85.749L30.846,85.667L30.609,85.584L30.373,85.5L30.137,85.414L29.902,85.326L29.668,85.237L29.434,85.147L29.201,85.055L28.969,84.962L28.737,84.867L28.506,84.771L28.276,84.673L28.047,84.574L27.818,84.474L27.59,84.372L27.363,84.269L27.136,84.164L26.91,84.058L26.685,83.951L26.461,83.842L26.237,83.732L26.014,83.62L25.792,83.507L25.571,83.393L25.35,83.277L25.13,83.16L24.911,83.042L24.693,82.922L24.475,82.802L24.259,82.679L24.043,82.556L23.828,82.431L23.613,82.304L23.4,82.177L23.187,82.048L22.975,81.918L22.764,81.786L22.554,81.654L22.345,81.52L22.137,81.384L21.929,81.248L21.722,81.11L21.516,80.971L21.311,80.831L21.107,80.689L20.904,80.546L20.701,80.402L20.5,80.257L20.299,80.111L20.099,79.963L19.9,79.814L19.702,79.664L19.505,79.513L19.309,79.36L19.114,79.206L18.92,79.051L18.726,78.895L18.534,78.738L18.342,78.58L18.152,78.42L17.962,78.259L17.773,78.097L17.586,77.934L17.399,77.77L17.213,77.605L17.028,77.438L16.844,77.271L16.662,77.102L16.48,76.932L16.299,76.761L16.119,76.589L15.94,76.416L15.762,76.242L15.585,76.066L15.409,75.89L15.234,75.712L15.061,75.534L14.888,75.354L14.716,75.173L14.545,74.991L14.375,74.808L14.207,74.624L14.039,74.44L13.873,74.253L13.707,74.066L13.543,73.878L13.379,73.689L13.217,73.499L13.056,73.308L12.896,73.116L12.737,72.923L12.579,72.729L12.422,72.533L12.266,72.337L12.112,72.14L11.958,71.942L11.806,71.743L11.655,71.543L11.504,71.342L11.356,71.14L11.208,70.937L11.061,70.733L10.915,70.529L10.771,70.323L10.628,70.116L10.486,69.909L10.345,69.7L10.205,69.491L10.067,69.28L9.929,69.069L9.793,68.857L9.658,68.644L9.524,68.43L9.392,68.215L9.26,67.999L9.13,67.783L9.001,67.565L8.873,67.347L8.747,67.128L8.622,66.908L8.498,66.687L8.375,66.465L8.253,66.243L8.133,66.02L8.014,65.795L7.896,65.57L7.78,65.345L7.664,65.118L7.55,64.89L7.438,64.662L7.326,64.433L7.216,64.203L7.107,63.973L7,63.741L6.894,63.509L6.789,63.276L6.685,63.042L6.583,62.808L6.482,62.573L6.383,62.337L6.284,62.1L6.187,61.862L6.092,61.624L5.998,61.385L5.905,61.146L5.813,60.905L5.723,60.664L5.634,60.422L5.547,60.18L5.461,59.937L5.376,59.693L5.293,59.448L5.211,59.203L5.131,58.957L5.052,58.71L4.974,58.463L4.898,58.215L4.823,57.967L4.75,57.717L4.678,57.468L4.607,57.217L4.538,56.966L4.471,56.714L4.404,56.462L4.34,56.209L4.277,55.955L4.215,55.701L4.154,55.446L4.096,55.191L4.038,54.935L3.982,54.678L3.928,54.421L3.875,54.163L3.824,53.905L3.774,53.646L3.725,53.387L3.678,53.127L3.633,52.866L3.589,52.605L3.547,52.343L3.506,52.081L3.467,51.819L3.429,51.555L3.393,51.292L3.359,51.028L3.326,50.763L3.294,50.498L3.264,50.232L3.236,49.966L3.209,49.699L3.184,49.432L3.16,49.164L3.139,48.896L3.118,48.628L3.099,48.359L3.082,48.089L3.067,47.82L3.053,47.549L3.04,47.279L3.03,47.007L3.021,46.736L3.013,46.464L3.007,46.191L3.003,45.919L3.001,45.645L3,45.372L3.001,45.098L3.003,44.825L3.007,44.552L3.013,44.28L3.021,44.008L3.03,43.736L3.04,43.465L3.053,43.194L3.067,42.924L3.082,42.654L3.099,42.385L3.118,42.116L3.139,41.847L3.16,41.579L3.184,41.312L3.209,41.045L3.236,40.778L3.264,40.512L3.294,40.246L3.326,39.981L3.359,39.716L3.393,39.452L3.429,39.188L3.467,38.925L3.506,38.662L3.547,38.4L3.589,38.139L3.633,37.878L3.678,37.617L3.725,37.357L3.774,37.098L3.824,36.839L3.875,36.581L3.928,36.323L3.982,36.066L4.038,35.809L4.096,35.553L4.154,35.298L4.215,35.043L4.277,34.789L4.34,34.535L4.404,34.282L4.471,34.03L4.538,33.778L4.607,33.527L4.678,33.276L4.75,33.026L4.823,32.777L4.898,32.528L4.974,32.281L5.052,32.033L5.131,31.787L5.211,31.541L5.293,31.296L5.376,31.051L5.461,30.807L5.547,30.564L5.634,30.321L5.723,30.08L5.813,29.838L5.905,29.598L5.998,29.358L6.092,29.12L6.187,28.881L6.284,28.644L6.383,28.407L6.482,28.171L6.583,27.936L6.685,27.701L6.789,27.468L6.894,27.235L7,27.003L7.107,26.771L7.216,26.541L7.326,26.311L7.438,26.082L7.55,25.853L7.664,25.626L7.78,25.399L7.896,25.173L8.014,24.948L8.133,24.724L8.253,24.501L8.375,24.278L8.498,24.057L8.622,23.836L8.747,23.616L8.873,23.397L9.001,23.178L9.13,22.961L9.26,22.744L9.392,22.529L9.524,22.314L9.658,22.1L9.793,21.887L9.929,21.675L10.067,21.463L10.205,21.253L10.345,21.044L10.486,20.835L10.628,20.628L10.771,20.421L10.915,20.215L11.061,20.01L11.208,19.807L11.356,19.604L11.504,19.402L11.655,19.201L11.806,19.001L11.958,18.802L12.112,18.604L12.266,18.406L12.422,18.21L12.579,18.015L12.737,17.821L12.896,17.628L13.056,17.436L13.217,17.245L13.379,17.054L13.543,16.865L13.707,16.677L13.873,16.49L14.039,16.304L14.207,16.119L14.375,15.935L14.545,15.752L14.716,15.571L14.888,15.39L15.061,15.21L15.234,15.032L15.409,14.854L15.585,14.678L15.762,14.502L15.94,14.328L16.119,14.155L16.299,13.983L16.48,13.812L16.662,13.642L16.844,13.473L17.028,13.305L17.213,13.139L17.399,12.974L17.586,12.809L17.773,12.646L17.962,12.484L18.152,12.324L18.342,12.164L18.534,12.006L18.726,11.848L18.92,11.692L19.114,11.537L19.309,11.384L19.505,11.231L19.702,11.08L19.9,10.93L20.099,10.781L20.299,10.633L20.5,10.487L20.701,10.341L20.904,10.197L21.107,10.055L21.311,9.913L21.516,9.773L21.722,9.634L21.929,9.496L22.137,9.359L22.345,9.224L22.554,9.09L22.765,8.957L22.975,8.826L23.187,8.696L23.4,8.567L23.613,8.439L23.828,8.313L24.043,8.188L24.259,8.065L24.475,7.942L24.693,7.821L24.911,7.702L25.13,7.583L25.35,7.466L25.571,7.351L25.792,7.237L26.014,7.124L26.237,7.012L26.461,6.902L26.685,6.793L26.91,6.686L27.136,6.58L27.363,6.475L27.59,6.372L27.818,6.27L28.047,6.17L28.276,6.071L28.506,5.973L28.737,5.877L28.969,5.782L29.201,5.689L29.434,5.597L29.668,5.506L29.902,5.418L30.137,5.33L30.373,5.244L30.609,5.159L30.846,5.076L31.084,4.995L31.322,4.915L31.561,4.836L31.801,4.759L32.041,4.683L32.282,4.609L32.523,4.536L32.765,4.465L33.008,4.396L33.251,4.327L33.495,4.261L33.739,4.196L33.984,4.132L34.23,4.071L34.476,4.01L34.723,3.951L34.97,3.894L35.218,3.839L35.467,3.784L35.716,3.732L35.965,3.681L36.215,3.632L36.466,3.584L36.717,3.538L36.969,3.493L37.221,3.45L37.473,3.409L37.727,3.37L37.98,3.331L38.234,3.295L38.489,3.26L38.744,3.227L39,3.196L39.256,3.166L39.512,3.138L39.77,3.111L40.027,3.087L40.285,3.063L40.543,3.042L40.802,3.022L41.061,3.004L41.321,2.988L41.581,2.973L41.842,2.96L42.102,2.949L42.364,2.939L42.625,2.932L42.888,2.925L43.15,2.921L43.413,2.918L43.676,2.918L43.939,2.918ZM43.439,6.918L43.203,6.921L42.967,6.925L42.732,6.93L42.496,6.937L42.262,6.946L42.027,6.956L41.793,6.967L41.559,6.981L41.326,6.995L41.093,7.012L40.861,7.029L40.629,7.049L40.397,7.069L40.166,7.092L39.936,7.115L39.705,7.141L39.475,7.167L39.246,7.196L39.017,7.225L38.788,7.257L38.56,7.289L38.333,7.323L38.105,7.359L37.879,7.396L37.652,7.435L37.427,7.474L37.201,7.516L36.976,7.559L36.752,7.603L36.528,7.649L36.305,7.696L36.082,7.744L35.859,7.794L35.637,7.846L35.416,7.898L35.195,7.952L34.975,8.008L34.755,8.065L34.535,8.123L34.316,8.183L34.098,8.244L33.88,8.307L33.663,8.37L33.446,8.436L33.23,8.502L33.015,8.57L32.8,8.639L32.585,8.71L32.371,8.782L32.158,8.855L31.945,8.93L31.733,9.006L31.521,9.083L31.31,9.162L31.099,9.242L30.89,9.323L30.68,9.405L30.472,9.489L30.264,9.574L30.056,9.661L29.849,9.748L29.643,9.837L29.437,9.928L29.232,10.019L29.028,10.112L28.824,10.206L28.621,10.301L28.419,10.398L28.217,10.496L28.016,10.595L27.815,10.695L27.615,10.797L27.416,10.899L27.218,11.004L27.02,11.109L26.823,11.215L26.626,11.323L26.431,11.432L26.236,11.542L26.041,11.653L25.848,11.766L25.655,11.879L25.462,11.994L25.271,12.11L25.08,12.228L24.89,12.346L24.701,12.466L24.512,12.586L24.324,12.708L24.137,12.831L23.951,12.955L23.765,13.081L23.58,13.207L23.396,13.335L23.213,13.464L23.03,13.594L22.848,13.725L22.667,13.857L22.487,13.99L22.308,14.124L22.129,14.26L21.951,14.396L21.774,14.534L21.598,14.673L21.423,14.813L21.248,14.953L21.074,15.095L20.901,15.239L20.729,15.383L20.558,15.528L20.387,15.674L20.218,15.821L20.049,15.97L19.881,16.119L19.714,16.27L19.548,16.421L19.383,16.574L19.218,16.727L19.055,16.882L18.892,17.037L18.731,17.194L18.57,17.351L18.41,17.51L18.251,17.669L18.093,17.83L17.935,17.992L17.779,18.154L17.624,18.318L17.469,18.482L17.316,18.648L17.163,18.814L17.011,18.981L16.861,19.15L16.711,19.319L16.562,19.489L16.414,19.66L16.267,19.832L16.121,20.005L15.976,20.179L15.832,20.354L15.689,20.53L15.547,20.707L15.406,20.884L15.266,21.063L15.127,21.242L14.989,21.423L14.852,21.604L14.716,21.786L14.581,21.969L14.447,22.153L14.315,22.337L14.183,22.523L14.052,22.709L13.922,22.897L13.793,23.085L13.666,23.274L13.539,23.463L13.413,23.654L13.289,23.845L13.165,24.038L13.043,24.231L12.922,24.425L12.802,24.62L12.683,24.815L12.565,25.011L12.448,25.209L12.332,25.406L12.217,25.605L12.103,25.805L11.991,26.005L11.88,26.206L11.769,26.408L11.66,26.61L11.552,26.814L11.446,27.018L11.34,27.223L11.235,27.428L11.132,27.635L11.03,27.842L10.929,28.049L10.829,28.258L10.73,28.467L10.633,28.677L10.536,28.888L10.441,29.099L10.347,29.311L10.254,29.524L10.163,29.737L10.072,29.951L9.983,30.166L9.895,30.382L9.809,30.598L9.723,30.815L9.639,31.032L9.556,31.25L9.474,31.469L9.393,31.689L9.314,31.909L9.236,32.13L9.159,32.351L9.084,32.573L9.009,32.796L8.936,33.019L8.865,33.243L8.794,33.467L8.725,33.692L8.657,33.918L8.59,34.144L8.525,34.371L8.461,34.599L8.398,34.827L8.337,35.055L8.277,35.285L8.218,35.515L8.161,35.745L8.104,35.976L8.05,36.207L7.996,36.439L7.944,36.672L7.893,36.905L7.844,37.139L7.796,37.373L7.749,37.608L7.704,37.843L7.66,38.079L7.617,38.315L7.576,38.552L7.536,38.789L7.498,39.027L7.461,39.265L7.425,39.504L7.391,39.743L7.358,39.983L7.326,40.223L7.296,40.464L7.268,40.705L7.241,40.947L7.215,41.189L7.19,41.432L7.168,41.675L7.146,41.918L7.126,42.162L7.108,42.407L7.091,42.651L7.075,42.897L7.061,43.142L7.048,43.388L7.037,43.635L7.027,43.882L7.019,44.129L7.012,44.377L7.007,44.625L7.003,44.874L7.001,45.123L7,45.372L7.001,45.621L7.003,45.87L7.007,46.119L7.012,46.367L7.019,46.615L7.027,46.862L7.037,47.109L7.048,47.355L7.061,47.601L7.075,47.847L7.091,48.092L7.108,48.337L7.126,48.582L7.146,48.826L7.168,49.069L7.19,49.312L7.215,49.555L7.241,49.797L7.268,50.039L7.296,50.28L7.326,50.52L7.358,50.761L7.391,51L7.425,51.24L7.461,51.479L7.498,51.717L7.536,51.955L7.576,52.192L7.617,52.429L7.66,52.665L7.704,52.901L7.749,53.136L7.796,53.371L7.844,53.605L7.893,53.839L7.944,54.072L7.996,54.304L8.05,54.536L8.104,54.768L8.161,54.999L8.218,55.229L8.277,55.459L8.337,55.688L8.398,55.917L8.461,56.145L8.525,56.372L8.59,56.599L8.657,56.826L8.725,57.051L8.794,57.276L8.865,57.501L8.936,57.725L9.009,57.948L9.084,58.171L9.159,58.393L9.236,58.614L9.314,58.835L9.393,59.055L9.474,59.274L9.556,59.493L9.639,59.711L9.723,59.929L9.809,60.146L9.895,60.362L9.983,60.577L10.072,60.792L10.163,61.006L10.254,61.22L10.347,61.433L10.441,61.645L10.536,61.856L10.633,62.067L10.73,62.277L10.829,62.486L10.929,62.694L11.03,62.902L11.132,63.109L11.235,63.316L11.34,63.521L11.446,63.726L11.552,63.93L11.66,64.133L11.769,64.336L11.88,64.538L11.991,64.739L12.103,64.939L12.217,65.139L12.332,65.337L12.448,65.535L12.565,65.732L12.683,65.929L12.802,66.124L12.922,66.319L13.043,66.513L13.165,66.706L13.289,66.898L13.413,67.09L13.539,67.28L13.666,67.47L13.793,67.659L13.922,67.847L14.052,68.035L14.183,68.221L14.315,68.406L14.447,68.591L14.581,68.775L14.716,68.958L14.852,69.14L14.989,69.321L15.127,69.501L15.266,69.681L15.406,69.859L15.547,70.037L15.689,70.214L15.832,70.389L15.976,70.564L16.121,70.738L16.267,70.911L16.414,71.083L16.562,71.255L16.711,71.425L16.861,71.594L17.011,71.762L17.163,71.93L17.316,72.096L17.469,72.262L17.624,72.426L17.779,72.59L17.935,72.752L18.093,72.914L18.251,73.074L18.41,73.234L18.57,73.392L18.731,73.55L18.892,73.707L19.055,73.862L19.218,74.017L19.383,74.17L19.548,74.323L19.714,74.474L19.881,74.625L20.049,74.774L20.218,74.922L20.387,75.07L20.558,75.216L20.729,75.361L20.901,75.505L21.074,75.648L21.248,75.79L21.423,75.931L21.598,76.071L21.774,76.21L21.951,76.347L22.129,76.484L22.308,76.619L22.487,76.754L22.667,76.887L22.848,77.019L23.03,77.15L23.213,77.28L23.396,77.409L23.58,77.537L23.765,77.663L23.951,77.788L24.137,77.913L24.324,78.036L24.512,78.158L24.701,78.278L24.89,78.398L25.08,78.516L25.271,78.633L25.462,78.75L25.655,78.864L25.848,78.978L26.041,79.091L26.236,79.202L26.431,79.312L26.626,79.421L26.823,79.529L27.02,79.635L27.218,79.74L27.416,79.844L27.615,79.947L27.815,80.049L28.016,80.149L28.217,80.248L28.419,80.346L28.621,80.442L28.824,80.538L29.028,80.632L29.232,80.725L29.437,80.816L29.643,80.906L29.849,80.995L30.056,81.083L30.263,81.17L30.472,81.255L30.68,81.338L30.89,81.421L31.099,81.502L31.31,81.582L31.521,81.661L31.733,81.738L31.945,81.814L32.158,81.889L32.371,81.962L32.585,82.034L32.8,82.104L33.015,82.174L33.23,82.242L33.446,82.308L33.663,82.373L33.88,82.437L34.098,82.5L34.316,82.561L34.535,82.62L34.755,82.679L34.975,82.736L35.195,82.791L35.416,82.845L35.637,82.898L35.859,82.95L36.082,83L36.305,83.048L36.528,83.095L36.752,83.141L36.976,83.185L37.201,83.228L37.427,83.269L37.652,83.309L37.879,83.348L38.105,83.385L38.333,83.42L38.56,83.455L38.788,83.487L39.017,83.518L39.246,83.548L39.475,83.576L39.705,83.603L39.936,83.628L40.166,83.652L40.397,83.674L40.629,83.695L40.861,83.714L41.093,83.732L41.326,83.748L41.559,83.763L41.793,83.776L42.027,83.788L42.262,83.798L42.496,83.807L42.732,83.814L42.967,83.819L43.203,83.823L43.439,83.825L43.676,83.826L43.913,83.825L44.149,83.823L44.385,83.819L44.621,83.814L44.856,83.807L45.091,83.798L45.325,83.788L45.559,83.776L45.793,83.763L46.026,83.748L46.259,83.732L46.491,83.714L46.723,83.695L46.955,83.674L47.186,83.652L47.417,83.628L47.647,83.603L47.877,83.576L48.106,83.548L48.335,83.518L48.564,83.487L48.792,83.455L49.02,83.42L49.247,83.385L49.473,83.348L49.7,83.309L49.926,83.269L50.151,83.228L50.376,83.185L50.6,83.141L50.824,83.095L51.048,83.048L51.27,83L51.493,82.95L51.715,82.898L51.936,82.845L52.157,82.791L52.378,82.736L52.597,82.679L52.817,82.62L53.036,82.561L53.254,82.5L53.472,82.437L53.689,82.373L53.906,82.308L54.122,82.242L54.338,82.174L54.553,82.104L54.767,82.034L54.981,81.962L55.194,81.889L55.407,81.814L55.619,81.738L55.831,81.661L56.042,81.582L56.253,81.502L56.463,81.421L56.672,81.338L56.881,81.255L57.089,81.17L57.296,81.083L57.503,80.995L57.709,80.906L57.915,80.816L58.12,80.725L58.324,80.632L58.528,80.538L58.731,80.442L58.934,80.346L59.135,80.248L59.336,80.149L59.537,80.049L59.737,79.947L59.936,79.844L60.134,79.74L60.332,79.635L60.529,79.529L60.726,79.421L60.922,79.312L61.117,79.202L61.311,79.091L61.505,78.978L61.698,78.864L61.89,78.75L62.081,78.633L62.272,78.516L62.462,78.398L62.652,78.278L62.84,78.158L63.028,78.036L63.215,77.913L63.402,77.788L63.587,77.663L63.772,77.537L63.956,77.409L64.139,77.28L64.322,77.15L64.504,77.019L64.685,76.887L64.865,76.754L65.044,76.619L65.223,76.484L65.401,76.347L65.578,76.21L65.754,76.071L65.93,75.931L66.104,75.79L66.278,75.648L66.451,75.505L66.623,75.361L66.794,75.216L66.965,75.07L67.134,74.922L67.303,74.774L67.471,74.625L67.638,74.474L67.804,74.323L67.969,74.17L68.134,74.017L68.297,73.862L68.46,73.707L68.622,73.55L68.782,73.392L68.942,73.234L69.101,73.074L69.26,72.914L69.417,72.752L69.573,72.59L69.729,72.426L69.883,72.262L70.037,72.096L70.189,71.93L70.341,71.762L70.492,71.594L70.641,71.425L70.79,71.255L70.938,71.083L71.085,70.911L71.231,70.738L71.376,70.564L71.52,70.389L71.663,70.214L71.805,70.037L71.946,69.859L72.086,69.681L72.225,69.501L72.363,69.321L72.5,69.14L72.636,68.958L72.771,68.775L72.905,68.591L73.038,68.406L73.169,68.221L73.3,68.035L73.43,67.847L73.559,67.659L73.687,67.47L73.813,67.28L73.939,67.09L74.063,66.898L74.187,66.706L74.309,66.513L74.43,66.319L74.551,66.124L74.67,65.929L74.788,65.732L74.905,65.535L75.02,65.337L75.135,65.139L75.249,64.939L75.361,64.739L75.472,64.538L75.583,64.336L75.692,64.133L75.8,63.93L75.907,63.726L76.012,63.521L76.117,63.316L76.22,63.109L76.322,62.902L76.423,62.694L76.523,62.486L76.622,62.277L76.72,62.067L76.816,61.856L76.911,61.645L77.005,61.433L77.098,61.22L77.189,61.006L77.28,60.792L77.369,60.577L77.457,60.362L77.544,60.146L77.629,59.929L77.713,59.711L77.796,59.493L77.878,59.274L77.959,59.055L78.038,58.835L78.116,58.614L78.193,58.393L78.269,58.171L78.343,57.948L78.416,57.725L78.488,57.501L78.558,57.276L78.627,57.051L78.695,56.826L78.762,56.599L78.827,56.372L78.891,56.145L78.954,55.917L79.015,55.688L79.075,55.459L79.134,55.229L79.192,54.999L79.248,54.768L79.303,54.536L79.356,54.304L79.408,54.072L79.459,53.839L79.508,53.605L79.556,53.371L79.603,53.136L79.648,52.901L79.692,52.665L79.735,52.429L79.776,52.192L79.816,51.955L79.854,51.717L79.892,51.479L79.927,51.24L79.961,51L79.994,50.761L80.026,50.52L80.056,50.28L80.084,50.039L80.112,49.797L80.137,49.555L80.162,49.312L80.185,49.069L80.206,48.826L80.226,48.582L80.245,48.337L80.262,48.092L80.277,47.847L80.291,47.601L80.304,47.355L80.315,47.109L80.325,46.862L80.333,46.615L80.34,46.367L80.345,46.119L80.349,45.87L80.351,45.621L80.352,45.372L80.351,45.123L80.349,44.874L80.345,44.625L80.34,44.377L80.333,44.129L80.325,43.882L80.315,43.635L80.304,43.388L80.291,43.142L80.277,42.897L80.262,42.651L80.245,42.407L80.226,42.162L80.206,41.918L80.185,41.675L80.162,41.432L80.137,41.189L80.112,40.947L80.084,40.705L80.056,40.464L80.026,40.223L79.994,39.983L79.961,39.743L79.927,39.504L79.892,39.265L79.854,39.027L79.816,38.789L79.776,38.552L79.735,38.315L79.692,38.079L79.648,37.843L79.603,37.608L79.556,37.373L79.508,37.139L79.459,36.905L79.408,36.672L79.356,36.439L79.303,36.207L79.248,35.976L79.192,35.745L79.134,35.515L79.075,35.285L79.015,35.055L78.954,34.827L78.891,34.599L78.827,34.371L78.762,34.144L78.695,33.918L78.627,33.692L78.558,33.467L78.488,33.243L78.416,33.019L78.343,32.796L78.269,32.573L78.193,32.351L78.116,32.13L78.038,31.909L77.959,31.689L77.878,31.469L77.796,31.25L77.713,31.032L77.629,30.815L77.544,30.598L77.457,30.382L77.369,30.166L77.28,29.951L77.189,29.737L77.098,29.524L77.005,29.311L76.911,29.099L76.816,28.888L76.72,28.677L76.622,28.467L76.523,28.258L76.423,28.049L76.322,27.842L76.22,27.635L76.117,27.428L76.012,27.223L75.907,27.018L75.8,26.814L75.692,26.61L75.583,26.408L75.472,26.206L75.361,26.005L75.249,25.805L75.135,25.605L75.02,25.406L74.905,25.209L74.788,25.011L74.67,24.815L74.551,24.62L74.43,24.425L74.309,24.231L74.187,24.038L74.063,23.845L73.939,23.654L73.813,23.463L73.687,23.274L73.559,23.085L73.43,22.897L73.3,22.709L73.169,22.523L73.038,22.337L72.905,22.153L72.771,21.969L72.636,21.786L72.5,21.604L72.363,21.423L72.225,21.242L72.086,21.063L71.946,20.884L71.805,20.707L71.663,20.53L71.52,20.354L71.376,20.179L71.231,20.005L71.085,19.832L70.938,19.66L70.79,19.489L70.641,19.319L70.492,19.15L70.341,18.981L70.189,18.814L70.037,18.648L69.883,18.482L69.729,18.318L69.573,18.154L69.417,17.992L69.26,17.83L69.101,17.669L68.942,17.51L68.782,17.351L68.622,17.194L68.46,17.037L68.297,16.882L68.134,16.727L67.969,16.574L67.804,16.421L67.638,16.27L67.471,16.119L67.303,15.97L67.134,15.821L66.965,15.674L66.794,15.528L66.623,15.383L66.451,15.239L66.278,15.095L66.104,14.953L65.93,14.813L65.754,14.673L65.578,14.534L65.401,14.396L65.223,14.26L65.044,14.124L64.865,13.99L64.685,13.857L64.504,13.725L64.322,13.594L64.139,13.464L63.956,13.335L63.772,13.207L63.587,13.081L63.402,12.955L63.215,12.831L63.028,12.708L62.84,12.586L62.652,12.466L62.462,12.346L62.272,12.228L62.081,12.11L61.89,11.994L61.698,11.879L61.505,11.766L61.311,11.653L61.117,11.542L60.922,11.432L60.726,11.323L60.529,11.215L60.332,11.109L60.134,11.004L59.936,10.899L59.737,10.797L59.537,10.695L59.336,10.595L59.135,10.496L58.934,10.398L58.731,10.301L58.528,10.206L58.324,10.112L58.12,10.019L57.915,9.928L57.709,9.837L57.503,9.748L57.296,9.661L57.089,9.574L56.881,9.489L56.672,9.405L56.463,9.323L56.253,9.242L56.042,9.162L55.831,9.083L55.619,9.006L55.407,8.93L55.194,8.855L54.981,8.782L54.767,8.71L54.553,8.639L54.338,8.57L54.122,8.502L53.906,8.436L53.689,8.37L53.472,8.307L53.254,8.244L53.036,8.183L52.817,8.123L52.597,8.065L52.378,8.008L52.157,7.952L51.936,7.898L51.715,7.846L51.493,7.794L51.27,7.744L51.048,7.696L50.824,7.649L50.6,7.603L50.376,7.559L50.151,7.516L49.926,7.474L49.7,7.435L49.473,7.396L49.247,7.359L49.02,7.323L48.792,7.289L48.564,7.257L48.335,7.225L48.106,7.196L47.877,7.167L47.647,7.141L47.417,7.115L47.186,7.092L46.955,7.069L46.723,7.049L46.491,7.029L46.259,7.012L46.026,6.995L45.793,6.981L45.559,6.967L45.325,6.956L45.091,6.946L44.856,6.937L44.621,6.93L44.385,6.925L44.149,6.921L43.913,6.918L43.676,6.918L43.439,6.918Z" style="fill:rgb(89,74,56);"/>
        </g>
        <g id="Oval-1-Copy" transform="matrix(0.867517,0,0,0.867517,7.18696,5.70813)">
            <path d="M63.3,29.444C62.388,28.187 61.371,27.018 60.262,25.951C55.774,21.635 49.784,19 43.207,19C29.285,19 18,30.804 18,45.366C18,59.927 29.285,71.731 43.207,71.731C51.377,71.731 58.639,67.666 63.245,61.363" style="fill:rgb(142,193,109);"/>
            <path d="M43.411,10.932L43.616,10.934L43.82,10.937L44.024,10.941L44.227,10.947L44.431,10.954L44.634,10.962L44.837,10.972L45.039,10.983L45.242,10.995L45.444,11.008L45.646,11.022L45.847,11.038L46.048,11.055L46.249,11.073L46.45,11.093L46.65,11.114L46.85,11.136L47.05,11.159L47.249,11.183L47.448,11.209L47.647,11.236L47.845,11.264L48.043,11.293L48.24,11.323L48.438,11.355L48.635,11.388L48.831,11.422L49.027,11.457L49.223,11.494L49.418,11.531L49.613,11.57L49.808,11.61L50.002,11.651L50.196,11.693L50.389,11.737L50.582,11.781L50.775,11.827L50.967,11.874L51.159,11.922L51.35,11.971L51.541,12.021L51.731,12.073L51.921,12.125L52.11,12.179L52.299,12.234L52.488,12.29L52.676,12.347L52.863,12.405L53.05,12.464L53.237,12.525L53.423,12.586L53.609,12.649L53.794,12.712L53.979,12.777L54.163,12.843L54.346,12.91L54.53,12.977L54.712,13.046L54.894,13.116L55.076,13.188L55.257,13.26L55.437,13.333L55.617,13.407L55.797,13.482L55.976,13.559L56.154,13.636L56.332,13.714L56.509,13.794L56.685,13.874L56.861,13.956L57.037,14.038L57.212,14.121L57.397,14.211L57.733,14.377L58.078,14.553L58.42,14.733L58.76,14.917L59.098,15.104L59.433,15.295L59.765,15.49L60.095,15.689L60.423,15.891L60.748,16.098L61.07,16.307L61.39,16.521L61.707,16.738L62.021,16.959L62.333,17.183L62.642,17.41L62.948,17.641L63.252,17.876L63.552,18.114L63.85,18.355L64.145,18.599L64.438,18.847L64.727,19.098L65.013,19.353L65.297,19.61L65.578,19.871L65.855,20.135L66.126,20.399L66.395,20.666L66.66,20.936L66.923,21.209L67.182,21.485L67.439,21.764L67.692,22.045L67.943,22.33L68.19,22.617L68.434,22.907L68.675,23.2L68.913,23.496L69.147,23.794L69.379,24.095L69.607,24.399L69.805,24.67L70.039,25.005L70.255,25.352L70.453,25.71L70.633,26.077L70.794,26.453L70.936,26.836L71.058,27.226L71.161,27.622L71.243,28.022L71.305,28.427L71.346,28.833L71.366,29.242L71.366,29.65L71.346,30.059L71.304,30.465L71.242,30.87L71.16,31.27L71.057,31.666L70.935,32.056L70.792,32.439L70.631,32.815L70.451,33.182L70.252,33.539L70.036,33.886L69.802,34.221L69.552,34.545L69.286,34.855L69.004,35.151L68.708,35.433L68.397,35.699L68.074,35.949L67.738,36.182L67.391,36.398L67.034,36.597L66.667,36.777L66.291,36.938L65.908,37.08L65.518,37.202L65.122,37.304L64.721,37.387L64.317,37.448L63.91,37.49L63.502,37.51L63.093,37.51L62.685,37.489L62.278,37.448L61.874,37.386L61.474,37.303L61.078,37.201L60.688,37.078L60.305,36.936L59.929,36.775L59.562,36.595L59.205,36.396L58.858,36.18L58.522,35.946L58.199,35.696L57.889,35.429L57.593,35.148L57.311,34.851L57.045,34.541L56.795,34.218L56.649,34.019L56.528,33.857L56.405,33.698L56.281,33.539L56.155,33.383L56.027,33.228L55.898,33.074L55.767,32.922L55.635,32.772L55.501,32.624L55.366,32.477L55.23,32.331L55.092,32.188L54.952,32.046L54.811,31.906L54.669,31.768L54.524,31.629L54.377,31.493L54.229,31.358L54.079,31.226L53.929,31.095L53.776,30.966L53.623,30.839L53.468,30.713L53.312,30.59L53.155,30.469L52.997,30.349L52.837,30.232L52.677,30.116L52.515,30.003L52.352,29.891L52.187,29.781L52.022,29.674L51.856,29.568L51.688,29.465L51.52,29.363L51.35,29.263L51.179,29.166L51.008,29.071L50.835,28.977L50.661,28.886L50.486,28.797L50.3,28.705L50.223,28.667L50.134,28.625L50.046,28.584L49.957,28.543L49.868,28.502L49.778,28.462L49.689,28.422L49.599,28.383L49.509,28.345L49.419,28.307L49.328,28.27L49.237,28.233L49.147,28.197L49.055,28.161L48.964,28.126L48.872,28.091L48.781,28.057L48.689,28.024L48.596,27.991L48.504,27.959L48.411,27.927L48.318,27.895L48.225,27.865L48.132,27.835L48.038,27.805L47.945,27.776L47.851,27.747L47.757,27.72L47.662,27.692L47.568,27.665L47.473,27.639L47.378,27.614L47.283,27.588L47.188,27.564L47.092,27.54L46.996,27.517L46.9,27.494L46.804,27.472L46.708,27.45L46.611,27.429L46.514,27.408L46.418,27.388L46.32,27.369L46.223,27.35L46.125,27.332L46.028,27.315L45.93,27.298L45.831,27.281L45.733,27.266L45.634,27.25L45.536,27.236L45.437,27.222L45.337,27.208L45.238,27.196L45.138,27.183L45.039,27.172L44.939,27.161L44.838,27.15L44.738,27.141L44.637,27.131L44.536,27.123L44.435,27.115L44.334,27.108L44.233,27.101L44.131,27.095L44.029,27.09L43.927,27.085L43.825,27.081L43.722,27.077L43.62,27.074L43.517,27.072L43.414,27.07L43.31,27.069L43.207,27.069L43.097,27.069L42.988,27.07L42.879,27.072L42.77,27.075L42.661,27.078L42.553,27.082L42.445,27.087L42.337,27.092L42.229,27.098L42.122,27.105L42.015,27.112L41.908,27.12L41.801,27.129L41.694,27.139L41.588,27.149L41.482,27.16L41.376,27.172L41.27,27.184L41.165,27.197L41.06,27.21L40.955,27.225L40.85,27.24L40.746,27.255L40.641,27.272L40.537,27.289L40.434,27.306L40.33,27.325L40.227,27.344L40.124,27.363L40.021,27.383L39.918,27.404L39.816,27.426L39.713,27.448L39.611,27.471L39.51,27.495L39.408,27.519L39.307,27.544L39.206,27.569L39.105,27.595L39.004,27.622L38.904,27.649L38.804,27.677L38.704,27.706L38.604,27.735L38.504,27.765L38.405,27.796L38.306,27.827L38.207,27.859L38.109,27.891L38.011,27.924L37.912,27.958L37.815,27.992L37.717,28.027L37.62,28.062L37.523,28.098L37.426,28.135L37.329,28.173L37.233,28.21L37.137,28.249L37.041,28.288L36.945,28.328L36.85,28.368L36.755,28.409L36.66,28.451L36.565,28.493L36.471,28.536L36.377,28.58L36.283,28.624L36.189,28.668L36.096,28.713L36.003,28.759L35.91,28.806L35.818,28.853L35.726,28.9L35.634,28.948L35.542,28.997L35.451,29.046L35.359,29.096L35.269,29.147L35.178,29.198L35.088,29.249L34.998,29.302L34.908,29.354L34.819,29.408L34.73,29.462L34.641,29.516L34.552,29.571L34.464,29.627L34.376,29.683L34.289,29.74L34.202,29.797L34.115,29.855L34.028,29.914L33.942,29.973L33.856,30.032L33.77,30.093L33.685,30.153L33.6,30.215L33.515,30.276L33.431,30.339L33.347,30.402L33.263,30.465L33.18,30.529L33.097,30.593L33.014,30.659L32.932,30.724L32.85,30.79L32.768,30.857L32.687,30.924L32.606,30.992L32.526,31.06L32.446,31.129L32.366,31.198L32.286,31.268L32.207,31.338L32.129,31.409L32.05,31.48L31.973,31.552L31.895,31.625L31.818,31.697L31.741,31.771L31.665,31.845L31.589,31.919L31.513,31.994L31.438,32.069L31.364,32.145L31.289,32.222L31.215,32.298L31.142,32.376L31.069,32.454L30.996,32.532L30.924,32.611L30.852,32.69L30.781,32.77L30.71,32.85L30.639,32.931L30.569,33.012L30.499,33.093L30.43,33.175L30.361,33.258L30.293,33.341L30.225,33.424L30.158,33.508L30.091,33.593L30.024,33.678L29.958,33.763L29.893,33.849L29.827,33.935L29.763,34.021L29.699,34.108L29.635,34.196L29.572,34.284L29.509,34.372L29.447,34.461L29.385,34.55L29.323,34.64L29.263,34.73L29.202,34.82L29.142,34.911L29.083,35.002L29.024,35.094L28.966,35.186L28.908,35.279L28.851,35.372L28.794,35.465L28.738,35.559L28.682,35.653L28.626,35.747L28.572,35.842L28.517,35.937L28.464,36.033L28.411,36.129L28.358,36.226L28.306,36.322L28.254,36.42L28.203,36.517L28.153,36.615L28.103,36.714L28.053,36.812L28.004,36.911L27.956,37.011L27.908,37.111L27.861,37.211L27.814,37.311L27.768,37.412L27.723,37.513L27.678,37.615L27.633,37.717L27.59,37.819L27.546,37.922L27.504,38.025L27.461,38.128L27.42,38.232L27.379,38.336L27.339,38.44L27.299,38.544L27.26,38.649L27.221,38.755L27.183,38.86L27.145,38.966L27.109,39.072L27.072,39.179L27.037,39.286L27.002,39.393L26.967,39.501L26.933,39.609L26.9,39.717L26.868,39.825L26.836,39.934L26.804,40.043L26.773,40.152L26.743,40.262L26.714,40.372L26.685,40.482L26.657,40.593L26.629,40.704L26.602,40.815L26.576,40.926L26.55,41.038L26.525,41.15L26.5,41.263L26.477,41.375L26.454,41.488L26.431,41.601L26.409,41.715L26.388,41.829L26.367,41.943L26.348,42.057L26.328,42.171L26.31,42.286L26.292,42.401L26.275,42.517L26.258,42.632L26.242,42.748L26.227,42.865L26.213,42.981L26.199,43.098L26.186,43.215L26.173,43.332L26.161,43.45L26.15,43.568L26.14,43.686L26.13,43.804L26.121,43.923L26.113,44.041L26.105,44.161L26.099,44.28L26.092,44.4L26.087,44.519L26.082,44.64L26.078,44.76L26.075,44.881L26.072,45.002L26.071,45.123L26.069,45.244L26.069,45.366L26.069,45.487L26.071,45.609L26.072,45.73L26.075,45.851L26.078,45.972L26.082,46.092L26.087,46.212L26.092,46.332L26.099,46.452L26.105,46.571L26.113,46.69L26.121,46.809L26.13,46.927L26.14,47.046L26.15,47.164L26.161,47.282L26.173,47.399L26.186,47.517L26.199,47.634L26.213,47.75L26.227,47.867L26.242,47.983L26.258,48.099L26.275,48.215L26.292,48.33L26.31,48.445L26.328,48.56L26.348,48.675L26.367,48.789L26.388,48.903L26.409,49.017L26.431,49.13L26.454,49.243L26.477,49.356L26.5,49.469L26.525,49.581L26.55,49.693L26.576,49.805L26.602,49.916L26.629,50.028L26.657,50.138L26.685,50.249L26.714,50.359L26.743,50.469L26.773,50.579L26.804,50.688L26.836,50.797L26.868,50.906L26.9,51.015L26.933,51.123L26.967,51.231L27.002,51.338L27.037,51.445L27.072,51.552L27.109,51.659L27.145,51.765L27.183,51.871L27.221,51.977L27.26,52.082L27.299,52.187L27.339,52.292L27.379,52.396L27.42,52.5L27.461,52.603L27.504,52.707L27.546,52.81L27.59,52.912L27.633,53.015L27.678,53.117L27.723,53.218L27.768,53.319L27.814,53.42L27.861,53.521L27.908,53.621L27.956,53.721L28.004,53.82L28.053,53.919L28.103,54.018L28.153,54.116L28.203,54.214L28.254,54.312L28.306,54.409L28.358,54.506L28.411,54.602L28.464,54.698L28.517,54.794L28.572,54.889L28.627,54.984L28.682,55.079L28.738,55.173L28.794,55.267L28.851,55.36L28.908,55.453L28.966,55.545L29.024,55.637L29.083,55.729L29.142,55.82L29.202,55.911L29.263,56.002L29.323,56.092L29.385,56.181L29.447,56.271L29.509,56.359L29.572,56.448L29.635,56.536L29.699,56.623L29.763,56.71L29.827,56.797L29.893,56.883L29.958,56.969L30.024,57.054L30.091,57.139L30.158,57.223L30.225,57.307L30.293,57.39L30.361,57.474L30.43,57.556L30.499,57.638L30.569,57.72L30.639,57.801L30.71,57.882L30.781,57.962L30.852,58.042L30.924,58.121L30.996,58.2L31.069,58.278L31.142,58.356L31.215,58.433L31.289,58.51L31.364,58.586L31.438,58.662L31.513,58.737L31.589,58.812L31.665,58.887L31.741,58.961L31.818,59.034L31.895,59.107L31.973,59.179L32.05,59.251L32.129,59.322L32.207,59.393L32.286,59.464L32.366,59.533L32.446,59.603L32.526,59.671L32.606,59.74L32.687,59.807L32.768,59.875L32.85,59.941L32.932,60.007L33.014,60.073L33.097,60.138L33.18,60.202L33.263,60.266L33.347,60.33L33.431,60.393L33.515,60.455L33.6,60.517L33.685,60.578L33.77,60.639L33.856,60.699L33.942,60.759L34.028,60.818L34.115,60.876L34.202,60.934L34.289,60.991L34.376,61.048L34.464,61.104L34.552,61.16L34.641,61.215L34.73,61.27L34.819,61.324L34.908,61.377L34.998,61.43L35.088,61.482L35.178,61.534L35.269,61.585L35.359,61.635L35.451,61.685L35.542,61.734L35.634,61.783L35.725,61.831L35.818,61.879L35.91,61.926L36.003,61.972L36.096,62.018L36.189,62.063L36.283,62.108L36.377,62.152L36.471,62.195L36.565,62.238L36.66,62.28L36.755,62.322L36.85,62.363L36.945,62.403L37.041,62.443L37.137,62.482L37.233,62.521L37.329,62.559L37.426,62.596L37.523,62.633L37.62,62.669L37.717,62.705L37.815,62.74L37.912,62.774L38.01,62.807L38.109,62.84L38.207,62.873L38.306,62.905L38.405,62.936L38.504,62.966L38.604,62.996L38.704,63.026L38.804,63.054L38.904,63.082L39.004,63.11L39.105,63.136L39.206,63.162L39.307,63.188L39.408,63.213L39.51,63.237L39.611,63.26L39.713,63.283L39.816,63.305L39.918,63.327L40.021,63.348L40.124,63.368L40.227,63.388L40.33,63.407L40.434,63.425L40.537,63.443L40.641,63.46L40.746,63.476L40.85,63.492L40.955,63.507L41.06,63.521L41.165,63.535L41.27,63.548L41.376,63.56L41.482,63.571L41.588,63.582L41.694,63.593L41.801,63.602L41.908,63.611L42.015,63.619L42.122,63.627L42.229,63.633L42.337,63.639L42.445,63.645L42.553,63.649L42.661,63.653L42.77,63.657L42.879,63.659L42.988,63.661L43.097,63.662L43.205,63.662L43.335,63.662L43.464,63.66L43.592,63.658L43.719,63.654L43.846,63.65L43.973,63.645L44.1,63.638L44.226,63.631L44.352,63.622L44.478,63.613L44.603,63.603L44.728,63.592L44.853,63.58L44.978,63.566L45.102,63.552L45.225,63.537L45.349,63.522L45.472,63.505L45.595,63.487L45.717,63.468L45.84,63.449L45.962,63.428L46.083,63.407L46.204,63.385L46.325,63.361L46.446,63.337L46.566,63.312L46.687,63.286L46.806,63.259L46.926,63.232L47.045,63.203L47.164,63.174L47.282,63.143L47.4,63.112L47.518,63.08L47.636,63.047L47.753,63.013L47.87,62.978L47.986,62.943L48.102,62.906L48.218,62.869L48.334,62.831L48.449,62.792L48.564,62.752L48.679,62.711L48.793,62.669L48.907,62.627L49.021,62.584L49.134,62.539L49.247,62.494L49.36,62.449L49.472,62.402L49.584,62.354L49.695,62.306L49.807,62.257L49.917,62.207L50.028,62.156L50.138,62.104L50.248,62.052L50.357,61.999L50.466,61.945L50.575,61.89L50.683,61.834L50.791,61.777L50.899,61.72L51.006,61.662L51.112,61.603L51.219,61.543L51.325,61.482L51.43,61.421L51.536,61.359L51.64,61.296L51.745,61.232L51.849,61.168L51.952,61.103L52.055,61.036L52.158,60.97L52.26,60.902L52.362,60.834L52.463,60.764L52.564,60.695L52.665,60.624L52.765,60.552L52.864,60.48L52.963,60.407L53.062,60.333L53.16,60.259L53.258,60.184L53.355,60.108L53.452,60.031L53.548,59.954L53.644,59.876L53.739,59.797L53.834,59.717L53.929,59.637L54.022,59.556L54.116,59.474L54.209,59.391L54.301,59.308L54.392,59.224L54.484,59.14L54.574,59.054L54.664,58.968L54.754,58.882L54.843,58.794L54.932,58.706L55.02,58.617L55.107,58.528L55.194,58.438L55.28,58.347L55.366,58.255L55.451,58.163L55.535,58.071L55.619,57.977L55.703,57.883L55.785,57.788L55.868,57.693L55.949,57.597L56.03,57.5L56.11,57.403L56.19,57.305L56.269,57.206L56.348,57.107L56.425,57.007L56.503,56.907L56.579,56.806L56.655,56.704L56.747,56.579L56.998,56.256L57.264,55.947L57.546,55.651L57.843,55.369L58.153,55.103L58.477,54.854L58.813,54.62L59.16,54.405L59.518,54.207L59.885,54.027L60.261,53.866L60.644,53.725L61.035,53.603L61.431,53.501L61.831,53.419L62.235,53.357L62.642,53.317L63.05,53.296L63.459,53.297L63.867,53.318L64.274,53.36L64.678,53.422L65.078,53.505L65.474,53.608L65.864,53.731L66.247,53.873L66.623,54.035L66.99,54.215L67.347,54.414L67.693,54.631L68.029,54.865L68.352,55.115L68.662,55.382L68.958,55.664L69.239,55.961L69.505,56.271L69.755,56.595L69.988,56.931L70.204,57.278L70.402,57.636L70.581,58.003L70.742,58.379L70.884,58.762L71.005,59.152L71.108,59.548L71.189,59.949L71.251,60.353L71.292,60.76L71.312,61.168L71.311,61.577L71.29,61.985L71.248,62.392L71.186,62.796L71.103,63.196L71,63.592L70.877,63.982L70.735,64.365L70.573,64.741L70.393,65.107L70.194,65.465L69.977,65.811L69.743,66.147L69.618,66.316L69.475,66.508L69.331,66.698L69.186,66.887L69.039,67.075L68.891,67.263L68.742,67.449L68.591,67.633L68.44,67.817L68.287,68L68.132,68.182L67.977,68.362L67.82,68.541L67.662,68.72L67.503,68.897L67.343,69.073L67.181,69.248L67.019,69.421L66.855,69.594L66.69,69.765L66.523,69.936L66.356,70.105L66.187,70.272L66.017,70.439L65.846,70.605L65.674,70.769L65.501,70.932L65.327,71.094L65.151,71.254L64.974,71.414L64.797,71.572L64.618,71.728L64.438,71.884L64.256,72.038L64.074,72.191L63.891,72.343L63.706,72.494L63.521,72.643L63.334,72.791L63.146,72.938L62.958,73.083L62.768,73.227L62.577,73.369L62.385,73.511L62.192,73.651L61.998,73.789L61.803,73.926L61.607,74.062L61.41,74.197L61.211,74.33L61.012,74.462L60.812,74.592L60.611,74.721L60.409,74.848L60.206,74.975L60.002,75.099L59.797,75.222L59.59,75.344L59.383,75.465L59.175,75.583L58.967,75.701L58.757,75.817L58.546,75.931L58.334,76.044L58.121,76.156L57.908,76.266L57.693,76.374L57.478,76.481L57.262,76.586L57.044,76.69L56.826,76.792L56.607,76.893L56.388,76.992L56.167,77.09L55.945,77.186L55.723,77.28L55.5,77.373L55.276,77.464L55.051,77.554L54.825,77.642L54.599,77.728L54.371,77.813L54.143,77.896L53.915,77.977L53.685,78.057L53.454,78.135L53.223,78.211L52.991,78.286L52.759,78.359L52.525,78.43L52.291,78.5L52.056,78.568L51.821,78.634L51.585,78.698L51.348,78.761L51.11,78.822L50.872,78.881L50.633,78.938L50.393,78.994L50.153,79.048L49.912,79.1L49.671,79.15L49.429,79.198L49.186,79.245L48.943,79.29L48.699,79.333L48.454,79.374L48.209,79.413L47.964,79.45L47.718,79.486L47.471,79.52L47.224,79.551L46.976,79.581L46.728,79.609L46.479,79.636L46.23,79.66L45.981,79.682L45.73,79.703L45.48,79.721L45.229,79.738L44.978,79.752L44.726,79.765L44.474,79.776L44.221,79.785L43.968,79.792L43.715,79.797L43.461,79.8L43.209,79.8L42.99,79.8L42.774,79.798L42.558,79.794L42.343,79.789L42.127,79.783L41.912,79.775L41.697,79.766L41.482,79.755L41.268,79.743L41.054,79.729L40.841,79.714L40.627,79.698L40.414,79.681L40.202,79.661L39.989,79.641L39.777,79.619L39.566,79.596L39.354,79.571L39.143,79.546L38.933,79.518L38.723,79.49L38.513,79.46L38.304,79.428L38.095,79.396L37.886,79.362L37.678,79.326L37.47,79.289L37.263,79.251L37.056,79.212L36.85,79.171L36.644,79.129L36.438,79.086L36.233,79.042L36.028,78.996L35.824,78.948L35.62,78.9L35.417,78.85L35.214,78.799L35.012,78.747L34.81,78.693L34.609,78.638L34.408,78.582L34.208,78.525L34.008,78.466L33.809,78.406L33.61,78.345L33.412,78.283L33.215,78.219L33.018,78.154L32.821,78.088L32.625,78.021L32.43,77.953L32.235,77.883L32.041,77.812L31.847,77.74L31.654,77.667L31.461,77.592L31.269,77.517L31.078,77.44L30.888,77.362L30.697,77.283L30.508,77.203L30.319,77.121L30.131,77.039L29.943,76.955L29.756,76.87L29.569,76.784L29.384,76.697L29.199,76.609L29.014,76.519L28.83,76.429L28.647,76.337L28.464,76.244L28.283,76.151L28.101,76.056L27.921,75.96L27.741,75.863L27.562,75.764L27.383,75.665L27.205,75.565L27.028,75.463L26.852,75.361L26.676,75.258L26.501,75.153L26.327,75.047L26.153,74.941L25.98,74.833L25.808,74.724L25.637,74.615L25.466,74.504L25.296,74.392L25.127,74.279L24.958,74.166L24.79,74.051L24.623,73.935L24.457,73.818L24.291,73.701L24.126,73.582L23.962,73.462L23.799,73.341L23.637,73.22L23.475,73.097L23.314,72.974L23.154,72.849L22.994,72.724L22.836,72.597L22.678,72.47L22.521,72.341L22.364,72.212L22.209,72.082L22.054,71.951L21.9,71.819L21.747,71.686L21.595,71.552L21.444,71.417L21.293,71.282L21.143,71.145L20.994,71.008L20.846,70.869L20.699,70.73L20.552,70.59L20.407,70.449L20.262,70.307L20.118,70.165L19.975,70.021L19.832,69.877L19.691,69.731L19.55,69.585L19.411,69.438L19.272,69.29L19.134,69.142L18.997,68.992L18.861,68.842L18.725,68.691L18.591,68.539L18.457,68.386L18.325,68.232L18.193,68.078L18.062,67.923L17.932,67.767L17.803,67.61L17.675,67.452L17.548,67.294L17.421,67.135L17.296,66.975L17.171,66.814L17.048,66.653L16.925,66.49L16.803,66.327L16.683,66.164L16.563,65.999L16.444,65.834L16.326,65.668L16.209,65.501L16.093,65.333L15.978,65.165L15.863,64.996L15.75,64.827L15.638,64.656L15.527,64.485L15.416,64.313L15.307,64.141L15.199,63.967L15.092,63.793L14.985,63.619L14.88,63.443L14.775,63.267L14.672,63.09L14.57,62.913L14.468,62.735L14.368,62.556L14.269,62.377L14.17,62.197L14.073,62.016L13.977,61.834L13.881,61.652L13.787,61.469L13.694,61.286L13.602,61.102L13.511,60.917L13.421,60.732L13.332,60.546L13.244,60.36L13.157,60.172L13.071,59.985L12.986,59.796L12.903,59.607L12.82,59.418L12.738,59.228L12.658,59.037L12.579,58.845L12.5,58.653L12.423,58.461L12.347,58.268L12.272,58.074L12.198,57.88L12.125,57.685L12.054,57.49L11.983,57.294L11.914,57.097L11.845,56.9L11.778,56.703L11.712,56.504L11.647,56.306L11.583,56.107L11.521,55.907L11.459,55.707L11.399,55.506L11.34,55.305L11.282,55.103L11.225,54.901L11.169,54.698L11.115,54.495L11.061,54.291L11.009,54.087L10.958,53.882L10.908,53.677L10.86,53.472L10.812,53.265L10.766,53.059L10.721,52.852L10.677,52.645L10.635,52.437L10.593,52.228L10.553,52.02L10.514,51.811L10.476,51.601L10.44,51.391L10.405,51.181L10.371,50.97L10.338,50.759L10.306,50.547L10.276,50.335L10.247,50.123L10.219,49.91L10.192,49.697L10.167,49.484L10.143,49.27L10.12,49.056L10.099,48.841L10.079,48.626L10.06,48.411L10.042,48.196L10.026,47.98L10.011,47.764L9.997,47.547L9.984,47.33L9.973,47.113L9.963,46.896L9.955,46.678L9.948,46.46L9.942,46.242L9.937,46.023L9.934,45.804L9.932,45.585L9.931,45.366L9.932,45.146L9.934,44.927L9.937,44.708L9.942,44.49L9.948,44.272L9.955,44.054L9.963,43.836L9.973,43.618L9.984,43.401L9.997,43.184L10.011,42.968L10.026,42.752L10.042,42.536L10.06,42.32L10.079,42.105L10.099,41.89L10.12,41.676L10.143,41.462L10.167,41.248L10.192,41.034L10.219,40.821L10.247,40.608L10.276,40.396L10.306,40.184L10.338,39.973L10.371,39.761L10.405,39.551L10.44,39.34L10.476,39.13L10.514,38.921L10.553,38.712L10.593,38.503L10.635,38.295L10.677,38.087L10.721,37.879L10.766,37.672L10.812,37.466L10.86,37.26L10.908,37.054L10.958,36.849L11.009,36.645L11.061,36.44L11.115,36.237L11.169,36.033L11.225,35.831L11.282,35.628L11.34,35.427L11.399,35.226L11.459,35.025L11.521,34.825L11.583,34.625L11.647,34.426L11.712,34.227L11.778,34.029L11.845,33.831L11.914,33.634L11.983,33.438L12.054,33.242L12.125,33.047L12.198,32.852L12.272,32.657L12.347,32.464L12.423,32.271L12.5,32.078L12.579,31.886L12.658,31.695L12.738,31.504L12.82,31.314L12.903,31.124L12.986,30.935L13.071,30.747L13.157,30.559L13.244,30.372L13.332,30.185L13.421,29.999L13.511,29.814L13.602,29.629L13.694,29.445L13.787,29.262L13.881,29.079L13.977,28.897L14.073,28.716L14.17,28.535L14.269,28.355L14.368,28.175L14.468,27.997L14.57,27.818L14.672,27.641L14.775,27.464L14.88,27.288L14.985,27.113L15.092,26.938L15.199,26.764L15.307,26.591L15.416,26.418L15.527,26.246L15.638,26.075L15.75,25.905L15.863,25.735L15.978,25.566L16.093,25.398L16.209,25.23L16.326,25.064L16.444,24.898L16.563,24.732L16.683,24.568L16.803,24.404L16.925,24.241L17.048,24.079L17.171,23.917L17.296,23.757L17.421,23.597L17.548,23.437L17.675,23.279L17.803,23.121L17.932,22.965L18.062,22.809L18.193,22.653L18.325,22.499L18.457,22.345L18.591,22.193L18.725,22.041L18.861,21.89L18.997,21.739L19.134,21.59L19.272,21.441L19.411,21.293L19.55,21.146L19.691,21L19.832,20.855L19.975,20.71L20.118,20.567L20.262,20.424L20.407,20.282L20.552,20.141L20.699,20.001L20.846,19.862L20.994,19.724L21.143,19.586L21.293,19.45L21.444,19.314L21.595,19.179L21.747,19.045L21.9,18.913L22.054,18.781L22.209,18.649L22.364,18.519L22.521,18.39L22.678,18.262L22.836,18.134L22.994,18.008L23.154,17.882L23.314,17.758L23.475,17.634L23.637,17.512L23.799,17.39L23.962,17.269L24.126,17.15L24.291,17.031L24.457,16.913L24.623,16.796L24.79,16.681L24.958,16.566L25.127,16.452L25.296,16.339L25.466,16.227L25.637,16.117L25.808,16.007L25.98,15.898L26.153,15.791L26.327,15.684L26.501,15.578L26.676,15.474L26.852,15.37L27.028,15.268L27.205,15.167L27.383,15.066L27.562,14.967L27.741,14.869L27.921,14.772L28.101,14.676L28.283,14.581L28.464,14.487L28.647,14.394L28.83,14.303L29.014,14.212L29.199,14.123L29.384,14.035L29.569,13.947L29.756,13.861L29.943,13.777L30.131,13.693L30.319,13.61L30.508,13.529L30.697,13.448L30.887,13.369L31.078,13.291L31.269,13.215L31.461,13.139L31.654,13.065L31.847,12.991L32.041,12.919L32.235,12.848L32.43,12.779L32.625,12.71L32.821,12.643L33.018,12.577L33.215,12.512L33.412,12.449L33.61,12.386L33.809,12.325L34.008,12.265L34.208,12.207L34.408,12.149L34.609,12.093L34.81,12.038L35.012,11.985L35.214,11.932L35.417,11.881L35.62,11.831L35.824,11.783L36.028,11.736L36.233,11.69L36.438,11.645L36.644,11.602L36.85,11.56L37.056,11.519L37.263,11.48L37.47,11.442L37.678,11.405L37.886,11.37L38.095,11.336L38.304,11.303L38.513,11.272L38.723,11.242L38.933,11.213L39.143,11.186L39.354,11.16L39.566,11.135L39.777,11.112L39.989,11.09L40.202,11.07L40.414,11.051L40.627,11.033L40.841,11.017L41.054,11.002L41.268,10.989L41.482,10.977L41.697,10.966L41.912,10.957L42.127,10.949L42.342,10.942L42.558,10.937L42.774,10.934L42.99,10.932L43.206,10.931L43.411,10.932Z" style="fill:rgb(89,74,55);"/>
        </g>
        <g id="Oval-3" transform="matrix(1,0,0,1,1,0)">
            <ellipse cx="43.361" cy="45.172" rx="6.75" ry="7.06" style="fill:rgb(89,74,56);"/>
        </g>
    </g>
</svg>
